ISO-10303-21;
HEADER;
/* Generated by software containing ST-Developer
 * from STEP Tools, Inc. (www.steptools.com) 
 */
/* OPTION: using custom renumber hook */

FILE_DESCRIPTION(
/* description */ ('STEP AP242 Edition 2',
'CAx-IF Rec.Pracs.---Representation and Presentation of Product Manufa
cturing Information (PMI)---4.0---2014-10-13',
'CAx-IF Rec.Pracs.---3D Tessellated Geometry---0.4---2014-09-14','2;1',
'CAx-IF Rec.Pracs.---User Defined Attributes---1.5---2016-08-15'),
/* implementation_level */ '2;1');

FILE_NAME(
/* name */ 'Assembly 1 - Part 2',
/* time_stamp */ '2026-09-03T17:07:39Z',
/* author */ (''),
/* organization */ (''),
/* preprocessor_version */ 'ST-DEVELOPER v20',
/* originating_system */ 'ONSHAPE BY PTC INC, 1.220',
/* authorisation */ '  ');

FILE_SCHEMA (('AP242_MANAGED_MODEL_BASED_3D_ENGINEERING_MIM_LF { 1 0 10303 442 3 1 4 }'));
ENDSEC;

DATA;
#10=SHAPE_REPRESENTATION_RELATIONSHIP('','',#745,#11);
#11=ADVANCED_BREP_SHAPE_REPRESENTATION('',(#743),#1115);
#12=B_SPLINE_CURVE_WITH_KNOTS('',3,(#1092,#1093,#1094,#1095),
 .UNSPECIFIED.,.F.,.F.,(4,4),(0.,0.0115652219392359),.UNSPECIFIED.);
#13=CIRCLE('',#750,0.00076047);
#14=CIRCLE('',#751,0.00076047);
#15=CYLINDRICAL_SURFACE('',#749,0.00076047);
#16=DRAUGHTING_PRE_DEFINED_COLOUR('black');
#17=ORIENTED_EDGE('',*,*,#195,.F.);
#18=ORIENTED_EDGE('',*,*,#196,.F.);
#19=ORIENTED_EDGE('',*,*,#197,.F.);
#20=ORIENTED_EDGE('',*,*,#198,.T.);
#21=ORIENTED_EDGE('',*,*,#199,.F.);
#22=ORIENTED_EDGE('',*,*,#200,.F.);
#23=ORIENTED_EDGE('',*,*,#201,.F.);
#24=ORIENTED_EDGE('',*,*,#202,.T.);
#25=ORIENTED_EDGE('',*,*,#203,.F.);
#26=ORIENTED_EDGE('',*,*,#204,.F.);
#27=ORIENTED_EDGE('',*,*,#205,.F.);
#28=ORIENTED_EDGE('',*,*,#200,.T.);
#29=ORIENTED_EDGE('',*,*,#206,.F.);
#30=ORIENTED_EDGE('',*,*,#207,.F.);
#31=ORIENTED_EDGE('',*,*,#208,.T.);
#32=ORIENTED_EDGE('',*,*,#209,.F.);
#33=ORIENTED_EDGE('',*,*,#210,.F.);
#34=ORIENTED_EDGE('',*,*,#204,.T.);
#35=ORIENTED_EDGE('',*,*,#211,.F.);
#36=ORIENTED_EDGE('',*,*,#212,.F.);
#37=ORIENTED_EDGE('',*,*,#213,.T.);
#38=ORIENTED_EDGE('',*,*,#214,.T.);
#39=ORIENTED_EDGE('',*,*,#215,.F.);
#40=ORIENTED_EDGE('',*,*,#216,.T.);
#41=ORIENTED_EDGE('',*,*,#217,.T.);
#42=ORIENTED_EDGE('',*,*,#218,.T.);
#43=ORIENTED_EDGE('',*,*,#219,.F.);
#44=ORIENTED_EDGE('',*,*,#220,.F.);
#45=ORIENTED_EDGE('',*,*,#221,.F.);
#46=ORIENTED_EDGE('',*,*,#220,.T.);
#47=ORIENTED_EDGE('',*,*,#222,.T.);
#48=ORIENTED_EDGE('',*,*,#223,.F.);
#49=ORIENTED_EDGE('',*,*,#224,.F.);
#50=ORIENTED_EDGE('',*,*,#225,.F.);
#51=ORIENTED_EDGE('',*,*,#226,.T.);
#52=ORIENTED_EDGE('',*,*,#227,.T.);
#53=ORIENTED_EDGE('',*,*,#228,.F.);
#54=ORIENTED_EDGE('',*,*,#223,.T.);
#55=ORIENTED_EDGE('',*,*,#229,.T.);
#56=ORIENTED_EDGE('',*,*,#230,.F.);
#57=ORIENTED_EDGE('',*,*,#231,.T.);
#58=ORIENTED_EDGE('',*,*,#232,.F.);
#59=ORIENTED_EDGE('',*,*,#233,.F.);
#60=ORIENTED_EDGE('',*,*,#234,.T.);
#61=ORIENTED_EDGE('',*,*,#235,.T.);
#62=ORIENTED_EDGE('',*,*,#236,.F.);
#63=ORIENTED_EDGE('',*,*,#237,.F.);
#64=ORIENTED_EDGE('',*,*,#236,.T.);
#65=ORIENTED_EDGE('',*,*,#238,.T.);
#66=ORIENTED_EDGE('',*,*,#198,.F.);
#67=ORIENTED_EDGE('',*,*,#239,.F.);
#68=ORIENTED_EDGE('',*,*,#196,.T.);
#69=ORIENTED_EDGE('',*,*,#240,.F.);
#70=ORIENTED_EDGE('',*,*,#234,.F.);
#71=ORIENTED_EDGE('',*,*,#241,.F.);
#72=ORIENTED_EDGE('',*,*,#209,.T.);
#73=ORIENTED_EDGE('',*,*,#242,.T.);
#74=ORIENTED_EDGE('',*,*,#243,.F.);
#75=ORIENTED_EDGE('',*,*,#244,.F.);
#76=ORIENTED_EDGE('',*,*,#243,.T.);
#77=ORIENTED_EDGE('',*,*,#245,.T.);
#78=ORIENTED_EDGE('',*,*,#246,.T.);
#79=ORIENTED_EDGE('',*,*,#247,.T.);
#80=ORIENTED_EDGE('',*,*,#248,.T.);
#81=ORIENTED_EDGE('',*,*,#202,.F.);
#82=ORIENTED_EDGE('',*,*,#249,.F.);
#83=ORIENTED_EDGE('',*,*,#250,.T.);
#84=ORIENTED_EDGE('',*,*,#251,.F.);
#85=ORIENTED_EDGE('',*,*,#252,.F.);
#86=ORIENTED_EDGE('',*,*,#253,.T.);
#87=ORIENTED_EDGE('',*,*,#254,.F.);
#88=ORIENTED_EDGE('',*,*,#255,.T.);
#89=ORIENTED_EDGE('',*,*,#256,.T.);
#90=ORIENTED_EDGE('',*,*,#257,.F.);
#91=ORIENTED_EDGE('',*,*,#252,.T.);
#92=ORIENTED_EDGE('',*,*,#258,.T.);
#93=ORIENTED_EDGE('',*,*,#259,.F.);
#94=ORIENTED_EDGE('',*,*,#260,.F.);
#95=ORIENTED_EDGE('',*,*,#259,.T.);
#96=ORIENTED_EDGE('',*,*,#261,.F.);
#97=ORIENTED_EDGE('',*,*,#262,.F.);
#98=ORIENTED_EDGE('',*,*,#263,.T.);
#99=ORIENTED_EDGE('',*,*,#264,.F.);
#100=ORIENTED_EDGE('',*,*,#265,.T.);
#101=ORIENTED_EDGE('',*,*,#266,.T.);
#102=ORIENTED_EDGE('',*,*,#267,.F.);
#103=ORIENTED_EDGE('',*,*,#262,.T.);
#104=ORIENTED_EDGE('',*,*,#268,.T.);
#105=ORIENTED_EDGE('',*,*,#250,.F.);
#106=ORIENTED_EDGE('',*,*,#269,.F.);
#107=ORIENTED_EDGE('',*,*,#232,.T.);
#108=ORIENTED_EDGE('',*,*,#270,.F.);
#109=ORIENTED_EDGE('',*,*,#216,.F.);
#110=ORIENTED_EDGE('',*,*,#271,.T.);
#111=ORIENTED_EDGE('',*,*,#253,.F.);
#112=ORIENTED_EDGE('',*,*,#260,.T.);
#113=ORIENTED_EDGE('',*,*,#263,.F.);
#114=ORIENTED_EDGE('',*,*,#269,.T.);
#115=ORIENTED_EDGE('',*,*,#237,.T.);
#116=ORIENTED_EDGE('',*,*,#239,.T.);
#117=ORIENTED_EDGE('',*,*,#197,.T.);
#118=ORIENTED_EDGE('',*,*,#244,.T.);
#119=ORIENTED_EDGE('',*,*,#249,.T.);
#120=ORIENTED_EDGE('',*,*,#201,.T.);
#121=ORIENTED_EDGE('',*,*,#205,.T.);
#122=ORIENTED_EDGE('',*,*,#210,.T.);
#123=ORIENTED_EDGE('',*,*,#241,.T.);
#124=ORIENTED_EDGE('',*,*,#221,.T.);
#125=ORIENTED_EDGE('',*,*,#224,.T.);
#126=ORIENTED_EDGE('',*,*,#233,.T.);
#127=ORIENTED_EDGE('',*,*,#271,.F.);
#128=ORIENTED_EDGE('',*,*,#203,.T.);
#129=ORIENTED_EDGE('',*,*,#199,.T.);
#130=ORIENTED_EDGE('',*,*,#248,.F.);
#131=ORIENTED_EDGE('',*,*,#272,.F.);
#132=ORIENTED_EDGE('',*,*,#222,.F.);
#133=ORIENTED_EDGE('',*,*,#273,.F.);
#134=ORIENTED_EDGE('',*,*,#211,.T.);
#135=ORIENTED_EDGE('',*,*,#219,.T.);
#136=ORIENTED_EDGE('',*,*,#218,.F.);
#137=ORIENTED_EDGE('',*,*,#274,.F.);
#138=ORIENTED_EDGE('',*,*,#207,.T.);
#139=ORIENTED_EDGE('',*,*,#206,.T.);
#140=ORIENTED_EDGE('',*,*,#273,.T.);
#141=ORIENTED_EDGE('',*,*,#272,.T.);
#142=ORIENTED_EDGE('',*,*,#247,.F.);
#143=ORIENTED_EDGE('',*,*,#246,.F.);
#144=ORIENTED_EDGE('',*,*,#275,.T.);
#145=ORIENTED_EDGE('',*,*,#230,.T.);
#146=ORIENTED_EDGE('',*,*,#229,.F.);
#147=ORIENTED_EDGE('',*,*,#276,.F.);
#148=ORIENTED_EDGE('',*,*,#266,.F.);
#149=ORIENTED_EDGE('',*,*,#277,.T.);
#150=ORIENTED_EDGE('',*,*,#254,.T.);
#151=ORIENTED_EDGE('',*,*,#278,.F.);
#152=ORIENTED_EDGE('',*,*,#256,.F.);
#153=ORIENTED_EDGE('',*,*,#279,.T.);
#154=ORIENTED_EDGE('',*,*,#264,.T.);
#155=ORIENTED_EDGE('',*,*,#255,.F.);
#156=ORIENTED_EDGE('',*,*,#277,.F.);
#157=ORIENTED_EDGE('',*,*,#265,.F.);
#158=ORIENTED_EDGE('',*,*,#279,.F.);
#159=ORIENTED_EDGE('',*,*,#257,.T.);
#160=ORIENTED_EDGE('',*,*,#278,.T.);
#161=ORIENTED_EDGE('',*,*,#267,.T.);
#162=ORIENTED_EDGE('',*,*,#276,.T.);
#163=ORIENTED_EDGE('',*,*,#280,.F.);
#164=ORIENTED_EDGE('',*,*,#227,.F.);
#165=ORIENTED_EDGE('',*,*,#281,.T.);
#166=ORIENTED_EDGE('',*,*,#212,.T.);
#167=ORIENTED_EDGE('',*,*,#282,.F.);
#168=ORIENTED_EDGE('',*,*,#214,.F.);
#169=ORIENTED_EDGE('',*,*,#283,.T.);
#170=ORIENTED_EDGE('',*,*,#225,.T.);
#171=ORIENTED_EDGE('',*,*,#213,.F.);
#172=ORIENTED_EDGE('',*,*,#281,.F.);
#173=ORIENTED_EDGE('',*,*,#226,.F.);
#174=ORIENTED_EDGE('',*,*,#283,.F.);
#175=ORIENTED_EDGE('',*,*,#215,.T.);
#176=ORIENTED_EDGE('',*,*,#282,.T.);
#177=ORIENTED_EDGE('',*,*,#228,.T.);
#178=ORIENTED_EDGE('',*,*,#280,.T.);
#179=ORIENTED_EDGE('',*,*,#235,.F.);
#180=ORIENTED_EDGE('',*,*,#240,.T.);
#181=ORIENTED_EDGE('',*,*,#195,.T.);
#182=ORIENTED_EDGE('',*,*,#238,.F.);
#183=ORIENTED_EDGE('',*,*,#245,.F.);
#184=ORIENTED_EDGE('',*,*,#242,.F.);
#185=ORIENTED_EDGE('',*,*,#208,.F.);
#186=ORIENTED_EDGE('',*,*,#274,.T.);
#187=ORIENTED_EDGE('',*,*,#217,.F.);
#188=ORIENTED_EDGE('',*,*,#270,.T.);
#189=ORIENTED_EDGE('',*,*,#231,.F.);
#190=ORIENTED_EDGE('',*,*,#275,.F.);
#191=ORIENTED_EDGE('',*,*,#251,.T.);
#192=ORIENTED_EDGE('',*,*,#268,.F.);
#193=ORIENTED_EDGE('',*,*,#261,.T.);
#194=ORIENTED_EDGE('',*,*,#258,.F.);
#195=EDGE_CURVE('',#284,#285,#344,.T.);
#196=EDGE_CURVE('',#286,#284,#345,.T.);
#197=EDGE_CURVE('',#287,#286,#346,.T.);
#198=EDGE_CURVE('',#287,#285,#347,.T.);
#199=EDGE_CURVE('',#288,#289,#348,.T.);
#200=EDGE_CURVE('',#290,#288,#349,.T.);
#201=EDGE_CURVE('',#291,#290,#350,.T.);
#202=EDGE_CURVE('',#291,#289,#351,.T.);
#203=EDGE_CURVE('',#292,#288,#13,.T.);
#204=EDGE_CURVE('',#293,#292,#352,.T.);
#205=EDGE_CURVE('',#290,#293,#14,.T.);
#206=EDGE_CURVE('',#294,#295,#353,.T.);
#207=EDGE_CURVE('',#296,#294,#354,.T.);
#208=EDGE_CURVE('',#296,#297,#355,.T.);
#209=EDGE_CURVE('',#298,#297,#356,.T.);
#210=EDGE_CURVE('',#293,#298,#357,.T.);
#211=EDGE_CURVE('',#295,#292,#358,.T.);
#212=EDGE_CURVE('',#299,#300,#359,.T.);
#213=EDGE_CURVE('',#299,#301,#360,.T.);
#214=EDGE_CURVE('',#301,#302,#361,.T.);
#215=EDGE_CURVE('',#300,#302,#362,.T.);
#216=EDGE_CURVE('',#303,#304,#363,.T.);
#217=EDGE_CURVE('',#304,#305,#364,.T.);
#218=EDGE_CURVE('',#305,#306,#365,.T.);
#219=EDGE_CURVE('',#307,#306,#366,.F.);
#220=EDGE_CURVE('',#308,#307,#367,.T.);
#221=EDGE_CURVE('',#303,#308,#368,.T.);
#222=EDGE_CURVE('',#307,#309,#369,.T.);
#223=EDGE_CURVE('',#310,#309,#370,.T.);
#224=EDGE_CURVE('',#308,#310,#371,.T.);
#225=EDGE_CURVE('',#311,#312,#372,.T.);
#226=EDGE_CURVE('',#311,#313,#373,.T.);
#227=EDGE_CURVE('',#313,#314,#374,.T.);
#228=EDGE_CURVE('',#312,#314,#375,.T.);
#229=EDGE_CURVE('',#309,#315,#376,.T.);
#230=EDGE_CURVE('',#316,#315,#377,.T.);
#231=EDGE_CURVE('',#316,#317,#378,.T.);
#232=EDGE_CURVE('',#318,#317,#379,.T.);
#233=EDGE_CURVE('',#310,#318,#380,.T.);
#234=EDGE_CURVE('',#319,#320,#381,.T.);
#235=EDGE_CURVE('',#320,#321,#382,.T.);
#236=EDGE_CURVE('',#322,#321,#383,.T.);
#237=EDGE_CURVE('',#319,#322,#384,.T.);
#238=EDGE_CURVE('',#321,#285,#385,.T.);
#239=EDGE_CURVE('',#322,#287,#386,.T.);
#240=EDGE_CURVE('',#320,#284,#387,.T.);
#241=EDGE_CURVE('',#298,#319,#388,.T.);
#242=EDGE_CURVE('',#297,#323,#389,.T.);
#243=EDGE_CURVE('',#324,#323,#390,.T.);
#244=EDGE_CURVE('',#286,#324,#391,.T.);
#245=EDGE_CURVE('',#323,#325,#392,.T.);
#246=EDGE_CURVE('',#325,#326,#393,.T.);
#247=EDGE_CURVE('',#326,#327,#394,.T.);
#248=EDGE_CURVE('',#327,#289,#395,.T.);
#249=EDGE_CURVE('',#324,#291,#396,.T.);
#250=EDGE_CURVE('',#328,#329,#397,.T.);
#251=EDGE_CURVE('',#330,#329,#398,.T.);
#252=EDGE_CURVE('',#331,#330,#399,.T.);
#253=EDGE_CURVE('',#331,#328,#400,.T.);
#254=EDGE_CURVE('',#332,#333,#401,.T.);
#255=EDGE_CURVE('',#332,#334,#402,.T.);
#256=EDGE_CURVE('',#334,#335,#403,.T.);
#257=EDGE_CURVE('',#333,#335,#404,.T.);
#258=EDGE_CURVE('',#330,#336,#405,.T.);
#259=EDGE_CURVE('',#337,#336,#406,.T.);
#260=EDGE_CURVE('',#331,#337,#407,.T.);
#261=EDGE_CURVE('',#338,#336,#408,.T.);
#262=EDGE_CURVE('',#339,#338,#409,.T.);
#263=EDGE_CURVE('',#339,#337,#410,.T.);
#264=EDGE_CURVE('',#340,#341,#411,.T.);
#265=EDGE_CURVE('',#340,#342,#412,.T.);
#266=EDGE_CURVE('',#342,#343,#413,.T.);
#267=EDGE_CURVE('',#341,#343,#414,.T.);
#268=EDGE_CURVE('',#338,#329,#415,.T.);
#269=EDGE_CURVE('',#339,#328,#416,.T.);
#270=EDGE_CURVE('',#304,#317,#417,.T.);
#271=EDGE_CURVE('',#303,#318,#418,.T.);
#272=EDGE_CURVE('',#309,#327,#419,.T.);
#273=EDGE_CURVE('',#295,#307,#420,.T.);
#274=EDGE_CURVE('',#296,#305,#421,.T.);
#275=EDGE_CURVE('',#325,#316,#12,.T.);
#276=EDGE_CURVE('',#343,#333,#422,.T.);
#277=EDGE_CURVE('',#342,#332,#423,.T.);
#278=EDGE_CURVE('',#335,#341,#424,.T.);
#279=EDGE_CURVE('',#334,#340,#425,.T.);
#280=EDGE_CURVE('',#314,#300,#426,.T.);
#281=EDGE_CURVE('',#313,#299,#427,.T.);
#282=EDGE_CURVE('',#302,#312,#428,.T.);
#283=EDGE_CURVE('',#301,#311,#429,.T.);
#284=VERTEX_POINT('',#934);
#285=VERTEX_POINT('',#935);
#286=VERTEX_POINT('',#937);
#287=VERTEX_POINT('',#939);
#288=VERTEX_POINT('',#943);
#289=VERTEX_POINT('',#944);
#290=VERTEX_POINT('',#946);
#291=VERTEX_POINT('',#948);
#292=VERTEX_POINT('',#952);
#293=VERTEX_POINT('',#954);
#294=VERTEX_POINT('',#958);
#295=VERTEX_POINT('',#959);
#296=VERTEX_POINT('',#961);
#297=VERTEX_POINT('',#963);
#298=VERTEX_POINT('',#965);
#299=VERTEX_POINT('',#970);
#300=VERTEX_POINT('',#971);
#301=VERTEX_POINT('',#973);
#302=VERTEX_POINT('',#975);
#303=VERTEX_POINT('',#978);
#304=VERTEX_POINT('',#979);
#305=VERTEX_POINT('',#981);
#306=VERTEX_POINT('',#983);
#307=VERTEX_POINT('',#985);
#308=VERTEX_POINT('',#987);
#309=VERTEX_POINT('',#991);
#310=VERTEX_POINT('',#993);
#311=VERTEX_POINT('',#997);
#312=VERTEX_POINT('',#998);
#313=VERTEX_POINT('',#1000);
#314=VERTEX_POINT('',#1002);
#315=VERTEX_POINT('',#1005);
#316=VERTEX_POINT('',#1007);
#317=VERTEX_POINT('',#1009);
#318=VERTEX_POINT('',#1011);
#319=VERTEX_POINT('',#1015);
#320=VERTEX_POINT('',#1016);
#321=VERTEX_POINT('',#1018);
#322=VERTEX_POINT('',#1020);
#323=VERTEX_POINT('',#1029);
#324=VERTEX_POINT('',#1031);
#325=VERTEX_POINT('',#1035);
#326=VERTEX_POINT('',#1037);
#327=VERTEX_POINT('',#1039);
#328=VERTEX_POINT('',#1044);
#329=VERTEX_POINT('',#1045);
#330=VERTEX_POINT('',#1047);
#331=VERTEX_POINT('',#1049);
#332=VERTEX_POINT('',#1053);
#333=VERTEX_POINT('',#1054);
#334=VERTEX_POINT('',#1056);
#335=VERTEX_POINT('',#1058);
#336=VERTEX_POINT('',#1061);
#337=VERTEX_POINT('',#1063);
#338=VERTEX_POINT('',#1067);
#339=VERTEX_POINT('',#1069);
#340=VERTEX_POINT('',#1073);
#341=VERTEX_POINT('',#1074);
#342=VERTEX_POINT('',#1076);
#343=VERTEX_POINT('',#1078);
#344=LINE('',#933,#430);
#345=LINE('',#936,#431);
#346=LINE('',#938,#432);
#347=LINE('',#940,#433);
#348=LINE('',#942,#434);
#349=LINE('',#945,#435);
#350=LINE('',#947,#436);
#351=LINE('',#949,#437);
#352=LINE('',#953,#438);
#353=LINE('',#957,#439);
#354=LINE('',#960,#440);
#355=LINE('',#962,#441);
#356=LINE('',#964,#442);
#357=LINE('',#966,#443);
#358=LINE('',#967,#444);
#359=LINE('',#969,#445);
#360=LINE('',#972,#446);
#361=LINE('',#974,#447);
#362=LINE('',#976,#448);
#363=LINE('',#977,#449);
#364=LINE('',#980,#450);
#365=LINE('',#982,#451);
#366=LINE('',#984,#452);
#367=LINE('',#986,#453);
#368=LINE('',#988,#454);
#369=LINE('',#990,#455);
#370=LINE('',#992,#456);
#371=LINE('',#994,#457);
#372=LINE('',#996,#458);
#373=LINE('',#999,#459);
#374=LINE('',#1001,#460);
#375=LINE('',#1003,#461);
#376=LINE('',#1004,#462);
#377=LINE('',#1006,#463);
#378=LINE('',#1008,#464);
#379=LINE('',#1010,#465);
#380=LINE('',#1012,#466);
#381=LINE('',#1014,#467);
#382=LINE('',#1017,#468);
#383=LINE('',#1019,#469);
#384=LINE('',#1021,#470);
#385=LINE('',#1023,#471);
#386=LINE('',#1024,#472);
#387=LINE('',#1026,#473);
#388=LINE('',#1027,#474);
#389=LINE('',#1028,#475);
#390=LINE('',#1030,#476);
#391=LINE('',#1032,#477);
#392=LINE('',#1034,#478);
#393=LINE('',#1036,#479);
#394=LINE('',#1038,#480);
#395=LINE('',#1040,#481);
#396=LINE('',#1041,#482);
#397=LINE('',#1043,#483);
#398=LINE('',#1046,#484);
#399=LINE('',#1048,#485);
#400=LINE('',#1050,#486);
#401=LINE('',#1052,#487);
#402=LINE('',#1055,#488);
#403=LINE('',#1057,#489);
#404=LINE('',#1059,#490);
#405=LINE('',#1060,#491);
#406=LINE('',#1062,#492);
#407=LINE('',#1064,#493);
#408=LINE('',#1066,#494);
#409=LINE('',#1068,#495);
#410=LINE('',#1070,#496);
#411=LINE('',#1072,#497);
#412=LINE('',#1075,#498);
#413=LINE('',#1077,#499);
#414=LINE('',#1079,#500);
#415=LINE('',#1080,#501);
#416=LINE('',#1081,#502);
#417=LINE('',#1083,#503);
#418=LINE('',#1084,#504);
#419=LINE('',#1087,#505);
#420=LINE('',#1088,#506);
#421=LINE('',#1090,#507);
#422=LINE('',#1097,#508);
#423=LINE('',#1098,#509);
#424=LINE('',#1100,#510);
#425=LINE('',#1101,#511);
#426=LINE('',#1105,#512);
#427=LINE('',#1106,#513);
#428=LINE('',#1108,#514);
#429=LINE('',#1109,#515);
#430=VECTOR('',#783,1.);
#431=VECTOR('',#784,1.);
#432=VECTOR('',#785,1.);
#433=VECTOR('',#786,1.);
#434=VECTOR('',#789,1.);
#435=VECTOR('',#790,1.);
#436=VECTOR('',#791,1.);
#437=VECTOR('',#792,1.);
#438=VECTOR('',#797,1.);
#439=VECTOR('',#802,1.);
#440=VECTOR('',#803,1.);
#441=VECTOR('',#804,1.);
#442=VECTOR('',#805,1.);
#443=VECTOR('',#806,1.);
#444=VECTOR('',#807,1.);
#445=VECTOR('',#810,1.);
#446=VECTOR('',#811,1.);
#447=VECTOR('',#812,1.);
#448=VECTOR('',#813,1.);
#449=VECTOR('',#814,1.);
#450=VECTOR('',#815,1.);
#451=VECTOR('',#816,1.);
#452=VECTOR('',#817,1.);
#453=VECTOR('',#818,1.);
#454=VECTOR('',#819,1.);
#455=VECTOR('',#822,1.);
#456=VECTOR('',#823,1.);
#457=VECTOR('',#824,1.);
#458=VECTOR('',#827,1.);
#459=VECTOR('',#828,1.);
#460=VECTOR('',#829,1.);
#461=VECTOR('',#830,1.);
#462=VECTOR('',#831,1.);
#463=VECTOR('',#832,1.);
#464=VECTOR('',#833,1.);
#465=VECTOR('',#834,1.);
#466=VECTOR('',#835,1.);
#467=VECTOR('',#838,1.);
#468=VECTOR('',#839,1.);
#469=VECTOR('',#840,1.);
#470=VECTOR('',#841,1.);
#471=VECTOR('',#844,1.);
#472=VECTOR('',#845,1.);
#473=VECTOR('',#848,1.);
#474=VECTOR('',#849,1.);
#475=VECTOR('',#850,1.);
#476=VECTOR('',#851,1.);
#477=VECTOR('',#852,1.);
#478=VECTOR('',#855,1.);
#479=VECTOR('',#856,1.);
#480=VECTOR('',#857,1.);
#481=VECTOR('',#858,1.);
#482=VECTOR('',#859,1.);
#483=VECTOR('',#862,1.);
#484=VECTOR('',#863,1.);
#485=VECTOR('',#864,1.);
#486=VECTOR('',#865,1.);
#487=VECTOR('',#868,1.);
#488=VECTOR('',#869,1.);
#489=VECTOR('',#870,1.);
#490=VECTOR('',#871,1.);
#491=VECTOR('',#872,1.);
#492=VECTOR('',#873,1.);
#493=VECTOR('',#874,1.);
#494=VECTOR('',#877,1.);
#495=VECTOR('',#878,1.);
#496=VECTOR('',#879,1.);
#497=VECTOR('',#882,1.);
#498=VECTOR('',#883,1.);
#499=VECTOR('',#884,1.);
#500=VECTOR('',#885,1.);
#501=VECTOR('',#886,1.);
#502=VECTOR('',#887,1.);
#503=VECTOR('',#890,1.);
#504=VECTOR('',#891,1.);
#505=VECTOR('',#896,1.);
#506=VECTOR('',#897,1.);
#507=VECTOR('',#900,1.);
#508=VECTOR('',#905,1.);
#509=VECTOR('',#906,1.);
#510=VECTOR('',#909,1.);
#511=VECTOR('',#910,1.);
#512=VECTOR('',#917,1.);
#513=VECTOR('',#918,1.);
#514=VECTOR('',#921,1.);
#515=VECTOR('',#922,1.);
#516=EDGE_LOOP('',(#17,#18,#19,#20));
#517=EDGE_LOOP('',(#21,#22,#23,#24));
#518=EDGE_LOOP('',(#25,#26,#27,#28));
#519=EDGE_LOOP('',(#29,#30,#31,#32,#33,#34,#35));
#520=EDGE_LOOP('',(#36,#37,#38,#39));
#521=EDGE_LOOP('',(#40,#41,#42,#43,#44,#45));
#522=EDGE_LOOP('',(#46,#47,#48,#49));
#523=EDGE_LOOP('',(#50,#51,#52,#53));
#524=EDGE_LOOP('',(#54,#55,#56,#57,#58,#59));
#525=EDGE_LOOP('',(#60,#61,#62,#63));
#526=EDGE_LOOP('',(#64,#65,#66,#67));
#527=EDGE_LOOP('',(#68,#69,#70,#71,#72,#73,#74,#75));
#528=EDGE_LOOP('',(#76,#77,#78,#79,#80,#81,#82));
#529=EDGE_LOOP('',(#83,#84,#85,#86));
#530=EDGE_LOOP('',(#87,#88,#89,#90));
#531=EDGE_LOOP('',(#91,#92,#93,#94));
#532=EDGE_LOOP('',(#95,#96,#97,#98));
#533=EDGE_LOOP('',(#99,#100,#101,#102));
#534=EDGE_LOOP('',(#103,#104,#105,#106));
#535=EDGE_LOOP('',(#107,#108,#109,#110));
#536=EDGE_LOOP('',(#111,#112,#113,#114));
#537=EDGE_LOOP('',(#115,#116,#117,#118,#119,#120,#121,#122,#123));
#538=EDGE_LOOP('',(#124,#125,#126,#127));
#539=EDGE_LOOP('',(#128,#129,#130,#131,#132,#133,#134));
#540=EDGE_LOOP('',(#135,#136,#137,#138,#139,#140));
#541=EDGE_LOOP('',(#141,#142,#143,#144,#145,#146));
#542=EDGE_LOOP('',(#147,#148,#149,#150));
#543=EDGE_LOOP('',(#151,#152,#153,#154));
#544=EDGE_LOOP('',(#155,#156,#157,#158));
#545=EDGE_LOOP('',(#159,#160,#161,#162));
#546=EDGE_LOOP('',(#163,#164,#165,#166));
#547=EDGE_LOOP('',(#167,#168,#169,#170));
#548=EDGE_LOOP('',(#171,#172,#173,#174));
#549=EDGE_LOOP('',(#175,#176,#177,#178));
#550=EDGE_LOOP('',(#179,#180,#181,#182));
#551=EDGE_LOOP('',(#183,#184,#185,#186,#187,#188,#189,#190));
#552=EDGE_LOOP('',(#191,#192,#193,#194));
#553=FACE_BOUND('',#516,.T.);
#554=FACE_BOUND('',#517,.T.);
#555=FACE_BOUND('',#518,.T.);
#556=FACE_BOUND('',#519,.T.);
#557=FACE_BOUND('',#520,.T.);
#558=FACE_BOUND('',#521,.T.);
#559=FACE_BOUND('',#522,.T.);
#560=FACE_BOUND('',#523,.T.);
#561=FACE_BOUND('',#524,.T.);
#562=FACE_BOUND('',#525,.T.);
#563=FACE_BOUND('',#526,.T.);
#564=FACE_BOUND('',#527,.T.);
#565=FACE_BOUND('',#528,.T.);
#566=FACE_BOUND('',#529,.T.);
#567=FACE_BOUND('',#530,.T.);
#568=FACE_BOUND('',#531,.T.);
#569=FACE_BOUND('',#532,.T.);
#570=FACE_BOUND('',#533,.T.);
#571=FACE_BOUND('',#534,.T.);
#572=FACE_BOUND('',#535,.T.);
#573=FACE_BOUND('',#536,.T.);
#574=FACE_BOUND('',#537,.T.);
#575=FACE_BOUND('',#538,.T.);
#576=FACE_BOUND('',#539,.T.);
#577=FACE_BOUND('',#540,.T.);
#578=FACE_BOUND('',#541,.T.);
#579=FACE_BOUND('',#542,.T.);
#580=FACE_BOUND('',#543,.T.);
#581=FACE_BOUND('',#544,.T.);
#582=FACE_BOUND('',#545,.T.);
#583=FACE_BOUND('',#546,.T.);
#584=FACE_BOUND('',#547,.T.);
#585=FACE_BOUND('',#548,.T.);
#586=FACE_BOUND('',#549,.T.);
#587=FACE_BOUND('',#550,.T.);
#588=FACE_BOUND('',#551,.T.);
#589=FACE_BOUND('',#552,.T.);
#590=PLANE('',#747);
#591=PLANE('',#748);
#592=PLANE('',#752);
#593=PLANE('',#753);
#594=PLANE('',#754);
#595=PLANE('',#755);
#596=PLANE('',#756);
#597=PLANE('',#757);
#598=PLANE('',#758);
#599=PLANE('',#759);
#600=PLANE('',#760);
#601=PLANE('',#761);
#602=PLANE('',#762);
#603=PLANE('',#763);
#604=PLANE('',#764);
#605=PLANE('',#765);
#606=PLANE('',#766);
#607=PLANE('',#767);
#608=PLANE('',#768);
#609=PLANE('',#769);
#610=PLANE('',#770);
#611=PLANE('',#771);
#612=PLANE('',#772);
#613=PLANE('',#773);
#614=PLANE('',#774);
#615=PLANE('',#775);
#616=PLANE('',#776);
#617=PLANE('',#777);
#618=PLANE('',#778);
#619=OVER_RIDING_STYLED_ITEM('',(#664),#631,#662);
#620=OVER_RIDING_STYLED_ITEM('',(#665),#632,#662);
#621=OVER_RIDING_STYLED_ITEM('',(#666),#633,#662);
#622=OVER_RIDING_STYLED_ITEM('',(#667),#634,#662);
#623=OVER_RIDING_STYLED_ITEM('',(#668),#636,#662);
#624=OVER_RIDING_STYLED_ITEM('',(#669),#637,#662);
#625=OVER_RIDING_STYLED_ITEM('',(#670),#642,#662);
#626=OVER_RIDING_STYLED_ITEM('',(#671),#644,#662);
#627=OVER_RIDING_STYLED_ITEM('',(#672),#645,#662);
#628=OVER_RIDING_STYLED_ITEM('',(#673),#646,#662);
#629=OVER_RIDING_STYLED_ITEM('',(#674),#647,#662);
#630=OVER_RIDING_STYLED_ITEM('',(#675),#659,#662);
#631=ADVANCED_FACE('',(#553),#590,.F.);
#632=ADVANCED_FACE('',(#554),#591,.F.);
#633=ADVANCED_FACE('',(#555),#15,.T.);
#634=ADVANCED_FACE('',(#556),#592,.F.);
#635=ADVANCED_FACE('',(#557,#558),#593,.F.);
#636=ADVANCED_FACE('',(#559),#594,.F.);
#637=ADVANCED_FACE('',(#560,#561),#595,.F.);
#638=ADVANCED_FACE('',(#562),#596,.F.);
#639=ADVANCED_FACE('',(#563),#597,.F.);
#640=ADVANCED_FACE('',(#564),#598,.F.);
#641=ADVANCED_FACE('',(#565),#599,.F.);
#642=ADVANCED_FACE('',(#566),#600,.T.);
#643=ADVANCED_FACE('',(#567,#568),#601,.F.);
#644=ADVANCED_FACE('',(#569),#602,.T.);
#645=ADVANCED_FACE('',(#570,#571),#603,.F.);
#646=ADVANCED_FACE('',(#572),#604,.T.);
#647=ADVANCED_FACE('',(#573,#574,#575),#605,.T.);
#648=ADVANCED_FACE('',(#576),#606,.T.);
#649=ADVANCED_FACE('',(#577),#607,.T.);
#650=ADVANCED_FACE('',(#578),#608,.T.);
#651=ADVANCED_FACE('',(#579),#609,.T.);
#652=ADVANCED_FACE('',(#580),#610,.T.);
#653=ADVANCED_FACE('',(#581),#611,.T.);
#654=ADVANCED_FACE('',(#582),#612,.F.);
#655=ADVANCED_FACE('',(#583),#613,.T.);
#656=ADVANCED_FACE('',(#584),#614,.T.);
#657=ADVANCED_FACE('',(#585),#615,.T.);
#658=ADVANCED_FACE('',(#586),#616,.F.);
#659=ADVANCED_FACE('',(#587),#617,.F.);
#660=ADVANCED_FACE('',(#588,#589),#618,.F.);
#661=CLOSED_SHELL('',(#631,#632,#633,#634,#635,#636,#637,#638,#639,#640,
#641,#642,#643,#644,#645,#646,#647,#648,#649,#650,#651,#652,#653,#654,#655,
#656,#657,#658,#659,#660));
#662=STYLED_ITEM('',(#663),#743);
#663=PRESENTATION_STYLE_ASSIGNMENT((#676));
#664=PRESENTATION_STYLE_ASSIGNMENT((#677));
#665=PRESENTATION_STYLE_ASSIGNMENT((#678));
#666=PRESENTATION_STYLE_ASSIGNMENT((#679));
#667=PRESENTATION_STYLE_ASSIGNMENT((#680));
#668=PRESENTATION_STYLE_ASSIGNMENT((#681));
#669=PRESENTATION_STYLE_ASSIGNMENT((#682));
#670=PRESENTATION_STYLE_ASSIGNMENT((#683));
#671=PRESENTATION_STYLE_ASSIGNMENT((#684));
#672=PRESENTATION_STYLE_ASSIGNMENT((#685));
#673=PRESENTATION_STYLE_ASSIGNMENT((#686));
#674=PRESENTATION_STYLE_ASSIGNMENT((#687));
#675=PRESENTATION_STYLE_ASSIGNMENT((#688));
#676=SURFACE_STYLE_USAGE(.BOTH.,#689);
#677=SURFACE_STYLE_USAGE(.BOTH.,#690);
#678=SURFACE_STYLE_USAGE(.BOTH.,#691);
#679=SURFACE_STYLE_USAGE(.BOTH.,#692);
#680=SURFACE_STYLE_USAGE(.BOTH.,#693);
#681=SURFACE_STYLE_USAGE(.BOTH.,#694);
#682=SURFACE_STYLE_USAGE(.BOTH.,#695);
#683=SURFACE_STYLE_USAGE(.BOTH.,#696);
#684=SURFACE_STYLE_USAGE(.BOTH.,#697);
#685=SURFACE_STYLE_USAGE(.BOTH.,#698);
#686=SURFACE_STYLE_USAGE(.BOTH.,#699);
#687=SURFACE_STYLE_USAGE(.BOTH.,#700);
#688=SURFACE_STYLE_USAGE(.BOTH.,#701);
#689=SURFACE_SIDE_STYLE('',(#702));
#690=SURFACE_SIDE_STYLE('',(#703));
#691=SURFACE_SIDE_STYLE('',(#704));
#692=SURFACE_SIDE_STYLE('',(#705));
#693=SURFACE_SIDE_STYLE('',(#706));
#694=SURFACE_SIDE_STYLE('',(#707));
#695=SURFACE_SIDE_STYLE('',(#708));
#696=SURFACE_SIDE_STYLE('',(#709));
#697=SURFACE_SIDE_STYLE('',(#710));
#698=SURFACE_SIDE_STYLE('',(#711));
#699=SURFACE_SIDE_STYLE('',(#712));
#700=SURFACE_SIDE_STYLE('',(#713));
#701=SURFACE_SIDE_STYLE('',(#714));
#702=SURFACE_STYLE_FILL_AREA(#715);
#703=SURFACE_STYLE_FILL_AREA(#716);
#704=SURFACE_STYLE_FILL_AREA(#717);
#705=SURFACE_STYLE_FILL_AREA(#718);
#706=SURFACE_STYLE_FILL_AREA(#719);
#707=SURFACE_STYLE_FILL_AREA(#720);
#708=SURFACE_STYLE_FILL_AREA(#721);
#709=SURFACE_STYLE_FILL_AREA(#722);
#710=SURFACE_STYLE_FILL_AREA(#723);
#711=SURFACE_STYLE_FILL_AREA(#724);
#712=SURFACE_STYLE_FILL_AREA(#725);
#713=SURFACE_STYLE_FILL_AREA(#726);
#714=SURFACE_STYLE_FILL_AREA(#727);
#715=FILL_AREA_STYLE('',(#728));
#716=FILL_AREA_STYLE('',(#729));
#717=FILL_AREA_STYLE('',(#730));
#718=FILL_AREA_STYLE('',(#731));
#719=FILL_AREA_STYLE('',(#732));
#720=FILL_AREA_STYLE('',(#733));
#721=FILL_AREA_STYLE('',(#734));
#722=FILL_AREA_STYLE('',(#735));
#723=FILL_AREA_STYLE('',(#736));
#724=FILL_AREA_STYLE('',(#737));
#725=FILL_AREA_STYLE('',(#738));
#726=FILL_AREA_STYLE('',(#739));
#727=FILL_AREA_STYLE('',(#740));
#728=FILL_AREA_STYLE_COLOUR('',#741);
#729=FILL_AREA_STYLE_COLOUR('',#742);
#730=FILL_AREA_STYLE_COLOUR('',#16);
#731=FILL_AREA_STYLE_COLOUR('',#16);
#732=FILL_AREA_STYLE_COLOUR('',#742);
#733=FILL_AREA_STYLE_COLOUR('',#742);
#734=FILL_AREA_STYLE_COLOUR('',#742);
#735=FILL_AREA_STYLE_COLOUR('',#742);
#736=FILL_AREA_STYLE_COLOUR('',#742);
#737=FILL_AREA_STYLE_COLOUR('',#742);
#738=FILL_AREA_STYLE_COLOUR('',#742);
#739=FILL_AREA_STYLE_COLOUR('',#16);
#740=FILL_AREA_STYLE_COLOUR('',#742);
#741=COLOUR_RGB('',0.647058823529412,0.647058823529412,0.647058823529412);
#742=COLOUR_RGB('',0.992156862745098,0.792156862745098,0.427450980392157);
#743=MANIFOLD_SOLID_BREP('Part 2',#661);
#744=SHAPE_DEFINITION_REPRESENTATION(#1120,#745);
#745=SHAPE_REPRESENTATION('Part 2',(#746),#1115);
#746=AXIS2_PLACEMENT_3D('',#931,#779,#780);
#747=AXIS2_PLACEMENT_3D('',#932,#781,#782);
#748=AXIS2_PLACEMENT_3D('',#941,#787,#788);
#749=AXIS2_PLACEMENT_3D('',#950,#793,#794);
#750=AXIS2_PLACEMENT_3D('',#951,#795,#796);
#751=AXIS2_PLACEMENT_3D('',#955,#798,#799);
#752=AXIS2_PLACEMENT_3D('',#956,#800,#801);
#753=AXIS2_PLACEMENT_3D('',#968,#808,#809);
#754=AXIS2_PLACEMENT_3D('',#989,#820,#821);
#755=AXIS2_PLACEMENT_3D('',#995,#825,#826);
#756=AXIS2_PLACEMENT_3D('',#1013,#836,#837);
#757=AXIS2_PLACEMENT_3D('',#1022,#842,#843);
#758=AXIS2_PLACEMENT_3D('',#1025,#846,#847);
#759=AXIS2_PLACEMENT_3D('',#1033,#853,#854);
#760=AXIS2_PLACEMENT_3D('',#1042,#860,#861);
#761=AXIS2_PLACEMENT_3D('',#1051,#866,#867);
#762=AXIS2_PLACEMENT_3D('',#1065,#875,#876);
#763=AXIS2_PLACEMENT_3D('',#1071,#880,#881);
#764=AXIS2_PLACEMENT_3D('',#1082,#888,#889);
#765=AXIS2_PLACEMENT_3D('',#1085,#892,#893);
#766=AXIS2_PLACEMENT_3D('',#1086,#894,#895);
#767=AXIS2_PLACEMENT_3D('',#1089,#898,#899);
#768=AXIS2_PLACEMENT_3D('',#1091,#901,#902);
#769=AXIS2_PLACEMENT_3D('',#1096,#903,#904);
#770=AXIS2_PLACEMENT_3D('',#1099,#907,#908);
#771=AXIS2_PLACEMENT_3D('',#1102,#911,#912);
#772=AXIS2_PLACEMENT_3D('',#1103,#913,#914);
#773=AXIS2_PLACEMENT_3D('',#1104,#915,#916);
#774=AXIS2_PLACEMENT_3D('',#1107,#919,#920);
#775=AXIS2_PLACEMENT_3D('',#1110,#923,#924);
#776=AXIS2_PLACEMENT_3D('',#1111,#925,#926);
#777=AXIS2_PLACEMENT_3D('',#1112,#927,#928);
#778=AXIS2_PLACEMENT_3D('',#1113,#929,#930);
#779=DIRECTION('',(0.,0.,1.));
#780=DIRECTION('',(1.,0.,0.));
#781=DIRECTION('',(0.,1.,0.));
#782=DIRECTION('',(0.,0.,1.));
#783=DIRECTION('',(0.,0.,1.));
#784=DIRECTION('',(-1.,0.,0.));
#785=DIRECTION('',(0.,0.,-1.));
#786=DIRECTION('',(-1.,0.,0.));
#787=DIRECTION('',(0.,0.,-1.));
#788=DIRECTION('',(-1.,0.,0.));
#789=DIRECTION('',(0.,1.,0.));
#790=DIRECTION('',(-1.,0.,0.));
#791=DIRECTION('',(0.,-1.,0.));
#792=DIRECTION('',(-1.,0.,0.));
#793=DIRECTION('',(-1.,0.,0.));
#794=DIRECTION('',(0.,0.,1.));
#795=DIRECTION('',(-1.,0.,0.));
#796=DIRECTION('',(0.,0.,1.));
#797=DIRECTION('',(-1.,0.,0.));
#798=DIRECTION('',(1.,0.,0.));
#799=DIRECTION('',(0.,0.,-1.));
#800=DIRECTION('',(0.,1.,0.));
#801=DIRECTION('',(0.,0.,1.));
#802=DIRECTION('',(1.,0.,0.));
#803=DIRECTION('',(1.,0.,0.));
#804=DIRECTION('',(0.,0.,-1.));
#805=DIRECTION('',(-1.,0.,0.));
#806=DIRECTION('',(0.,0.,-1.));
#807=DIRECTION('',(0.,0.,1.));
#808=DIRECTION('',(0.,-1.,0.));
#809=DIRECTION('',(0.,0.,-1.));
#810=DIRECTION('',(-1.,0.,0.));
#811=DIRECTION('',(0.,0.,1.));
#812=DIRECTION('',(-1.,0.,0.));
#813=DIRECTION('',(0.,0.,1.));
#814=DIRECTION('',(-1.,0.,0.));
#815=DIRECTION('',(0.,0.,1.));
#816=DIRECTION('',(1.,0.,0.));
#817=DIRECTION('',(1.,0.,0.));
#818=DIRECTION('',(-1.,0.,0.));
#819=DIRECTION('',(0.,0.,1.));
#820=DIRECTION('',(0.,0.,1.));
#821=DIRECTION('',(1.,0.,0.));
#822=DIRECTION('',(0.,1.,0.));
#823=DIRECTION('',(-1.,0.,0.));
#824=DIRECTION('',(0.,1.,0.));
#825=DIRECTION('',(0.,1.,0.));
#826=DIRECTION('',(0.,0.,1.));
#827=DIRECTION('',(-1.,0.,0.));
#828=DIRECTION('',(0.,0.,-1.));
#829=DIRECTION('',(-1.,0.,0.));
#830=DIRECTION('',(0.,0.,-1.));
#831=DIRECTION('',(-1.,0.,0.));
#832=DIRECTION('',(1.,0.,0.));
#833=DIRECTION('',(0.,0.,-1.));
#834=DIRECTION('',(-1.,0.,0.));
#835=DIRECTION('',(0.,0.,-1.));
#836=DIRECTION('',(0.,-1.,0.));
#837=DIRECTION('',(0.,0.,-1.));
#838=DIRECTION('',(-1.,0.,0.));
#839=DIRECTION('',(0.,0.,1.));
#840=DIRECTION('',(-1.,0.,0.));
#841=DIRECTION('',(0.,0.,1.));
#842=DIRECTION('',(0.,0.,1.));
#843=DIRECTION('',(1.,0.,0.));
#844=DIRECTION('',(0.,1.,0.));
#845=DIRECTION('',(0.,1.,0.));
#846=DIRECTION('',(0.,0.,1.));
#847=DIRECTION('',(1.,0.,0.));
#848=DIRECTION('',(0.,1.,0.));
#849=DIRECTION('',(0.,1.,0.));
#850=DIRECTION('',(0.,1.,0.));
#851=DIRECTION('',(-1.,0.,0.));
#852=DIRECTION('',(0.,1.,0.));
#853=DIRECTION('',(0.,-1.,0.));
#854=DIRECTION('',(0.,0.,-1.));
#855=DIRECTION('',(0.,0.,1.));
#856=DIRECTION('',(1.,0.,0.));
#857=DIRECTION('',(1.,0.,0.));
#858=DIRECTION('',(0.,0.,1.));
#859=DIRECTION('',(0.,0.,1.));
#860=DIRECTION('',(0.,0.,1.));
#861=DIRECTION('',(1.,0.,0.));
#862=DIRECTION('',(-1.,0.,0.));
#863=DIRECTION('',(0.,1.,0.));
#864=DIRECTION('',(-1.,0.,0.));
#865=DIRECTION('',(0.,1.,0.));
#866=DIRECTION('',(0.,-1.,0.));
#867=DIRECTION('',(0.,0.,-1.));
#868=DIRECTION('',(-1.,0.,0.));
#869=DIRECTION('',(0.,0.,1.));
#870=DIRECTION('',(-1.,0.,0.));
#871=DIRECTION('',(0.,0.,1.));
#872=DIRECTION('',(0.,0.,1.));
#873=DIRECTION('',(-1.,0.,0.));
#874=DIRECTION('',(0.,0.,1.));
#875=DIRECTION('',(0.,0.,-1.));
#876=DIRECTION('',(-1.,0.,0.));
#877=DIRECTION('',(0.,-1.,0.));
#878=DIRECTION('',(-1.,0.,0.));
#879=DIRECTION('',(0.,-1.,0.));
#880=DIRECTION('',(0.,1.,0.));
#881=DIRECTION('',(0.,0.,1.));
#882=DIRECTION('',(-1.,0.,0.));
#883=DIRECTION('',(0.,0.,-1.));
#884=DIRECTION('',(-1.,0.,0.));
#885=DIRECTION('',(0.,0.,-1.));
#886=DIRECTION('',(0.,0.,-1.));
#887=DIRECTION('',(0.,0.,-1.));
#888=DIRECTION('',(0.,-3.90116200868325E-16,1.));
#889=DIRECTION('',(0.,-1.,-3.90116200868325E-16));
#890=DIRECTION('',(0.,1.,3.90116200868325E-16));
#891=DIRECTION('',(0.,1.,3.90116200868325E-16));
#892=DIRECTION('',(1.,0.,0.));
#893=DIRECTION('',(0.,1.,0.));
#894=DIRECTION('',(-1.,0.,0.));
#895=DIRECTION('',(0.,0.,1.));
#896=DIRECTION('',(0.,1.,0.));
#897=DIRECTION('',(0.,1.,0.));
#898=DIRECTION('',(0.,0.,1.));
#899=DIRECTION('',(1.,0.,0.));
#900=DIRECTION('',(0.,1.,0.));
#901=DIRECTION('',(0.,0.,1.));
#902=DIRECTION('',(1.,0.,0.));
#903=DIRECTION('',(0.,0.,-1.));
#904=DIRECTION('',(-1.,0.,0.));
#905=DIRECTION('',(0.,-1.,0.));
#906=DIRECTION('',(0.,-1.,0.));
#907=DIRECTION('',(0.,-2.92587150651244E-16,1.));
#908=DIRECTION('',(0.,-1.,-2.92587150651244E-16));
#909=DIRECTION('',(0.,1.,2.92587150651244E-16));
#910=DIRECTION('',(0.,1.,2.92587150651244E-16));
#911=DIRECTION('',(1.,0.,0.));
#912=DIRECTION('',(0.,1.,0.));
#913=DIRECTION('',(1.,0.,0.));
#914=DIRECTION('',(0.,1.,0.));
#915=DIRECTION('',(0.,0.,-1.));
#916=DIRECTION('',(-1.,0.,0.));
#917=DIRECTION('',(0.,-1.,0.));
#918=DIRECTION('',(0.,-1.,0.));
#919=DIRECTION('',(0.,-1.95058100434162E-16,1.));
#920=DIRECTION('',(0.,-1.,-1.95058100434162E-16));
#921=DIRECTION('',(0.,1.,1.95058100434162E-16));
#922=DIRECTION('',(0.,1.,1.95058100434162E-16));
#923=DIRECTION('',(1.,0.,0.));
#924=DIRECTION('',(0.,1.,0.));
#925=DIRECTION('',(1.,0.,0.));
#926=DIRECTION('',(0.,1.,0.));
#927=DIRECTION('',(-1.,0.,0.));
#928=DIRECTION('',(0.,0.,1.));
#929=DIRECTION('',(1.,0.,0.));
#930=DIRECTION('',(0.,1.,0.));
#931=CARTESIAN_POINT('',(0.,0.,0.));
#932=CARTESIAN_POINT('',(0.049075,0.00433732050703317,-0.00356520290859043));
#933=CARTESIAN_POINT('',(0.042775,0.00433732050703317,-0.00356520290859043));
#934=CARTESIAN_POINT('',(0.042775,0.00433732050703317,-0.00725));
#935=CARTESIAN_POINT('',(0.042775,0.00433732050703317,0.000119594182819128));
#936=CARTESIAN_POINT('',(0.049075,0.00433732050703317,-0.00725));
#937=CARTESIAN_POINT('',(0.049075,0.00433732050703317,-0.00725));
#938=CARTESIAN_POINT('',(0.049075,0.00433732050703317,-0.00356520290859043));
#939=CARTESIAN_POINT('',(0.049075,0.00433732050703317,0.000119594182819128));
#940=CARTESIAN_POINT('',(0.049075,0.00433732050703317,0.000119594182819128));
#941=CARTESIAN_POINT('',(0.049075,-0.0093216197708558,0.013693914814556));
#942=CARTESIAN_POINT('',(0.042775,-0.0327289836702455,0.013693914814556));
#943=CARTESIAN_POINT('',(0.042775,-0.0234142558714661,0.013693914814556));
#944=CARTESIAN_POINT('',(0.042775,0.00477101632975452,0.013693914814556));
#945=CARTESIAN_POINT('',(0.049075,-0.0234142558714661,0.013693914814556));
#946=CARTESIAN_POINT('',(0.049075,-0.0234142558714661,0.013693914814556));
#947=CARTESIAN_POINT('',(0.049075,-0.0093216197708558,0.013693914814556));
#948=CARTESIAN_POINT('',(0.049075,0.00477101632975452,0.013693914814556));
#949=CARTESIAN_POINT('',(0.049075,0.00477101632975452,0.013693914814556));
#950=CARTESIAN_POINT('',(0.049075,-0.0227605231419021,0.0140824352634346));
#951=CARTESIAN_POINT('',(0.042775,-0.0227605231419021,0.0140824352634346));
#952=CARTESIAN_POINT('',(0.042775,-0.0227605231419021,0.0133219652634346));
#953=CARTESIAN_POINT('',(0.049075,-0.0227605231419021,0.0133219652634346));
#954=CARTESIAN_POINT('',(0.049075,-0.0227605231419021,0.0133219652634346));
#955=CARTESIAN_POINT('',(0.049075,-0.0227605231419021,0.0140824352634346));
#956=CARTESIAN_POINT('',(0.049075,-0.0227605231419021,0.00303598263171731));
#957=CARTESIAN_POINT('',(0.049075,-0.0227605231419021,0.0133118690898732));
#958=CARTESIAN_POINT('',(0.041875,-0.0227605231419021,0.0133143931332636));
#959=CARTESIAN_POINT('',(0.042775,-0.0227605231419021,0.0133118690898732));
#960=CARTESIAN_POINT('',(0.038375,-0.0227605231419021,0.0133125001007208));
#961=CARTESIAN_POINT('',(0.038375,-0.0227605231419021,0.0133125001007208));
#962=CARTESIAN_POINT('',(0.038375,-0.0227605231419021,0.00303598263171731));
#963=CARTESIAN_POINT('',(0.038375,-0.0227605231419021,-0.00725));
#964=CARTESIAN_POINT('',(0.049075,-0.0227605231419021,-0.00725));
#965=CARTESIAN_POINT('',(0.049075,-0.0227605231419021,-0.00725));
#966=CARTESIAN_POINT('',(0.049075,-0.0227605231419021,0.00303598263171731));
#967=CARTESIAN_POINT('',(0.042775,-0.0227605231419021,0.00303598263171731));
#968=CARTESIAN_POINT('',(0.049075,-0.0223427836073149,0.0106890962332487));
#969=CARTESIAN_POINT('',(0.043225,-0.0223427836073149,0.0104640962332487));
#970=CARTESIAN_POINT('',(0.043225,-0.0223427836073149,0.0104640962332487));
#971=CARTESIAN_POINT('',(0.042775,-0.0223427836073149,0.0104640962332487));
#972=CARTESIAN_POINT('',(0.043225,-0.0223427836073149,0.0106890962332487));
#973=CARTESIAN_POINT('',(0.043225,-0.0223427836073149,0.0109140962332487));
#974=CARTESIAN_POINT('',(0.043225,-0.0223427836073149,0.0109140962332487));
#975=CARTESIAN_POINT('',(0.042775,-0.0223427836073149,0.0109140962332487));
#976=CARTESIAN_POINT('',(0.042775,-0.0223427836073149,0.0106890962332487));
#977=CARTESIAN_POINT('',(0.049075,-0.0223427836073149,0.00724483061954379));
#978=CARTESIAN_POINT('',(0.049075,-0.0223427836073149,0.00724483061954379));
#979=CARTESIAN_POINT('',(0.038375,-0.0223427836073149,0.00724483061954379));
#980=CARTESIAN_POINT('',(0.038375,-0.0223427836073149,0.0106890962332487));
#981=CARTESIAN_POINT('',(0.038375,-0.0223427836073149,0.0133131311115684));
#982=CARTESIAN_POINT('',(0.038375,-0.0223427836073149,0.0133131311115684));
#983=CARTESIAN_POINT('',(0.041875,-0.0223427836073149,0.0133169171766539));
#984=CARTESIAN_POINT('',(0.042325,-0.0223427836073149,0.0133118690898732));
#985=CARTESIAN_POINT('',(0.042775,-0.0223427836073149,0.0133169171766539));
#986=CARTESIAN_POINT('',(0.049075,-0.0223427836073149,0.0133219652634346));
#987=CARTESIAN_POINT('',(0.049075,-0.0223427836073149,0.0133219652634346));
#988=CARTESIAN_POINT('',(0.049075,-0.0223427836073149,0.0106890962332487));
#989=CARTESIAN_POINT('',(0.049075,-0.00900273155014087,0.0133219652634346));
#990=CARTESIAN_POINT('',(0.042775,-0.00900273155014087,0.0133219652634346));
#991=CARTESIAN_POINT('',(0.042775,0.00433732050703317,0.0133169171766539));
#992=CARTESIAN_POINT('',(0.049075,0.00433732050703317,0.0133219652634346));
#993=CARTESIAN_POINT('',(0.049075,0.00433732050703317,0.0133219652634346));
#994=CARTESIAN_POINT('',(0.049075,-0.00900273155014087,0.0133219652634346));
#995=CARTESIAN_POINT('',(0.049075,0.00433732050703317,0.0121180307483417));
#996=CARTESIAN_POINT('',(0.043225,0.00433732050703317,0.0109140962332487));
#997=CARTESIAN_POINT('',(0.043225,0.00433732050703317,0.0109140962332487));
#998=CARTESIAN_POINT('',(0.042775,0.00433732050703317,0.0109140962332487));
#999=CARTESIAN_POINT('',(0.043225,0.00433732050703317,0.0106890962332487));
#1000=CARTESIAN_POINT('',(0.043225,0.00433732050703317,0.0104640962332487));
#1001=CARTESIAN_POINT('',(0.043225,0.00433732050703317,0.0104640962332487));
#1002=CARTESIAN_POINT('',(0.042775,0.00433732050703317,0.0104640962332487));
#1003=CARTESIAN_POINT('',(0.042775,0.00433732050703317,0.0106890962332487));
#1004=CARTESIAN_POINT('',(0.042325,0.00433732050703317,0.0133118690898732));
#1005=CARTESIAN_POINT('',(0.041875,0.00433732050703317,0.0133169171766539));
#1006=CARTESIAN_POINT('',(0.038375,0.00433732050703317,0.0133118690898732));
#1007=CARTESIAN_POINT('',(0.038375,0.00433732050703317,0.0133118690898732));
#1008=CARTESIAN_POINT('',(0.038375,0.00433732050703317,0.0121180307483417));
#1009=CARTESIAN_POINT('',(0.038375,0.00433732050703317,0.0072448306195438));
#1010=CARTESIAN_POINT('',(0.049075,0.00433732050703317,0.0072448306195438));
#1011=CARTESIAN_POINT('',(0.049075,0.00433732050703317,0.0072448306195438));
#1012=CARTESIAN_POINT('',(0.049075,0.00433732050703317,0.0121180307483417));
#1013=CARTESIAN_POINT('',(0.049075,-0.0223427836073149,-0.00356520290859043));
#1014=CARTESIAN_POINT('',(0.049075,-0.0223427836073149,-0.00725));
#1015=CARTESIAN_POINT('',(0.049075,-0.0223427836073149,-0.00725));
#1016=CARTESIAN_POINT('',(0.042775,-0.0223427836073149,-0.00725));
#1017=CARTESIAN_POINT('',(0.042775,-0.0223427836073149,-0.00356520290859043));
#1018=CARTESIAN_POINT('',(0.042775,-0.0223427836073149,0.000119594182819128));
#1019=CARTESIAN_POINT('',(0.049075,-0.0223427836073149,0.000119594182819128));
#1020=CARTESIAN_POINT('',(0.049075,-0.0223427836073149,0.000119594182819128));
#1021=CARTESIAN_POINT('',(0.049075,-0.0223427836073149,-0.00356520290859043));
#1022=CARTESIAN_POINT('',(0.049075,-0.00900273155014087,0.000119594182819128));
#1023=CARTESIAN_POINT('',(0.042775,-0.0223457836073149,0.000119594182819128));
#1024=CARTESIAN_POINT('',(0.049075,-0.00900273155014087,0.000119594182819128));
#1025=CARTESIAN_POINT('',(0.049075,0.00455416841839384,-0.00725));
#1026=CARTESIAN_POINT('',(0.042775,-0.0223457836073149,-0.00725));
#1027=CARTESIAN_POINT('',(0.049075,-0.0225516533746085,-0.00725));
#1028=CARTESIAN_POINT('',(0.038375,-0.0225516533746085,-0.00725));
#1029=CARTESIAN_POINT('',(0.038375,0.00477101632975452,-0.00725));
#1030=CARTESIAN_POINT('',(0.049075,0.00477101632975452,-0.00725));
#1031=CARTESIAN_POINT('',(0.049075,0.00477101632975452,-0.00725));
#1032=CARTESIAN_POINT('',(0.049075,0.00455416841839384,-0.00725));
#1033=CARTESIAN_POINT('',(0.049075,0.00477101632975452,0.00303598263171731));
#1034=CARTESIAN_POINT('',(0.038375,0.00477101632975452,0.00303598263171731));
#1035=CARTESIAN_POINT('',(0.038375,0.00477101632975452,0.0133118690898732));
#1036=CARTESIAN_POINT('',(0.038375,0.00477101632975452,0.0133118690898732));
#1037=CARTESIAN_POINT('',(0.041875,0.00477101632975452,0.0133118690898732));
#1038=CARTESIAN_POINT('',(0.042325,0.00477101632975452,0.0133118690898732));
#1039=CARTESIAN_POINT('',(0.042775,0.00477101632975452,0.0133118690898732));
#1040=CARTESIAN_POINT('',(0.042775,0.00477101632975452,0.0135028919522146));
#1041=CARTESIAN_POINT('',(0.049075,0.00477101632975452,0.00303598263171731));
#1042=CARTESIAN_POINT('',(0.049075,-0.00900273155014087,0.000869594182819128));
#1043=CARTESIAN_POINT('',(0.049075,0.00433732050703317,0.000869594182819128));
#1044=CARTESIAN_POINT('',(0.049075,0.00433732050703317,0.000869594182819128));
#1045=CARTESIAN_POINT('',(0.038375,0.00433732050703317,0.000869594182819128));
#1046=CARTESIAN_POINT('',(0.038375,-0.00900273155014087,0.000869594182819128));
#1047=CARTESIAN_POINT('',(0.038375,-0.0223427836073149,0.000869594182819128));
#1048=CARTESIAN_POINT('',(0.049075,-0.0223427836073149,0.000869594182819128));
#1049=CARTESIAN_POINT('',(0.049075,-0.0223427836073149,0.000869594182819128));
#1050=CARTESIAN_POINT('',(0.049075,-0.00900273155014087,0.000869594182819128));
#1051=CARTESIAN_POINT('',(0.049075,-0.0223427836073149,0.00212591824587434));
#1052=CARTESIAN_POINT('',(0.043225,-0.0223427836073149,0.00338224230892956));
#1053=CARTESIAN_POINT('',(0.043225,-0.0223427836073149,0.00338224230892956));
#1054=CARTESIAN_POINT('',(0.042775,-0.0223427836073149,0.00338224230892956));
#1055=CARTESIAN_POINT('',(0.043225,-0.0223427836073149,0.00360724230892957));
#1056=CARTESIAN_POINT('',(0.043225,-0.0223427836073149,0.00383224230892957));
#1057=CARTESIAN_POINT('',(0.043225,-0.0223427836073149,0.00383224230892957));
#1058=CARTESIAN_POINT('',(0.042775,-0.0223427836073149,0.00383224230892957));
#1059=CARTESIAN_POINT('',(0.042775,-0.0223427836073149,0.00360724230892957));
#1060=CARTESIAN_POINT('',(0.038375,-0.0223427836073149,0.00212591824587434));
#1061=CARTESIAN_POINT('',(0.038375,-0.0223427836073149,0.00649483061954379));
#1062=CARTESIAN_POINT('',(0.049075,-0.0223427836073149,0.00649483061954379));
#1063=CARTESIAN_POINT('',(0.049075,-0.0223427836073149,0.00649483061954379));
#1064=CARTESIAN_POINT('',(0.049075,-0.0223427836073149,0.00212591824587434));
#1065=CARTESIAN_POINT('',(0.049075,-0.00900273155014087,0.00649483061954379));
#1066=CARTESIAN_POINT('',(0.038375,-0.00900273155014087,0.00649483061954379));
#1067=CARTESIAN_POINT('',(0.038375,0.00433732050703317,0.00649483061954379));
#1068=CARTESIAN_POINT('',(0.049075,0.00433732050703317,0.00649483061954379));
#1069=CARTESIAN_POINT('',(0.049075,0.00433732050703317,0.00649483061954379));
#1070=CARTESIAN_POINT('',(0.049075,-0.00900273155014087,0.00649483061954379));
#1071=CARTESIAN_POINT('',(0.049075,0.00433732050703317,0.00516353646423668));
#1072=CARTESIAN_POINT('',(0.043225,0.00433732050703317,0.00383224230892957));
#1073=CARTESIAN_POINT('',(0.043225,0.00433732050703317,0.00383224230892957));
#1074=CARTESIAN_POINT('',(0.042775,0.00433732050703317,0.00383224230892957));
#1075=CARTESIAN_POINT('',(0.043225,0.00433732050703317,0.00360724230892957));
#1076=CARTESIAN_POINT('',(0.043225,0.00433732050703317,0.00338224230892956));
#1077=CARTESIAN_POINT('',(0.043225,0.00433732050703317,0.00338224230892956));
#1078=CARTESIAN_POINT('',(0.042775,0.00433732050703317,0.00338224230892956));
#1079=CARTESIAN_POINT('',(0.042775,0.00433732050703317,0.00360724230892957));
#1080=CARTESIAN_POINT('',(0.038375,0.00433732050703317,0.00516353646423668));
#1081=CARTESIAN_POINT('',(0.049075,0.00433732050703317,0.00516353646423668));
#1082=CARTESIAN_POINT('',(0.049075,-0.00900273155014087,0.0072448306195438));
#1083=CARTESIAN_POINT('',(0.038375,-0.00900273155014087,0.0072448306195438));
#1084=CARTESIAN_POINT('',(0.049075,-0.00900273155014087,0.0072448306195438));
#1085=CARTESIAN_POINT('',(0.049075,-0.00954203265950903,0.00322195740727798));
#1086=CARTESIAN_POINT('',(0.042775,-0.0327289836702455,0.0135028919522146));
#1087=CARTESIAN_POINT('',(0.042775,-0.0327289836702455,0.0133118690898732));
#1088=CARTESIAN_POINT('',(0.042775,-0.0327289836702455,0.0133118690898732));
#1089=CARTESIAN_POINT('',(0.042325,-0.0327289836702455,0.0133118690898732));
#1090=CARTESIAN_POINT('',(0.038375,-0.0327289836702455,0.0133118690898732));
#1091=CARTESIAN_POINT('',(0.042325,-0.0327289836702455,0.0133118690898732));
#1092=CARTESIAN_POINT('',(0.038375,0.00477101632975451,0.0133118690898732));
#1093=CARTESIAN_POINT('',(0.038375,0.00462645105551406,0.0133118690898732));
#1094=CARTESIAN_POINT('',(0.038375,0.00448188578127361,0.0133118690898732));
#1095=CARTESIAN_POINT('',(0.038375,0.00433732050703316,0.0133118690898732));
#1096=CARTESIAN_POINT('',(0.043225,-0.00900273155014087,0.00338224230892956));
#1097=CARTESIAN_POINT('',(0.042775,-0.00900273155014087,0.00338224230892956));
#1098=CARTESIAN_POINT('',(0.043225,-0.00900273155014087,0.00338224230892956));
#1099=CARTESIAN_POINT('',(0.043225,-0.00900273155014087,0.00383224230892957));
#1100=CARTESIAN_POINT('',(0.042775,-0.00900273155014087,0.00383224230892957));
#1101=CARTESIAN_POINT('',(0.043225,-0.00900273155014087,0.00383224230892957));
#1102=CARTESIAN_POINT('',(0.043225,-0.00954203265950903,0.00322195740727798));
#1103=CARTESIAN_POINT('',(0.042775,-0.00954203265950903,0.00322195740727798));
#1104=CARTESIAN_POINT('',(0.043225,-0.00900273155014087,0.0104640962332487));
#1105=CARTESIAN_POINT('',(0.042775,-0.00900273155014087,0.0104640962332487));
#1106=CARTESIAN_POINT('',(0.043225,-0.00900273155014087,0.0104640962332487));
#1107=CARTESIAN_POINT('',(0.043225,-0.00900273155014087,0.0109140962332487));
#1108=CARTESIAN_POINT('',(0.042775,-0.00900273155014087,0.0109140962332487));
#1109=CARTESIAN_POINT('',(0.043225,-0.00900273155014087,0.0109140962332487));
#1110=CARTESIAN_POINT('',(0.043225,-0.00954203265950903,0.00322195740727798));
#1111=CARTESIAN_POINT('',(0.042775,-0.00954203265950903,0.00322195740727798));
#1112=CARTESIAN_POINT('',(0.042775,-0.0223457836073149,-0.00356520290859043));
#1113=CARTESIAN_POINT('',(0.038375,-0.00954203265950903,0.00322195740727798));
#1114=MECHANICAL_DESIGN_GEOMETRIC_PRESENTATION_REPRESENTATION('',(#662,
#619,#620,#621,#622,#623,#624,#625,#626,#627,#628,#629,#630),#1115);
#1115=(
GEOMETRIC_REPRESENTATION_CONTEXT(3)
GLOBAL_UNCERTAINTY_ASSIGNED_CONTEXT((#1116))
GLOBAL_UNIT_ASSIGNED_CONTEXT((#1119,#1118,#1117))
REPRESENTATION_CONTEXT('Part 2','TOP_LEVEL_ASSEMBLY_PART')
);
#1116=UNCERTAINTY_MEASURE_WITH_UNIT(LENGTH_MEASURE(4.66442603421144E-5),
#1119,'DISTANCE_ACCURACY_VALUE','Maximum Tolerance applied to model');
#1117=(
NAMED_UNIT(*)
SI_UNIT($,.STERADIAN.)
SOLID_ANGLE_UNIT()
);
#1118=(
NAMED_UNIT(*)
PLANE_ANGLE_UNIT()
SI_UNIT($,.RADIAN.)
);
#1119=(
LENGTH_UNIT()
NAMED_UNIT(*)
SI_UNIT($,.METRE.)
);
#1120=PRODUCT_DEFINITION_SHAPE('','',#1121);
#1121=PRODUCT_DEFINITION('','',#1123,#1122);
#1122=PRODUCT_DEFINITION_CONTEXT('',#1129,'design');
#1123=PRODUCT_DEFINITION_FORMATION_WITH_SPECIFIED_SOURCE('','',#1125,
 .NOT_KNOWN.);
#1124=PRODUCT_RELATED_PRODUCT_CATEGORY('','',(#1125));
#1125=PRODUCT('Part 2','Part 2','Part 2',(#1127));
#1126=PRODUCT_CATEGORY('','');
#1127=PRODUCT_CONTEXT('',#1129,'mechanical');
#1128=APPLICATION_PROTOCOL_DEFINITION('international standard',
'ap242_managed_model_based_3d_engineering',2020,#1129);
#1129=APPLICATION_CONTEXT('managed model based 3d engineering');
ENDSEC;
END-ISO-10303-21;
