ISO-10303-21;
HEADER;
/* Generated by software containing ST-Developer
 * from STEP Tools, Inc. (www.steptools.com) 
 */
/* OPTION: using custom renumber hook */

FILE_DESCRIPTION(
/* description */ ('STEP AP242 Edition 2',
'CAx-IF Rec.Pracs.---Representation and Presentation of Product Manufa
cturing Information (PMI)---4.0---2014-10-13',
'CAx-IF Rec.Pracs.---3D Tessellated Geometry---0.4---2014-09-14','2;1',
'CAx-IF Rec.Pracs.---User Defined Attributes---1.5---2016-08-15'),
/* implementation_level */ '2;1');

FILE_NAME(
/* name */ 'Assembly 1 - Part 1 (13)',
/* time_stamp */ '2026-09-03T17:07:38Z',
/* author */ (''),
/* organization */ (''),
/* preprocessor_version */ 'ST-DEVELOPER v20',
/* originating_system */ 'ONSHAPE BY PTC INC, 1.220',
/* authorisation */ '  ');

FILE_SCHEMA (('AP242_MANAGED_MODEL_BASED_3D_ENGINEERING_MIM_LF { 1 0 10303 442 3 1 4 }'));
ENDSEC;

DATA;
#10=SHAPE_REPRESENTATION_RELATIONSHIP('','',#276,#11);
#11=ADVANCED_BREP_SHAPE_REPRESENTATION('',(#274),#386);
#12=DRAUGHTING_PRE_DEFINED_COLOUR('black');
#13=DRAUGHTING_PRE_DEFINED_COLOUR('red');
#14=ORIENTED_EDGE('',*,*,#62,.F.);
#15=ORIENTED_EDGE('',*,*,#63,.F.);
#16=ORIENTED_EDGE('',*,*,#64,.T.);
#17=ORIENTED_EDGE('',*,*,#65,.T.);
#18=ORIENTED_EDGE('',*,*,#63,.T.);
#19=ORIENTED_EDGE('',*,*,#66,.T.);
#20=ORIENTED_EDGE('',*,*,#67,.T.);
#21=ORIENTED_EDGE('',*,*,#68,.T.);
#22=ORIENTED_EDGE('',*,*,#69,.F.);
#23=ORIENTED_EDGE('',*,*,#65,.F.);
#24=ORIENTED_EDGE('',*,*,#70,.F.);
#25=ORIENTED_EDGE('',*,*,#71,.F.);
#26=ORIENTED_EDGE('',*,*,#72,.T.);
#27=ORIENTED_EDGE('',*,*,#73,.F.);
#28=ORIENTED_EDGE('',*,*,#74,.F.);
#29=ORIENTED_EDGE('',*,*,#75,.F.);
#30=ORIENTED_EDGE('',*,*,#67,.F.);
#31=ORIENTED_EDGE('',*,*,#76,.T.);
#32=ORIENTED_EDGE('',*,*,#71,.T.);
#33=ORIENTED_EDGE('',*,*,#77,.F.);
#34=ORIENTED_EDGE('',*,*,#78,.T.);
#35=ORIENTED_EDGE('',*,*,#75,.T.);
#36=ORIENTED_EDGE('',*,*,#79,.F.);
#37=ORIENTED_EDGE('',*,*,#80,.F.);
#38=ORIENTED_EDGE('',*,*,#77,.T.);
#39=ORIENTED_EDGE('',*,*,#70,.T.);
#40=ORIENTED_EDGE('',*,*,#64,.F.);
#41=ORIENTED_EDGE('',*,*,#68,.F.);
#42=ORIENTED_EDGE('',*,*,#81,.T.);
#43=ORIENTED_EDGE('',*,*,#82,.T.);
#44=ORIENTED_EDGE('',*,*,#80,.T.);
#45=ORIENTED_EDGE('',*,*,#83,.F.);
#46=ORIENTED_EDGE('',*,*,#84,.T.);
#47=ORIENTED_EDGE('',*,*,#72,.F.);
#48=ORIENTED_EDGE('',*,*,#78,.F.);
#49=ORIENTED_EDGE('',*,*,#82,.F.);
#50=ORIENTED_EDGE('',*,*,#74,.T.);
#51=ORIENTED_EDGE('',*,*,#85,.F.);
#52=ORIENTED_EDGE('',*,*,#83,.T.);
#53=ORIENTED_EDGE('',*,*,#79,.T.);
#54=ORIENTED_EDGE('',*,*,#85,.T.);
#55=ORIENTED_EDGE('',*,*,#73,.T.);
#56=ORIENTED_EDGE('',*,*,#84,.F.);
#57=ORIENTED_EDGE('',*,*,#81,.F.);
#58=ORIENTED_EDGE('',*,*,#62,.T.);
#59=ORIENTED_EDGE('',*,*,#69,.T.);
#60=ORIENTED_EDGE('',*,*,#76,.F.);
#61=ORIENTED_EDGE('',*,*,#66,.F.);
#62=EDGE_CURVE('',#86,#87,#102,.F.);
#63=EDGE_CURVE('',#88,#86,#103,.T.);
#64=EDGE_CURVE('',#88,#89,#104,.T.);
#65=EDGE_CURVE('',#89,#87,#105,.T.);
#66=EDGE_CURVE('',#86,#90,#106,.F.);
#67=EDGE_CURVE('',#90,#91,#107,.T.);
#68=EDGE_CURVE('',#91,#88,#108,.T.);
#69=EDGE_CURVE('',#87,#92,#109,.F.);
#70=EDGE_CURVE('',#93,#89,#110,.T.);
#71=EDGE_CURVE('',#92,#93,#111,.T.);
#72=EDGE_CURVE('',#94,#95,#112,.T.);
#73=EDGE_CURVE('',#96,#95,#113,.F.);
#74=EDGE_CURVE('',#97,#96,#114,.T.);
#75=EDGE_CURVE('',#94,#97,#115,.T.);
#76=EDGE_CURVE('',#90,#92,#116,.F.);
#77=EDGE_CURVE('',#91,#93,#117,.T.);
#78=EDGE_CURVE('',#98,#94,#118,.T.);
#79=EDGE_CURVE('',#99,#97,#119,.T.);
#80=EDGE_CURVE('',#98,#99,#120,.T.);
#81=EDGE_CURVE('',#100,#101,#121,.F.);
#82=EDGE_CURVE('',#101,#98,#122,.T.);
#83=EDGE_CURVE('',#100,#99,#123,.T.);
#84=EDGE_CURVE('',#101,#95,#124,.T.);
#85=EDGE_CURVE('',#100,#96,#125,.T.);
#86=VERTEX_POINT('',#337);
#87=VERTEX_POINT('',#338);
#88=VERTEX_POINT('',#340);
#89=VERTEX_POINT('',#342);
#90=VERTEX_POINT('',#346);
#91=VERTEX_POINT('',#348);
#92=VERTEX_POINT('',#352);
#93=VERTEX_POINT('',#354);
#94=VERTEX_POINT('',#358);
#95=VERTEX_POINT('',#359);
#96=VERTEX_POINT('',#361);
#97=VERTEX_POINT('',#363);
#98=VERTEX_POINT('',#370);
#99=VERTEX_POINT('',#372);
#100=VERTEX_POINT('',#376);
#101=VERTEX_POINT('',#377);
#102=LINE('',#336,#126);
#103=LINE('',#339,#127);
#104=LINE('',#341,#128);
#105=LINE('',#343,#129);
#106=LINE('',#345,#130);
#107=LINE('',#347,#131);
#108=LINE('',#349,#132);
#109=LINE('',#351,#133);
#110=LINE('',#353,#134);
#111=LINE('',#355,#135);
#112=LINE('',#357,#136);
#113=LINE('',#360,#137);
#114=LINE('',#362,#138);
#115=LINE('',#364,#139);
#116=LINE('',#366,#140);
#117=LINE('',#367,#141);
#118=LINE('',#369,#142);
#119=LINE('',#371,#143);
#120=LINE('',#373,#144);
#121=LINE('',#375,#145);
#122=LINE('',#378,#146);
#123=LINE('',#379,#147);
#124=LINE('',#381,#148);
#125=LINE('',#383,#149);
#126=VECTOR('',#292,1.);
#127=VECTOR('',#293,1.);
#128=VECTOR('',#294,1.);
#129=VECTOR('',#295,1.);
#130=VECTOR('',#298,1.);
#131=VECTOR('',#299,1.);
#132=VECTOR('',#300,1.);
#133=VECTOR('',#303,1.);
#134=VECTOR('',#304,1.);
#135=VECTOR('',#305,1.);
#136=VECTOR('',#308,1.);
#137=VECTOR('',#309,1.);
#138=VECTOR('',#310,1.);
#139=VECTOR('',#311,1.);
#140=VECTOR('',#314,1.);
#141=VECTOR('',#315,1.);
#142=VECTOR('',#318,1.);
#143=VECTOR('',#319,1.);
#144=VECTOR('',#320,1.);
#145=VECTOR('',#323,1.);
#146=VECTOR('',#324,1.);
#147=VECTOR('',#325,1.);
#148=VECTOR('',#328,1.);
#149=VECTOR('',#331,1.);
#150=EDGE_LOOP('',(#14,#15,#16,#17));
#151=EDGE_LOOP('',(#18,#19,#20,#21));
#152=EDGE_LOOP('',(#22,#23,#24,#25));
#153=EDGE_LOOP('',(#26,#27,#28,#29));
#154=EDGE_LOOP('',(#30,#31,#32,#33));
#155=EDGE_LOOP('',(#34,#35,#36,#37));
#156=EDGE_LOOP('',(#38,#39,#40,#41));
#157=EDGE_LOOP('',(#42,#43,#44,#45));
#158=EDGE_LOOP('',(#46,#47,#48,#49));
#159=EDGE_LOOP('',(#50,#51,#52,#53));
#160=EDGE_LOOP('',(#54,#55,#56,#57));
#161=EDGE_LOOP('',(#58,#59,#60,#61));
#162=FACE_BOUND('',#150,.T.);
#163=FACE_BOUND('',#151,.T.);
#164=FACE_BOUND('',#152,.T.);
#165=FACE_BOUND('',#153,.T.);
#166=FACE_BOUND('',#154,.T.);
#167=FACE_BOUND('',#155,.T.);
#168=FACE_BOUND('',#156,.T.);
#169=FACE_BOUND('',#157,.T.);
#170=FACE_BOUND('',#158,.T.);
#171=FACE_BOUND('',#159,.T.);
#172=FACE_BOUND('',#160,.T.);
#173=FACE_BOUND('',#161,.T.);
#174=PLANE('',#278);
#175=PLANE('',#279);
#176=PLANE('',#280);
#177=PLANE('',#281);
#178=PLANE('',#282);
#179=PLANE('',#283);
#180=PLANE('',#284);
#181=PLANE('',#285);
#182=PLANE('',#286);
#183=PLANE('',#287);
#184=OVER_RIDING_STYLED_ITEM('',(#207),#194,#205);
#185=OVER_RIDING_STYLED_ITEM('',(#208),#195,#205);
#186=OVER_RIDING_STYLED_ITEM('',(#209),#196,#205);
#187=OVER_RIDING_STYLED_ITEM('',(#210),#197,#205);
#188=OVER_RIDING_STYLED_ITEM('',(#211),#198,#205);
#189=OVER_RIDING_STYLED_ITEM('',(#212),#199,#205);
#190=OVER_RIDING_STYLED_ITEM('',(#213),#200,#205);
#191=OVER_RIDING_STYLED_ITEM('',(#214),#201,#205);
#192=OVER_RIDING_STYLED_ITEM('',(#215),#202,#205);
#193=OVER_RIDING_STYLED_ITEM('',(#216),#203,#205);
#194=ADVANCED_FACE('',(#162),#174,.F.);
#195=ADVANCED_FACE('',(#163),#175,.T.);
#196=ADVANCED_FACE('',(#164),#176,.F.);
#197=ADVANCED_FACE('',(#165),#177,.F.);
#198=ADVANCED_FACE('',(#166),#178,.F.);
#199=ADVANCED_FACE('',(#167,#168),#179,.F.);
#200=ADVANCED_FACE('',(#169),#180,.T.);
#201=ADVANCED_FACE('',(#170),#181,.T.);
#202=ADVANCED_FACE('',(#171),#182,.F.);
#203=ADVANCED_FACE('',(#172,#173),#183,.F.);
#204=CLOSED_SHELL('',(#194,#195,#196,#197,#198,#199,#200,#201,#202,#203));
#205=STYLED_ITEM('',(#206),#274);
#206=PRESENTATION_STYLE_ASSIGNMENT((#217));
#207=PRESENTATION_STYLE_ASSIGNMENT((#218));
#208=PRESENTATION_STYLE_ASSIGNMENT((#219));
#209=PRESENTATION_STYLE_ASSIGNMENT((#220));
#210=PRESENTATION_STYLE_ASSIGNMENT((#221));
#211=PRESENTATION_STYLE_ASSIGNMENT((#222));
#212=PRESENTATION_STYLE_ASSIGNMENT((#223));
#213=PRESENTATION_STYLE_ASSIGNMENT((#224));
#214=PRESENTATION_STYLE_ASSIGNMENT((#225));
#215=PRESENTATION_STYLE_ASSIGNMENT((#226));
#216=PRESENTATION_STYLE_ASSIGNMENT((#227));
#217=SURFACE_STYLE_USAGE(.BOTH.,#228);
#218=SURFACE_STYLE_USAGE(.BOTH.,#229);
#219=SURFACE_STYLE_USAGE(.BOTH.,#230);
#220=SURFACE_STYLE_USAGE(.BOTH.,#231);
#221=SURFACE_STYLE_USAGE(.BOTH.,#232);
#222=SURFACE_STYLE_USAGE(.BOTH.,#233);
#223=SURFACE_STYLE_USAGE(.BOTH.,#234);
#224=SURFACE_STYLE_USAGE(.BOTH.,#235);
#225=SURFACE_STYLE_USAGE(.BOTH.,#236);
#226=SURFACE_STYLE_USAGE(.BOTH.,#237);
#227=SURFACE_STYLE_USAGE(.BOTH.,#238);
#228=SURFACE_SIDE_STYLE('',(#239));
#229=SURFACE_SIDE_STYLE('',(#240));
#230=SURFACE_SIDE_STYLE('',(#241));
#231=SURFACE_SIDE_STYLE('',(#242));
#232=SURFACE_SIDE_STYLE('',(#243));
#233=SURFACE_SIDE_STYLE('',(#244));
#234=SURFACE_SIDE_STYLE('',(#245));
#235=SURFACE_SIDE_STYLE('',(#246));
#236=SURFACE_SIDE_STYLE('',(#247));
#237=SURFACE_SIDE_STYLE('',(#248));
#238=SURFACE_SIDE_STYLE('',(#249));
#239=SURFACE_STYLE_FILL_AREA(#250);
#240=SURFACE_STYLE_FILL_AREA(#251);
#241=SURFACE_STYLE_FILL_AREA(#252);
#242=SURFACE_STYLE_FILL_AREA(#253);
#243=SURFACE_STYLE_FILL_AREA(#254);
#244=SURFACE_STYLE_FILL_AREA(#255);
#245=SURFACE_STYLE_FILL_AREA(#256);
#246=SURFACE_STYLE_FILL_AREA(#257);
#247=SURFACE_STYLE_FILL_AREA(#258);
#248=SURFACE_STYLE_FILL_AREA(#259);
#249=SURFACE_STYLE_FILL_AREA(#260);
#250=FILL_AREA_STYLE('',(#261));
#251=FILL_AREA_STYLE('',(#262));
#252=FILL_AREA_STYLE('',(#263));
#253=FILL_AREA_STYLE('',(#264));
#254=FILL_AREA_STYLE('',(#265));
#255=FILL_AREA_STYLE('',(#266));
#256=FILL_AREA_STYLE('',(#267));
#257=FILL_AREA_STYLE('',(#268));
#258=FILL_AREA_STYLE('',(#269));
#259=FILL_AREA_STYLE('',(#270));
#260=FILL_AREA_STYLE('',(#271));
#261=FILL_AREA_STYLE_COLOUR('',#272);
#262=FILL_AREA_STYLE_COLOUR('',#273);
#263=FILL_AREA_STYLE_COLOUR('',#12);
#264=FILL_AREA_STYLE_COLOUR('',#12);
#265=FILL_AREA_STYLE_COLOUR('',#13);
#266=FILL_AREA_STYLE_COLOUR('',#273);
#267=FILL_AREA_STYLE_COLOUR('',#12);
#268=FILL_AREA_STYLE_COLOUR('',#13);
#269=FILL_AREA_STYLE_COLOUR('',#12);
#270=FILL_AREA_STYLE_COLOUR('',#12);
#271=FILL_AREA_STYLE_COLOUR('',#12);
#272=COLOUR_RGB('',0.647058823529412,0.647058823529412,0.647058823529412);
#273=COLOUR_RGB('',1.,0.756862745098039,0.0549019607843137);
#274=MANIFOLD_SOLID_BREP('Part 1',#204);
#275=SHAPE_DEFINITION_REPRESENTATION(#391,#276);
#276=SHAPE_REPRESENTATION('Part 1',(#277),#386);
#277=AXIS2_PLACEMENT_3D('',#334,#288,#289);
#278=AXIS2_PLACEMENT_3D('',#335,#290,#291);
#279=AXIS2_PLACEMENT_3D('',#344,#296,#297);
#280=AXIS2_PLACEMENT_3D('',#350,#301,#302);
#281=AXIS2_PLACEMENT_3D('',#356,#306,#307);
#282=AXIS2_PLACEMENT_3D('',#365,#312,#313);
#283=AXIS2_PLACEMENT_3D('',#368,#316,#317);
#284=AXIS2_PLACEMENT_3D('',#374,#321,#322);
#285=AXIS2_PLACEMENT_3D('',#380,#326,#327);
#286=AXIS2_PLACEMENT_3D('',#382,#329,#330);
#287=AXIS2_PLACEMENT_3D('',#384,#332,#333);
#288=DIRECTION('',(0.,0.,1.));
#289=DIRECTION('',(1.,0.,0.));
#290=DIRECTION('',(-1.,0.,0.));
#291=DIRECTION('',(0.,0.,1.));
#292=DIRECTION('',(0.,0.,1.));
#293=DIRECTION('',(0.,1.,0.));
#294=DIRECTION('',(0.,0.,-1.));
#295=DIRECTION('',(0.,1.,0.));
#296=DIRECTION('',(0.,0.,1.));
#297=DIRECTION('',(1.,0.,0.));
#298=DIRECTION('',(1.,1.38777878078145E-16,0.));
#299=DIRECTION('',(0.,-1.,0.));
#300=DIRECTION('',(1.,0.,0.));
#301=DIRECTION('',(0.,0.,1.));
#302=DIRECTION('',(1.,0.,0.));
#303=DIRECTION('',(1.,1.38777878078145E-16,0.));
#304=DIRECTION('',(1.,0.,0.));
#305=DIRECTION('',(0.,-1.,0.));
#306=DIRECTION('',(0.,0.,1.));
#307=DIRECTION('',(1.,0.,0.));
#308=DIRECTION('',(1.30104260698261E-16,1.,0.));
#309=DIRECTION('',(1.,1.38777878078145E-16,0.));
#310=DIRECTION('',(0.,1.,0.));
#311=DIRECTION('',(1.,0.,0.));
#312=DIRECTION('',(1.,0.,0.));
#313=DIRECTION('',(0.,0.,-1.));
#314=DIRECTION('',(0.,0.,1.));
#315=DIRECTION('',(0.,0.,-1.));
#316=DIRECTION('',(0.,1.,0.));
#317=DIRECTION('',(0.,0.,1.));
#318=DIRECTION('',(0.,0.,1.));
#319=DIRECTION('',(0.,0.,1.));
#320=DIRECTION('',(1.,0.,0.));
#321=DIRECTION('',(0.,0.,1.));
#322=DIRECTION('',(1.,0.,0.));
#323=DIRECTION('',(1.,1.38777878078145E-16,0.));
#324=DIRECTION('',(-1.30104260698261E-16,-1.,0.));
#325=DIRECTION('',(0.,-1.,0.));
#326=DIRECTION('',(1.,-1.30104260698261E-16,0.));
#327=DIRECTION('',(1.30104260698261E-16,1.,0.));
#328=DIRECTION('',(0.,0.,1.));
#329=DIRECTION('',(1.,0.,0.));
#330=DIRECTION('',(0.,0.,-1.));
#331=DIRECTION('',(0.,0.,1.));
#332=DIRECTION('',(1.38777878078145E-16,-1.,0.));
#333=DIRECTION('',(1.,1.38777878078145E-16,0.));
#334=CARTESIAN_POINT('',(0.,0.,0.));
#335=CARTESIAN_POINT('',(0.028125,0.0025,0.0048));
#336=CARTESIAN_POINT('',(0.028125,0.00475,0.0048));
#337=CARTESIAN_POINT('',(0.028125,0.00475,0.0048));
#338=CARTESIAN_POINT('',(0.028125,0.00475,-0.012));
#339=CARTESIAN_POINT('',(0.028125,0.0025,0.0048));
#340=CARTESIAN_POINT('',(0.028125,-0.00625,0.0048));
#341=CARTESIAN_POINT('',(0.028125,-0.00625,0.0048));
#342=CARTESIAN_POINT('',(0.028125,-0.00625,-0.012));
#343=CARTESIAN_POINT('',(0.028125,0.0025,-0.012));
#344=CARTESIAN_POINT('',(0.00625,0.0025,0.0048));
#345=CARTESIAN_POINT('',(0.00625,0.00475,0.0048));
#346=CARTESIAN_POINT('',(-0.015625,0.00475,0.0048));
#347=CARTESIAN_POINT('',(-0.015625,0.0025,0.0048));
#348=CARTESIAN_POINT('',(-0.015625,-0.00625,0.0048));
#349=CARTESIAN_POINT('',(0.00625,-0.00625,0.0048));
#350=CARTESIAN_POINT('',(0.00625,0.0025,-0.012));
#351=CARTESIAN_POINT('',(0.00625,0.00475,-0.012));
#352=CARTESIAN_POINT('',(-0.015625,0.00475,-0.012));
#353=CARTESIAN_POINT('',(0.00625,-0.00625,-0.012));
#354=CARTESIAN_POINT('',(-0.015625,-0.00625,-0.012));
#355=CARTESIAN_POINT('',(-0.015625,0.0025,-0.012));
#356=CARTESIAN_POINT('',(0.00625,0.0025,0.00305));
#357=CARTESIAN_POINT('',(-0.013875,0.0025,0.00305));
#358=CARTESIAN_POINT('',(-0.013875,-0.00625,0.00305));
#359=CARTESIAN_POINT('',(-0.013875,0.00475,0.00305));
#360=CARTESIAN_POINT('',(0.00625,0.00475,0.00305));
#361=CARTESIAN_POINT('',(0.026375,0.00475,0.00305));
#362=CARTESIAN_POINT('',(0.026375,0.0025,0.00305));
#363=CARTESIAN_POINT('',(0.026375,-0.00625,0.00305));
#364=CARTESIAN_POINT('',(0.00625,-0.00625,0.00305));
#365=CARTESIAN_POINT('',(-0.015625,0.0025,0.0048));
#366=CARTESIAN_POINT('',(-0.015625,0.00475,0.0048));
#367=CARTESIAN_POINT('',(-0.015625,-0.00625,0.0048));
#368=CARTESIAN_POINT('',(0.00625,-0.00625,0.0048));
#369=CARTESIAN_POINT('',(-0.013875,-0.00625,-0.010257));
#370=CARTESIAN_POINT('',(-0.013875,-0.00625,-0.01025));
#371=CARTESIAN_POINT('',(0.026375,-0.00625,-0.010257));
#372=CARTESIAN_POINT('',(0.026375,-0.00625,-0.01025));
#373=CARTESIAN_POINT('',(0.00625,-0.00625,-0.01025));
#374=CARTESIAN_POINT('',(0.00625,0.0025,-0.01025));
#375=CARTESIAN_POINT('',(0.00625,0.00475,-0.01025));
#376=CARTESIAN_POINT('',(0.026375,0.00475,-0.01025));
#377=CARTESIAN_POINT('',(-0.013875,0.00475,-0.01025));
#378=CARTESIAN_POINT('',(-0.013875,0.0025,-0.01025));
#379=CARTESIAN_POINT('',(0.026375,0.0025,-0.01025));
#380=CARTESIAN_POINT('',(-0.013875,0.0025,-0.010257));
#381=CARTESIAN_POINT('',(-0.013875,0.00475,0.0048));
#382=CARTESIAN_POINT('',(0.026375,0.0025,-0.010257));
#383=CARTESIAN_POINT('',(0.026375,0.00475,0.0048));
#384=CARTESIAN_POINT('',(0.00625,0.00475,0.0048));
#385=MECHANICAL_DESIGN_GEOMETRIC_PRESENTATION_REPRESENTATION('',(#205,#184,
#185,#186,#187,#188,#189,#190,#191,#192,#193),#386);
#386=(
GEOMETRIC_REPRESENTATION_CONTEXT(3)
GLOBAL_UNCERTAINTY_ASSIGNED_CONTEXT((#387))
GLOBAL_UNIT_ASSIGNED_CONTEXT((#390,#389,#388))
REPRESENTATION_CONTEXT('Part 1','TOP_LEVEL_ASSEMBLY_PART')
);
#387=UNCERTAINTY_MEASURE_WITH_UNIT(LENGTH_MEASURE(1.E-8),#390,
'DISTANCE_ACCURACY_VALUE','Maximum Tolerance applied to model');
#388=(
NAMED_UNIT(*)
SI_UNIT($,.STERADIAN.)
SOLID_ANGLE_UNIT()
);
#389=(
NAMED_UNIT(*)
PLANE_ANGLE_UNIT()
SI_UNIT($,.RADIAN.)
);
#390=(
LENGTH_UNIT()
NAMED_UNIT(*)
SI_UNIT($,.METRE.)
);
#391=PRODUCT_DEFINITION_SHAPE('','',#392);
#392=PRODUCT_DEFINITION('','',#394,#393);
#393=PRODUCT_DEFINITION_CONTEXT('',#400,'design');
#394=PRODUCT_DEFINITION_FORMATION_WITH_SPECIFIED_SOURCE('','',#396,
 .NOT_KNOWN.);
#395=PRODUCT_RELATED_PRODUCT_CATEGORY('','',(#396));
#396=PRODUCT('Part 1','Part 1','Part 1',(#398));
#397=PRODUCT_CATEGORY('','');
#398=PRODUCT_CONTEXT('',#400,'mechanical');
#399=APPLICATION_PROTOCOL_DEFINITION('international standard',
'ap242_managed_model_based_3d_engineering',2020,#400);
#400=APPLICATION_CONTEXT('managed model based 3d engineering');
ENDSEC;
END-ISO-10303-21;
