ISO-10303-21;
HEADER;
/* Generated by software containing ST-Developer
 * from STEP Tools, Inc. (www.steptools.com) 
 */
/* OPTION: using custom renumber hook */

FILE_DESCRIPTION(
/* description */ ('STEP AP242 Edition 2',
'CAx-IF Rec.Pracs.---Representation and Presentation of Product Manufa
cturing Information (PMI)---4.0---2014-10-13',
'CAx-IF Rec.Pracs.---3D Tessellated Geometry---0.4---2014-09-14','2;1',
'CAx-IF Rec.Pracs.---User Defined Attributes---1.5---2016-08-15'),
/* implementation_level */ '2;1');

FILE_NAME(
/* name */ 'Assembly 1 - Part 1',
/* time_stamp */ '2026-09-03T17:07:39Z',
/* author */ (''),
/* organization */ (''),
/* preprocessor_version */ 'ST-DEVELOPER v20',
/* originating_system */ 'ONSHAPE BY PTC INC, 1.220',
/* authorisation */ '  ');

FILE_SCHEMA (('AP242_MANAGED_MODEL_BASED_3D_ENGINEERING_MIM_LF { 1 0 10303 442 3 1 4 }'));
ENDSEC;

DATA;
#10=SHAPE_REPRESENTATION_RELATIONSHIP('','',#849,#11);
#11=ADVANCED_BREP_SHAPE_REPRESENTATION('',(#847),#1417);
#12=TOROIDAL_SURFACE('',#919,0.00038023863607376,0.00030625);
#13=TOROIDAL_SURFACE('',#923,0.000380238636073762,0.00030625);
#14=TOROIDAL_SURFACE('',#928,0.00038023863607376,0.00030625);
#15=TOROIDAL_SURFACE('',#932,0.000380238636073756,0.00030625);
#16=OVER_RIDING_STYLED_ITEM('',(#774),#749,#772);
#17=OVER_RIDING_STYLED_ITEM('',(#775),#750,#772);
#18=OVER_RIDING_STYLED_ITEM('',(#776),#751,#772);
#19=OVER_RIDING_STYLED_ITEM('',(#777),#752,#772);
#20=OVER_RIDING_STYLED_ITEM('',(#778),#753,#772);
#21=OVER_RIDING_STYLED_ITEM('',(#779),#754,#772);
#22=OVER_RIDING_STYLED_ITEM('',(#780),#755,#772);
#23=OVER_RIDING_STYLED_ITEM('',(#781),#756,#772);
#24=OVER_RIDING_STYLED_ITEM('',(#782),#757,#772);
#25=OVER_RIDING_STYLED_ITEM('',(#783),#758,#772);
#26=OVER_RIDING_STYLED_ITEM('',(#784),#765,#772);
#27=SPHERICAL_SURFACE('',#873,0.000844974746830584);
#28=SPHERICAL_SURFACE('',#884,0.000844974746830584);
#29=SPHERICAL_SURFACE('',#888,0.000844974746830584);
#30=SPHERICAL_SURFACE('',#890,0.000844974746830584);
#31=SPHERICAL_SURFACE('',#904,0.000844974746830584);
#32=SPHERICAL_SURFACE('',#906,0.000844974746830584);
#33=SPHERICAL_SURFACE('',#912,0.00084497);
#34=SPHERICAL_SURFACE('',#916,0.00084497);
#35=CIRCLE('',#854,0.000844974746830584);
#36=CIRCLE('',#855,0.000844974746830584);
#37=CIRCLE('',#857,0.000844974746830584);
#38=CIRCLE('',#858,0.000844974746830584);
#39=CIRCLE('',#860,0.00030625);
#40=CIRCLE('',#861,0.00030625);
#41=CIRCLE('',#862,0.00030625);
#42=CIRCLE('',#863,0.00030625);
#43=CIRCLE('',#865,0.00283536856767378);
#44=CIRCLE('',#868,0.00053375);
#45=CIRCLE('',#871,0.000844974746830584);
#46=CIRCLE('',#872,0.000844974746830584);
#47=CIRCLE('',#874,0.000844974746830584);
#48=CIRCLE('',#875,0.000844974746830584);
#49=CIRCLE('',#877,0.000844974746830584);
#50=CIRCLE('',#879,0.000844974746830584);
#51=CIRCLE('',#880,0.000844974746830584);
#52=CIRCLE('',#882,0.000844974746830584);
#53=CIRCLE('',#883,0.000844974746830584);
#54=CIRCLE('',#885,0.000844974746830584);
#55=CIRCLE('',#887,0.000844974746830584);
#56=CIRCLE('',#889,0.000844974746830584);
#57=CIRCLE('',#891,0.000844974746830584);
#58=CIRCLE('',#893,0.000844974746830584);
#59=CIRCLE('',#895,0.000844974746830584);
#60=CIRCLE('',#896,0.000844974746830584);
#61=CIRCLE('',#898,0.000844974746830584);
#62=CIRCLE('',#900,0.000844974746830584);
#63=CIRCLE('',#902,0.000844974746830584);
#64=CIRCLE('',#903,0.000844974746830584);
#65=CIRCLE('',#905,0.000844974746830584);
#66=CIRCLE('',#907,0.000844974746830584);
#67=CIRCLE('',#910,0.00283536856767378);
#68=CIRCLE('',#913,0.00084497);
#69=CIRCLE('',#915,0.00084497);
#70=CIRCLE('',#918,0.00030625);
#71=CIRCLE('',#920,0.00030625);
#72=CIRCLE('',#922,0.00030625);
#73=CIRCLE('',#924,0.00030625);
#74=CIRCLE('',#927,0.00030625);
#75=CIRCLE('',#929,0.00030625);
#76=CIRCLE('',#931,0.00030625);
#77=CIRCLE('',#933,0.00030625);
#78=CIRCLE('',#939,0.00035);
#79=CIRCLE('',#940,0.00035);
#80=CIRCLE('',#942,0.00053375);
#81=CIRCLE('',#945,0.000309750000000016);
#82=CIRCLE('',#948,0.000309750000000016);
#83=CYLINDRICAL_SURFACE('',#853,0.000844974746830584);
#84=CYLINDRICAL_SURFACE('',#856,0.000844974746830584);
#85=CYLINDRICAL_SURFACE('',#870,0.000844974746830584);
#86=CYLINDRICAL_SURFACE('',#876,0.000844974746830584);
#87=CYLINDRICAL_SURFACE('',#878,0.000844974746830584);
#88=CYLINDRICAL_SURFACE('',#881,0.000844974746830584);
#89=CYLINDRICAL_SURFACE('',#886,0.000844974746830584);
#90=CYLINDRICAL_SURFACE('',#892,0.000844974746830584);
#91=CYLINDRICAL_SURFACE('',#894,0.000844974746830584);
#92=CYLINDRICAL_SURFACE('',#897,0.000844974746830584);
#93=CYLINDRICAL_SURFACE('',#899,0.000844974746830584);
#94=CYLINDRICAL_SURFACE('',#901,0.000844974746830584);
#95=CYLINDRICAL_SURFACE('',#908,0.000844974746830584);
#96=CYLINDRICAL_SURFACE('',#909,0.00283536856767378);
#97=CYLINDRICAL_SURFACE('',#914,0.00084497);
#98=CYLINDRICAL_SURFACE('',#917,0.00030625);
#99=CYLINDRICAL_SURFACE('',#921,0.00030625);
#100=CYLINDRICAL_SURFACE('',#925,0.00030625);
#101=CYLINDRICAL_SURFACE('',#926,0.00030625);
#102=CYLINDRICAL_SURFACE('',#930,0.00030625);
#103=CYLINDRICAL_SURFACE('',#934,0.00030625);
#104=CYLINDRICAL_SURFACE('',#938,0.00035);
#105=CYLINDRICAL_SURFACE('',#941,0.00053375);
#106=CYLINDRICAL_SURFACE('',#947,0.000309750000000016);
#107=ORIENTED_EDGE('',*,*,#299,.F.);
#108=ORIENTED_EDGE('',*,*,#300,.T.);
#109=ORIENTED_EDGE('',*,*,#301,.T.);
#110=ORIENTED_EDGE('',*,*,#302,.T.);
#111=ORIENTED_EDGE('',*,*,#303,.T.);
#112=ORIENTED_EDGE('',*,*,#304,.T.);
#113=ORIENTED_EDGE('',*,*,#305,.T.);
#114=ORIENTED_EDGE('',*,*,#306,.T.);
#115=ORIENTED_EDGE('',*,*,#307,.T.);
#116=ORIENTED_EDGE('',*,*,#308,.T.);
#117=ORIENTED_EDGE('',*,*,#309,.T.);
#118=ORIENTED_EDGE('',*,*,#310,.F.);
#119=ORIENTED_EDGE('',*,*,#311,.F.);
#120=ORIENTED_EDGE('',*,*,#312,.T.);
#121=ORIENTED_EDGE('',*,*,#309,.F.);
#122=ORIENTED_EDGE('',*,*,#313,.F.);
#123=ORIENTED_EDGE('',*,*,#314,.F.);
#124=ORIENTED_EDGE('',*,*,#315,.T.);
#125=ORIENTED_EDGE('',*,*,#316,.F.);
#126=ORIENTED_EDGE('',*,*,#317,.F.);
#127=ORIENTED_EDGE('',*,*,#318,.F.);
#128=ORIENTED_EDGE('',*,*,#319,.F.);
#129=ORIENTED_EDGE('',*,*,#320,.T.);
#130=ORIENTED_EDGE('',*,*,#321,.T.);
#131=ORIENTED_EDGE('',*,*,#322,.T.);
#132=ORIENTED_EDGE('',*,*,#323,.T.);
#133=ORIENTED_EDGE('',*,*,#324,.T.);
#134=ORIENTED_EDGE('',*,*,#325,.F.);
#135=ORIENTED_EDGE('',*,*,#326,.F.);
#136=ORIENTED_EDGE('',*,*,#327,.T.);
#137=ORIENTED_EDGE('',*,*,#328,.T.);
#138=ORIENTED_EDGE('',*,*,#329,.T.);
#139=ORIENTED_EDGE('',*,*,#330,.T.);
#140=ORIENTED_EDGE('',*,*,#331,.T.);
#141=ORIENTED_EDGE('',*,*,#332,.T.);
#142=ORIENTED_EDGE('',*,*,#314,.T.);
#143=ORIENTED_EDGE('',*,*,#333,.T.);
#144=ORIENTED_EDGE('',*,*,#334,.T.);
#145=ORIENTED_EDGE('',*,*,#335,.T.);
#146=ORIENTED_EDGE('',*,*,#336,.T.);
#147=ORIENTED_EDGE('',*,*,#337,.F.);
#148=ORIENTED_EDGE('',*,*,#338,.F.);
#149=ORIENTED_EDGE('',*,*,#316,.T.);
#150=ORIENTED_EDGE('',*,*,#339,.T.);
#151=ORIENTED_EDGE('',*,*,#311,.T.);
#152=ORIENTED_EDGE('',*,*,#340,.T.);
#153=ORIENTED_EDGE('',*,*,#341,.T.);
#154=ORIENTED_EDGE('',*,*,#342,.T.);
#155=ORIENTED_EDGE('',*,*,#343,.T.);
#156=ORIENTED_EDGE('',*,*,#344,.T.);
#157=ORIENTED_EDGE('',*,*,#345,.F.);
#158=ORIENTED_EDGE('',*,*,#306,.F.);
#159=ORIENTED_EDGE('',*,*,#346,.F.);
#160=ORIENTED_EDGE('',*,*,#344,.F.);
#161=ORIENTED_EDGE('',*,*,#347,.F.);
#162=ORIENTED_EDGE('',*,*,#348,.F.);
#163=ORIENTED_EDGE('',*,*,#345,.T.);
#164=ORIENTED_EDGE('',*,*,#348,.T.);
#165=ORIENTED_EDGE('',*,*,#328,.F.);
#166=ORIENTED_EDGE('',*,*,#349,.F.);
#167=ORIENTED_EDGE('',*,*,#307,.F.);
#168=ORIENTED_EDGE('',*,*,#350,.F.);
#169=ORIENTED_EDGE('',*,*,#308,.F.);
#170=ORIENTED_EDGE('',*,*,#351,.F.);
#171=ORIENTED_EDGE('',*,*,#321,.F.);
#172=ORIENTED_EDGE('',*,*,#352,.F.);
#173=ORIENTED_EDGE('',*,*,#302,.F.);
#174=ORIENTED_EDGE('',*,*,#353,.F.);
#175=ORIENTED_EDGE('',*,*,#305,.F.);
#176=ORIENTED_EDGE('',*,*,#346,.T.);
#177=ORIENTED_EDGE('',*,*,#353,.T.);
#178=ORIENTED_EDGE('',*,*,#354,.F.);
#179=ORIENTED_EDGE('',*,*,#343,.F.);
#180=ORIENTED_EDGE('',*,*,#355,.T.);
#181=ORIENTED_EDGE('',*,*,#329,.F.);
#182=ORIENTED_EDGE('',*,*,#347,.T.);
#183=ORIENTED_EDGE('',*,*,#351,.T.);
#184=ORIENTED_EDGE('',*,*,#349,.T.);
#185=ORIENTED_EDGE('',*,*,#356,.F.);
#186=ORIENTED_EDGE('',*,*,#313,.T.);
#187=ORIENTED_EDGE('',*,*,#350,.T.);
#188=ORIENTED_EDGE('',*,*,#357,.F.);
#189=ORIENTED_EDGE('',*,*,#301,.F.);
#190=ORIENTED_EDGE('',*,*,#358,.T.);
#191=ORIENTED_EDGE('',*,*,#341,.F.);
#192=ORIENTED_EDGE('',*,*,#354,.T.);
#193=ORIENTED_EDGE('',*,*,#330,.F.);
#194=ORIENTED_EDGE('',*,*,#359,.T.);
#195=ORIENTED_EDGE('',*,*,#334,.F.);
#196=ORIENTED_EDGE('',*,*,#360,.F.);
#197=ORIENTED_EDGE('',*,*,#356,.T.);
#198=ORIENTED_EDGE('',*,*,#327,.F.);
#199=ORIENTED_EDGE('',*,*,#361,.F.);
#200=ORIENTED_EDGE('',*,*,#322,.F.);
#201=ORIENTED_EDGE('',*,*,#357,.T.);
#202=ORIENTED_EDGE('',*,*,#324,.F.);
#203=ORIENTED_EDGE('',*,*,#362,.F.);
#204=ORIENTED_EDGE('',*,*,#340,.F.);
#205=ORIENTED_EDGE('',*,*,#363,.F.);
#206=ORIENTED_EDGE('',*,*,#336,.F.);
#207=ORIENTED_EDGE('',*,*,#364,.T.);
#208=ORIENTED_EDGE('',*,*,#300,.F.);
#209=ORIENTED_EDGE('',*,*,#361,.T.);
#210=ORIENTED_EDGE('',*,*,#360,.T.);
#211=ORIENTED_EDGE('',*,*,#365,.F.);
#212=ORIENTED_EDGE('',*,*,#317,.T.);
#213=ORIENTED_EDGE('',*,*,#362,.T.);
#214=ORIENTED_EDGE('',*,*,#366,.F.);
#215=ORIENTED_EDGE('',*,*,#365,.T.);
#216=ORIENTED_EDGE('',*,*,#333,.F.);
#217=ORIENTED_EDGE('',*,*,#366,.T.);
#218=ORIENTED_EDGE('',*,*,#323,.F.);
#219=ORIENTED_EDGE('',*,*,#367,.F.);
#220=ORIENTED_EDGE('',*,*,#326,.T.);
#221=ORIENTED_EDGE('',*,*,#367,.T.);
#222=ORIENTED_EDGE('',*,*,#358,.F.);
#223=ORIENTED_EDGE('',*,*,#364,.F.);
#224=ORIENTED_EDGE('',*,*,#368,.F.);
#225=ORIENTED_EDGE('',*,*,#368,.T.);
#226=ORIENTED_EDGE('',*,*,#335,.F.);
#227=ORIENTED_EDGE('',*,*,#369,.F.);
#228=ORIENTED_EDGE('',*,*,#342,.F.);
#229=ORIENTED_EDGE('',*,*,#359,.F.);
#230=ORIENTED_EDGE('',*,*,#355,.F.);
#231=ORIENTED_EDGE('',*,*,#369,.T.);
#232=ORIENTED_EDGE('',*,*,#320,.F.);
#233=ORIENTED_EDGE('',*,*,#370,.T.);
#234=ORIENTED_EDGE('',*,*,#370,.F.);
#235=ORIENTED_EDGE('',*,*,#371,.T.);
#236=ORIENTED_EDGE('',*,*,#371,.F.);
#237=ORIENTED_EDGE('',*,*,#372,.T.);
#238=ORIENTED_EDGE('',*,*,#372,.F.);
#239=ORIENTED_EDGE('',*,*,#373,.T.);
#240=ORIENTED_EDGE('',*,*,#373,.F.);
#241=ORIENTED_EDGE('',*,*,#325,.T.);
#242=ORIENTED_EDGE('',*,*,#319,.T.);
#243=ORIENTED_EDGE('',*,*,#374,.T.);
#244=ORIENTED_EDGE('',*,*,#374,.F.);
#245=ORIENTED_EDGE('',*,*,#375,.T.);
#246=ORIENTED_EDGE('',*,*,#375,.F.);
#247=ORIENTED_EDGE('',*,*,#376,.T.);
#248=ORIENTED_EDGE('',*,*,#376,.F.);
#249=ORIENTED_EDGE('',*,*,#377,.T.);
#250=ORIENTED_EDGE('',*,*,#377,.F.);
#251=ORIENTED_EDGE('',*,*,#318,.T.);
#252=ORIENTED_EDGE('',*,*,#339,.F.);
#253=ORIENTED_EDGE('',*,*,#315,.F.);
#254=ORIENTED_EDGE('',*,*,#332,.F.);
#255=ORIENTED_EDGE('',*,*,#378,.T.);
#256=ORIENTED_EDGE('',*,*,#310,.T.);
#257=ORIENTED_EDGE('',*,*,#312,.F.);
#258=ORIENTED_EDGE('',*,*,#352,.T.);
#259=ORIENTED_EDGE('',*,*,#304,.F.);
#260=ORIENTED_EDGE('',*,*,#379,.F.);
#261=ORIENTED_EDGE('',*,*,#337,.T.);
#262=ORIENTED_EDGE('',*,*,#363,.T.);
#263=ORIENTED_EDGE('',*,*,#299,.T.);
#264=ORIENTED_EDGE('',*,*,#378,.F.);
#265=ORIENTED_EDGE('',*,*,#331,.F.);
#266=ORIENTED_EDGE('',*,*,#379,.T.);
#267=ORIENTED_EDGE('',*,*,#303,.F.);
#268=ORIENTED_EDGE('',*,*,#380,.T.);
#269=ORIENTED_EDGE('',*,*,#381,.F.);
#270=ORIENTED_EDGE('',*,*,#382,.F.);
#271=ORIENTED_EDGE('',*,*,#338,.T.);
#272=ORIENTED_EDGE('',*,*,#380,.F.);
#273=ORIENTED_EDGE('',*,*,#382,.T.);
#274=ORIENTED_EDGE('',*,*,#381,.T.);
#275=ORIENTED_EDGE('',*,*,#383,.F.);
#276=ORIENTED_EDGE('',*,*,#384,.T.);
#277=ORIENTED_EDGE('',*,*,#385,.T.);
#278=ORIENTED_EDGE('',*,*,#386,.T.);
#279=ORIENTED_EDGE('',*,*,#384,.F.);
#280=ORIENTED_EDGE('',*,*,#387,.F.);
#281=ORIENTED_EDGE('',*,*,#388,.T.);
#282=ORIENTED_EDGE('',*,*,#389,.T.);
#283=ORIENTED_EDGE('',*,*,#383,.T.);
#284=ORIENTED_EDGE('',*,*,#390,.F.);
#285=ORIENTED_EDGE('',*,*,#391,.F.);
#286=ORIENTED_EDGE('',*,*,#387,.T.);
#287=ORIENTED_EDGE('',*,*,#386,.F.);
#288=ORIENTED_EDGE('',*,*,#392,.F.);
#289=ORIENTED_EDGE('',*,*,#393,.T.);
#290=ORIENTED_EDGE('',*,*,#390,.T.);
#291=ORIENTED_EDGE('',*,*,#385,.F.);
#292=ORIENTED_EDGE('',*,*,#389,.F.);
#293=ORIENTED_EDGE('',*,*,#394,.T.);
#294=ORIENTED_EDGE('',*,*,#392,.T.);
#295=ORIENTED_EDGE('',*,*,#388,.F.);
#296=ORIENTED_EDGE('',*,*,#391,.T.);
#297=ORIENTED_EDGE('',*,*,#393,.F.);
#298=ORIENTED_EDGE('',*,*,#394,.F.);
#299=EDGE_CURVE('',#395,#396,#457,.T.);
#300=EDGE_CURVE('',#395,#397,#458,.T.);
#301=EDGE_CURVE('',#397,#398,#459,.T.);
#302=EDGE_CURVE('',#398,#396,#460,.F.);
#303=EDGE_CURVE('',#399,#400,#461,.T.);
#304=EDGE_CURVE('',#400,#401,#462,.T.);
#305=EDGE_CURVE('',#401,#402,#463,.T.);
#306=EDGE_CURVE('',#402,#403,#464,.F.);
#307=EDGE_CURVE('',#403,#404,#465,.F.);
#308=EDGE_CURVE('',#404,#405,#466,.T.);
#309=EDGE_CURVE('',#405,#406,#467,.T.);
#310=EDGE_CURVE('',#399,#406,#468,.T.);
#311=EDGE_CURVE('',#407,#408,#469,.F.);
#312=EDGE_CURVE('',#407,#406,#35,.F.);
#313=EDGE_CURVE('',#408,#405,#36,.T.);
#314=EDGE_CURVE('',#409,#410,#470,.F.);
#315=EDGE_CURVE('',#409,#411,#37,.F.);
#316=EDGE_CURVE('',#412,#411,#471,.T.);
#317=EDGE_CURVE('',#410,#412,#38,.T.);
#318=EDGE_CURVE('',#413,#413,#39,.T.);
#319=EDGE_CURVE('',#414,#414,#40,.T.);
#320=EDGE_CURVE('',#415,#415,#41,.T.);
#321=EDGE_CURVE('',#416,#417,#472,.F.);
#322=EDGE_CURVE('',#417,#418,#473,.F.);
#323=EDGE_CURVE('',#418,#419,#474,.T.);
#324=EDGE_CURVE('',#419,#416,#475,.T.);
#325=EDGE_CURVE('',#420,#420,#42,.T.);
#326=EDGE_CURVE('',#421,#421,#43,.T.);
#327=EDGE_CURVE('',#422,#423,#476,.T.);
#328=EDGE_CURVE('',#423,#424,#477,.T.);
#329=EDGE_CURVE('',#424,#425,#478,.F.);
#330=EDGE_CURVE('',#425,#422,#479,.F.);
#331=EDGE_CURVE('',#426,#427,#480,.T.);
#332=EDGE_CURVE('',#427,#409,#481,.T.);
#333=EDGE_CURVE('',#410,#428,#482,.F.);
#334=EDGE_CURVE('',#428,#429,#483,.T.);
#335=EDGE_CURVE('',#429,#430,#484,.T.);
#336=EDGE_CURVE('',#430,#431,#485,.F.);
#337=EDGE_CURVE('',#426,#431,#486,.T.);
#338=EDGE_CURVE('',#432,#432,#44,.T.);
#339=EDGE_CURVE('',#411,#407,#487,.T.);
#340=EDGE_CURVE('',#408,#412,#488,.F.);
#341=EDGE_CURVE('',#433,#434,#489,.F.);
#342=EDGE_CURVE('',#434,#435,#490,.F.);
#343=EDGE_CURVE('',#435,#436,#491,.T.);
#344=EDGE_CURVE('',#436,#433,#492,.T.);
#345=EDGE_CURVE('',#403,#436,#45,.T.);
#346=EDGE_CURVE('',#433,#402,#46,.T.);
#347=EDGE_CURVE('',#424,#436,#47,.F.);
#348=EDGE_CURVE('',#403,#424,#48,.F.);
#349=EDGE_CURVE('',#404,#423,#49,.T.);
#350=EDGE_CURVE('',#405,#416,#50,.T.);
#351=EDGE_CURVE('',#417,#404,#51,.T.);
#352=EDGE_CURVE('',#396,#401,#52,.F.);
#353=EDGE_CURVE('',#402,#398,#53,.T.);
#354=EDGE_CURVE('',#433,#398,#54,.F.);
#355=EDGE_CURVE('',#435,#425,#55,.F.);
#356=EDGE_CURVE('',#417,#423,#56,.F.);
#357=EDGE_CURVE('',#408,#416,#57,.F.);
#358=EDGE_CURVE('',#397,#434,#58,.T.);
#359=EDGE_CURVE('',#425,#429,#59,.T.);
#360=EDGE_CURVE('',#422,#428,#60,.T.);
#361=EDGE_CURVE('',#418,#422,#61,.T.);
#362=EDGE_CURVE('',#412,#419,#62,.T.);
#363=EDGE_CURVE('',#431,#395,#63,.F.);
#364=EDGE_CURVE('',#430,#397,#64,.F.);
#365=EDGE_CURVE('',#418,#428,#65,.F.);
#366=EDGE_CURVE('',#410,#419,#66,.F.);
#367=EDGE_CURVE('',#437,#437,#67,.T.);
#368=EDGE_CURVE('',#434,#430,#68,.T.);
#369=EDGE_CURVE('',#435,#429,#69,.T.);
#370=EDGE_CURVE('',#438,#438,#70,.T.);
#371=EDGE_CURVE('',#439,#439,#71,.T.);
#372=EDGE_CURVE('',#440,#440,#72,.T.);
#373=EDGE_CURVE('',#441,#441,#73,.T.);
#374=EDGE_CURVE('',#442,#442,#74,.T.);
#375=EDGE_CURVE('',#443,#443,#75,.T.);
#376=EDGE_CURVE('',#444,#444,#76,.T.);
#377=EDGE_CURVE('',#445,#445,#77,.T.);
#378=EDGE_CURVE('',#427,#399,#493,.T.);
#379=EDGE_CURVE('',#426,#400,#494,.T.);
#380=EDGE_CURVE('',#446,#446,#78,.T.);
#381=EDGE_CURVE('',#447,#447,#79,.T.);
#382=EDGE_CURVE('',#448,#448,#80,.T.);
#383=EDGE_CURVE('',#449,#450,#81,.T.);
#384=EDGE_CURVE('',#449,#451,#495,.T.);
#385=EDGE_CURVE('',#451,#452,#496,.T.);
#386=EDGE_CURVE('',#452,#450,#497,.T.);
#387=EDGE_CURVE('',#453,#449,#498,.T.);
#388=EDGE_CURVE('',#453,#454,#499,.T.);
#389=EDGE_CURVE('',#454,#451,#500,.T.);
#390=EDGE_CURVE('',#455,#450,#501,.T.);
#391=EDGE_CURVE('',#453,#455,#82,.T.);
#392=EDGE_CURVE('',#456,#452,#502,.T.);
#393=EDGE_CURVE('',#456,#455,#503,.T.);
#394=EDGE_CURVE('',#454,#456,#504,.T.);
#395=VERTEX_POINT('',#1207);
#396=VERTEX_POINT('',#1208);
#397=VERTEX_POINT('',#1210);
#398=VERTEX_POINT('',#1212);
#399=VERTEX_POINT('',#1216);
#400=VERTEX_POINT('',#1217);
#401=VERTEX_POINT('',#1219);
#402=VERTEX_POINT('',#1221);
#403=VERTEX_POINT('',#1223);
#404=VERTEX_POINT('',#1225);
#405=VERTEX_POINT('',#1227);
#406=VERTEX_POINT('',#1229);
#407=VERTEX_POINT('',#1233);
#408=VERTEX_POINT('',#1234);
#409=VERTEX_POINT('',#1239);
#410=VERTEX_POINT('',#1240);
#411=VERTEX_POINT('',#1242);
#412=VERTEX_POINT('',#1244);
#413=VERTEX_POINT('',#1248);
#414=VERTEX_POINT('',#1250);
#415=VERTEX_POINT('',#1252);
#416=VERTEX_POINT('',#1254);
#417=VERTEX_POINT('',#1255);
#418=VERTEX_POINT('',#1257);
#419=VERTEX_POINT('',#1259);
#420=VERTEX_POINT('',#1262);
#421=VERTEX_POINT('',#1265);
#422=VERTEX_POINT('',#1267);
#423=VERTEX_POINT('',#1268);
#424=VERTEX_POINT('',#1270);
#425=VERTEX_POINT('',#1272);
#426=VERTEX_POINT('',#1276);
#427=VERTEX_POINT('',#1277);
#428=VERTEX_POINT('',#1280);
#429=VERTEX_POINT('',#1282);
#430=VERTEX_POINT('',#1284);
#431=VERTEX_POINT('',#1286);
#432=VERTEX_POINT('',#1290);
#433=VERTEX_POINT('',#1295);
#434=VERTEX_POINT('',#1296);
#435=VERTEX_POINT('',#1298);
#436=VERTEX_POINT('',#1300);
#437=VERTEX_POINT('',#1343);
#438=VERTEX_POINT('',#1352);
#439=VERTEX_POINT('',#1355);
#440=VERTEX_POINT('',#1358);
#441=VERTEX_POINT('',#1361);
#442=VERTEX_POINT('',#1365);
#443=VERTEX_POINT('',#1368);
#444=VERTEX_POINT('',#1371);
#445=VERTEX_POINT('',#1374);
#446=VERTEX_POINT('',#1383);
#447=VERTEX_POINT('',#1385);
#448=VERTEX_POINT('',#1388);
#449=VERTEX_POINT('',#1392);
#450=VERTEX_POINT('',#1393);
#451=VERTEX_POINT('',#1395);
#452=VERTEX_POINT('',#1397);
#453=VERTEX_POINT('',#1401);
#454=VERTEX_POINT('',#1403);
#455=VERTEX_POINT('',#1407);
#456=VERTEX_POINT('',#1411);
#457=LINE('',#1206,#505);
#458=LINE('',#1209,#506);
#459=LINE('',#1211,#507);
#460=LINE('',#1213,#508);
#461=LINE('',#1215,#509);
#462=LINE('',#1218,#510);
#463=LINE('',#1220,#511);
#464=LINE('',#1222,#512);
#465=LINE('',#1224,#513);
#466=LINE('',#1226,#514);
#467=LINE('',#1228,#515);
#468=LINE('',#1230,#516);
#469=LINE('',#1232,#517);
#470=LINE('',#1238,#518);
#471=LINE('',#1243,#519);
#472=LINE('',#1253,#520);
#473=LINE('',#1256,#521);
#474=LINE('',#1258,#522);
#475=LINE('',#1260,#523);
#476=LINE('',#1266,#524);
#477=LINE('',#1269,#525);
#478=LINE('',#1271,#526);
#479=LINE('',#1273,#527);
#480=LINE('',#1275,#528);
#481=LINE('',#1278,#529);
#482=LINE('',#1279,#530);
#483=LINE('',#1281,#531);
#484=LINE('',#1283,#532);
#485=LINE('',#1285,#533);
#486=LINE('',#1287,#534);
#487=LINE('',#1291,#535);
#488=LINE('',#1292,#536);
#489=LINE('',#1294,#537);
#490=LINE('',#1297,#538);
#491=LINE('',#1299,#539);
#492=LINE('',#1301,#540);
#493=LINE('',#1377,#541);
#494=LINE('',#1379,#542);
#495=LINE('',#1394,#543);
#496=LINE('',#1396,#544);
#497=LINE('',#1398,#545);
#498=LINE('',#1400,#546);
#499=LINE('',#1402,#547);
#500=LINE('',#1404,#548);
#501=LINE('',#1406,#549);
#502=LINE('',#1410,#550);
#503=LINE('',#1412,#551);
#504=LINE('',#1414,#552);
#505=VECTOR('',#956,1.);
#506=VECTOR('',#957,1.);
#507=VECTOR('',#958,1.);
#508=VECTOR('',#959,1.);
#509=VECTOR('',#962,1.);
#510=VECTOR('',#963,1.);
#511=VECTOR('',#964,1.);
#512=VECTOR('',#965,1.);
#513=VECTOR('',#966,1.);
#514=VECTOR('',#967,1.);
#515=VECTOR('',#968,1.);
#516=VECTOR('',#969,1.);
#517=VECTOR('',#972,1.);
#518=VECTOR('',#979,1.);
#519=VECTOR('',#982,1.);
#520=VECTOR('',#993,1.);
#521=VECTOR('',#994,1.);
#522=VECTOR('',#995,1.);
#523=VECTOR('',#996,1.);
#524=VECTOR('',#1003,1.);
#525=VECTOR('',#1004,1.);
#526=VECTOR('',#1005,1.);
#527=VECTOR('',#1006,1.);
#528=VECTOR('',#1009,1.);
#529=VECTOR('',#1010,1.);
#530=VECTOR('',#1011,1.);
#531=VECTOR('',#1012,1.);
#532=VECTOR('',#1013,1.);
#533=VECTOR('',#1014,1.);
#534=VECTOR('',#1015,1.);
#535=VECTOR('',#1020,1.);
#536=VECTOR('',#1021,1.);
#537=VECTOR('',#1024,1.);
#538=VECTOR('',#1025,1.);
#539=VECTOR('',#1026,1.);
#540=VECTOR('',#1027,1.);
#541=VECTOR('',#1160,1.);
#542=VECTOR('',#1163,1.);
#543=VECTOR('',#1182,1.);
#544=VECTOR('',#1183,1.);
#545=VECTOR('',#1184,1.);
#546=VECTOR('',#1187,1.);
#547=VECTOR('',#1188,1.);
#548=VECTOR('',#1189,1.);
#549=VECTOR('',#1192,1.);
#550=VECTOR('',#1197,1.);
#551=VECTOR('',#1198,1.);
#552=VECTOR('',#1201,1.);
#553=EDGE_LOOP('',(#107,#108,#109,#110));
#554=EDGE_LOOP('',(#111,#112,#113,#114,#115,#116,#117,#118));
#555=EDGE_LOOP('',(#119,#120,#121,#122));
#556=EDGE_LOOP('',(#123,#124,#125,#126));
#557=EDGE_LOOP('',(#127));
#558=EDGE_LOOP('',(#128));
#559=EDGE_LOOP('',(#129));
#560=EDGE_LOOP('',(#130,#131,#132,#133));
#561=EDGE_LOOP('',(#134));
#562=EDGE_LOOP('',(#135));
#563=EDGE_LOOP('',(#136,#137,#138,#139));
#564=EDGE_LOOP('',(#140,#141,#142,#143,#144,#145,#146,#147));
#565=EDGE_LOOP('',(#148));
#566=EDGE_LOOP('',(#149,#150,#151,#152));
#567=EDGE_LOOP('',(#153,#154,#155,#156));
#568=EDGE_LOOP('',(#157,#158,#159,#160));
#569=EDGE_LOOP('',(#161,#162,#163));
#570=EDGE_LOOP('',(#164,#165,#166,#167));
#571=EDGE_LOOP('',(#168,#169,#170,#171));
#572=EDGE_LOOP('',(#172,#173,#174,#175));
#573=EDGE_LOOP('',(#176,#177,#178));
#574=EDGE_LOOP('',(#179,#180,#181,#182));
#575=EDGE_LOOP('',(#183,#184,#185));
#576=EDGE_LOOP('',(#186,#187,#188));
#577=EDGE_LOOP('',(#189,#190,#191,#192));
#578=EDGE_LOOP('',(#193,#194,#195,#196));
#579=EDGE_LOOP('',(#197,#198,#199,#200));
#580=EDGE_LOOP('',(#201,#202,#203,#204));
#581=EDGE_LOOP('',(#205,#206,#207,#208));
#582=EDGE_LOOP('',(#209,#210,#211));
#583=EDGE_LOOP('',(#212,#213,#214));
#584=EDGE_LOOP('',(#215,#216,#217,#218));
#585=EDGE_LOOP('',(#219));
#586=EDGE_LOOP('',(#220));
#587=EDGE_LOOP('',(#221));
#588=EDGE_LOOP('',(#222,#223,#224));
#589=EDGE_LOOP('',(#225,#226,#227,#228));
#590=EDGE_LOOP('',(#229,#230,#231));
#591=EDGE_LOOP('',(#232));
#592=EDGE_LOOP('',(#233));
#593=EDGE_LOOP('',(#234));
#594=EDGE_LOOP('',(#235));
#595=EDGE_LOOP('',(#236));
#596=EDGE_LOOP('',(#237));
#597=EDGE_LOOP('',(#238));
#598=EDGE_LOOP('',(#239));
#599=EDGE_LOOP('',(#240));
#600=EDGE_LOOP('',(#241));
#601=EDGE_LOOP('',(#242));
#602=EDGE_LOOP('',(#243));
#603=EDGE_LOOP('',(#244));
#604=EDGE_LOOP('',(#245));
#605=EDGE_LOOP('',(#246));
#606=EDGE_LOOP('',(#247));
#607=EDGE_LOOP('',(#248));
#608=EDGE_LOOP('',(#249));
#609=EDGE_LOOP('',(#250));
#610=EDGE_LOOP('',(#251));
#611=EDGE_LOOP('',(#252,#253,#254,#255,#256,#257));
#612=EDGE_LOOP('',(#258,#259,#260,#261,#262,#263));
#613=EDGE_LOOP('',(#264,#265,#266,#267));
#614=EDGE_LOOP('',(#268));
#615=EDGE_LOOP('',(#269));
#616=EDGE_LOOP('',(#270));
#617=EDGE_LOOP('',(#271));
#618=EDGE_LOOP('',(#272));
#619=EDGE_LOOP('',(#273));
#620=EDGE_LOOP('',(#274));
#621=EDGE_LOOP('',(#275,#276,#277,#278));
#622=EDGE_LOOP('',(#279,#280,#281,#282));
#623=EDGE_LOOP('',(#283,#284,#285,#286));
#624=EDGE_LOOP('',(#287,#288,#289,#290));
#625=EDGE_LOOP('',(#291,#292,#293,#294));
#626=EDGE_LOOP('',(#295,#296,#297,#298));
#627=FACE_BOUND('',#553,.T.);
#628=FACE_BOUND('',#554,.T.);
#629=FACE_BOUND('',#555,.T.);
#630=FACE_BOUND('',#556,.T.);
#631=FACE_BOUND('',#557,.T.);
#632=FACE_BOUND('',#558,.T.);
#633=FACE_BOUND('',#559,.T.);
#634=FACE_BOUND('',#560,.T.);
#635=FACE_BOUND('',#561,.T.);
#636=FACE_BOUND('',#562,.T.);
#637=FACE_BOUND('',#563,.T.);
#638=FACE_BOUND('',#564,.T.);
#639=FACE_BOUND('',#565,.T.);
#640=FACE_BOUND('',#566,.T.);
#641=FACE_BOUND('',#567,.T.);
#642=FACE_BOUND('',#568,.T.);
#643=FACE_BOUND('',#569,.T.);
#644=FACE_BOUND('',#570,.T.);
#645=FACE_BOUND('',#571,.T.);
#646=FACE_BOUND('',#572,.T.);
#647=FACE_BOUND('',#573,.T.);
#648=FACE_BOUND('',#574,.T.);
#649=FACE_BOUND('',#575,.T.);
#650=FACE_BOUND('',#576,.T.);
#651=FACE_BOUND('',#577,.T.);
#652=FACE_BOUND('',#578,.T.);
#653=FACE_BOUND('',#579,.T.);
#654=FACE_BOUND('',#580,.T.);
#655=FACE_BOUND('',#581,.T.);
#656=FACE_BOUND('',#582,.T.);
#657=FACE_BOUND('',#583,.T.);
#658=FACE_BOUND('',#584,.T.);
#659=FACE_BOUND('',#585,.T.);
#660=FACE_BOUND('',#586,.T.);
#661=FACE_BOUND('',#587,.T.);
#662=FACE_BOUND('',#588,.T.);
#663=FACE_BOUND('',#589,.T.);
#664=FACE_BOUND('',#590,.T.);
#665=FACE_BOUND('',#591,.T.);
#666=FACE_BOUND('',#592,.T.);
#667=FACE_BOUND('',#593,.T.);
#668=FACE_BOUND('',#594,.T.);
#669=FACE_BOUND('',#595,.T.);
#670=FACE_BOUND('',#596,.T.);
#671=FACE_BOUND('',#597,.T.);
#672=FACE_BOUND('',#598,.T.);
#673=FACE_BOUND('',#599,.T.);
#674=FACE_BOUND('',#600,.T.);
#675=FACE_BOUND('',#601,.T.);
#676=FACE_BOUND('',#602,.T.);
#677=FACE_BOUND('',#603,.T.);
#678=FACE_BOUND('',#604,.T.);
#679=FACE_BOUND('',#605,.T.);
#680=FACE_BOUND('',#606,.T.);
#681=FACE_BOUND('',#607,.T.);
#682=FACE_BOUND('',#608,.T.);
#683=FACE_BOUND('',#609,.T.);
#684=FACE_BOUND('',#610,.T.);
#685=FACE_BOUND('',#611,.T.);
#686=FACE_BOUND('',#612,.T.);
#687=FACE_BOUND('',#613,.T.);
#688=FACE_BOUND('',#614,.T.);
#689=FACE_BOUND('',#615,.T.);
#690=FACE_BOUND('',#616,.T.);
#691=FACE_BOUND('',#617,.T.);
#692=FACE_BOUND('',#618,.T.);
#693=FACE_BOUND('',#619,.T.);
#694=FACE_BOUND('',#620,.T.);
#695=FACE_BOUND('',#621,.T.);
#696=FACE_BOUND('',#622,.T.);
#697=FACE_BOUND('',#623,.T.);
#698=FACE_BOUND('',#624,.T.);
#699=FACE_BOUND('',#625,.T.);
#700=FACE_BOUND('',#626,.T.);
#701=PLANE('',#851);
#702=PLANE('',#852);
#703=PLANE('',#859);
#704=PLANE('',#864);
#705=PLANE('',#866);
#706=PLANE('',#867);
#707=PLANE('',#869);
#708=PLANE('',#911);
#709=PLANE('',#935);
#710=PLANE('',#936);
#711=PLANE('',#937);
#712=PLANE('',#943);
#713=PLANE('',#944);
#714=PLANE('',#946);
#715=PLANE('',#949);
#716=PLANE('',#950);
#717=PLANE('',#951);
#718=ADVANCED_FACE('',(#627),#701,.F.);
#719=ADVANCED_FACE('',(#628),#702,.T.);
#720=ADVANCED_FACE('',(#629),#83,.T.);
#721=ADVANCED_FACE('',(#630),#84,.T.);
#722=ADVANCED_FACE('',(#631,#632,#633,#634,#635),#703,.T.);
#723=ADVANCED_FACE('',(#636,#637),#704,.T.);
#724=ADVANCED_FACE('',(#638),#705,.F.);
#725=ADVANCED_FACE('',(#639,#640),#706,.F.);
#726=ADVANCED_FACE('',(#641),#707,.F.);
#727=ADVANCED_FACE('',(#642),#85,.T.);
#728=ADVANCED_FACE('',(#643),#27,.T.);
#729=ADVANCED_FACE('',(#644),#86,.T.);
#730=ADVANCED_FACE('',(#645),#87,.T.);
#731=ADVANCED_FACE('',(#646),#88,.T.);
#732=ADVANCED_FACE('',(#647),#28,.T.);
#733=ADVANCED_FACE('',(#648),#89,.T.);
#734=ADVANCED_FACE('',(#649),#29,.T.);
#735=ADVANCED_FACE('',(#650),#30,.T.);
#736=ADVANCED_FACE('',(#651),#90,.T.);
#737=ADVANCED_FACE('',(#652),#91,.T.);
#738=ADVANCED_FACE('',(#653),#92,.T.);
#739=ADVANCED_FACE('',(#654),#93,.T.);
#740=ADVANCED_FACE('',(#655),#94,.T.);
#741=ADVANCED_FACE('',(#656),#31,.T.);
#742=ADVANCED_FACE('',(#657),#32,.T.);
#743=ADVANCED_FACE('',(#658),#95,.T.);
#744=ADVANCED_FACE('',(#659,#660),#96,.F.);
#745=ADVANCED_FACE('',(#661),#708,.T.);
#746=ADVANCED_FACE('',(#662),#33,.T.);
#747=ADVANCED_FACE('',(#663),#97,.T.);
#748=ADVANCED_FACE('',(#664),#34,.T.);
#749=ADVANCED_FACE('',(#665,#666),#98,.T.);
#750=ADVANCED_FACE('',(#667,#668),#12,.T.);
#751=ADVANCED_FACE('',(#669,#670),#99,.T.);
#752=ADVANCED_FACE('',(#671,#672),#13,.T.);
#753=ADVANCED_FACE('',(#673,#674),#100,.T.);
#754=ADVANCED_FACE('',(#675,#676),#101,.T.);
#755=ADVANCED_FACE('',(#677,#678),#14,.T.);
#756=ADVANCED_FACE('',(#679,#680),#102,.T.);
#757=ADVANCED_FACE('',(#681,#682),#15,.T.);
#758=ADVANCED_FACE('',(#683,#684),#103,.T.);
#759=ADVANCED_FACE('',(#685),#709,.T.);
#760=ADVANCED_FACE('',(#686),#710,.F.);
#761=ADVANCED_FACE('',(#687),#711,.T.);
#762=ADVANCED_FACE('',(#688,#689),#104,.T.);
#763=ADVANCED_FACE('',(#690,#691),#105,.F.);
#764=ADVANCED_FACE('',(#692,#693),#712,.T.);
#765=ADVANCED_FACE('',(#694,#695),#713,.F.);
#766=ADVANCED_FACE('',(#696),#714,.T.);
#767=ADVANCED_FACE('',(#697),#106,.F.);
#768=ADVANCED_FACE('',(#698),#715,.T.);
#769=ADVANCED_FACE('',(#699),#716,.T.);
#770=ADVANCED_FACE('',(#700),#717,.T.);
#771=CLOSED_SHELL('',(#718,#719,#720,#721,#722,#723,#724,#725,#726,#727,
#728,#729,#730,#731,#732,#733,#734,#735,#736,#737,#738,#739,#740,#741,#742,
#743,#744,#745,#746,#747,#748,#749,#750,#751,#752,#753,#754,#755,#756,#757,
#758,#759,#760,#761,#762,#763,#764,#765,#766,#767,#768,#769,#770));
#772=STYLED_ITEM('',(#773),#847);
#773=PRESENTATION_STYLE_ASSIGNMENT((#785));
#774=PRESENTATION_STYLE_ASSIGNMENT((#786));
#775=PRESENTATION_STYLE_ASSIGNMENT((#787));
#776=PRESENTATION_STYLE_ASSIGNMENT((#788));
#777=PRESENTATION_STYLE_ASSIGNMENT((#789));
#778=PRESENTATION_STYLE_ASSIGNMENT((#790));
#779=PRESENTATION_STYLE_ASSIGNMENT((#791));
#780=PRESENTATION_STYLE_ASSIGNMENT((#792));
#781=PRESENTATION_STYLE_ASSIGNMENT((#793));
#782=PRESENTATION_STYLE_ASSIGNMENT((#794));
#783=PRESENTATION_STYLE_ASSIGNMENT((#795));
#784=PRESENTATION_STYLE_ASSIGNMENT((#796));
#785=SURFACE_STYLE_USAGE(.BOTH.,#797);
#786=SURFACE_STYLE_USAGE(.BOTH.,#798);
#787=SURFACE_STYLE_USAGE(.BOTH.,#799);
#788=SURFACE_STYLE_USAGE(.BOTH.,#800);
#789=SURFACE_STYLE_USAGE(.BOTH.,#801);
#790=SURFACE_STYLE_USAGE(.BOTH.,#802);
#791=SURFACE_STYLE_USAGE(.BOTH.,#803);
#792=SURFACE_STYLE_USAGE(.BOTH.,#804);
#793=SURFACE_STYLE_USAGE(.BOTH.,#805);
#794=SURFACE_STYLE_USAGE(.BOTH.,#806);
#795=SURFACE_STYLE_USAGE(.BOTH.,#807);
#796=SURFACE_STYLE_USAGE(.BOTH.,#808);
#797=SURFACE_SIDE_STYLE('',(#809));
#798=SURFACE_SIDE_STYLE('',(#810));
#799=SURFACE_SIDE_STYLE('',(#811));
#800=SURFACE_SIDE_STYLE('',(#812));
#801=SURFACE_SIDE_STYLE('',(#813));
#802=SURFACE_SIDE_STYLE('',(#814));
#803=SURFACE_SIDE_STYLE('',(#815));
#804=SURFACE_SIDE_STYLE('',(#816));
#805=SURFACE_SIDE_STYLE('',(#817));
#806=SURFACE_SIDE_STYLE('',(#818));
#807=SURFACE_SIDE_STYLE('',(#819));
#808=SURFACE_SIDE_STYLE('',(#820));
#809=SURFACE_STYLE_FILL_AREA(#821);
#810=SURFACE_STYLE_FILL_AREA(#822);
#811=SURFACE_STYLE_FILL_AREA(#823);
#812=SURFACE_STYLE_FILL_AREA(#824);
#813=SURFACE_STYLE_FILL_AREA(#825);
#814=SURFACE_STYLE_FILL_AREA(#826);
#815=SURFACE_STYLE_FILL_AREA(#827);
#816=SURFACE_STYLE_FILL_AREA(#828);
#817=SURFACE_STYLE_FILL_AREA(#829);
#818=SURFACE_STYLE_FILL_AREA(#830);
#819=SURFACE_STYLE_FILL_AREA(#831);
#820=SURFACE_STYLE_FILL_AREA(#832);
#821=FILL_AREA_STYLE('',(#833));
#822=FILL_AREA_STYLE('',(#834));
#823=FILL_AREA_STYLE('',(#835));
#824=FILL_AREA_STYLE('',(#836));
#825=FILL_AREA_STYLE('',(#837));
#826=FILL_AREA_STYLE('',(#838));
#827=FILL_AREA_STYLE('',(#839));
#828=FILL_AREA_STYLE('',(#840));
#829=FILL_AREA_STYLE('',(#841));
#830=FILL_AREA_STYLE('',(#842));
#831=FILL_AREA_STYLE('',(#843));
#832=FILL_AREA_STYLE('',(#844));
#833=FILL_AREA_STYLE_COLOUR('',#845);
#834=FILL_AREA_STYLE_COLOUR('',#846);
#835=FILL_AREA_STYLE_COLOUR('',#846);
#836=FILL_AREA_STYLE_COLOUR('',#846);
#837=FILL_AREA_STYLE_COLOUR('',#846);
#838=FILL_AREA_STYLE_COLOUR('',#846);
#839=FILL_AREA_STYLE_COLOUR('',#846);
#840=FILL_AREA_STYLE_COLOUR('',#846);
#841=FILL_AREA_STYLE_COLOUR('',#846);
#842=FILL_AREA_STYLE_COLOUR('',#846);
#843=FILL_AREA_STYLE_COLOUR('',#846);
#844=FILL_AREA_STYLE_COLOUR('',#846);
#845=COLOUR_RGB('',0.913725490196078,0.31764705882353,0.129411764705882);
#846=COLOUR_RGB('',0.6,0.6,0.6);
#847=MANIFOLD_SOLID_BREP('Part 1',#771);
#848=SHAPE_DEFINITION_REPRESENTATION(#1422,#849);
#849=SHAPE_REPRESENTATION('Part 1',(#850),#1417);
#850=AXIS2_PLACEMENT_3D('',#1204,#952,#953);
#851=AXIS2_PLACEMENT_3D('',#1205,#954,#955);
#852=AXIS2_PLACEMENT_3D('',#1214,#960,#961);
#853=AXIS2_PLACEMENT_3D('',#1231,#970,#971);
#854=AXIS2_PLACEMENT_3D('',#1235,#973,#974);
#855=AXIS2_PLACEMENT_3D('',#1236,#975,#976);
#856=AXIS2_PLACEMENT_3D('',#1237,#977,#978);
#857=AXIS2_PLACEMENT_3D('',#1241,#980,#981);
#858=AXIS2_PLACEMENT_3D('',#1245,#983,#984);
#859=AXIS2_PLACEMENT_3D('',#1246,#985,#986);
#860=AXIS2_PLACEMENT_3D('',#1247,#987,#988);
#861=AXIS2_PLACEMENT_3D('',#1249,#989,#990);
#862=AXIS2_PLACEMENT_3D('',#1251,#991,#992);
#863=AXIS2_PLACEMENT_3D('',#1261,#997,#998);
#864=AXIS2_PLACEMENT_3D('',#1263,#999,#1000);
#865=AXIS2_PLACEMENT_3D('',#1264,#1001,#1002);
#866=AXIS2_PLACEMENT_3D('',#1274,#1007,#1008);
#867=AXIS2_PLACEMENT_3D('',#1288,#1016,#1017);
#868=AXIS2_PLACEMENT_3D('',#1289,#1018,#1019);
#869=AXIS2_PLACEMENT_3D('',#1293,#1022,#1023);
#870=AXIS2_PLACEMENT_3D('',#1302,#1028,#1029);
#871=AXIS2_PLACEMENT_3D('',#1303,#1030,#1031);
#872=AXIS2_PLACEMENT_3D('',#1304,#1032,#1033);
#873=AXIS2_PLACEMENT_3D('',#1305,#1034,#1035);
#874=AXIS2_PLACEMENT_3D('',#1306,#1036,#1037);
#875=AXIS2_PLACEMENT_3D('',#1307,#1038,#1039);
#876=AXIS2_PLACEMENT_3D('',#1308,#1040,#1041);
#877=AXIS2_PLACEMENT_3D('',#1309,#1042,#1043);
#878=AXIS2_PLACEMENT_3D('',#1310,#1044,#1045);
#879=AXIS2_PLACEMENT_3D('',#1311,#1046,#1047);
#880=AXIS2_PLACEMENT_3D('',#1312,#1048,#1049);
#881=AXIS2_PLACEMENT_3D('',#1313,#1050,#1051);
#882=AXIS2_PLACEMENT_3D('',#1314,#1052,#1053);
#883=AXIS2_PLACEMENT_3D('',#1315,#1054,#1055);
#884=AXIS2_PLACEMENT_3D('',#1316,#1056,#1057);
#885=AXIS2_PLACEMENT_3D('',#1317,#1058,#1059);
#886=AXIS2_PLACEMENT_3D('',#1318,#1060,#1061);
#887=AXIS2_PLACEMENT_3D('',#1319,#1062,#1063);
#888=AXIS2_PLACEMENT_3D('',#1320,#1064,#1065);
#889=AXIS2_PLACEMENT_3D('',#1321,#1066,#1067);
#890=AXIS2_PLACEMENT_3D('',#1322,#1068,#1069);
#891=AXIS2_PLACEMENT_3D('',#1323,#1070,#1071);
#892=AXIS2_PLACEMENT_3D('',#1324,#1072,#1073);
#893=AXIS2_PLACEMENT_3D('',#1325,#1074,#1075);
#894=AXIS2_PLACEMENT_3D('',#1326,#1076,#1077);
#895=AXIS2_PLACEMENT_3D('',#1327,#1078,#1079);
#896=AXIS2_PLACEMENT_3D('',#1328,#1080,#1081);
#897=AXIS2_PLACEMENT_3D('',#1329,#1082,#1083);
#898=AXIS2_PLACEMENT_3D('',#1330,#1084,#1085);
#899=AXIS2_PLACEMENT_3D('',#1331,#1086,#1087);
#900=AXIS2_PLACEMENT_3D('',#1332,#1088,#1089);
#901=AXIS2_PLACEMENT_3D('',#1333,#1090,#1091);
#902=AXIS2_PLACEMENT_3D('',#1334,#1092,#1093);
#903=AXIS2_PLACEMENT_3D('',#1335,#1094,#1095);
#904=AXIS2_PLACEMENT_3D('',#1336,#1096,#1097);
#905=AXIS2_PLACEMENT_3D('',#1337,#1098,#1099);
#906=AXIS2_PLACEMENT_3D('',#1338,#1100,#1101);
#907=AXIS2_PLACEMENT_3D('',#1339,#1102,#1103);
#908=AXIS2_PLACEMENT_3D('',#1340,#1104,#1105);
#909=AXIS2_PLACEMENT_3D('',#1341,#1106,#1107);
#910=AXIS2_PLACEMENT_3D('',#1342,#1108,#1109);
#911=AXIS2_PLACEMENT_3D('',#1344,#1110,#1111);
#912=AXIS2_PLACEMENT_3D('',#1345,#1112,#1113);
#913=AXIS2_PLACEMENT_3D('',#1346,#1114,#1115);
#914=AXIS2_PLACEMENT_3D('',#1347,#1116,#1117);
#915=AXIS2_PLACEMENT_3D('',#1348,#1118,#1119);
#916=AXIS2_PLACEMENT_3D('',#1349,#1120,#1121);
#917=AXIS2_PLACEMENT_3D('',#1350,#1122,#1123);
#918=AXIS2_PLACEMENT_3D('',#1351,#1124,#1125);
#919=AXIS2_PLACEMENT_3D('',#1353,#1126,#1127);
#920=AXIS2_PLACEMENT_3D('',#1354,#1128,#1129);
#921=AXIS2_PLACEMENT_3D('',#1356,#1130,#1131);
#922=AXIS2_PLACEMENT_3D('',#1357,#1132,#1133);
#923=AXIS2_PLACEMENT_3D('',#1359,#1134,#1135);
#924=AXIS2_PLACEMENT_3D('',#1360,#1136,#1137);
#925=AXIS2_PLACEMENT_3D('',#1362,#1138,#1139);
#926=AXIS2_PLACEMENT_3D('',#1363,#1140,#1141);
#927=AXIS2_PLACEMENT_3D('',#1364,#1142,#1143);
#928=AXIS2_PLACEMENT_3D('',#1366,#1144,#1145);
#929=AXIS2_PLACEMENT_3D('',#1367,#1146,#1147);
#930=AXIS2_PLACEMENT_3D('',#1369,#1148,#1149);
#931=AXIS2_PLACEMENT_3D('',#1370,#1150,#1151);
#932=AXIS2_PLACEMENT_3D('',#1372,#1152,#1153);
#933=AXIS2_PLACEMENT_3D('',#1373,#1154,#1155);
#934=AXIS2_PLACEMENT_3D('',#1375,#1156,#1157);
#935=AXIS2_PLACEMENT_3D('',#1376,#1158,#1159);
#936=AXIS2_PLACEMENT_3D('',#1378,#1161,#1162);
#937=AXIS2_PLACEMENT_3D('',#1380,#1164,#1165);
#938=AXIS2_PLACEMENT_3D('',#1381,#1166,#1167);
#939=AXIS2_PLACEMENT_3D('',#1382,#1168,#1169);
#940=AXIS2_PLACEMENT_3D('',#1384,#1170,#1171);
#941=AXIS2_PLACEMENT_3D('',#1386,#1172,#1173);
#942=AXIS2_PLACEMENT_3D('',#1387,#1174,#1175);
#943=AXIS2_PLACEMENT_3D('',#1389,#1176,#1177);
#944=AXIS2_PLACEMENT_3D('',#1390,#1178,#1179);
#945=AXIS2_PLACEMENT_3D('',#1391,#1180,#1181);
#946=AXIS2_PLACEMENT_3D('',#1399,#1185,#1186);
#947=AXIS2_PLACEMENT_3D('',#1405,#1190,#1191);
#948=AXIS2_PLACEMENT_3D('',#1408,#1193,#1194);
#949=AXIS2_PLACEMENT_3D('',#1409,#1195,#1196);
#950=AXIS2_PLACEMENT_3D('',#1413,#1199,#1200);
#951=AXIS2_PLACEMENT_3D('',#1415,#1202,#1203);
#952=DIRECTION('',(0.,0.,1.));
#953=DIRECTION('',(1.,0.,0.));
#954=DIRECTION('',(0.,1.,0.));
#955=DIRECTION('',(0.,0.,1.));
#956=DIRECTION('',(1.,0.,0.));
#957=DIRECTION('',(0.,0.,-1.));
#958=DIRECTION('',(1.,0.,0.));
#959=DIRECTION('',(0.,0.,-1.));
#960=DIRECTION('',(1.,0.,0.));
#961=DIRECTION('',(0.,0.,-1.));
#962=DIRECTION('',(0.,0.,-1.));
#963=DIRECTION('',(0.,-1.,0.));
#964=DIRECTION('',(0.,0.,-1.));
#965=DIRECTION('',(0.,-1.,0.));
#966=DIRECTION('',(0.,0.,-1.));
#967=DIRECTION('',(0.,-1.,0.));
#968=DIRECTION('',(0.,0.,-1.));
#969=DIRECTION('',(0.,-1.,0.));
#970=DIRECTION('',(0.,0.,1.));
#971=DIRECTION('',(1.,0.,0.));
#972=DIRECTION('',(0.,0.,-1.));
#973=DIRECTION('',(0.,0.,-1.));
#974=DIRECTION('',(-1.,0.,0.));
#975=DIRECTION('',(0.,0.,1.));
#976=DIRECTION('',(1.,0.,0.));
#977=DIRECTION('',(0.,0.,-1.));
#978=DIRECTION('',(-1.,0.,0.));
#979=DIRECTION('',(0.,0.,-1.));
#980=DIRECTION('',(0.,0.,-1.));
#981=DIRECTION('',(-1.,0.,0.));
#982=DIRECTION('',(0.,0.,-1.));
#983=DIRECTION('',(0.,0.,1.));
#984=DIRECTION('',(1.,0.,0.));
#985=DIRECTION('',(0.,0.,1.));
#986=DIRECTION('',(1.,0.,0.));
#987=DIRECTION('',(0.,0.,1.));
#988=DIRECTION('',(1.,0.,0.));
#989=DIRECTION('',(0.,0.,1.));
#990=DIRECTION('',(1.,0.,0.));
#991=DIRECTION('',(0.,0.,-1.));
#992=DIRECTION('',(1.,0.,0.));
#993=DIRECTION('',(0.,-1.,0.));
#994=DIRECTION('',(1.,0.,0.));
#995=DIRECTION('',(0.,-1.,0.));
#996=DIRECTION('',(1.,0.,0.));
#997=DIRECTION('',(0.,0.,1.));
#998=DIRECTION('',(1.,0.,0.));
#999=DIRECTION('',(0.,1.,0.));
#1000=DIRECTION('',(0.,0.,1.));
#1001=DIRECTION('',(0.,1.,0.));
#1002=DIRECTION('',(0.,0.,1.));
#1003=DIRECTION('',(1.,0.,0.));
#1004=DIRECTION('',(0.,0.,-1.));
#1005=DIRECTION('',(1.,0.,0.));
#1006=DIRECTION('',(0.,0.,-1.));
#1007=DIRECTION('',(1.,0.,0.));
#1008=DIRECTION('',(0.,0.,-1.));
#1009=DIRECTION('',(0.,0.,1.));
#1010=DIRECTION('',(0.,-1.,0.));
#1011=DIRECTION('',(0.,-1.,0.));
#1012=DIRECTION('',(0.,0.,-1.));
#1013=DIRECTION('',(0.,-1.,0.));
#1014=DIRECTION('',(0.,0.,-1.));
#1015=DIRECTION('',(0.,-1.,0.));
#1016=DIRECTION('',(0.,1.,0.));
#1017=DIRECTION('',(0.,0.,1.));
#1018=DIRECTION('',(0.,-1.,0.));
#1019=DIRECTION('',(0.,0.,-1.));
#1020=DIRECTION('',(1.,0.,0.));
#1021=DIRECTION('',(1.,0.,0.));
#1022=DIRECTION('',(0.,0.,1.));
#1023=DIRECTION('',(1.,0.,0.));
#1024=DIRECTION('',(1.,0.,0.));
#1025=DIRECTION('',(0.,-1.,0.));
#1026=DIRECTION('',(1.,0.,0.));
#1027=DIRECTION('',(0.,-1.,0.));
#1028=DIRECTION('',(0.,1.,0.));
#1029=DIRECTION('',(0.,0.,1.));
#1030=DIRECTION('',(0.,1.,0.));
#1031=DIRECTION('',(0.,0.,1.));
#1032=DIRECTION('',(0.,-1.,0.));
#1033=DIRECTION('',(0.,0.,-1.));
#1034=DIRECTION('',(1.,0.,0.));
#1035=DIRECTION('',(0.,0.,-1.));
#1036=DIRECTION('',(1.,8.98182488395739E-16,0.));
#1037=DIRECTION('',(-8.98182488395739E-16,1.,0.));
#1038=DIRECTION('',(0.,0.,-1.));
#1039=DIRECTION('',(-1.,0.,0.));
#1040=DIRECTION('',(0.,0.,-1.));
#1041=DIRECTION('',(-1.,0.,0.));
#1042=DIRECTION('',(0.,0.,1.));
#1043=DIRECTION('',(1.,0.,0.));
#1044=DIRECTION('',(0.,-1.,0.));
#1045=DIRECTION('',(0.,0.,-1.));
#1046=DIRECTION('',(0.,-1.,0.));
#1047=DIRECTION('',(0.,0.,-1.));
#1048=DIRECTION('',(0.,1.,0.));
#1049=DIRECTION('',(0.,0.,1.));
#1050=DIRECTION('',(0.,0.,1.));
#1051=DIRECTION('',(1.,0.,0.));
#1052=DIRECTION('',(0.,0.,-1.));
#1053=DIRECTION('',(-1.,0.,0.));
#1054=DIRECTION('',(0.,-1.57181935469254E-15,-1.));
#1055=DIRECTION('',(0.,1.,-1.57181935469254E-15));
#1056=DIRECTION('',(1.,0.,0.));
#1057=DIRECTION('',(0.,0.,-1.));
#1058=DIRECTION('',(1.,0.,0.));
#1059=DIRECTION('',(0.,0.,-1.));
#1060=DIRECTION('',(-1.,0.,0.));
#1061=DIRECTION('',(0.,0.,1.));
#1062=DIRECTION('',(-1.,0.,0.));
#1063=DIRECTION('',(0.,0.,1.));
#1064=DIRECTION('',(1.,0.,0.));
#1065=DIRECTION('',(0.,0.,-1.));
#1066=DIRECTION('',(1.,0.,-8.98182488395738E-16));
#1067=DIRECTION('',(-8.98182488395738E-16,0.,-1.));
#1068=DIRECTION('',(1.,0.,0.));
#1069=DIRECTION('',(0.,0.,-1.));
#1070=DIRECTION('',(1.,0.,0.));
#1071=DIRECTION('',(0.,0.,-1.));
#1072=DIRECTION('',(1.,0.,0.));
#1073=DIRECTION('',(0.,0.,-1.));
#1074=DIRECTION('',(1.,0.,0.));
#1075=DIRECTION('',(0.,0.,-1.));
#1076=DIRECTION('',(0.,0.,1.));
#1077=DIRECTION('',(1.,0.,0.));
#1078=DIRECTION('',(0.,0.,1.));
#1079=DIRECTION('',(1.,0.,0.));
#1080=DIRECTION('',(0.,0.,1.));
#1081=DIRECTION('',(1.,0.,0.));
#1082=DIRECTION('',(1.,0.,0.));
#1083=DIRECTION('',(0.,0.,-1.));
#1084=DIRECTION('',(-1.,0.,0.));
#1085=DIRECTION('',(0.,0.,1.));
#1086=DIRECTION('',(-1.,0.,0.));
#1087=DIRECTION('',(0.,0.,1.));
#1088=DIRECTION('',(-1.,0.,-8.98182488395738E-16));
#1089=DIRECTION('',(-8.98182488395738E-16,0.,1.));
#1090=DIRECTION('',(0.,0.,-1.));
#1091=DIRECTION('',(-1.,0.,0.));
#1092=DIRECTION('',(0.,0.,-1.));
#1093=DIRECTION('',(-1.,0.,0.));
#1094=DIRECTION('',(0.,0.,-1.));
#1095=DIRECTION('',(-1.,0.,0.));
#1096=DIRECTION('',(0.,1.,0.));
#1097=DIRECTION('',(0.,0.,1.));
#1098=DIRECTION('',(0.,1.,0.));
#1099=DIRECTION('',(0.,0.,1.));
#1100=DIRECTION('',(8.98182488395739E-16,-1.,0.));
#1101=DIRECTION('',(1.,8.98182488395739E-16,0.));
#1102=DIRECTION('',(0.,-1.,0.));
#1103=DIRECTION('',(0.,0.,-1.));
#1104=DIRECTION('',(0.,1.,0.));
#1105=DIRECTION('',(0.,0.,1.));
#1106=DIRECTION('',(0.,1.,0.));
#1107=DIRECTION('',(0.,0.,1.));
#1108=DIRECTION('',(0.,1.,0.));
#1109=DIRECTION('',(0.,0.,1.));
#1110=DIRECTION('',(0.,1.,0.));
#1111=DIRECTION('',(-1.,0.,0.));
#1112=DIRECTION('',(0.,0.,1.));
#1113=DIRECTION('',(1.,0.,0.));
#1114=DIRECTION('',(0.,1.,0.));
#1115=DIRECTION('',(0.,0.,1.));
#1116=DIRECTION('',(0.,-1.,0.));
#1117=DIRECTION('',(0.,0.,-1.));
#1118=DIRECTION('',(0.,1.,0.));
#1119=DIRECTION('',(0.,0.,1.));
#1120=DIRECTION('',(0.,0.,1.));
#1121=DIRECTION('',(1.,0.,0.));
#1122=DIRECTION('',(0.,0.,-1.));
#1123=DIRECTION('',(-1.,0.,0.));
#1124=DIRECTION('',(0.,7.98384434129549E-15,-1.));
#1125=DIRECTION('',(1.,0.,0.));
#1126=DIRECTION('',(1.,0.,0.));
#1127=DIRECTION('',(0.,0.,-1.));
#1128=DIRECTION('',(0.,-1.,0.));
#1129=DIRECTION('',(1.,0.,0.));
#1130=DIRECTION('',(0.,-1.,0.));
#1131=DIRECTION('',(0.,0.,-1.));
#1132=DIRECTION('',(0.,-1.,1.39717275972671E-14));
#1133=DIRECTION('',(1.,0.,0.));
#1134=DIRECTION('',(1.,0.,0.));
#1135=DIRECTION('',(0.,0.,-1.));
#1136=DIRECTION('',(0.,0.,1.));
#1137=DIRECTION('',(1.,0.,0.));
#1138=DIRECTION('',(0.,0.,1.));
#1139=DIRECTION('',(1.,0.,0.));
#1140=DIRECTION('',(0.,1.83697019872103E-16,-1.));
#1141=DIRECTION('',(0.,1.,1.83697019872103E-16));
#1142=DIRECTION('',(0.,7.86137966138079E-15,-1.));
#1143=DIRECTION('',(1.,0.,0.));
#1144=DIRECTION('',(1.,0.,0.));
#1145=DIRECTION('',(0.,0.,-1.));
#1146=DIRECTION('',(0.,-1.,1.22464679914735E-16));
#1147=DIRECTION('',(1.,0.,0.));
#1148=DIRECTION('',(0.,-1.,0.));
#1149=DIRECTION('',(0.,0.,-1.));
#1150=DIRECTION('',(0.,-1.,-1.87349640540915E-15));
#1151=DIRECTION('',(1.,0.,0.));
#1152=DIRECTION('',(1.,0.,0.));
#1153=DIRECTION('',(0.,0.,-1.));
#1154=DIRECTION('',(0.,0.,1.));
#1155=DIRECTION('',(1.,0.,0.));
#1156=DIRECTION('',(0.,-1.22464679914735E-16,1.));
#1157=DIRECTION('',(0.,-1.,-1.22464679914735E-16));
#1158=DIRECTION('',(0.,0.,-1.));
#1159=DIRECTION('',(-1.,0.,0.));
#1160=DIRECTION('',(1.,0.,0.));
#1161=DIRECTION('',(0.,0.,-1.));
#1162=DIRECTION('',(-1.,0.,0.));
#1163=DIRECTION('',(1.,0.,0.));
#1164=DIRECTION('',(0.,-1.,0.));
#1165=DIRECTION('',(1.,0.,0.));
#1166=DIRECTION('',(0.,-1.,0.));
#1167=DIRECTION('',(0.,0.,-1.));
#1168=DIRECTION('',(0.,-1.,0.));
#1169=DIRECTION('',(0.,0.,-1.));
#1170=DIRECTION('',(0.,-1.,0.));
#1171=DIRECTION('',(0.,0.,-1.));
#1172=DIRECTION('',(0.,-1.,0.));
#1173=DIRECTION('',(0.,0.,-1.));
#1174=DIRECTION('',(0.,-1.,0.));
#1175=DIRECTION('',(0.,0.,-1.));
#1176=DIRECTION('',(0.,-1.,0.));
#1177=DIRECTION('',(1.,0.,0.));
#1178=DIRECTION('',(0.,1.,0.));
#1179=DIRECTION('',(0.,0.,1.));
#1180=DIRECTION('',(0.,-1.,0.));
#1181=DIRECTION('',(0.,0.,-1.));
#1182=DIRECTION('',(0.,0.,1.));
#1183=DIRECTION('',(1.,0.,0.));
#1184=DIRECTION('',(0.,0.,-1.));
#1185=DIRECTION('',(1.,0.,0.));
#1186=DIRECTION('',(0.,0.,-1.));
#1187=DIRECTION('',(0.,-1.,0.));
#1188=DIRECTION('',(0.,0.,1.));
#1189=DIRECTION('',(0.,-1.,0.));
#1190=DIRECTION('',(0.,-1.,0.));
#1191=DIRECTION('',(0.,0.,-1.));
#1192=DIRECTION('',(0.,-1.,0.));
#1193=DIRECTION('',(0.,-1.,0.));
#1194=DIRECTION('',(0.,0.,-1.));
#1195=DIRECTION('',(-1.,0.,0.));
#1196=DIRECTION('',(0.,0.,1.));
#1197=DIRECTION('',(0.,-1.,0.));
#1198=DIRECTION('',(0.,0.,-1.));
#1199=DIRECTION('',(0.,0.,-1.));
#1200=DIRECTION('',(-1.,0.,0.));
#1201=DIRECTION('',(1.,0.,0.));
#1202=DIRECTION('',(0.,-1.,0.));
#1203=DIRECTION('',(1.,0.,0.));
#1204=CARTESIAN_POINT('',(0.,0.,0.));
#1205=CARTESIAN_POINT('',(0.000111800587909801,-0.0063493576599285,0.0189));
#1206=CARTESIAN_POINT('',(0.000111800587909801,-0.0063493576599285,0.00686941063031554));
#1207=CARTESIAN_POINT('',(-0.00386946417919141,-0.0063493576599285,0.00686941063031554));
#1208=CARTESIAN_POINT('',(0.00409306535501102,-0.0063493576599285,0.00686941063031554));
#1209=CARTESIAN_POINT('',(-0.00386946417919141,-0.0063493576599285,0.0189));
#1210=CARTESIAN_POINT('',(-0.00386946417919141,-0.0063493576599285,0.000844974746830585));
#1211=CARTESIAN_POINT('',(0.000111800587909801,-0.0063493576599285,0.000844974746830585));
#1212=CARTESIAN_POINT('',(0.00409306535501102,-0.0063493576599285,0.000844974746830585));
#1213=CARTESIAN_POINT('',(0.00409306535501102,-0.0063493576599285,0.0189));
#1214=CARTESIAN_POINT('',(0.0049380401018416,-0.000374013558030129,0.0189));
#1215=CARTESIAN_POINT('',(0.0049380401018416,-0.0052643576599285,0.00738667015684769));
#1216=CARTESIAN_POINT('',(0.0049380401018416,-0.0052643576599285,0.00790392968337983));
#1217=CARTESIAN_POINT('',(0.0049380401018416,-0.0052643576599285,0.00686941063031554));
#1218=CARTESIAN_POINT('',(0.0049380401018416,-0.0052643576599285,0.00686941063031554));
#1219=CARTESIAN_POINT('',(0.0049380401018416,-0.00550438291309792,0.00686941063031554));
#1220=CARTESIAN_POINT('',(0.0049380401018416,-0.00550438291309792,0.));
#1221=CARTESIAN_POINT('',(0.0049380401018416,-0.00550438291309792,0.000844974746830584));
#1222=CARTESIAN_POINT('',(0.0049380401018416,0.00560133054386824,0.000844974746830584));
#1223=CARTESIAN_POINT('',(0.0049380401018416,0.00475635579703766,0.000844974746830584));
#1224=CARTESIAN_POINT('',(0.0049380401018416,0.00475635579703766,0.0189));
#1225=CARTESIAN_POINT('',(0.0049380401018416,0.00475635579703766,0.0180550252531694));
#1226=CARTESIAN_POINT('',(0.0049380401018416,-0.000374013558030129,0.0180550252531694));
#1227=CARTESIAN_POINT('',(0.0049380401018416,-0.00550438291309792,0.0180550252531694));
#1228=CARTESIAN_POINT('',(0.0049380401018416,-0.00550438291309792,0.));
#1229=CARTESIAN_POINT('',(0.0049380401018416,-0.00550438291309792,0.00790392968337983));
#1230=CARTESIAN_POINT('',(0.0049380401018416,-0.0052643576599285,0.00790392968337983));
#1231=CARTESIAN_POINT('',(0.00409306535501102,-0.00550438291309792,0.0189));
#1232=CARTESIAN_POINT('',(0.00409306535501102,-0.0063493576599285,0.0189));
#1233=CARTESIAN_POINT('',(0.00409306535501102,-0.0063493576599285,0.00790392968337983));
#1234=CARTESIAN_POINT('',(0.00409306535501102,-0.0063493576599285,0.0180550252531694));
#1235=CARTESIAN_POINT('',(0.00409306535501102,-0.00550438291309792,0.00790392968337983));
#1236=CARTESIAN_POINT('',(0.00409306535501102,-0.00550438291309792,0.0180550252531694));
#1237=CARTESIAN_POINT('',(-0.00386946417919141,-0.00550438291309792,0.0189));
#1238=CARTESIAN_POINT('',(-0.004714438926022,-0.00550438291309792,0.0189));
#1239=CARTESIAN_POINT('',(-0.004714438926022,-0.00550438291309792,0.00790392968337983));
#1240=CARTESIAN_POINT('',(-0.004714438926022,-0.00550438291309792,0.0180550252531694));
#1241=CARTESIAN_POINT('',(-0.00386946417919141,-0.00550438291309792,0.00790392968337983));
#1242=CARTESIAN_POINT('',(-0.00386946417919141,-0.0063493576599285,0.00790392968337983));
#1243=CARTESIAN_POINT('',(-0.00386946417919141,-0.0063493576599285,0.0189));
#1244=CARTESIAN_POINT('',(-0.00386946417919141,-0.0063493576599285,0.0180550252531694));
#1245=CARTESIAN_POINT('',(-0.00386946417919141,-0.00550438291309792,0.0180550252531694));
#1246=CARTESIAN_POINT('',(0.000111800587909801,-0.000374013558030129,0.0189));
#1247=CARTESIAN_POINT('',(0.0029118005879098,0.00318135579703766,0.0189));
#1248=CARTESIAN_POINT('',(0.0032180505879098,0.00318135579703766,0.0189));
#1249=CARTESIAN_POINT('',(0.0029118005879098,-0.00392938291309792,0.0189));
#1250=CARTESIAN_POINT('',(0.0032180505879098,-0.00392938291309792,0.0189));
#1251=CARTESIAN_POINT('',(-0.0026881994120902,-0.00392938291309792,0.0189));
#1252=CARTESIAN_POINT('',(-0.0023819494120902,-0.00392938291309792,0.0189));
#1253=CARTESIAN_POINT('',(0.00409306535501102,-0.000374013558030129,0.0189));
#1254=CARTESIAN_POINT('',(0.00409306535501102,-0.00550438291309792,0.0189));
#1255=CARTESIAN_POINT('',(0.00409306535501102,0.00475635579703766,0.0189));
#1256=CARTESIAN_POINT('',(0.000111800587909801,0.00475635579703766,0.0189));
#1257=CARTESIAN_POINT('',(-0.00386946417919141,0.00475635579703766,0.0189));
#1258=CARTESIAN_POINT('',(-0.00386946417919141,-0.0063493576599285,0.0189));
#1259=CARTESIAN_POINT('',(-0.00386946417919141,-0.00550438291309792,0.0189));
#1260=CARTESIAN_POINT('',(0.0049380401018416,-0.00550438291309792,0.0189));
#1261=CARTESIAN_POINT('',(-0.0026881994120902,0.00318135579703766,0.0189));
#1262=CARTESIAN_POINT('',(-0.0023819494120902,0.00318135579703766,0.0189));
#1263=CARTESIAN_POINT('',(0.000111800587909801,0.00560133054386824,0.0189));
#1264=CARTESIAN_POINT('',(-8.38486608708821E-5,0.00560133054386824,0.0138066443614662));
#1265=CARTESIAN_POINT('',(-8.38486608708821E-5,0.00560133054386824,0.0166420129291399));
#1266=CARTESIAN_POINT('',(0.000111800587909801,0.00560133054386824,0.0180550252531694));
#1267=CARTESIAN_POINT('',(-0.00386946417919141,0.00560133054386824,0.0180550252531694));
#1268=CARTESIAN_POINT('',(0.00409306535501102,0.00560133054386824,0.0180550252531694));
#1269=CARTESIAN_POINT('',(0.00409306535501102,0.00560133054386824,0.0189));
#1270=CARTESIAN_POINT('',(0.00409306535501102,0.00560133054386824,0.000844974746830584));
#1271=CARTESIAN_POINT('',(-0.004714438926022,0.00560133054386824,0.000844974746830584));
#1272=CARTESIAN_POINT('',(-0.00386946417919141,0.00560133054386824,0.000844974746830584));
#1273=CARTESIAN_POINT('',(-0.00386946417919141,0.00560133054386824,0.0189));
#1274=CARTESIAN_POINT('',(-0.004714438926022,-0.000374013558030129,0.0189));
#1275=CARTESIAN_POINT('',(-0.004714438926022,-0.0052643576599285,0.00738667015684769));
#1276=CARTESIAN_POINT('',(-0.004714438926022,-0.0052643576599285,0.00686941063031554));
#1277=CARTESIAN_POINT('',(-0.004714438926022,-0.0052643576599285,0.00790392968337983));
#1278=CARTESIAN_POINT('',(-0.004714438926022,-0.0052643576599285,0.00790392968337983));
#1279=CARTESIAN_POINT('',(-0.004714438926022,0.00560133054386824,0.0180550252531694));
#1280=CARTESIAN_POINT('',(-0.004714438926022,0.00475635579703766,0.0180550252531694));
#1281=CARTESIAN_POINT('',(-0.004714438926022,0.00475635579703766,0.));
#1282=CARTESIAN_POINT('',(-0.004714438926022,0.00475635579703766,0.00084497));
#1283=CARTESIAN_POINT('',(-0.004714438926022,-0.000374013558030129,0.00084497));
#1284=CARTESIAN_POINT('',(-0.004714438926022,-0.00550438291309792,0.00084497));
#1285=CARTESIAN_POINT('',(-0.004714438926022,-0.00550438291309792,0.0189));
#1286=CARTESIAN_POINT('',(-0.004714438926022,-0.00550438291309792,0.00686941063031554));
#1287=CARTESIAN_POINT('',(-0.004714438926022,-0.0052643576599285,0.00686941063031554));
#1288=CARTESIAN_POINT('',(0.000111800587909801,-0.0063493576599285,0.0189));
#1289=CARTESIAN_POINT('',(-0.00280575206267706,-0.0063493576599285,0.0168411433445837));
#1290=CARTESIAN_POINT('',(-0.00280575206267706,-0.0063493576599285,0.0163073933445838));
#1291=CARTESIAN_POINT('',(0.000111800587909801,-0.0063493576599285,0.00790392968337983));
#1292=CARTESIAN_POINT('',(-0.004714438926022,-0.0063493576599285,0.0180550252531694));
#1293=CARTESIAN_POINT('',(0.000111800587909801,-0.000374013558030129,0.));
#1294=CARTESIAN_POINT('',(0.000111800587909801,-0.00550438291309792,0.));
#1295=CARTESIAN_POINT('',(0.00409306535501102,-0.00550438291309792,0.));
#1296=CARTESIAN_POINT('',(-0.00386946892602199,-0.00550438291309792,0.));
#1297=CARTESIAN_POINT('',(-0.00386946892602199,-0.000374013558030129,0.));
#1298=CARTESIAN_POINT('',(-0.00386946892602199,0.00475635579703766,0.));
#1299=CARTESIAN_POINT('',(0.0049380401018416,0.00475635579703766,0.));
#1300=CARTESIAN_POINT('',(0.00409306535501102,0.00475635579703766,0.));
#1301=CARTESIAN_POINT('',(0.00409306535501102,-0.0063493576599285,0.));
#1302=CARTESIAN_POINT('',(0.00409306535501102,-0.000374013558030129,0.000844974746830584));
#1303=CARTESIAN_POINT('',(0.00409306535501102,0.00475635579703766,0.000844974746830584));
#1304=CARTESIAN_POINT('',(0.00409306535501102,-0.00550438291309792,0.000844974746830584));
#1305=CARTESIAN_POINT('',(0.00409306535501102,0.00475635579703766,0.000844974746830584));
#1306=CARTESIAN_POINT('',(0.00409306535501102,0.00475635579703766,0.000844974746830584));
#1307=CARTESIAN_POINT('',(0.00409306535501102,0.00475635579703766,0.000844974746830584));
#1308=CARTESIAN_POINT('',(0.00409306535501102,0.00475635579703766,0.0189));
#1309=CARTESIAN_POINT('',(0.00409306535501102,0.00475635579703766,0.0180550252531694));
#1310=CARTESIAN_POINT('',(0.00409306535501102,-0.000374013558030129,0.0180550252531694));
#1311=CARTESIAN_POINT('',(0.00409306535501102,-0.00550438291309792,0.0180550252531694));
#1312=CARTESIAN_POINT('',(0.00409306535501102,0.00475635579703766,0.0180550252531694));
#1313=CARTESIAN_POINT('',(0.00409306535501102,-0.00550438291309792,0.0189));
#1314=CARTESIAN_POINT('',(0.00409306535501102,-0.00550438291309792,0.00686941063031554));
#1315=CARTESIAN_POINT('',(0.00409306535501102,-0.00550438291309792,0.000844974746830584));
#1316=CARTESIAN_POINT('',(0.00409306535501102,-0.00550438291309792,0.000844974746830584));
#1317=CARTESIAN_POINT('',(0.00409306535501102,-0.00550438291309792,0.000844974746830585));
#1318=CARTESIAN_POINT('',(0.000111800587909801,0.00475635579703766,0.000844974746830584));
#1319=CARTESIAN_POINT('',(-0.00386946417919141,0.00475635579703766,0.000844974746830584));
#1320=CARTESIAN_POINT('',(0.00409306535501102,0.00475635579703766,0.0180550252531694));
#1321=CARTESIAN_POINT('',(0.00409306535501102,0.00475635579703766,0.0180550252531694));
#1322=CARTESIAN_POINT('',(0.00409306535501102,-0.00550438291309792,0.0180550252531694));
#1323=CARTESIAN_POINT('',(0.00409306535501102,-0.00550438291309792,0.0180550252531694));
#1324=CARTESIAN_POINT('',(0.000111800587909801,-0.00550438291309792,0.000844974746830585));
#1325=CARTESIAN_POINT('',(-0.00386946417919141,-0.00550438291309792,0.000844974746830585));
#1326=CARTESIAN_POINT('',(-0.00386946417919141,0.00475635579703766,0.0189));
#1327=CARTESIAN_POINT('',(-0.00386946417919141,0.00475635579703766,0.000844974746830585));
#1328=CARTESIAN_POINT('',(-0.00386946417919141,0.00475635579703766,0.0180550252531694));
#1329=CARTESIAN_POINT('',(0.000111800587909801,0.00475635579703766,0.0180550252531694));
#1330=CARTESIAN_POINT('',(-0.00386946417919141,0.00475635579703766,0.0180550252531694));
#1331=CARTESIAN_POINT('',(0.000111800587909801,-0.00550438291309792,0.0180550252531694));
#1332=CARTESIAN_POINT('',(-0.00386946417919141,-0.00550438291309792,0.0180550252531694));
#1333=CARTESIAN_POINT('',(-0.00386946417919141,-0.00550438291309792,0.0189));
#1334=CARTESIAN_POINT('',(-0.00386946417919141,-0.00550438291309792,0.00686941063031554));
#1335=CARTESIAN_POINT('',(-0.00386946417919141,-0.00550438291309792,0.000844974746830585));
#1336=CARTESIAN_POINT('',(-0.00386946417919141,0.00475635579703766,0.0180550252531694));
#1337=CARTESIAN_POINT('',(-0.00386946417919141,0.00475635579703766,0.0180550252531694));
#1338=CARTESIAN_POINT('',(-0.00386946417919141,-0.00550438291309792,0.0180550252531694));
#1339=CARTESIAN_POINT('',(-0.00386946417919141,-0.00550438291309792,0.0180550252531694));
#1340=CARTESIAN_POINT('',(-0.00386946417919141,-0.000374013558030129,0.0180550252531694));
#1341=CARTESIAN_POINT('',(-8.38486608708821E-5,-0.000698669456131756,0.0138066443614662));
#1342=CARTESIAN_POINT('',(-8.38486608708821E-5,-0.000698669456131756,0.0138066443614662));
#1343=CARTESIAN_POINT('',(-8.38486608708821E-5,-0.000698669456131756,0.0166420129291399));
#1344=CARTESIAN_POINT('',(0.000111800587909801,-0.000698669456131756,0.00945));
#1345=CARTESIAN_POINT('',(-0.00386946417919141,-0.00550438291309792,0.000844974746830585));
#1346=CARTESIAN_POINT('',(-0.00386946417919141,-0.00550438291309792,0.00084497));
#1347=CARTESIAN_POINT('',(-0.00386946892602199,-0.000374013558030129,0.00084497));
#1348=CARTESIAN_POINT('',(-0.00386946892602199,0.00475635579703766,0.00084497));
#1349=CARTESIAN_POINT('',(-0.00386946417919141,0.00475635579703766,0.000844974746830584));
#1350=CARTESIAN_POINT('',(-0.0026881994120902,-0.00392938291309792,0.0193485958719131));
#1351=CARTESIAN_POINT('',(-0.0026881994120902,-0.00392938291309792,0.0193485958719131));
#1352=CARTESIAN_POINT('',(-0.0023819494120902,-0.00392938291309792,0.0193485958719131));
#1353=CARTESIAN_POINT('',(-0.0026881994120902,-0.00354914427702416,0.0193485958719131));
#1354=CARTESIAN_POINT('',(-0.0026881994120902,-0.00354914427702416,0.0197288345079869));
#1355=CARTESIAN_POINT('',(-0.0023819494120902,-0.00354914427702416,0.0197288345079869));
#1356=CARTESIAN_POINT('',(-0.0026881994120902,0.0028011171609639,0.0197288345079869));
#1357=CARTESIAN_POINT('',(-0.0026881994120902,0.0028011171609639,0.0197288345079869));
#1358=CARTESIAN_POINT('',(-0.0023819494120902,0.0028011171609639,0.0197288345079869));
#1359=CARTESIAN_POINT('',(-0.0026881994120902,0.0028011171609639,0.0193485958719131));
#1360=CARTESIAN_POINT('',(-0.0026881994120902,0.00318135579703766,0.0193485958719131));
#1361=CARTESIAN_POINT('',(-0.0023819494120902,0.00318135579703766,0.0193485958719131));
#1362=CARTESIAN_POINT('',(-0.0026881994120902,0.00318135579703766,0.0189));
#1363=CARTESIAN_POINT('',(0.0029118005879098,-0.00392938291309792,0.0193485958719131));
#1364=CARTESIAN_POINT('',(0.0029118005879098,-0.00392938291309792,0.0193485958719131));
#1365=CARTESIAN_POINT('',(0.0032180505879098,-0.00392938291309792,0.0193485958719131));
#1366=CARTESIAN_POINT('',(0.0029118005879098,-0.00354914427702416,0.0193485958719131));
#1367=CARTESIAN_POINT('',(0.0029118005879098,-0.00354914427702416,0.0197288345079869));
#1368=CARTESIAN_POINT('',(0.0032180505879098,-0.00354914427702416,0.0197288345079869));
#1369=CARTESIAN_POINT('',(0.0029118005879098,0.0028011171609639,0.0197288345079869));
#1370=CARTESIAN_POINT('',(0.0029118005879098,0.0028011171609639,0.0197288345079869));
#1371=CARTESIAN_POINT('',(0.0032180505879098,0.0028011171609639,0.0197288345079869));
#1372=CARTESIAN_POINT('',(0.0029118005879098,0.0028011171609639,0.0193485958719131));
#1373=CARTESIAN_POINT('',(0.0029118005879098,0.00318135579703766,0.0193485958719131));
#1374=CARTESIAN_POINT('',(0.0032180505879098,0.00318135579703766,0.0193485958719131));
#1375=CARTESIAN_POINT('',(0.0029118005879098,0.00318135579703766,0.0189));
#1376=CARTESIAN_POINT('',(0.000111800587909801,-0.0052643576599285,0.00790392968337983));
#1377=CARTESIAN_POINT('',(0.000111800587909801,-0.0052643576599285,0.00790392968337983));
#1378=CARTESIAN_POINT('',(0.000111800587909801,-0.0052643576599285,0.00686941063031554));
#1379=CARTESIAN_POINT('',(0.000111800587909801,-0.0052643576599285,0.00686941063031554));
#1380=CARTESIAN_POINT('',(0.000111800587909801,-0.0052643576599285,0.00944999762658471));
#1381=CARTESIAN_POINT('',(-0.00280575206267706,-0.0062093576599285,0.0168411433445837));
#1382=CARTESIAN_POINT('',(-0.00280575206267706,-0.0062093576599285,0.0168411433445837));
#1383=CARTESIAN_POINT('',(-0.00280575206267706,-0.0062093576599285,0.0164911433445838));
#1384=CARTESIAN_POINT('',(-0.00280575206267706,-0.0063493576599285,0.0168411433445837));
#1385=CARTESIAN_POINT('',(-0.00280575206267706,-0.0063493576599285,0.0164911433445838));
#1386=CARTESIAN_POINT('',(-0.00280575206267706,-0.0062093576599285,0.0168411433445837));
#1387=CARTESIAN_POINT('',(-0.00280575206267706,-0.0062093576599285,0.0168411433445837));
#1388=CARTESIAN_POINT('',(-0.00280575206267706,-0.0062093576599285,0.0163073933445838));
#1389=CARTESIAN_POINT('',(0.000111800587909801,-0.0062093576599285,0.0129794774682746));
#1390=CARTESIAN_POINT('',(0.000111800587909801,-0.0063493576599285,0.0189));
#1391=CARTESIAN_POINT('',(-0.00280575206267706,-0.0063493576599285,0.0168411433445837));
#1392=CARTESIAN_POINT('',(-0.00288922147738138,-0.0063493576599285,0.0165428516763982));
#1393=CARTESIAN_POINT('',(-0.00272376067150706,-0.0063493576599285,0.0165424420317744));
#1394=CARTESIAN_POINT('',(-0.00288922147738138,-0.0063493576599285,0.0168307463094486));
#1395=CARTESIAN_POINT('',(-0.00288922147738138,-0.0063493576599285,0.017118640942499));
#1396=CARTESIAN_POINT('',(-0.00280649107444422,-0.0063493576599285,0.017118640942499));
#1397=CARTESIAN_POINT('',(-0.00272376067150706,-0.0063493576599285,0.017118640942499));
#1398=CARTESIAN_POINT('',(-0.00272376067150706,-0.0063493576599285,0.0168305414871367));
#1399=CARTESIAN_POINT('',(-0.00288922147738138,-0.0062093576599285,0.0168307463094486));
#1400=CARTESIAN_POINT('',(-0.00288922147738138,-0.0062093576599285,0.0165428516763982));
#1401=CARTESIAN_POINT('',(-0.00288922147738138,-0.0062093576599285,0.0165428516763982));
#1402=CARTESIAN_POINT('',(-0.00288922147738138,-0.0062093576599285,0.0168307463094486));
#1403=CARTESIAN_POINT('',(-0.00288922147738138,-0.0062093576599285,0.017118640942499));
#1404=CARTESIAN_POINT('',(-0.00288922147738138,-0.0062093576599285,0.017118640942499));
#1405=CARTESIAN_POINT('',(-0.00280575206267706,-0.0062093576599285,0.0168411433445837));
#1406=CARTESIAN_POINT('',(-0.00272376067150706,-0.0062093576599285,0.0165424420317744));
#1407=CARTESIAN_POINT('',(-0.00272376067150706,-0.0062093576599285,0.0165424420317744));
#1408=CARTESIAN_POINT('',(-0.00280575206267706,-0.0062093576599285,0.0168411433445837));
#1409=CARTESIAN_POINT('',(-0.00272376067150706,-0.0062093576599285,0.0168305414871367));
#1410=CARTESIAN_POINT('',(-0.00272376067150706,-0.0062093576599285,0.017118640942499));
#1411=CARTESIAN_POINT('',(-0.00272376067150706,-0.0062093576599285,0.017118640942499));
#1412=CARTESIAN_POINT('',(-0.00272376067150706,-0.0062093576599285,0.0168305414871367));
#1413=CARTESIAN_POINT('',(-0.00280649107444422,-0.0062093576599285,0.017118640942499));
#1414=CARTESIAN_POINT('',(-0.00280649107444422,-0.0062093576599285,0.017118640942499));
#1415=CARTESIAN_POINT('',(0.000111800587909801,-0.0062093576599285,0.0129794774682746));
#1416=MECHANICAL_DESIGN_GEOMETRIC_PRESENTATION_REPRESENTATION('',(#772,
#16,#17,#18,#19,#20,#21,#22,#23,#24,#25,#26),#1417);
#1417=(
GEOMETRIC_REPRESENTATION_CONTEXT(3)
GLOBAL_UNCERTAINTY_ASSIGNED_CONTEXT((#1418))
GLOBAL_UNIT_ASSIGNED_CONTEXT((#1421,#1420,#1419))
REPRESENTATION_CONTEXT('Part 1','TOP_LEVEL_ASSEMBLY_PART')
);
#1418=UNCERTAINTY_MEASURE_WITH_UNIT(LENGTH_MEASURE(1.E-8),#1421,
'DISTANCE_ACCURACY_VALUE','Maximum Tolerance applied to model');
#1419=(
NAMED_UNIT(*)
SI_UNIT($,.STERADIAN.)
SOLID_ANGLE_UNIT()
);
#1420=(
NAMED_UNIT(*)
PLANE_ANGLE_UNIT()
SI_UNIT($,.RADIAN.)
);
#1421=(
LENGTH_UNIT()
NAMED_UNIT(*)
SI_UNIT($,.METRE.)
);
#1422=PRODUCT_DEFINITION_SHAPE('','',#1423);
#1423=PRODUCT_DEFINITION('','',#1425,#1424);
#1424=PRODUCT_DEFINITION_CONTEXT('',#1431,'design');
#1425=PRODUCT_DEFINITION_FORMATION_WITH_SPECIFIED_SOURCE('','',#1427,
 .NOT_KNOWN.);
#1426=PRODUCT_RELATED_PRODUCT_CATEGORY('','',(#1427));
#1427=PRODUCT('Part 1','Part 1','Part 1',(#1429));
#1428=PRODUCT_CATEGORY('','');
#1429=PRODUCT_CONTEXT('',#1431,'mechanical');
#1430=APPLICATION_PROTOCOL_DEFINITION('international standard',
'ap242_managed_model_based_3d_engineering',2020,#1431);
#1431=APPLICATION_CONTEXT('managed model based 3d engineering');
ENDSEC;
END-ISO-10303-21;
