ISO-10303-21;
HEADER;
/* Generated by software containing ST-Developer
 * from STEP Tools, Inc. (www.steptools.com) 
 */
/* OPTION: using custom renumber hook */

FILE_DESCRIPTION(
/* description */ ('STEP AP242 Edition 2',
'CAx-IF Rec.Pracs.---Representation and Presentation of Product Manufa
cturing Information (PMI)---4.0---2014-10-13',
'CAx-IF Rec.Pracs.---3D Tessellated Geometry---0.4---2014-09-14','2;1',
'CAx-IF Rec.Pracs.---User Defined Attributes---1.5---2016-08-15'),
/* implementation_level */ '2;1');

FILE_NAME(
/* name */ 'Assembly 1 - Part 1 (7)',
/* time_stamp */ '2026-09-04T12:17:08Z',
/* author */ (''),
/* organization */ (''),
/* preprocessor_version */ 'ST-DEVELOPER v20',
/* originating_system */ 'ONSHAPE BY PTC INC, 1.220',
/* authorisation */ '  ');

FILE_SCHEMA (('AP242_MANAGED_MODEL_BASED_3D_ENGINEERING_MIM_LF { 1 0 10303 442 3 1 4 }'));
ENDSEC;

DATA;
#10=SHAPE_REPRESENTATION_RELATIONSHIP('','',#413,#11);
#11=ADVANCED_BREP_SHAPE_REPRESENTATION('',(#411),#653);
#12=ELLIPSE('',#433,0.00170710678118655,0.00120710678118655);
#13=ELLIPSE('',#434,0.00170710678118655,0.00120710678118655);
#14=ELLIPSE('',#436,0.00170710678118655,0.00120710678118655);
#15=ELLIPSE('',#438,0.00170710678118655,0.00120710678118655);
#16=CYLINDRICAL_SURFACE('',#432,0.00120710678118655);
#17=CYLINDRICAL_SURFACE('',#435,0.00120710678118655);
#18=CYLINDRICAL_SURFACE('',#437,0.00120710678118655);
#19=CYLINDRICAL_SURFACE('',#439,0.00120710678118655);
#20=ORIENTED_EDGE('',*,*,#128,.F.);
#21=ORIENTED_EDGE('',*,*,#129,.T.);
#22=ORIENTED_EDGE('',*,*,#130,.T.);
#23=ORIENTED_EDGE('',*,*,#131,.F.);
#24=ORIENTED_EDGE('',*,*,#132,.F.);
#25=ORIENTED_EDGE('',*,*,#133,.T.);
#26=ORIENTED_EDGE('',*,*,#134,.T.);
#27=ORIENTED_EDGE('',*,*,#135,.F.);
#28=ORIENTED_EDGE('',*,*,#136,.T.);
#29=ORIENTED_EDGE('',*,*,#137,.T.);
#30=ORIENTED_EDGE('',*,*,#138,.T.);
#31=ORIENTED_EDGE('',*,*,#139,.F.);
#32=ORIENTED_EDGE('',*,*,#140,.F.);
#33=ORIENTED_EDGE('',*,*,#141,.F.);
#34=ORIENTED_EDGE('',*,*,#142,.F.);
#35=ORIENTED_EDGE('',*,*,#141,.T.);
#36=ORIENTED_EDGE('',*,*,#143,.T.);
#37=ORIENTED_EDGE('',*,*,#144,.T.);
#38=ORIENTED_EDGE('',*,*,#145,.F.);
#39=ORIENTED_EDGE('',*,*,#146,.T.);
#40=ORIENTED_EDGE('',*,*,#144,.F.);
#41=ORIENTED_EDGE('',*,*,#147,.F.);
#42=ORIENTED_EDGE('',*,*,#148,.T.);
#43=ORIENTED_EDGE('',*,*,#149,.T.);
#44=ORIENTED_EDGE('',*,*,#150,.F.);
#45=ORIENTED_EDGE('',*,*,#151,.F.);
#46=ORIENTED_EDGE('',*,*,#152,.F.);
#47=ORIENTED_EDGE('',*,*,#153,.T.);
#48=ORIENTED_EDGE('',*,*,#154,.F.);
#49=ORIENTED_EDGE('',*,*,#155,.F.);
#50=ORIENTED_EDGE('',*,*,#148,.F.);
#51=ORIENTED_EDGE('',*,*,#156,.F.);
#52=ORIENTED_EDGE('',*,*,#128,.T.);
#53=ORIENTED_EDGE('',*,*,#157,.T.);
#54=ORIENTED_EDGE('',*,*,#151,.T.);
#55=ORIENTED_EDGE('',*,*,#158,.F.);
#56=ORIENTED_EDGE('',*,*,#129,.F.);
#57=ORIENTED_EDGE('',*,*,#156,.T.);
#58=ORIENTED_EDGE('',*,*,#150,.T.);
#59=ORIENTED_EDGE('',*,*,#159,.F.);
#60=ORIENTED_EDGE('',*,*,#130,.F.);
#61=ORIENTED_EDGE('',*,*,#158,.T.);
#62=ORIENTED_EDGE('',*,*,#149,.F.);
#63=ORIENTED_EDGE('',*,*,#157,.F.);
#64=ORIENTED_EDGE('',*,*,#131,.T.);
#65=ORIENTED_EDGE('',*,*,#159,.T.);
#66=ORIENTED_EDGE('',*,*,#140,.T.);
#67=ORIENTED_EDGE('',*,*,#160,.T.);
#68=ORIENTED_EDGE('',*,*,#147,.T.);
#69=ORIENTED_EDGE('',*,*,#143,.F.);
#70=ORIENTED_EDGE('',*,*,#135,.T.);
#71=ORIENTED_EDGE('',*,*,#161,.T.);
#72=ORIENTED_EDGE('',*,*,#154,.T.);
#73=ORIENTED_EDGE('',*,*,#162,.F.);
#74=ORIENTED_EDGE('',*,*,#162,.T.);
#75=ORIENTED_EDGE('',*,*,#153,.F.);
#76=ORIENTED_EDGE('',*,*,#163,.F.);
#77=ORIENTED_EDGE('',*,*,#136,.F.);
#78=ORIENTED_EDGE('',*,*,#164,.F.);
#79=ORIENTED_EDGE('',*,*,#165,.T.);
#80=ORIENTED_EDGE('',*,*,#166,.T.);
#81=ORIENTED_EDGE('',*,*,#163,.T.);
#82=ORIENTED_EDGE('',*,*,#152,.T.);
#83=ORIENTED_EDGE('',*,*,#167,.F.);
#84=ORIENTED_EDGE('',*,*,#133,.F.);
#85=ORIENTED_EDGE('',*,*,#168,.T.);
#86=ORIENTED_EDGE('',*,*,#145,.T.);
#87=ORIENTED_EDGE('',*,*,#160,.F.);
#88=ORIENTED_EDGE('',*,*,#146,.F.);
#89=ORIENTED_EDGE('',*,*,#168,.F.);
#90=ORIENTED_EDGE('',*,*,#132,.T.);
#91=ORIENTED_EDGE('',*,*,#142,.T.);
#92=ORIENTED_EDGE('',*,*,#155,.T.);
#93=ORIENTED_EDGE('',*,*,#161,.F.);
#94=ORIENTED_EDGE('',*,*,#134,.F.);
#95=ORIENTED_EDGE('',*,*,#167,.T.);
#96=ORIENTED_EDGE('',*,*,#169,.F.);
#97=ORIENTED_EDGE('',*,*,#170,.T.);
#98=ORIENTED_EDGE('',*,*,#164,.T.);
#99=ORIENTED_EDGE('',*,*,#139,.T.);
#100=ORIENTED_EDGE('',*,*,#171,.F.);
#101=ORIENTED_EDGE('',*,*,#172,.T.);
#102=ORIENTED_EDGE('',*,*,#169,.T.);
#103=ORIENTED_EDGE('',*,*,#138,.F.);
#104=ORIENTED_EDGE('',*,*,#166,.F.);
#105=ORIENTED_EDGE('',*,*,#173,.T.);
#106=ORIENTED_EDGE('',*,*,#171,.T.);
#107=ORIENTED_EDGE('',*,*,#137,.F.);
#108=ORIENTED_EDGE('',*,*,#174,.T.);
#109=ORIENTED_EDGE('',*,*,#175,.T.);
#110=ORIENTED_EDGE('',*,*,#176,.T.);
#111=ORIENTED_EDGE('',*,*,#177,.T.);
#112=ORIENTED_EDGE('',*,*,#178,.F.);
#113=ORIENTED_EDGE('',*,*,#173,.F.);
#114=ORIENTED_EDGE('',*,*,#179,.F.);
#115=ORIENTED_EDGE('',*,*,#174,.F.);
#116=ORIENTED_EDGE('',*,*,#179,.T.);
#117=ORIENTED_EDGE('',*,*,#165,.F.);
#118=ORIENTED_EDGE('',*,*,#180,.F.);
#119=ORIENTED_EDGE('',*,*,#175,.F.);
#120=ORIENTED_EDGE('',*,*,#178,.T.);
#121=ORIENTED_EDGE('',*,*,#177,.F.);
#122=ORIENTED_EDGE('',*,*,#181,.F.);
#123=ORIENTED_EDGE('',*,*,#172,.F.);
#124=ORIENTED_EDGE('',*,*,#180,.T.);
#125=ORIENTED_EDGE('',*,*,#170,.F.);
#126=ORIENTED_EDGE('',*,*,#181,.T.);
#127=ORIENTED_EDGE('',*,*,#176,.F.);
#128=EDGE_CURVE('',#182,#183,#216,.T.);
#129=EDGE_CURVE('',#182,#184,#217,.T.);
#130=EDGE_CURVE('',#184,#185,#218,.T.);
#131=EDGE_CURVE('',#183,#185,#219,.T.);
#132=EDGE_CURVE('',#186,#187,#220,.T.);
#133=EDGE_CURVE('',#186,#188,#221,.T.);
#134=EDGE_CURVE('',#188,#189,#222,.T.);
#135=EDGE_CURVE('',#190,#189,#223,.T.);
#136=EDGE_CURVE('',#190,#191,#224,.T.);
#137=EDGE_CURVE('',#191,#192,#225,.T.);
#138=EDGE_CURVE('',#192,#193,#226,.T.);
#139=EDGE_CURVE('',#194,#193,#227,.T.);
#140=EDGE_CURVE('',#195,#194,#228,.T.);
#141=EDGE_CURVE('',#187,#195,#229,.T.);
#142=EDGE_CURVE('',#187,#196,#230,.T.);
#143=EDGE_CURVE('',#195,#197,#231,.T.);
#144=EDGE_CURVE('',#197,#196,#232,.T.);
#145=EDGE_CURVE('',#198,#199,#233,.T.);
#146=EDGE_CURVE('',#198,#196,#234,.T.);
#147=EDGE_CURVE('',#199,#197,#235,.T.);
#148=EDGE_CURVE('',#200,#201,#236,.T.);
#149=EDGE_CURVE('',#201,#202,#237,.T.);
#150=EDGE_CURVE('',#203,#202,#238,.T.);
#151=EDGE_CURVE('',#200,#203,#239,.T.);
#152=EDGE_CURVE('',#204,#205,#240,.T.);
#153=EDGE_CURVE('',#204,#206,#241,.T.);
#154=EDGE_CURVE('',#207,#206,#242,.T.);
#155=EDGE_CURVE('',#205,#207,#243,.T.);
#156=EDGE_CURVE('',#182,#200,#244,.T.);
#157=EDGE_CURVE('',#183,#201,#245,.T.);
#158=EDGE_CURVE('',#184,#203,#246,.T.);
#159=EDGE_CURVE('',#185,#202,#247,.T.);
#160=EDGE_CURVE('',#194,#199,#248,.T.);
#161=EDGE_CURVE('',#189,#207,#249,.T.);
#162=EDGE_CURVE('',#190,#206,#250,.T.);
#163=EDGE_CURVE('',#191,#204,#251,.T.);
#164=EDGE_CURVE('',#208,#194,#252,.T.);
#165=EDGE_CURVE('',#208,#209,#253,.T.);
#166=EDGE_CURVE('',#209,#191,#254,.T.);
#167=EDGE_CURVE('',#188,#205,#255,.T.);
#168=EDGE_CURVE('',#186,#198,#256,.T.);
#169=EDGE_CURVE('',#210,#193,#257,.T.);
#170=EDGE_CURVE('',#210,#208,#258,.F.);
#171=EDGE_CURVE('',#211,#192,#259,.T.);
#172=EDGE_CURVE('',#211,#210,#260,.T.);
#173=EDGE_CURVE('',#209,#211,#261,.T.);
#174=EDGE_CURVE('',#212,#213,#262,.F.);
#175=EDGE_CURVE('',#213,#214,#263,.F.);
#176=EDGE_CURVE('',#214,#215,#264,.T.);
#177=EDGE_CURVE('',#215,#212,#265,.F.);
#178=EDGE_CURVE('',#211,#212,#12,.T.);
#179=EDGE_CURVE('',#213,#209,#13,.T.);
#180=EDGE_CURVE('',#214,#208,#14,.T.);
#181=EDGE_CURVE('',#210,#215,#15,.T.);
#182=VERTEX_POINT('',#545);
#183=VERTEX_POINT('',#546);
#184=VERTEX_POINT('',#548);
#185=VERTEX_POINT('',#550);
#186=VERTEX_POINT('',#553);
#187=VERTEX_POINT('',#554);
#188=VERTEX_POINT('',#556);
#189=VERTEX_POINT('',#558);
#190=VERTEX_POINT('',#560);
#191=VERTEX_POINT('',#562);
#192=VERTEX_POINT('',#564);
#193=VERTEX_POINT('',#566);
#194=VERTEX_POINT('',#568);
#195=VERTEX_POINT('',#570);
#196=VERTEX_POINT('',#574);
#197=VERTEX_POINT('',#576);
#198=VERTEX_POINT('',#580);
#199=VERTEX_POINT('',#581);
#200=VERTEX_POINT('',#585);
#201=VERTEX_POINT('',#586);
#202=VERTEX_POINT('',#588);
#203=VERTEX_POINT('',#590);
#204=VERTEX_POINT('',#593);
#205=VERTEX_POINT('',#594);
#206=VERTEX_POINT('',#596);
#207=VERTEX_POINT('',#598);
#208=VERTEX_POINT('',#617);
#209=VERTEX_POINT('',#619);
#210=VERTEX_POINT('',#627);
#211=VERTEX_POINT('',#631);
#212=VERTEX_POINT('',#637);
#213=VERTEX_POINT('',#638);
#214=VERTEX_POINT('',#640);
#215=VERTEX_POINT('',#642);
#216=LINE('',#544,#266);
#217=LINE('',#547,#267);
#218=LINE('',#549,#268);
#219=LINE('',#551,#269);
#220=LINE('',#552,#270);
#221=LINE('',#555,#271);
#222=LINE('',#557,#272);
#223=LINE('',#559,#273);
#224=LINE('',#561,#274);
#225=LINE('',#563,#275);
#226=LINE('',#565,#276);
#227=LINE('',#567,#277);
#228=LINE('',#569,#278);
#229=LINE('',#571,#279);
#230=LINE('',#573,#280);
#231=LINE('',#575,#281);
#232=LINE('',#577,#282);
#233=LINE('',#579,#283);
#234=LINE('',#582,#284);
#235=LINE('',#583,#285);
#236=LINE('',#584,#286);
#237=LINE('',#587,#287);
#238=LINE('',#589,#288);
#239=LINE('',#591,#289);
#240=LINE('',#592,#290);
#241=LINE('',#595,#291);
#242=LINE('',#597,#292);
#243=LINE('',#599,#293);
#244=LINE('',#601,#294);
#245=LINE('',#602,#295);
#246=LINE('',#604,#296);
#247=LINE('',#606,#297);
#248=LINE('',#609,#298);
#249=LINE('',#611,#299);
#250=LINE('',#612,#300);
#251=LINE('',#614,#301);
#252=LINE('',#616,#302);
#253=LINE('',#618,#303);
#254=LINE('',#620,#304);
#255=LINE('',#621,#305);
#256=LINE('',#622,#306);
#257=LINE('',#626,#307);
#258=LINE('',#628,#308);
#259=LINE('',#630,#309);
#260=LINE('',#632,#310);
#261=LINE('',#634,#311);
#262=LINE('',#636,#312);
#263=LINE('',#639,#313);
#264=LINE('',#641,#314);
#265=LINE('',#643,#315);
#266=VECTOR('',#444,1.);
#267=VECTOR('',#445,1.);
#268=VECTOR('',#446,1.);
#269=VECTOR('',#447,1.);
#270=VECTOR('',#448,1.);
#271=VECTOR('',#449,1.);
#272=VECTOR('',#450,1.);
#273=VECTOR('',#451,1.);
#274=VECTOR('',#452,1.);
#275=VECTOR('',#453,1.);
#276=VECTOR('',#454,1.);
#277=VECTOR('',#455,1.);
#278=VECTOR('',#456,1.);
#279=VECTOR('',#457,1.);
#280=VECTOR('',#460,1.);
#281=VECTOR('',#461,1.);
#282=VECTOR('',#462,1.);
#283=VECTOR('',#465,1.);
#284=VECTOR('',#466,1.);
#285=VECTOR('',#467,1.);
#286=VECTOR('',#468,1.);
#287=VECTOR('',#469,1.);
#288=VECTOR('',#470,1.);
#289=VECTOR('',#471,1.);
#290=VECTOR('',#472,1.);
#291=VECTOR('',#473,1.);
#292=VECTOR('',#474,1.);
#293=VECTOR('',#475,1.);
#294=VECTOR('',#478,1.);
#295=VECTOR('',#479,1.);
#296=VECTOR('',#482,1.);
#297=VECTOR('',#485,1.);
#298=VECTOR('',#490,1.);
#299=VECTOR('',#493,1.);
#300=VECTOR('',#494,1.);
#301=VECTOR('',#497,1.);
#302=VECTOR('',#500,1.);
#303=VECTOR('',#501,1.);
#304=VECTOR('',#502,1.);
#305=VECTOR('',#503,1.);
#306=VECTOR('',#504,1.);
#307=VECTOR('',#511,1.);
#308=VECTOR('',#512,1.);
#309=VECTOR('',#515,1.);
#310=VECTOR('',#516,1.);
#311=VECTOR('',#519,1.);
#312=VECTOR('',#522,1.);
#313=VECTOR('',#523,1.);
#314=VECTOR('',#524,1.);
#315=VECTOR('',#525,1.);
#316=EDGE_LOOP('',(#20,#21,#22,#23));
#317=EDGE_LOOP('',(#24,#25,#26,#27,#28,#29,#30,#31,#32,#33));
#318=EDGE_LOOP('',(#34,#35,#36,#37));
#319=EDGE_LOOP('',(#38,#39,#40,#41));
#320=EDGE_LOOP('',(#42,#43,#44,#45));
#321=EDGE_LOOP('',(#46,#47,#48,#49));
#322=EDGE_LOOP('',(#50,#51,#52,#53));
#323=EDGE_LOOP('',(#54,#55,#56,#57));
#324=EDGE_LOOP('',(#58,#59,#60,#61));
#325=EDGE_LOOP('',(#62,#63,#64,#65));
#326=EDGE_LOOP('',(#66,#67,#68,#69));
#327=EDGE_LOOP('',(#70,#71,#72,#73));
#328=EDGE_LOOP('',(#74,#75,#76,#77));
#329=EDGE_LOOP('',(#78,#79,#80,#81,#82,#83,#84,#85,#86,#87));
#330=EDGE_LOOP('',(#88,#89,#90,#91));
#331=EDGE_LOOP('',(#92,#93,#94,#95));
#332=EDGE_LOOP('',(#96,#97,#98,#99));
#333=EDGE_LOOP('',(#100,#101,#102,#103));
#334=EDGE_LOOP('',(#104,#105,#106,#107));
#335=EDGE_LOOP('',(#108,#109,#110,#111));
#336=EDGE_LOOP('',(#112,#113,#114,#115));
#337=EDGE_LOOP('',(#116,#117,#118,#119));
#338=EDGE_LOOP('',(#120,#121,#122,#123));
#339=EDGE_LOOP('',(#124,#125,#126,#127));
#340=FACE_BOUND('',#316,.T.);
#341=FACE_BOUND('',#317,.T.);
#342=FACE_BOUND('',#318,.T.);
#343=FACE_BOUND('',#319,.T.);
#344=FACE_BOUND('',#320,.T.);
#345=FACE_BOUND('',#321,.T.);
#346=FACE_BOUND('',#322,.T.);
#347=FACE_BOUND('',#323,.T.);
#348=FACE_BOUND('',#324,.T.);
#349=FACE_BOUND('',#325,.T.);
#350=FACE_BOUND('',#326,.T.);
#351=FACE_BOUND('',#327,.T.);
#352=FACE_BOUND('',#328,.T.);
#353=FACE_BOUND('',#329,.T.);
#354=FACE_BOUND('',#330,.T.);
#355=FACE_BOUND('',#331,.T.);
#356=FACE_BOUND('',#332,.T.);
#357=FACE_BOUND('',#333,.T.);
#358=FACE_BOUND('',#334,.T.);
#359=FACE_BOUND('',#335,.T.);
#360=FACE_BOUND('',#336,.T.);
#361=FACE_BOUND('',#337,.T.);
#362=FACE_BOUND('',#338,.T.);
#363=FACE_BOUND('',#339,.T.);
#364=PLANE('',#415);
#365=PLANE('',#416);
#366=PLANE('',#417);
#367=PLANE('',#418);
#368=PLANE('',#419);
#369=PLANE('',#420);
#370=PLANE('',#421);
#371=PLANE('',#422);
#372=PLANE('',#423);
#373=PLANE('',#424);
#374=PLANE('',#425);
#375=PLANE('',#426);
#376=PLANE('',#427);
#377=PLANE('',#428);
#378=PLANE('',#429);
#379=PLANE('',#430);
#380=PLANE('',#431);
#381=ADVANCED_FACE('',(#340,#341),#364,.T.);
#382=ADVANCED_FACE('',(#342),#365,.F.);
#383=ADVANCED_FACE('',(#343,#344,#345),#366,.F.);
#384=ADVANCED_FACE('',(#346),#367,.T.);
#385=ADVANCED_FACE('',(#347),#368,.F.);
#386=ADVANCED_FACE('',(#348),#369,.F.);
#387=ADVANCED_FACE('',(#349),#370,.T.);
#388=ADVANCED_FACE('',(#350),#371,.F.);
#389=ADVANCED_FACE('',(#351),#372,.F.);
#390=ADVANCED_FACE('',(#352),#373,.T.);
#391=ADVANCED_FACE('',(#353),#374,.F.);
#392=ADVANCED_FACE('',(#354),#375,.T.);
#393=ADVANCED_FACE('',(#355),#376,.F.);
#394=ADVANCED_FACE('',(#356),#377,.F.);
#395=ADVANCED_FACE('',(#357),#378,.T.);
#396=ADVANCED_FACE('',(#358),#379,.T.);
#397=ADVANCED_FACE('',(#359),#380,.T.);
#398=ADVANCED_FACE('',(#360),#16,.T.);
#399=ADVANCED_FACE('',(#361),#17,.T.);
#400=ADVANCED_FACE('',(#362),#18,.T.);
#401=ADVANCED_FACE('',(#363),#19,.T.);
#402=CLOSED_SHELL('',(#381,#382,#383,#384,#385,#386,#387,#388,#389,#390,
#391,#392,#393,#394,#395,#396,#397,#398,#399,#400,#401));
#403=STYLED_ITEM('',(#404),#411);
#404=PRESENTATION_STYLE_ASSIGNMENT((#405));
#405=SURFACE_STYLE_USAGE(.BOTH.,#406);
#406=SURFACE_SIDE_STYLE('',(#407));
#407=SURFACE_STYLE_FILL_AREA(#408);
#408=FILL_AREA_STYLE('',(#409));
#409=FILL_AREA_STYLE_COLOUR('',#410);
#410=COLOUR_RGB('',0.984313725490196,0.937254901960784,0.803921568627451);
#411=MANIFOLD_SOLID_BREP('Part 1',#402);
#412=SHAPE_DEFINITION_REPRESENTATION(#658,#413);
#413=SHAPE_REPRESENTATION('Part 1',(#414),#653);
#414=AXIS2_PLACEMENT_3D('',#542,#440,#441);
#415=AXIS2_PLACEMENT_3D('',#543,#442,#443);
#416=AXIS2_PLACEMENT_3D('',#572,#458,#459);
#417=AXIS2_PLACEMENT_3D('',#578,#463,#464);
#418=AXIS2_PLACEMENT_3D('',#600,#476,#477);
#419=AXIS2_PLACEMENT_3D('',#603,#480,#481);
#420=AXIS2_PLACEMENT_3D('',#605,#483,#484);
#421=AXIS2_PLACEMENT_3D('',#607,#486,#487);
#422=AXIS2_PLACEMENT_3D('',#608,#488,#489);
#423=AXIS2_PLACEMENT_3D('',#610,#491,#492);
#424=AXIS2_PLACEMENT_3D('',#613,#495,#496);
#425=AXIS2_PLACEMENT_3D('',#615,#498,#499);
#426=AXIS2_PLACEMENT_3D('',#623,#505,#506);
#427=AXIS2_PLACEMENT_3D('',#624,#507,#508);
#428=AXIS2_PLACEMENT_3D('',#625,#509,#510);
#429=AXIS2_PLACEMENT_3D('',#629,#513,#514);
#430=AXIS2_PLACEMENT_3D('',#633,#517,#518);
#431=AXIS2_PLACEMENT_3D('',#635,#520,#521);
#432=AXIS2_PLACEMENT_3D('',#644,#526,#527);
#433=AXIS2_PLACEMENT_3D('',#645,#528,#529);
#434=AXIS2_PLACEMENT_3D('',#646,#530,#531);
#435=AXIS2_PLACEMENT_3D('',#647,#532,#533);
#436=AXIS2_PLACEMENT_3D('',#648,#534,#535);
#437=AXIS2_PLACEMENT_3D('',#649,#536,#537);
#438=AXIS2_PLACEMENT_3D('',#650,#538,#539);
#439=AXIS2_PLACEMENT_3D('',#651,#540,#541);
#440=DIRECTION('',(0.,0.,1.));
#441=DIRECTION('',(1.,0.,0.));
#442=DIRECTION('',(0.,-1.,0.));
#443=DIRECTION('',(1.,0.,0.));
#444=DIRECTION('',(0.,0.,-1.));
#445=DIRECTION('',(-1.,0.,0.));
#446=DIRECTION('',(0.,0.,-1.));
#447=DIRECTION('',(-1.,0.,0.));
#448=DIRECTION('',(0.,0.,-1.));
#449=DIRECTION('',(-1.,0.,0.));
#450=DIRECTION('',(0.,0.,-1.));
#451=DIRECTION('',(1.,0.,0.));
#452=DIRECTION('',(0.,0.,1.));
#453=DIRECTION('',(0.,0.,1.));
#454=DIRECTION('',(1.,0.,0.));
#455=DIRECTION('',(0.,0.,1.));
#456=DIRECTION('',(0.,0.,1.));
#457=DIRECTION('',(1.,0.,0.));
#458=DIRECTION('',(0.,0.,-1.));
#459=DIRECTION('',(-1.,0.,0.));
#460=DIRECTION('',(0.,1.,0.));
#461=DIRECTION('',(0.,1.,0.));
#462=DIRECTION('',(-1.,0.,0.));
#463=DIRECTION('',(0.,-1.,0.));
#464=DIRECTION('',(1.,0.,0.));
#465=DIRECTION('',(1.,0.,0.));
#466=DIRECTION('',(0.,0.,-1.));
#467=DIRECTION('',(0.,0.,-1.));
#468=DIRECTION('',(0.,0.,-1.));
#469=DIRECTION('',(-1.,0.,0.));
#470=DIRECTION('',(0.,0.,-1.));
#471=DIRECTION('',(-1.,0.,0.));
#472=DIRECTION('',(1.,0.,0.));
#473=DIRECTION('',(0.,0.,-1.));
#474=DIRECTION('',(-1.,0.,0.));
#475=DIRECTION('',(0.,0.,-1.));
#476=DIRECTION('',(1.,0.,0.));
#477=DIRECTION('',(0.,0.,-1.));
#478=DIRECTION('',(0.,1.,0.));
#479=DIRECTION('',(0.,1.,0.));
#480=DIRECTION('',(0.,0.,-1.));
#481=DIRECTION('',(-1.,0.,0.));
#482=DIRECTION('',(0.,1.,0.));
#483=DIRECTION('',(1.,0.,0.));
#484=DIRECTION('',(0.,0.,-1.));
#485=DIRECTION('',(0.,1.,0.));
#486=DIRECTION('',(0.,0.,-1.));
#487=DIRECTION('',(-1.,0.,0.));
#488=DIRECTION('',(1.,0.,0.));
#489=DIRECTION('',(0.,0.,-1.));
#490=DIRECTION('',(0.,1.,0.));
#491=DIRECTION('',(0.,0.,-1.));
#492=DIRECTION('',(-1.,0.,0.));
#493=DIRECTION('',(0.,1.,0.));
#494=DIRECTION('',(0.,1.,0.));
#495=DIRECTION('',(1.,0.,0.));
#496=DIRECTION('',(0.,0.,-1.));
#497=DIRECTION('',(0.,1.,0.));
#498=DIRECTION('',(0.,0.,1.));
#499=DIRECTION('',(1.,0.,0.));
#500=DIRECTION('',(0.,1.,0.));
#501=DIRECTION('',(-1.,0.,0.));
#502=DIRECTION('',(0.,1.,0.));
#503=DIRECTION('',(0.,1.,0.));
#504=DIRECTION('',(0.,1.,0.));
#505=DIRECTION('',(1.,0.,0.));
#506=DIRECTION('',(0.,0.,-1.));
#507=DIRECTION('',(1.,0.,0.));
#508=DIRECTION('',(0.,0.,-1.));
#509=DIRECTION('',(-1.,0.,0.));
#510=DIRECTION('',(0.,0.,1.));
#511=DIRECTION('',(0.,1.,0.));
#512=DIRECTION('',(0.,0.,1.));
#513=DIRECTION('',(0.,0.,1.));
#514=DIRECTION('',(1.,0.,0.));
#515=DIRECTION('',(0.,1.,0.));
#516=DIRECTION('',(1.,0.,0.));
#517=DIRECTION('',(-1.,0.,0.));
#518=DIRECTION('',(0.,0.,1.));
#519=DIRECTION('',(0.,0.,1.));
#520=DIRECTION('',(0.,-1.,0.));
#521=DIRECTION('',(1.,0.,0.));
#522=DIRECTION('',(0.,0.,1.));
#523=DIRECTION('',(-1.,0.,0.));
#524=DIRECTION('',(0.,0.,1.));
#525=DIRECTION('',(1.,0.,0.));
#526=DIRECTION('',(0.,0.,1.));
#527=DIRECTION('',(1.,0.,0.));
#528=DIRECTION('',(0.707106781186548,0.,0.707106781186548));
#529=DIRECTION('',(0.707106781186548,0.,-0.707106781186548));
#530=DIRECTION('',(0.707106781186548,0.,-0.707106781186548));
#531=DIRECTION('',(0.707106781186548,0.,0.707106781186548));
#532=DIRECTION('',(1.,0.,0.));
#533=DIRECTION('',(0.,0.,-1.));
#534=DIRECTION('',(0.707106781186548,0.,0.707106781186548));
#535=DIRECTION('',(0.707106781186548,0.,-0.707106781186548));
#536=DIRECTION('',(1.,0.,0.));
#537=DIRECTION('',(0.,0.,-1.));
#538=DIRECTION('',(0.707106781186548,0.,-0.707106781186548));
#539=DIRECTION('',(0.707106781186548,0.,0.707106781186548));
#540=DIRECTION('',(0.,0.,-1.));
#541=DIRECTION('',(-1.,0.,0.));
#542=CARTESIAN_POINT('',(0.,0.,0.));
#543=CARTESIAN_POINT('',(0.,-0.0025,-1.38777878078145E-17));
#544=CARTESIAN_POINT('',(0.06875,-0.0025,0.));
#545=CARTESIAN_POINT('',(0.06875,-0.0025,0.06875));
#546=CARTESIAN_POINT('',(0.06875,-0.0025,-0.06875));
#547=CARTESIAN_POINT('',(-1.38777878078145E-17,-0.0025,0.06875));
#548=CARTESIAN_POINT('',(-0.06875,-0.0025,0.06875));
#549=CARTESIAN_POINT('',(-0.06875,-0.0025,0.));
#550=CARTESIAN_POINT('',(-0.06875,-0.0025,-0.06875));
#551=CARTESIAN_POINT('',(-1.38777878078145E-17,-0.0025,-0.06875));
#552=CARTESIAN_POINT('',(-0.0285793366569854,-0.0025,-0.0150875287305705));
#553=CARTESIAN_POINT('',(-0.0285793366569854,-0.0025,0.0174584556370974));
#554=CARTESIAN_POINT('',(-0.0285793366569854,-0.0025,-0.0476335130982383));
#555=CARTESIAN_POINT('',(0.,-0.0025,0.0174584556370974));
#556=CARTESIAN_POINT('',(-0.0316368178004101,-0.0025,0.0174584556370974));
#557=CARTESIAN_POINT('',(-0.0316368178004101,-0.0025,-0.0150875287305705));
#558=CARTESIAN_POINT('',(-0.0316368178004101,-0.0025,-0.0476335130982383));
#559=CARTESIAN_POINT('',(0.,-0.0025,-0.0476335130982383));
#560=CARTESIAN_POINT('',(-0.0602161544573955,-0.0025,-0.0476335130982383));
#561=CARTESIAN_POINT('',(-0.0602161544573955,-0.0025,-1.38777878078145E-17));
#562=CARTESIAN_POINT('',(-0.0602161544573955,-0.0025,0.0174584556370974));
#563=CARTESIAN_POINT('',(-0.0602161544573955,-0.0025,0.0188776468858123));
#564=CARTESIAN_POINT('',(-0.0602161544573955,-0.0025,0.0202968381345272));
#565=CARTESIAN_POINT('',(-0.0301080772286977,-0.0025,0.0202968381345272));
#566=CARTESIAN_POINT('',(0.,-0.0025,0.0202968381345272));
#567=CARTESIAN_POINT('',(0.,-0.0025,0.0188776468858123));
#568=CARTESIAN_POINT('',(0.,-0.0025,0.0174584556370974));
#569=CARTESIAN_POINT('',(0.,-0.0025,-1.38777878078145E-17));
#570=CARTESIAN_POINT('',(0.,-0.0025,-0.0476335130982383));
#571=CARTESIAN_POINT('',(0.,-0.0025,-0.0476335130982383));
#572=CARTESIAN_POINT('',(-0.0301080772286977,-0.025,-0.0476335130982383));
#573=CARTESIAN_POINT('',(-0.0285793366569854,-0.0025,-0.0476335130982383));
#574=CARTESIAN_POINT('',(-0.0285793366569854,0.,-0.0476335130982383));
#575=CARTESIAN_POINT('',(0.,-0.025,-0.0476335130982383));
#576=CARTESIAN_POINT('',(0.,0.,-0.0476335130982383));
#577=CARTESIAN_POINT('',(-0.0301080772286977,0.,-0.0476335130982383));
#578=CARTESIAN_POINT('',(0.,0.,-1.38777878078145E-17));
#579=CARTESIAN_POINT('',(-0.0301080772286977,0.,0.0174584556370974));
#580=CARTESIAN_POINT('',(-0.0285793366569854,0.,0.0174584556370974));
#581=CARTESIAN_POINT('',(0.,0.,0.0174584556370974));
#582=CARTESIAN_POINT('',(-0.0285793366569854,0.,-0.0150875287305705));
#583=CARTESIAN_POINT('',(0.,0.,-0.0335875664455359));
#584=CARTESIAN_POINT('',(0.06875,0.,0.));
#585=CARTESIAN_POINT('',(0.06875,0.,0.06875));
#586=CARTESIAN_POINT('',(0.06875,0.,-0.06875));
#587=CARTESIAN_POINT('',(-1.38777878078145E-17,0.,-0.06875));
#588=CARTESIAN_POINT('',(-0.06875,0.,-0.06875));
#589=CARTESIAN_POINT('',(-0.06875,0.,0.));
#590=CARTESIAN_POINT('',(-0.06875,0.,0.06875));
#591=CARTESIAN_POINT('',(-1.38777878078145E-17,0.,0.06875));
#592=CARTESIAN_POINT('',(-0.0301080772286977,0.,0.0174584556370974));
#593=CARTESIAN_POINT('',(-0.0602161544573955,0.,0.0174584556370974));
#594=CARTESIAN_POINT('',(-0.0316368178004101,0.,0.0174584556370974));
#595=CARTESIAN_POINT('',(-0.0602161544573955,0.,-0.0335875664455359));
#596=CARTESIAN_POINT('',(-0.0602161544573955,0.,-0.0476335130982383));
#597=CARTESIAN_POINT('',(-0.0301080772286977,0.,-0.0476335130982383));
#598=CARTESIAN_POINT('',(-0.0316368178004101,0.,-0.0476335130982383));
#599=CARTESIAN_POINT('',(-0.0316368178004101,0.,-0.0150875287305705));
#600=CARTESIAN_POINT('',(0.06875,-0.0025,0.));
#601=CARTESIAN_POINT('',(0.06875,-0.0025,0.06875));
#602=CARTESIAN_POINT('',(0.06875,-0.0025,-0.06875));
#603=CARTESIAN_POINT('',(-1.38777878078145E-17,-0.0025,0.06875));
#604=CARTESIAN_POINT('',(-0.06875,-0.0025,0.06875));
#605=CARTESIAN_POINT('',(-0.06875,-0.0025,0.));
#606=CARTESIAN_POINT('',(-0.06875,-0.0025,-0.06875));
#607=CARTESIAN_POINT('',(-1.38777878078145E-17,-0.0025,-0.06875));
#608=CARTESIAN_POINT('',(0.,-0.025,-0.0335875664455359));
#609=CARTESIAN_POINT('',(0.,-0.025,0.0174584556370974));
#610=CARTESIAN_POINT('',(-0.0301080772286977,-0.025,-0.0476335130982383));
#611=CARTESIAN_POINT('',(-0.0316368178004101,-0.0025,-0.0476335130982383));
#612=CARTESIAN_POINT('',(-0.0602161544573955,-0.025,-0.0476335130982383));
#613=CARTESIAN_POINT('',(-0.0602161544573955,-0.025,-0.0335875664455359));
#614=CARTESIAN_POINT('',(-0.0602161544573955,-0.025,0.0174584556370974));
#615=CARTESIAN_POINT('',(-0.0301080772286977,-0.025,0.0174584556370974));
#616=CARTESIAN_POINT('',(0.,-0.0063,0.0174584556370974));
#617=CARTESIAN_POINT('',(0.,-0.00509289321881345,0.0174584556370974));
#618=CARTESIAN_POINT('',(-0.0602161544573955,-0.00509289321881345,0.0174584556370974));
#619=CARTESIAN_POINT('',(-0.0602161544573955,-0.00509289321881345,0.0174584556370974));
#620=CARTESIAN_POINT('',(-0.0602161544573955,-0.0063,0.0174584556370974));
#621=CARTESIAN_POINT('',(-0.0316368178004101,-0.0025,0.0174584556370974));
#622=CARTESIAN_POINT('',(-0.0285793366569854,-0.0025,0.0174584556370974));
#623=CARTESIAN_POINT('',(-0.0285793366569854,-0.0025,-0.0150875287305705));
#624=CARTESIAN_POINT('',(-0.0316368178004101,-0.0025,-0.0150875287305705));
#625=CARTESIAN_POINT('',(0.,-0.0063,0.0188776468858123));
#626=CARTESIAN_POINT('',(0.,-0.0063,0.0202968381345272));
#627=CARTESIAN_POINT('',(0.,-0.00509289321881345,0.0202968381345272));
#628=CARTESIAN_POINT('',(0.,-0.00509289321881345,0.0174584556370974));
#629=CARTESIAN_POINT('',(-0.0301080772286977,-0.0063,0.0202968381345272));
#630=CARTESIAN_POINT('',(-0.0602161544573955,-0.0063,0.0202968381345272));
#631=CARTESIAN_POINT('',(-0.0602161544573955,-0.00509289321881345,0.0202968381345272));
#632=CARTESIAN_POINT('',(-0.0301080772286977,-0.00509289321881345,0.0202968381345272));
#633=CARTESIAN_POINT('',(-0.0602161544573955,-0.0063,0.0188776468858123));
#634=CARTESIAN_POINT('',(-0.0602161544573955,-0.00509289321881345,0.0188776468858123));
#635=CARTESIAN_POINT('',(0.,-0.0063,-1.38777878078145E-17));
#636=CARTESIAN_POINT('',(-0.0590090476762089,-0.0063,-1.38777878078145E-17));
#637=CARTESIAN_POINT('',(-0.0590090476762089,-0.0063,0.0190897313533407));
#638=CARTESIAN_POINT('',(-0.0590090476762089,-0.0063,0.0186655624182839));
#639=CARTESIAN_POINT('',(0.,-0.0063,0.0186655624182839));
#640=CARTESIAN_POINT('',(-0.00120710678118655,-0.0063,0.0186655624182839));
#641=CARTESIAN_POINT('',(-0.00120710678118655,-0.0063,0.0202968381345272));
#642=CARTESIAN_POINT('',(-0.00120710678118655,-0.0063,0.0190897313533407));
#643=CARTESIAN_POINT('',(0.,-0.0063,0.0190897313533407));
#644=CARTESIAN_POINT('',(-0.0590090476762089,-0.00509289321881345,0.0188776468858123));
#645=CARTESIAN_POINT('',(-0.0590090476762089,-0.00509289321881345,0.0190897313533407));
#646=CARTESIAN_POINT('',(-0.0590090476762089,-0.00509289321881345,0.0186655624182839));
#647=CARTESIAN_POINT('',(-0.0301080772286977,-0.00509289321881345,0.0186655624182839));
#648=CARTESIAN_POINT('',(-0.00120710678118655,-0.00509289321881345,0.0186655624182839));
#649=CARTESIAN_POINT('',(-0.0301080772286977,-0.00509289321881345,0.0190897313533407));
#650=CARTESIAN_POINT('',(-0.00120710678118655,-0.00509289321881345,0.0190897313533407));
#651=CARTESIAN_POINT('',(-0.00120710678118655,-0.00509289321881345,-1.38777878078145E-17));
#652=MECHANICAL_DESIGN_GEOMETRIC_PRESENTATION_REPRESENTATION('',(#403),
#653);
#653=(
GEOMETRIC_REPRESENTATION_CONTEXT(3)
GLOBAL_UNCERTAINTY_ASSIGNED_CONTEXT((#654))
GLOBAL_UNIT_ASSIGNED_CONTEXT((#657,#656,#655))
REPRESENTATION_CONTEXT('Part 1','TOP_LEVEL_ASSEMBLY_PART')
);
#654=UNCERTAINTY_MEASURE_WITH_UNIT(LENGTH_MEASURE(1.E-8),#657,
'DISTANCE_ACCURACY_VALUE','Maximum Tolerance applied to model');
#655=(
NAMED_UNIT(*)
SI_UNIT($,.STERADIAN.)
SOLID_ANGLE_UNIT()
);
#656=(
NAMED_UNIT(*)
PLANE_ANGLE_UNIT()
SI_UNIT($,.RADIAN.)
);
#657=(
LENGTH_UNIT()
NAMED_UNIT(*)
SI_UNIT($,.METRE.)
);
#658=PRODUCT_DEFINITION_SHAPE('','',#659);
#659=PRODUCT_DEFINITION('','',#661,#660);
#660=PRODUCT_DEFINITION_CONTEXT('',#667,'design');
#661=PRODUCT_DEFINITION_FORMATION_WITH_SPECIFIED_SOURCE('','',#663,
 .NOT_KNOWN.);
#662=PRODUCT_RELATED_PRODUCT_CATEGORY('','',(#663));
#663=PRODUCT('Part 1','Part 1','Part 1',(#665));
#664=PRODUCT_CATEGORY('','');
#665=PRODUCT_CONTEXT('',#667,'mechanical');
#666=APPLICATION_PROTOCOL_DEFINITION('international standard',
'ap242_managed_model_based_3d_engineering',2020,#667);
#667=APPLICATION_CONTEXT('managed model based 3d engineering');
ENDSEC;
END-ISO-10303-21;
