ISO-10303-21;
HEADER;
/* Generated by software containing ST-Developer
 * from STEP Tools, Inc. (www.steptools.com) 
 */
/* OPTION: using custom renumber hook */

FILE_DESCRIPTION(
/* description */ ('STEP AP242 Edition 2',
'CAx-IF Rec.Pracs.---Representation and Presentation of Product Manufa
cturing Information (PMI)---4.0---2014-10-13',
'CAx-IF Rec.Pracs.---3D Tessellated Geometry---0.4---2014-09-14','2;1',
'CAx-IF Rec.Pracs.---User Defined Attributes---1.5---2016-08-15'),
/* implementation_level */ '2;1');

FILE_NAME(
/* name */ 'Assembly 1 - Part 1 (10)',
/* time_stamp */ '2026-09-03T17:07:38Z',
/* author */ (''),
/* organization */ (''),
/* preprocessor_version */ 'ST-DEVELOPER v20',
/* originating_system */ 'ONSHAPE BY PTC INC, 1.220',
/* authorisation */ '  ');

FILE_SCHEMA (('AP242_MANAGED_MODEL_BASED_3D_ENGINEERING_MIM_LF { 1 0 10303 442 3 1 4 }'));
ENDSEC;

DATA;
#10=SHAPE_REPRESENTATION_RELATIONSHIP('','',#168,#11);
#11=ADVANCED_BREP_SHAPE_REPRESENTATION('',(#166),#277);
#12=TOROIDAL_SURFACE('',#190,0.00595458361269637,0.00579411254969543);
#13=OVER_RIDING_STYLED_ITEM('',(#142),#135,#140);
#14=OVER_RIDING_STYLED_ITEM('',(#143),#137,#140);
#15=OVER_RIDING_STYLED_ITEM('',(#144),#138,#140);
#16=COLOUR_RGB('',0.913725490196078,0.31764705882353,0.129411764705882);
#17=PLANE('',#176);
#18=PLANE('',#177);
#19=PLANE('',#181);
#20=PLANE('',#185);
#21=PLANE('',#189);
#22=PLANE('',#192);
#23=ORIENTED_EDGE('',*,*,#45,.T.);
#24=ORIENTED_EDGE('',*,*,#46,.F.);
#25=ORIENTED_EDGE('',*,*,#47,.F.);
#26=ORIENTED_EDGE('',*,*,#48,.T.);
#27=ORIENTED_EDGE('',*,*,#45,.F.);
#28=ORIENTED_EDGE('',*,*,#47,.T.);
#29=ORIENTED_EDGE('',*,*,#48,.F.);
#30=ORIENTED_EDGE('',*,*,#49,.T.);
#31=ORIENTED_EDGE('',*,*,#50,.T.);
#32=ORIENTED_EDGE('',*,*,#46,.T.);
#33=ORIENTED_EDGE('',*,*,#49,.F.);
#34=ORIENTED_EDGE('',*,*,#51,.F.);
#35=ORIENTED_EDGE('',*,*,#52,.T.);
#36=ORIENTED_EDGE('',*,*,#50,.F.);
#37=ORIENTED_EDGE('',*,*,#51,.T.);
#38=ORIENTED_EDGE('',*,*,#53,.T.);
#39=ORIENTED_EDGE('',*,*,#54,.T.);
#40=ORIENTED_EDGE('',*,*,#52,.F.);
#41=ORIENTED_EDGE('',*,*,#54,.F.);
#42=ORIENTED_EDGE('',*,*,#53,.F.);
#43=ORIENTED_EDGE('',*,*,#55,.F.);
#44=ORIENTED_EDGE('',*,*,#55,.T.);
#45=EDGE_CURVE('',#56,#56,#67,.T.);
#46=EDGE_CURVE('',#57,#57,#68,.T.);
#47=EDGE_CURVE('',#58,#58,#69,.T.);
#48=EDGE_CURVE('',#59,#59,#70,.T.);
#49=EDGE_CURVE('',#60,#60,#71,.T.);
#50=EDGE_CURVE('',#61,#61,#72,.T.);
#51=EDGE_CURVE('',#62,#62,#73,.T.);
#52=EDGE_CURVE('',#63,#63,#74,.T.);
#53=EDGE_CURVE('',#64,#64,#75,.F.);
#54=EDGE_CURVE('',#65,#65,#76,.T.);
#55=EDGE_CURVE('',#66,#66,#77,.T.);
#56=VERTEX_POINT('',#244);
#57=VERTEX_POINT('',#246);
#58=VERTEX_POINT('',#249);
#59=VERTEX_POINT('',#251);
#60=VERTEX_POINT('',#256);
#61=VERTEX_POINT('',#258);
#62=VERTEX_POINT('',#262);
#63=VERTEX_POINT('',#264);
#64=VERTEX_POINT('',#268);
#65=VERTEX_POINT('',#270);
#66=VERTEX_POINT('',#274);
#67=CIRCLE('',#171,0.001);
#68=CIRCLE('',#172,0.001);
#69=CIRCLE('',#174,0.00625);
#70=CIRCLE('',#175,0.00625);
#71=CIRCLE('',#179,0.0092486961623918);
#72=CIRCLE('',#180,0.0092486961623918);
#73=CIRCLE('',#183,0.01);
#74=CIRCLE('',#184,0.01);
#75=CIRCLE('',#187,0.0117486961623918);
#76=CIRCLE('',#188,0.0117486961623918);
#77=CIRCLE('',#191,0.00595458361269637);
#78=EDGE_LOOP('',(#23));
#79=EDGE_LOOP('',(#24));
#80=EDGE_LOOP('',(#25));
#81=EDGE_LOOP('',(#26));
#82=EDGE_LOOP('',(#27));
#83=EDGE_LOOP('',(#28));
#84=EDGE_LOOP('',(#29));
#85=EDGE_LOOP('',(#30));
#86=EDGE_LOOP('',(#31));
#87=EDGE_LOOP('',(#32));
#88=EDGE_LOOP('',(#33));
#89=EDGE_LOOP('',(#34));
#90=EDGE_LOOP('',(#35));
#91=EDGE_LOOP('',(#36));
#92=EDGE_LOOP('',(#37));
#93=EDGE_LOOP('',(#38));
#94=EDGE_LOOP('',(#39));
#95=EDGE_LOOP('',(#40));
#96=EDGE_LOOP('',(#41));
#97=EDGE_LOOP('',(#42));
#98=EDGE_LOOP('',(#43));
#99=EDGE_LOOP('',(#44));
#100=FACE_BOUND('',#78,.T.);
#101=FACE_BOUND('',#79,.T.);
#102=FACE_BOUND('',#80,.T.);
#103=FACE_BOUND('',#81,.T.);
#104=FACE_BOUND('',#82,.T.);
#105=FACE_BOUND('',#83,.T.);
#106=FACE_BOUND('',#84,.T.);
#107=FACE_BOUND('',#85,.T.);
#108=FACE_BOUND('',#86,.T.);
#109=FACE_BOUND('',#87,.T.);
#110=FACE_BOUND('',#88,.T.);
#111=FACE_BOUND('',#89,.T.);
#112=FACE_BOUND('',#90,.T.);
#113=FACE_BOUND('',#91,.T.);
#114=FACE_BOUND('',#92,.T.);
#115=FACE_BOUND('',#93,.T.);
#116=FACE_BOUND('',#94,.T.);
#117=FACE_BOUND('',#95,.T.);
#118=FACE_BOUND('',#96,.T.);
#119=FACE_BOUND('',#97,.T.);
#120=FACE_BOUND('',#98,.T.);
#121=FACE_BOUND('',#99,.T.);
#122=CYLINDRICAL_SURFACE('',#170,0.001);
#123=CYLINDRICAL_SURFACE('',#173,0.00625);
#124=CYLINDRICAL_SURFACE('',#178,0.0092486961623918);
#125=CYLINDRICAL_SURFACE('',#182,0.01);
#126=CYLINDRICAL_SURFACE('',#186,0.0117486961623918);
#127=ADVANCED_FACE('',(#100,#101),#122,.T.);
#128=ADVANCED_FACE('',(#102,#103),#123,.T.);
#129=ADVANCED_FACE('',(#104,#105),#17,.T.);
#130=ADVANCED_FACE('',(#106),#18,.F.);
#131=ADVANCED_FACE('',(#107,#108),#124,.F.);
#132=ADVANCED_FACE('',(#109,#110),#19,.F.);
#133=ADVANCED_FACE('',(#111,#112),#125,.F.);
#134=ADVANCED_FACE('',(#113,#114),#20,.T.);
#135=ADVANCED_FACE('',(#115,#116),#126,.T.);
#136=ADVANCED_FACE('',(#117,#118),#21,.F.);
#137=ADVANCED_FACE('',(#119,#120),#12,.T.);
#138=ADVANCED_FACE('',(#121),#22,.T.);
#139=CLOSED_SHELL('',(#127,#128,#129,#130,#131,#132,#133,#134,#135,#136,
#137,#138));
#140=STYLED_ITEM('',(#141),#166);
#141=PRESENTATION_STYLE_ASSIGNMENT((#145));
#142=PRESENTATION_STYLE_ASSIGNMENT((#146));
#143=PRESENTATION_STYLE_ASSIGNMENT((#147));
#144=PRESENTATION_STYLE_ASSIGNMENT((#148));
#145=SURFACE_STYLE_USAGE(.BOTH.,#149);
#146=SURFACE_STYLE_USAGE(.BOTH.,#150);
#147=SURFACE_STYLE_USAGE(.BOTH.,#151);
#148=SURFACE_STYLE_USAGE(.BOTH.,#152);
#149=SURFACE_SIDE_STYLE('',(#153));
#150=SURFACE_SIDE_STYLE('',(#154));
#151=SURFACE_SIDE_STYLE('',(#155));
#152=SURFACE_SIDE_STYLE('',(#156));
#153=SURFACE_STYLE_FILL_AREA(#157);
#154=SURFACE_STYLE_FILL_AREA(#158);
#155=SURFACE_STYLE_FILL_AREA(#159);
#156=SURFACE_STYLE_FILL_AREA(#160);
#157=FILL_AREA_STYLE('',(#161));
#158=FILL_AREA_STYLE('',(#162));
#159=FILL_AREA_STYLE('',(#163));
#160=FILL_AREA_STYLE('',(#164));
#161=FILL_AREA_STYLE_COLOUR('',#165);
#162=FILL_AREA_STYLE_COLOUR('',#16);
#163=FILL_AREA_STYLE_COLOUR('',#16);
#164=FILL_AREA_STYLE_COLOUR('',#16);
#165=DRAUGHTING_PRE_DEFINED_COLOUR('white');
#166=MANIFOLD_SOLID_BREP('Part 1',#139);
#167=SHAPE_DEFINITION_REPRESENTATION(#282,#168);
#168=SHAPE_REPRESENTATION('Part 1',(#169),#277);
#169=AXIS2_PLACEMENT_3D('',#241,#193,#194);
#170=AXIS2_PLACEMENT_3D('',#242,#195,#196);
#171=AXIS2_PLACEMENT_3D('',#243,#197,#198);
#172=AXIS2_PLACEMENT_3D('',#245,#199,#200);
#173=AXIS2_PLACEMENT_3D('',#247,#201,#202);
#174=AXIS2_PLACEMENT_3D('',#248,#203,#204);
#175=AXIS2_PLACEMENT_3D('',#250,#205,#206);
#176=AXIS2_PLACEMENT_3D('',#252,#207,#208);
#177=AXIS2_PLACEMENT_3D('',#253,#209,#210);
#178=AXIS2_PLACEMENT_3D('',#254,#211,#212);
#179=AXIS2_PLACEMENT_3D('',#255,#213,#214);
#180=AXIS2_PLACEMENT_3D('',#257,#215,#216);
#181=AXIS2_PLACEMENT_3D('',#259,#217,#218);
#182=AXIS2_PLACEMENT_3D('',#260,#219,#220);
#183=AXIS2_PLACEMENT_3D('',#261,#221,#222);
#184=AXIS2_PLACEMENT_3D('',#263,#223,#224);
#185=AXIS2_PLACEMENT_3D('',#265,#225,#226);
#186=AXIS2_PLACEMENT_3D('',#266,#227,#228);
#187=AXIS2_PLACEMENT_3D('',#267,#229,#230);
#188=AXIS2_PLACEMENT_3D('',#269,#231,#232);
#189=AXIS2_PLACEMENT_3D('',#271,#233,#234);
#190=AXIS2_PLACEMENT_3D('',#272,#235,#236);
#191=AXIS2_PLACEMENT_3D('',#273,#237,#238);
#192=AXIS2_PLACEMENT_3D('',#275,#239,#240);
#193=DIRECTION('',(0.,0.,1.));
#194=DIRECTION('',(1.,0.,0.));
#195=DIRECTION('',(0.,0.,-1.));
#196=DIRECTION('',(-1.,0.,0.));
#197=DIRECTION('',(0.,0.,1.));
#198=DIRECTION('',(1.,0.,0.));
#199=DIRECTION('',(0.,0.,1.));
#200=DIRECTION('',(1.,0.,0.));
#201=DIRECTION('',(0.,0.,-1.));
#202=DIRECTION('',(-1.,0.,0.));
#203=DIRECTION('',(0.,0.,1.));
#204=DIRECTION('',(1.,0.,0.));
#205=DIRECTION('',(0.,0.,1.));
#206=DIRECTION('',(1.,0.,0.));
#207=DIRECTION('',(0.,0.,1.));
#208=DIRECTION('',(1.,0.,0.));
#209=DIRECTION('',(0.,0.,1.));
#210=DIRECTION('',(1.,0.,0.));
#211=DIRECTION('',(0.,0.,-1.));
#212=DIRECTION('',(-1.,0.,0.));
#213=DIRECTION('',(0.,0.,1.));
#214=DIRECTION('',(1.,0.,0.));
#215=DIRECTION('',(0.,0.,-1.));
#216=DIRECTION('',(-1.,0.,0.));
#217=DIRECTION('',(0.,0.,1.));
#218=DIRECTION('',(1.,0.,0.));
#219=DIRECTION('',(0.,0.,-1.));
#220=DIRECTION('',(-1.,0.,0.));
#221=DIRECTION('',(0.,0.,-1.));
#222=DIRECTION('',(-1.,0.,0.));
#223=DIRECTION('',(0.,0.,-1.));
#224=DIRECTION('',(-1.,0.,0.));
#225=DIRECTION('',(0.,0.,-1.));
#226=DIRECTION('',(1.,0.,0.));
#227=DIRECTION('',(0.,0.,-1.));
#228=DIRECTION('',(-1.,0.,0.));
#229=DIRECTION('',(0.,0.,1.));
#230=DIRECTION('',(1.,0.,0.));
#231=DIRECTION('',(0.,0.,1.));
#232=DIRECTION('',(1.,0.,0.));
#233=DIRECTION('',(0.,0.,1.));
#234=DIRECTION('',(1.,0.,0.));
#235=DIRECTION('',(0.,0.,1.));
#236=DIRECTION('',(1.,0.,0.));
#237=DIRECTION('',(0.,0.,1.));
#238=DIRECTION('',(1.,0.,0.));
#239=DIRECTION('',(0.,0.,1.));
#240=DIRECTION('',(1.,0.,0.));
#241=CARTESIAN_POINT('',(0.,0.,0.));
#242=CARTESIAN_POINT('',(0.,6.12323399573677E-20,0.0589));
#243=CARTESIAN_POINT('',(0.,6.12323399573677E-20,0.002));
#244=CARTESIAN_POINT('',(0.001,6.12323399573677E-20,0.002));
#245=CARTESIAN_POINT('',(0.,6.12323399573677E-20,0.0589));
#246=CARTESIAN_POINT('',(0.001,6.12323399573677E-20,0.0589));
#247=CARTESIAN_POINT('',(0.,3.82702124733548E-19,0.002));
#248=CARTESIAN_POINT('',(0.,3.82702124733548E-19,0.002));
#249=CARTESIAN_POINT('',(0.00625,3.82702124733548E-19,0.002));
#250=CARTESIAN_POINT('',(0.,3.82702124733548E-19,0.));
#251=CARTESIAN_POINT('',(0.00625,3.82702124733548E-19,0.));
#252=CARTESIAN_POINT('',(0.,0.,0.002));
#253=CARTESIAN_POINT('',(0.,0.,0.));
#254=CARTESIAN_POINT('',(0.,7.55525766464506E-19,0.0614));
#255=CARTESIAN_POINT('',(0.,7.55525766464506E-19,0.0589));
#256=CARTESIAN_POINT('',(0.0092486961623918,7.55525766464506E-19,0.0589));
#257=CARTESIAN_POINT('',(0.,7.55525766464506E-19,0.0563));
#258=CARTESIAN_POINT('',(-0.0092486961623918,7.55525766464506E-19,0.0563));
#259=CARTESIAN_POINT('',(0.,0.,0.0589));
#260=CARTESIAN_POINT('',(0.,-6.12323399573677E-19,0.0563));
#261=CARTESIAN_POINT('',(0.,-6.12323399573677E-19,0.0563));
#262=CARTESIAN_POINT('',(-0.01,-6.12323399573677E-19,0.0563));
#263=CARTESIAN_POINT('',(0.,-6.12323399573677E-19,0.0514));
#264=CARTESIAN_POINT('',(-0.01,-6.12323399573677E-19,0.0514));
#265=CARTESIAN_POINT('',(0.,0.,0.0563));
#266=CARTESIAN_POINT('',(0.,7.55525766464506E-19,0.0614));
#267=CARTESIAN_POINT('',(0.,7.55525766464506E-19,0.0556058874503046));
#268=CARTESIAN_POINT('',(0.0117486961623918,7.55525766464506E-19,0.0556058874503046));
#269=CARTESIAN_POINT('',(0.,7.55525766464506E-19,0.0514));
#270=CARTESIAN_POINT('',(0.0117486961623918,7.55525766464506E-19,0.0514));
#271=CARTESIAN_POINT('',(0.,0.,0.0514));
#272=CARTESIAN_POINT('',(0.,7.55525766464506E-19,0.0556058874503046));
#273=CARTESIAN_POINT('',(0.,7.55525766464506E-19,0.0614));
#274=CARTESIAN_POINT('',(0.00595458361269637,7.55525766464506E-19,0.0614));
#275=CARTESIAN_POINT('',(0.,0.,0.0614));
#276=MECHANICAL_DESIGN_GEOMETRIC_PRESENTATION_REPRESENTATION('',(#140,#13,
#14,#15),#277);
#277=(
GEOMETRIC_REPRESENTATION_CONTEXT(3)
GLOBAL_UNCERTAINTY_ASSIGNED_CONTEXT((#278))
GLOBAL_UNIT_ASSIGNED_CONTEXT((#281,#280,#279))
REPRESENTATION_CONTEXT('Part 1','TOP_LEVEL_ASSEMBLY_PART')
);
#278=UNCERTAINTY_MEASURE_WITH_UNIT(LENGTH_MEASURE(1.E-8),#281,
'DISTANCE_ACCURACY_VALUE','Maximum Tolerance applied to model');
#279=(
NAMED_UNIT(*)
SI_UNIT($,.STERADIAN.)
SOLID_ANGLE_UNIT()
);
#280=(
NAMED_UNIT(*)
PLANE_ANGLE_UNIT()
SI_UNIT($,.RADIAN.)
);
#281=(
LENGTH_UNIT()
NAMED_UNIT(*)
SI_UNIT($,.METRE.)
);
#282=PRODUCT_DEFINITION_SHAPE('','',#283);
#283=PRODUCT_DEFINITION('','',#285,#284);
#284=PRODUCT_DEFINITION_CONTEXT('',#291,'design');
#285=PRODUCT_DEFINITION_FORMATION_WITH_SPECIFIED_SOURCE('','',#287,
 .NOT_KNOWN.);
#286=PRODUCT_RELATED_PRODUCT_CATEGORY('','',(#287));
#287=PRODUCT('Part 1','Part 1','Part 1',(#289));
#288=PRODUCT_CATEGORY('','');
#289=PRODUCT_CONTEXT('',#291,'mechanical');
#290=APPLICATION_PROTOCOL_DEFINITION('international standard',
'ap242_managed_model_based_3d_engineering',2020,#291);
#291=APPLICATION_CONTEXT('managed model based 3d engineering');
ENDSEC;
END-ISO-10303-21;
