ISO-10303-21;
HEADER;
/* Generated by software containing ST-Developer
 * from STEP Tools, Inc. (www.steptools.com) 
 */
/* OPTION: using custom renumber hook */

FILE_DESCRIPTION(
/* description */ ('STEP AP242 Edition 2',
'CAx-IF Rec.Pracs.---Representation and Presentation of Product Manufa
cturing Information (PMI)---4.0---2014-10-13',
'CAx-IF Rec.Pracs.---3D Tessellated Geometry---0.4---2014-09-14','2;1',
'CAx-IF Rec.Pracs.---User Defined Attributes---1.5---2016-08-15'),
/* implementation_level */ '2;1');

FILE_NAME(
/* name */ 'Assembly 1 - Part 1 (5)',
/* time_stamp */ '2026-09-04T12:17:08Z',
/* author */ (''),
/* organization */ (''),
/* preprocessor_version */ 'ST-DEVELOPER v20',
/* originating_system */ 'ONSHAPE BY PTC INC, 1.220',
/* authorisation */ '  ');

FILE_SCHEMA (('AP242_MANAGED_MODEL_BASED_3D_ENGINEERING_MIM_LF { 1 0 10303 442 3 1 4 }'));
ENDSEC;

DATA;
#10=SHAPE_REPRESENTATION_RELATIONSHIP('','',#656,#11);
#11=ADVANCED_BREP_SHAPE_REPRESENTATION('',(#654),#1006);
#12=(
BOUNDED_SURFACE()
B_SPLINE_SURFACE(3,2,((#965,#966,#967),(#968,#969,#970),(#971,#972,#973),
(#974,#975,#976),(#977,#978,#979)),.UNSPECIFIED.,.F.,.F.,.F.)
B_SPLINE_SURFACE_WITH_KNOTS((4,1,4),(3,3),(1.5707963267949,2.35619449019234,
3.14159265358979),(0.,1.),.UNSPECIFIED.)
GEOMETRIC_REPRESENTATION_ITEM()
RATIONAL_B_SPLINE_SURFACE(((1.,1.,1.),(1.,0.999999999998177,1.),(1.,0.878497416966881,
1.),(1.,0.707106781205815,1.),(1.,0.707106781186548,1.)))
REPRESENTATION_ITEM('')
SURFACE()
);
#13=(
BOUNDED_SURFACE()
B_SPLINE_SURFACE(3,2,((#983,#984,#985),(#986,#987,#988),(#989,#990,#991),
(#992,#993,#994),(#995,#996,#997)),.UNSPECIFIED.,.F.,.F.,.F.)
B_SPLINE_SURFACE_WITH_KNOTS((4,1,4),(3,3),(6.28318530717959,7.06858347057703,
7.85398163397448),(0.,1.),.UNSPECIFIED.)
GEOMETRIC_REPRESENTATION_ITEM()
RATIONAL_B_SPLINE_SURFACE(((1.,0.707106781186548,1.),(1.,0.70710678120633,
1.),(1.,0.878497416966623,1.),(1.,0.999999999998177,1.),(1.,1.,1.)))
REPRESENTATION_ITEM('')
SURFACE()
);
#14=ELLIPSE('',#697,0.0037239977847229,0.0027280613254816);
#15=ELLIPSE('',#698,0.0037239977847229,0.0027280613254816);
#16=ELLIPSE('',#700,0.0037239977847229,0.0027280613254816);
#17=ELLIPSE('',#701,0.0037239977847229,0.0027280613254816);
#18=TOROIDAL_SURFACE('',#688,0.00101397291501015,0.000193137084989848);
#19=TOROIDAL_SURFACE('',#692,0.00101397291501015,0.000193137084989848);
#20=CYLINDRICAL_SURFACE('',#679,0.00120711);
#21=CYLINDRICAL_SURFACE('',#680,0.00120711);
#22=CYLINDRICAL_SURFACE('',#681,0.00120711);
#23=CYLINDRICAL_SURFACE('',#683,0.00120711);
#24=CYLINDRICAL_SURFACE('',#685,0.000193137084989848);
#25=CYLINDRICAL_SURFACE('',#690,0.000193137084989848);
#26=CYLINDRICAL_SURFACE('',#694,0.000193137084989848);
#27=CYLINDRICAL_SURFACE('',#696,0.0027280613254816);
#28=CYLINDRICAL_SURFACE('',#699,0.0027280613254816);
#29=CYLINDRICAL_SURFACE('',#702,0.0027280613254816);
#30=CYLINDRICAL_SURFACE('',#703,0.000984136427327572);
#31=CIRCLE('',#663,0.0027280613254816);
#32=CIRCLE('',#664,0.00120711);
#33=CIRCLE('',#665,0.00120711);
#34=CIRCLE('',#666,0.0027280613254816);
#35=CIRCLE('',#668,0.00101397291501015);
#36=CIRCLE('',#669,0.00101397291501015);
#37=CIRCLE('',#670,0.00120711);
#38=CIRCLE('',#671,0.00120711);
#39=CIRCLE('',#677,0.00120711);
#40=CIRCLE('',#678,0.00120711);
#41=CIRCLE('',#682,0.00120711);
#42=CIRCLE('',#684,0.00120711);
#43=CIRCLE('',#686,0.000193137084989848);
#44=CIRCLE('',#687,0.000193137084989848);
#45=CIRCLE('',#689,0.000193137084989848);
#46=CIRCLE('',#691,0.000193137084989848);
#47=CIRCLE('',#693,0.000193137084989848);
#48=CIRCLE('',#695,0.000193137084989848);
#49=CIRCLE('',#704,0.000984136427327572);
#50=CIRCLE('',#705,0.000984136427327572);
#51=ORIENTED_EDGE('',*,*,#175,.F.);
#52=ORIENTED_EDGE('',*,*,#176,.T.);
#53=ORIENTED_EDGE('',*,*,#177,.T.);
#54=ORIENTED_EDGE('',*,*,#178,.T.);
#55=ORIENTED_EDGE('',*,*,#179,.T.);
#56=ORIENTED_EDGE('',*,*,#180,.T.);
#57=ORIENTED_EDGE('',*,*,#181,.T.);
#58=ORIENTED_EDGE('',*,*,#182,.T.);
#59=ORIENTED_EDGE('',*,*,#183,.T.);
#60=ORIENTED_EDGE('',*,*,#184,.T.);
#61=ORIENTED_EDGE('',*,*,#185,.T.);
#62=ORIENTED_EDGE('',*,*,#186,.T.);
#63=ORIENTED_EDGE('',*,*,#187,.T.);
#64=ORIENTED_EDGE('',*,*,#188,.T.);
#65=ORIENTED_EDGE('',*,*,#189,.T.);
#66=ORIENTED_EDGE('',*,*,#190,.F.);
#67=ORIENTED_EDGE('',*,*,#181,.F.);
#68=ORIENTED_EDGE('',*,*,#191,.T.);
#69=ORIENTED_EDGE('',*,*,#175,.T.);
#70=ORIENTED_EDGE('',*,*,#192,.T.);
#71=ORIENTED_EDGE('',*,*,#190,.T.);
#72=ORIENTED_EDGE('',*,*,#193,.T.);
#73=ORIENTED_EDGE('',*,*,#185,.F.);
#74=ORIENTED_EDGE('',*,*,#194,.T.);
#75=ORIENTED_EDGE('',*,*,#195,.T.);
#76=ORIENTED_EDGE('',*,*,#196,.T.);
#77=ORIENTED_EDGE('',*,*,#197,.T.);
#78=ORIENTED_EDGE('',*,*,#198,.T.);
#79=ORIENTED_EDGE('',*,*,#199,.T.);
#80=ORIENTED_EDGE('',*,*,#200,.T.);
#81=ORIENTED_EDGE('',*,*,#201,.F.);
#82=ORIENTED_EDGE('',*,*,#202,.T.);
#83=ORIENTED_EDGE('',*,*,#203,.T.);
#84=ORIENTED_EDGE('',*,*,#204,.T.);
#85=ORIENTED_EDGE('',*,*,#205,.F.);
#86=ORIENTED_EDGE('',*,*,#206,.T.);
#87=ORIENTED_EDGE('',*,*,#207,.F.);
#88=ORIENTED_EDGE('',*,*,#208,.T.);
#89=ORIENTED_EDGE('',*,*,#205,.T.);
#90=ORIENTED_EDGE('',*,*,#209,.F.);
#91=ORIENTED_EDGE('',*,*,#210,.F.);
#92=ORIENTED_EDGE('',*,*,#211,.T.);
#93=ORIENTED_EDGE('',*,*,#201,.T.);
#94=ORIENTED_EDGE('',*,*,#212,.T.);
#95=ORIENTED_EDGE('',*,*,#213,.T.);
#96=ORIENTED_EDGE('',*,*,#209,.T.);
#97=ORIENTED_EDGE('',*,*,#204,.F.);
#98=ORIENTED_EDGE('',*,*,#214,.F.);
#99=ORIENTED_EDGE('',*,*,#203,.F.);
#100=ORIENTED_EDGE('',*,*,#215,.T.);
#101=ORIENTED_EDGE('',*,*,#216,.T.);
#102=ORIENTED_EDGE('',*,*,#214,.T.);
#103=ORIENTED_EDGE('',*,*,#217,.F.);
#104=ORIENTED_EDGE('',*,*,#218,.T.);
#105=ORIENTED_EDGE('',*,*,#219,.T.);
#106=ORIENTED_EDGE('',*,*,#220,.T.);
#107=ORIENTED_EDGE('',*,*,#216,.F.);
#108=ORIENTED_EDGE('',*,*,#221,.T.);
#109=ORIENTED_EDGE('',*,*,#210,.T.);
#110=ORIENTED_EDGE('',*,*,#222,.T.);
#111=ORIENTED_EDGE('',*,*,#207,.T.);
#112=ORIENTED_EDGE('',*,*,#213,.F.);
#113=ORIENTED_EDGE('',*,*,#221,.F.);
#114=ORIENTED_EDGE('',*,*,#215,.F.);
#115=ORIENTED_EDGE('',*,*,#202,.F.);
#116=ORIENTED_EDGE('',*,*,#211,.F.);
#117=ORIENTED_EDGE('',*,*,#222,.F.);
#118=ORIENTED_EDGE('',*,*,#212,.F.);
#119=ORIENTED_EDGE('',*,*,#206,.F.);
#120=ORIENTED_EDGE('',*,*,#208,.F.);
#121=ORIENTED_EDGE('',*,*,#178,.F.);
#122=ORIENTED_EDGE('',*,*,#223,.T.);
#123=ORIENTED_EDGE('',*,*,#187,.F.);
#124=ORIENTED_EDGE('',*,*,#192,.F.);
#125=ORIENTED_EDGE('',*,*,#189,.F.);
#126=ORIENTED_EDGE('',*,*,#224,.T.);
#127=ORIENTED_EDGE('',*,*,#186,.F.);
#128=ORIENTED_EDGE('',*,*,#193,.F.);
#129=ORIENTED_EDGE('',*,*,#177,.F.);
#130=ORIENTED_EDGE('',*,*,#225,.T.);
#131=ORIENTED_EDGE('',*,*,#195,.F.);
#132=ORIENTED_EDGE('',*,*,#226,.F.);
#133=ORIENTED_EDGE('',*,*,#226,.T.);
#134=ORIENTED_EDGE('',*,*,#200,.F.);
#135=ORIENTED_EDGE('',*,*,#227,.F.);
#136=ORIENTED_EDGE('',*,*,#223,.F.);
#137=ORIENTED_EDGE('',*,*,#227,.T.);
#138=ORIENTED_EDGE('',*,*,#199,.F.);
#139=ORIENTED_EDGE('',*,*,#228,.F.);
#140=ORIENTED_EDGE('',*,*,#188,.F.);
#141=ORIENTED_EDGE('',*,*,#228,.T.);
#142=ORIENTED_EDGE('',*,*,#198,.F.);
#143=ORIENTED_EDGE('',*,*,#229,.F.);
#144=ORIENTED_EDGE('',*,*,#224,.F.);
#145=ORIENTED_EDGE('',*,*,#197,.F.);
#146=ORIENTED_EDGE('',*,*,#230,.T.);
#147=ORIENTED_EDGE('',*,*,#183,.F.);
#148=ORIENTED_EDGE('',*,*,#229,.T.);
#149=ORIENTED_EDGE('',*,*,#194,.F.);
#150=ORIENTED_EDGE('',*,*,#184,.F.);
#151=ORIENTED_EDGE('',*,*,#231,.F.);
#152=ORIENTED_EDGE('',*,*,#182,.F.);
#153=ORIENTED_EDGE('',*,*,#231,.T.);
#154=ORIENTED_EDGE('',*,*,#230,.F.);
#155=ORIENTED_EDGE('',*,*,#232,.F.);
#156=ORIENTED_EDGE('',*,*,#232,.T.);
#157=ORIENTED_EDGE('',*,*,#196,.F.);
#158=ORIENTED_EDGE('',*,*,#233,.F.);
#159=ORIENTED_EDGE('',*,*,#179,.F.);
#160=ORIENTED_EDGE('',*,*,#233,.T.);
#161=ORIENTED_EDGE('',*,*,#225,.F.);
#162=ORIENTED_EDGE('',*,*,#234,.F.);
#163=ORIENTED_EDGE('',*,*,#234,.T.);
#164=ORIENTED_EDGE('',*,*,#176,.F.);
#165=ORIENTED_EDGE('',*,*,#191,.F.);
#166=ORIENTED_EDGE('',*,*,#180,.F.);
#167=ORIENTED_EDGE('',*,*,#220,.F.);
#168=ORIENTED_EDGE('',*,*,#235,.T.);
#169=ORIENTED_EDGE('',*,*,#218,.F.);
#170=ORIENTED_EDGE('',*,*,#236,.F.);
#171=ORIENTED_EDGE('',*,*,#236,.T.);
#172=ORIENTED_EDGE('',*,*,#217,.T.);
#173=ORIENTED_EDGE('',*,*,#219,.F.);
#174=ORIENTED_EDGE('',*,*,#235,.F.);
#175=EDGE_CURVE('',#237,#238,#275,.T.);
#176=EDGE_CURVE('',#237,#239,#276,.F.);
#177=EDGE_CURVE('',#239,#240,#277,.T.);
#178=EDGE_CURVE('',#240,#238,#278,.T.);
#179=EDGE_CURVE('',#241,#242,#279,.F.);
#180=EDGE_CURVE('',#242,#243,#280,.T.);
#181=EDGE_CURVE('',#243,#244,#281,.T.);
#182=EDGE_CURVE('',#244,#241,#282,.F.);
#183=EDGE_CURVE('',#245,#246,#283,.F.);
#184=EDGE_CURVE('',#246,#247,#284,.T.);
#185=EDGE_CURVE('',#247,#248,#285,.T.);
#186=EDGE_CURVE('',#248,#245,#286,.F.);
#187=EDGE_CURVE('',#249,#250,#287,.F.);
#188=EDGE_CURVE('',#250,#251,#288,.T.);
#189=EDGE_CURVE('',#251,#252,#289,.T.);
#190=EDGE_CURVE('',#249,#252,#290,.T.);
#191=EDGE_CURVE('',#243,#237,#31,.F.);
#192=EDGE_CURVE('',#238,#249,#32,.F.);
#193=EDGE_CURVE('',#252,#248,#33,.F.);
#194=EDGE_CURVE('',#247,#244,#34,.F.);
#195=EDGE_CURVE('',#253,#254,#291,.F.);
#196=EDGE_CURVE('',#254,#255,#292,.T.);
#197=EDGE_CURVE('',#255,#256,#293,.T.);
#198=EDGE_CURVE('',#256,#257,#35,.T.);
#199=EDGE_CURVE('',#257,#258,#294,.F.);
#200=EDGE_CURVE('',#258,#253,#36,.T.);
#201=EDGE_CURVE('',#259,#260,#295,.T.);
#202=EDGE_CURVE('',#259,#261,#37,.F.);
#203=EDGE_CURVE('',#261,#262,#296,.T.);
#204=EDGE_CURVE('',#262,#263,#297,.T.);
#205=EDGE_CURVE('',#264,#263,#298,.T.);
#206=EDGE_CURVE('',#264,#260,#38,.F.);
#207=EDGE_CURVE('',#265,#266,#299,.T.);
#208=EDGE_CURVE('',#265,#264,#300,.T.);
#209=EDGE_CURVE('',#266,#263,#301,.T.);
#210=EDGE_CURVE('',#267,#268,#302,.T.);
#211=EDGE_CURVE('',#267,#259,#303,.T.);
#212=EDGE_CURVE('',#260,#268,#304,.F.);
#213=EDGE_CURVE('',#269,#266,#305,.T.);
#214=EDGE_CURVE('',#269,#262,#306,.T.);
#215=EDGE_CURVE('',#261,#270,#307,.F.);
#216=EDGE_CURVE('',#270,#269,#308,.T.);
#217=EDGE_CURVE('',#271,#272,#309,.T.);
#218=EDGE_CURVE('',#271,#273,#310,.T.);
#219=EDGE_CURVE('',#273,#274,#311,.T.);
#220=EDGE_CURVE('',#274,#272,#312,.F.);
#221=EDGE_CURVE('',#270,#267,#39,.T.);
#222=EDGE_CURVE('',#268,#265,#40,.T.);
#223=EDGE_CURVE('',#240,#250,#41,.F.);
#224=EDGE_CURVE('',#251,#245,#42,.F.);
#225=EDGE_CURVE('',#239,#254,#43,.T.);
#226=EDGE_CURVE('',#240,#253,#44,.T.);
#227=EDGE_CURVE('',#250,#258,#45,.T.);
#228=EDGE_CURVE('',#251,#257,#46,.T.);
#229=EDGE_CURVE('',#245,#256,#47,.T.);
#230=EDGE_CURVE('',#255,#246,#48,.T.);
#231=EDGE_CURVE('',#241,#246,#14,.F.);
#232=EDGE_CURVE('',#241,#255,#15,.F.);
#233=EDGE_CURVE('',#242,#254,#16,.T.);
#234=EDGE_CURVE('',#242,#239,#17,.T.);
#235=EDGE_CURVE('',#274,#273,#49,.T.);
#236=EDGE_CURVE('',#272,#271,#50,.T.);
#237=VERTEX_POINT('',#851);
#238=VERTEX_POINT('',#852);
#239=VERTEX_POINT('',#854);
#240=VERTEX_POINT('',#856);
#241=VERTEX_POINT('',#860);
#242=VERTEX_POINT('',#861);
#243=VERTEX_POINT('',#863);
#244=VERTEX_POINT('',#865);
#245=VERTEX_POINT('',#869);
#246=VERTEX_POINT('',#870);
#247=VERTEX_POINT('',#872);
#248=VERTEX_POINT('',#874);
#249=VERTEX_POINT('',#878);
#250=VERTEX_POINT('',#879);
#251=VERTEX_POINT('',#881);
#252=VERTEX_POINT('',#883);
#253=VERTEX_POINT('',#892);
#254=VERTEX_POINT('',#893);
#255=VERTEX_POINT('',#895);
#256=VERTEX_POINT('',#897);
#257=VERTEX_POINT('',#899);
#258=VERTEX_POINT('',#901);
#259=VERTEX_POINT('',#904);
#260=VERTEX_POINT('',#905);
#261=VERTEX_POINT('',#907);
#262=VERTEX_POINT('',#909);
#263=VERTEX_POINT('',#911);
#264=VERTEX_POINT('',#913);
#265=VERTEX_POINT('',#917);
#266=VERTEX_POINT('',#918);
#267=VERTEX_POINT('',#923);
#268=VERTEX_POINT('',#924);
#269=VERTEX_POINT('',#929);
#270=VERTEX_POINT('',#933);
#271=VERTEX_POINT('',#937);
#272=VERTEX_POINT('',#938);
#273=VERTEX_POINT('',#940);
#274=VERTEX_POINT('',#942);
#275=LINE('',#850,#313);
#276=LINE('',#853,#314);
#277=LINE('',#855,#315);
#278=LINE('',#857,#316);
#279=LINE('',#859,#317);
#280=LINE('',#862,#318);
#281=LINE('',#864,#319);
#282=LINE('',#866,#320);
#283=LINE('',#868,#321);
#284=LINE('',#871,#322);
#285=LINE('',#873,#323);
#286=LINE('',#875,#324);
#287=LINE('',#877,#325);
#288=LINE('',#880,#326);
#289=LINE('',#882,#327);
#290=LINE('',#884,#328);
#291=LINE('',#891,#329);
#292=LINE('',#894,#330);
#293=LINE('',#896,#331);
#294=LINE('',#900,#332);
#295=LINE('',#903,#333);
#296=LINE('',#908,#334);
#297=LINE('',#910,#335);
#298=LINE('',#912,#336);
#299=LINE('',#916,#337);
#300=LINE('',#919,#338);
#301=LINE('',#920,#339);
#302=LINE('',#922,#340);
#303=LINE('',#925,#341);
#304=LINE('',#926,#342);
#305=LINE('',#928,#343);
#306=LINE('',#930,#344);
#307=LINE('',#932,#345);
#308=LINE('',#934,#346);
#309=LINE('',#936,#347);
#310=LINE('',#939,#348);
#311=LINE('',#941,#349);
#312=LINE('',#943,#350);
#313=VECTOR('',#712,1.);
#314=VECTOR('',#713,1.);
#315=VECTOR('',#714,1.);
#316=VECTOR('',#715,1.);
#317=VECTOR('',#718,1.);
#318=VECTOR('',#719,1.);
#319=VECTOR('',#720,1.);
#320=VECTOR('',#721,1.);
#321=VECTOR('',#724,1.);
#322=VECTOR('',#725,1.);
#323=VECTOR('',#726,1.);
#324=VECTOR('',#727,1.);
#325=VECTOR('',#730,1.);
#326=VECTOR('',#731,1.);
#327=VECTOR('',#732,1.);
#328=VECTOR('',#733,1.);
#329=VECTOR('',#746,1.);
#330=VECTOR('',#747,1.);
#331=VECTOR('',#748,1.);
#332=VECTOR('',#751,1.);
#333=VECTOR('',#754,1.);
#334=VECTOR('',#757,1.);
#335=VECTOR('',#758,1.);
#336=VECTOR('',#759,1.);
#337=VECTOR('',#764,1.);
#338=VECTOR('',#765,1.);
#339=VECTOR('',#766,1.);
#340=VECTOR('',#769,1.);
#341=VECTOR('',#770,1.);
#342=VECTOR('',#771,1.);
#343=VECTOR('',#774,1.);
#344=VECTOR('',#775,1.);
#345=VECTOR('',#778,1.);
#346=VECTOR('',#779,1.);
#347=VECTOR('',#782,1.);
#348=VECTOR('',#783,1.);
#349=VECTOR('',#784,1.);
#350=VECTOR('',#785,1.);
#351=EDGE_LOOP('',(#51,#52,#53,#54));
#352=EDGE_LOOP('',(#55,#56,#57,#58));
#353=EDGE_LOOP('',(#59,#60,#61,#62));
#354=EDGE_LOOP('',(#63,#64,#65,#66));
#355=EDGE_LOOP('',(#67,#68,#69,#70,#71,#72,#73,#74));
#356=EDGE_LOOP('',(#75,#76,#77,#78,#79,#80));
#357=EDGE_LOOP('',(#81,#82,#83,#84,#85,#86));
#358=EDGE_LOOP('',(#87,#88,#89,#90));
#359=EDGE_LOOP('',(#91,#92,#93,#94));
#360=EDGE_LOOP('',(#95,#96,#97,#98));
#361=EDGE_LOOP('',(#99,#100,#101,#102));
#362=EDGE_LOOP('',(#103,#104,#105,#106));
#363=EDGE_LOOP('',(#107,#108,#109,#110,#111,#112));
#364=EDGE_LOOP('',(#113,#114,#115,#116));
#365=EDGE_LOOP('',(#117,#118,#119,#120));
#366=EDGE_LOOP('',(#121,#122,#123,#124));
#367=EDGE_LOOP('',(#125,#126,#127,#128));
#368=EDGE_LOOP('',(#129,#130,#131,#132));
#369=EDGE_LOOP('',(#133,#134,#135,#136));
#370=EDGE_LOOP('',(#137,#138,#139,#140));
#371=EDGE_LOOP('',(#141,#142,#143,#144));
#372=EDGE_LOOP('',(#145,#146,#147,#148));
#373=EDGE_LOOP('',(#149,#150,#151,#152));
#374=EDGE_LOOP('',(#153,#154,#155));
#375=EDGE_LOOP('',(#156,#157,#158,#159));
#376=EDGE_LOOP('',(#160,#161,#162));
#377=EDGE_LOOP('',(#163,#164,#165,#166));
#378=EDGE_LOOP('',(#167,#168,#169,#170));
#379=EDGE_LOOP('',(#171,#172));
#380=EDGE_LOOP('',(#173,#174));
#381=FACE_BOUND('',#351,.T.);
#382=FACE_BOUND('',#352,.T.);
#383=FACE_BOUND('',#353,.T.);
#384=FACE_BOUND('',#354,.T.);
#385=FACE_BOUND('',#355,.T.);
#386=FACE_BOUND('',#356,.T.);
#387=FACE_BOUND('',#357,.T.);
#388=FACE_BOUND('',#358,.T.);
#389=FACE_BOUND('',#359,.T.);
#390=FACE_BOUND('',#360,.T.);
#391=FACE_BOUND('',#361,.T.);
#392=FACE_BOUND('',#362,.T.);
#393=FACE_BOUND('',#363,.T.);
#394=FACE_BOUND('',#364,.T.);
#395=FACE_BOUND('',#365,.T.);
#396=FACE_BOUND('',#366,.T.);
#397=FACE_BOUND('',#367,.T.);
#398=FACE_BOUND('',#368,.T.);
#399=FACE_BOUND('',#369,.T.);
#400=FACE_BOUND('',#370,.T.);
#401=FACE_BOUND('',#371,.T.);
#402=FACE_BOUND('',#372,.T.);
#403=FACE_BOUND('',#373,.T.);
#404=FACE_BOUND('',#374,.T.);
#405=FACE_BOUND('',#375,.T.);
#406=FACE_BOUND('',#376,.T.);
#407=FACE_BOUND('',#377,.T.);
#408=FACE_BOUND('',#378,.T.);
#409=FACE_BOUND('',#379,.T.);
#410=FACE_BOUND('',#380,.T.);
#411=PLANE('',#658);
#412=PLANE('',#659);
#413=PLANE('',#660);
#414=PLANE('',#661);
#415=PLANE('',#662);
#416=PLANE('',#667);
#417=PLANE('',#672);
#418=PLANE('',#673);
#419=PLANE('',#674);
#420=PLANE('',#675);
#421=PLANE('',#676);
#422=PLANE('',#706);
#423=PLANE('',#707);
#424=OVER_RIDING_STYLED_ITEM('',(#482),#451,#480);
#425=OVER_RIDING_STYLED_ITEM('',(#483),#453,#480);
#426=OVER_RIDING_STYLED_ITEM('',(#484),#454,#480);
#427=OVER_RIDING_STYLED_ITEM('',(#485),#455,#480);
#428=OVER_RIDING_STYLED_ITEM('',(#486),#456,#480);
#429=OVER_RIDING_STYLED_ITEM('',(#487),#457,#480);
#430=OVER_RIDING_STYLED_ITEM('',(#488),#458,#480);
#431=OVER_RIDING_STYLED_ITEM('',(#489),#459,#480);
#432=OVER_RIDING_STYLED_ITEM('',(#490),#460,#480);
#433=OVER_RIDING_STYLED_ITEM('',(#491),#461,#480);
#434=OVER_RIDING_STYLED_ITEM('',(#492),#462,#480);
#435=OVER_RIDING_STYLED_ITEM('',(#493),#463,#480);
#436=OVER_RIDING_STYLED_ITEM('',(#494),#464,#480);
#437=OVER_RIDING_STYLED_ITEM('',(#495),#465,#480);
#438=OVER_RIDING_STYLED_ITEM('',(#496),#466,#480);
#439=OVER_RIDING_STYLED_ITEM('',(#497),#467,#480);
#440=OVER_RIDING_STYLED_ITEM('',(#498),#468,#480);
#441=OVER_RIDING_STYLED_ITEM('',(#499),#469,#480);
#442=OVER_RIDING_STYLED_ITEM('',(#500),#470,#480);
#443=OVER_RIDING_STYLED_ITEM('',(#501),#471,#480);
#444=OVER_RIDING_STYLED_ITEM('',(#502),#472,#480);
#445=OVER_RIDING_STYLED_ITEM('',(#503),#473,#480);
#446=OVER_RIDING_STYLED_ITEM('',(#504),#474,#480);
#447=OVER_RIDING_STYLED_ITEM('',(#505),#475,#480);
#448=OVER_RIDING_STYLED_ITEM('',(#506),#476,#480);
#449=OVER_RIDING_STYLED_ITEM('',(#507),#477,#480);
#450=OVER_RIDING_STYLED_ITEM('',(#508),#478,#480);
#451=ADVANCED_FACE('',(#381),#411,.T.);
#452=ADVANCED_FACE('',(#382),#412,.F.);
#453=ADVANCED_FACE('',(#383),#413,.F.);
#454=ADVANCED_FACE('',(#384),#414,.T.);
#455=ADVANCED_FACE('',(#385),#415,.F.);
#456=ADVANCED_FACE('',(#386,#387),#416,.T.);
#457=ADVANCED_FACE('',(#388),#417,.F.);
#458=ADVANCED_FACE('',(#389),#418,.F.);
#459=ADVANCED_FACE('',(#390),#419,.T.);
#460=ADVANCED_FACE('',(#391),#420,.T.);
#461=ADVANCED_FACE('',(#392,#393),#421,.T.);
#462=ADVANCED_FACE('',(#394),#20,.T.);
#463=ADVANCED_FACE('',(#395),#21,.T.);
#464=ADVANCED_FACE('',(#396),#22,.T.);
#465=ADVANCED_FACE('',(#397),#23,.T.);
#466=ADVANCED_FACE('',(#398),#24,.T.);
#467=ADVANCED_FACE('',(#399),#18,.T.);
#468=ADVANCED_FACE('',(#400),#25,.T.);
#469=ADVANCED_FACE('',(#401),#19,.T.);
#470=ADVANCED_FACE('',(#402),#26,.T.);
#471=ADVANCED_FACE('',(#403),#27,.T.);
#472=ADVANCED_FACE('',(#404),#12,.T.);
#473=ADVANCED_FACE('',(#405),#28,.T.);
#474=ADVANCED_FACE('',(#406),#13,.T.);
#475=ADVANCED_FACE('',(#407),#29,.T.);
#476=ADVANCED_FACE('',(#408),#30,.T.);
#477=ADVANCED_FACE('',(#409),#422,.T.);
#478=ADVANCED_FACE('',(#410),#423,.F.);
#479=CLOSED_SHELL('',(#451,#452,#453,#454,#455,#456,#457,#458,#459,#460,
#461,#462,#463,#464,#465,#466,#467,#468,#469,#470,#471,#472,#473,#474,#475,
#476,#477,#478));
#480=STYLED_ITEM('',(#481),#654);
#481=PRESENTATION_STYLE_ASSIGNMENT((#509));
#482=PRESENTATION_STYLE_ASSIGNMENT((#510));
#483=PRESENTATION_STYLE_ASSIGNMENT((#511));
#484=PRESENTATION_STYLE_ASSIGNMENT((#512));
#485=PRESENTATION_STYLE_ASSIGNMENT((#513));
#486=PRESENTATION_STYLE_ASSIGNMENT((#514));
#487=PRESENTATION_STYLE_ASSIGNMENT((#515));
#488=PRESENTATION_STYLE_ASSIGNMENT((#516));
#489=PRESENTATION_STYLE_ASSIGNMENT((#517));
#490=PRESENTATION_STYLE_ASSIGNMENT((#518));
#491=PRESENTATION_STYLE_ASSIGNMENT((#519));
#492=PRESENTATION_STYLE_ASSIGNMENT((#520));
#493=PRESENTATION_STYLE_ASSIGNMENT((#521));
#494=PRESENTATION_STYLE_ASSIGNMENT((#522));
#495=PRESENTATION_STYLE_ASSIGNMENT((#523));
#496=PRESENTATION_STYLE_ASSIGNMENT((#524));
#497=PRESENTATION_STYLE_ASSIGNMENT((#525));
#498=PRESENTATION_STYLE_ASSIGNMENT((#526));
#499=PRESENTATION_STYLE_ASSIGNMENT((#527));
#500=PRESENTATION_STYLE_ASSIGNMENT((#528));
#501=PRESENTATION_STYLE_ASSIGNMENT((#529));
#502=PRESENTATION_STYLE_ASSIGNMENT((#530));
#503=PRESENTATION_STYLE_ASSIGNMENT((#531));
#504=PRESENTATION_STYLE_ASSIGNMENT((#532));
#505=PRESENTATION_STYLE_ASSIGNMENT((#533));
#506=PRESENTATION_STYLE_ASSIGNMENT((#534));
#507=PRESENTATION_STYLE_ASSIGNMENT((#535));
#508=PRESENTATION_STYLE_ASSIGNMENT((#536));
#509=SURFACE_STYLE_USAGE(.BOTH.,#537);
#510=SURFACE_STYLE_USAGE(.BOTH.,#538);
#511=SURFACE_STYLE_USAGE(.BOTH.,#539);
#512=SURFACE_STYLE_USAGE(.BOTH.,#540);
#513=SURFACE_STYLE_USAGE(.BOTH.,#541);
#514=SURFACE_STYLE_USAGE(.BOTH.,#542);
#515=SURFACE_STYLE_USAGE(.BOTH.,#543);
#516=SURFACE_STYLE_USAGE(.BOTH.,#544);
#517=SURFACE_STYLE_USAGE(.BOTH.,#545);
#518=SURFACE_STYLE_USAGE(.BOTH.,#546);
#519=SURFACE_STYLE_USAGE(.BOTH.,#547);
#520=SURFACE_STYLE_USAGE(.BOTH.,#548);
#521=SURFACE_STYLE_USAGE(.BOTH.,#549);
#522=SURFACE_STYLE_USAGE(.BOTH.,#550);
#523=SURFACE_STYLE_USAGE(.BOTH.,#551);
#524=SURFACE_STYLE_USAGE(.BOTH.,#552);
#525=SURFACE_STYLE_USAGE(.BOTH.,#553);
#526=SURFACE_STYLE_USAGE(.BOTH.,#554);
#527=SURFACE_STYLE_USAGE(.BOTH.,#555);
#528=SURFACE_STYLE_USAGE(.BOTH.,#556);
#529=SURFACE_STYLE_USAGE(.BOTH.,#557);
#530=SURFACE_STYLE_USAGE(.BOTH.,#558);
#531=SURFACE_STYLE_USAGE(.BOTH.,#559);
#532=SURFACE_STYLE_USAGE(.BOTH.,#560);
#533=SURFACE_STYLE_USAGE(.BOTH.,#561);
#534=SURFACE_STYLE_USAGE(.BOTH.,#562);
#535=SURFACE_STYLE_USAGE(.BOTH.,#563);
#536=SURFACE_STYLE_USAGE(.BOTH.,#564);
#537=SURFACE_SIDE_STYLE('',(#565));
#538=SURFACE_SIDE_STYLE('',(#566));
#539=SURFACE_SIDE_STYLE('',(#567));
#540=SURFACE_SIDE_STYLE('',(#568));
#541=SURFACE_SIDE_STYLE('',(#569));
#542=SURFACE_SIDE_STYLE('',(#570));
#543=SURFACE_SIDE_STYLE('',(#571));
#544=SURFACE_SIDE_STYLE('',(#572));
#545=SURFACE_SIDE_STYLE('',(#573));
#546=SURFACE_SIDE_STYLE('',(#574));
#547=SURFACE_SIDE_STYLE('',(#575));
#548=SURFACE_SIDE_STYLE('',(#576));
#549=SURFACE_SIDE_STYLE('',(#577));
#550=SURFACE_SIDE_STYLE('',(#578));
#551=SURFACE_SIDE_STYLE('',(#579));
#552=SURFACE_SIDE_STYLE('',(#580));
#553=SURFACE_SIDE_STYLE('',(#581));
#554=SURFACE_SIDE_STYLE('',(#582));
#555=SURFACE_SIDE_STYLE('',(#583));
#556=SURFACE_SIDE_STYLE('',(#584));
#557=SURFACE_SIDE_STYLE('',(#585));
#558=SURFACE_SIDE_STYLE('',(#586));
#559=SURFACE_SIDE_STYLE('',(#587));
#560=SURFACE_SIDE_STYLE('',(#588));
#561=SURFACE_SIDE_STYLE('',(#589));
#562=SURFACE_SIDE_STYLE('',(#590));
#563=SURFACE_SIDE_STYLE('',(#591));
#564=SURFACE_SIDE_STYLE('',(#592));
#565=SURFACE_STYLE_FILL_AREA(#593);
#566=SURFACE_STYLE_FILL_AREA(#594);
#567=SURFACE_STYLE_FILL_AREA(#595);
#568=SURFACE_STYLE_FILL_AREA(#596);
#569=SURFACE_STYLE_FILL_AREA(#597);
#570=SURFACE_STYLE_FILL_AREA(#598);
#571=SURFACE_STYLE_FILL_AREA(#599);
#572=SURFACE_STYLE_FILL_AREA(#600);
#573=SURFACE_STYLE_FILL_AREA(#601);
#574=SURFACE_STYLE_FILL_AREA(#602);
#575=SURFACE_STYLE_FILL_AREA(#603);
#576=SURFACE_STYLE_FILL_AREA(#604);
#577=SURFACE_STYLE_FILL_AREA(#605);
#578=SURFACE_STYLE_FILL_AREA(#606);
#579=SURFACE_STYLE_FILL_AREA(#607);
#580=SURFACE_STYLE_FILL_AREA(#608);
#581=SURFACE_STYLE_FILL_AREA(#609);
#582=SURFACE_STYLE_FILL_AREA(#610);
#583=SURFACE_STYLE_FILL_AREA(#611);
#584=SURFACE_STYLE_FILL_AREA(#612);
#585=SURFACE_STYLE_FILL_AREA(#613);
#586=SURFACE_STYLE_FILL_AREA(#614);
#587=SURFACE_STYLE_FILL_AREA(#615);
#588=SURFACE_STYLE_FILL_AREA(#616);
#589=SURFACE_STYLE_FILL_AREA(#617);
#590=SURFACE_STYLE_FILL_AREA(#618);
#591=SURFACE_STYLE_FILL_AREA(#619);
#592=SURFACE_STYLE_FILL_AREA(#620);
#593=FILL_AREA_STYLE('',(#621));
#594=FILL_AREA_STYLE('',(#622));
#595=FILL_AREA_STYLE('',(#623));
#596=FILL_AREA_STYLE('',(#624));
#597=FILL_AREA_STYLE('',(#625));
#598=FILL_AREA_STYLE('',(#626));
#599=FILL_AREA_STYLE('',(#627));
#600=FILL_AREA_STYLE('',(#628));
#601=FILL_AREA_STYLE('',(#629));
#602=FILL_AREA_STYLE('',(#630));
#603=FILL_AREA_STYLE('',(#631));
#604=FILL_AREA_STYLE('',(#632));
#605=FILL_AREA_STYLE('',(#633));
#606=FILL_AREA_STYLE('',(#634));
#607=FILL_AREA_STYLE('',(#635));
#608=FILL_AREA_STYLE('',(#636));
#609=FILL_AREA_STYLE('',(#637));
#610=FILL_AREA_STYLE('',(#638));
#611=FILL_AREA_STYLE('',(#639));
#612=FILL_AREA_STYLE('',(#640));
#613=FILL_AREA_STYLE('',(#641));
#614=FILL_AREA_STYLE('',(#642));
#615=FILL_AREA_STYLE('',(#643));
#616=FILL_AREA_STYLE('',(#644));
#617=FILL_AREA_STYLE('',(#645));
#618=FILL_AREA_STYLE('',(#646));
#619=FILL_AREA_STYLE('',(#647));
#620=FILL_AREA_STYLE('',(#648));
#621=FILL_AREA_STYLE_COLOUR('',#649);
#622=FILL_AREA_STYLE_COLOUR('',#650);
#623=FILL_AREA_STYLE_COLOUR('',#650);
#624=FILL_AREA_STYLE_COLOUR('',#650);
#625=FILL_AREA_STYLE_COLOUR('',#650);
#626=FILL_AREA_STYLE_COLOUR('',#651);
#627=FILL_AREA_STYLE_COLOUR('',#650);
#628=FILL_AREA_STYLE_COLOUR('',#650);
#629=FILL_AREA_STYLE_COLOUR('',#650);
#630=FILL_AREA_STYLE_COLOUR('',#650);
#631=FILL_AREA_STYLE_COLOUR('',#650);
#632=FILL_AREA_STYLE_COLOUR('',#650);
#633=FILL_AREA_STYLE_COLOUR('',#650);
#634=FILL_AREA_STYLE_COLOUR('',#650);
#635=FILL_AREA_STYLE_COLOUR('',#650);
#636=FILL_AREA_STYLE_COLOUR('',#652);
#637=FILL_AREA_STYLE_COLOUR('',#652);
#638=FILL_AREA_STYLE_COLOUR('',#652);
#639=FILL_AREA_STYLE_COLOUR('',#652);
#640=FILL_AREA_STYLE_COLOUR('',#652);
#641=FILL_AREA_STYLE_COLOUR('',#650);
#642=FILL_AREA_STYLE_COLOUR('',#652);
#643=FILL_AREA_STYLE_COLOUR('',#651);
#644=FILL_AREA_STYLE_COLOUR('',#652);
#645=FILL_AREA_STYLE_COLOUR('',#650);
#646=FILL_AREA_STYLE_COLOUR('',#653);
#647=FILL_AREA_STYLE_COLOUR('',#653);
#648=FILL_AREA_STYLE_COLOUR('',#653);
#649=COLOUR_RGB('',0.615686274509804,0.811764705882353,0.929411764705882);
#650=COLOUR_RGB('',0.901960784313726,0.87843137254902,0.811764705882353);
#651=COLOUR_RGB('',0.501960784313726,0.486274509803922,0.43921568627451);
#652=COLOUR_RGB('',0.301960784313725,0.290196078431373,0.262745098039216);
#653=COLOUR_RGB('',0.301960784313725,0.301960784313725,0.301960784313725);
#654=MANIFOLD_SOLID_BREP('Part 1',#479);
#655=SHAPE_DEFINITION_REPRESENTATION(#1011,#656);
#656=SHAPE_REPRESENTATION('Part 1',(#657),#1006);
#657=AXIS2_PLACEMENT_3D('',#848,#708,#709);
#658=AXIS2_PLACEMENT_3D('',#849,#710,#711);
#659=AXIS2_PLACEMENT_3D('',#858,#716,#717);
#660=AXIS2_PLACEMENT_3D('',#867,#722,#723);
#661=AXIS2_PLACEMENT_3D('',#876,#728,#729);
#662=AXIS2_PLACEMENT_3D('',#885,#734,#735);
#663=AXIS2_PLACEMENT_3D('',#886,#736,#737);
#664=AXIS2_PLACEMENT_3D('',#887,#738,#739);
#665=AXIS2_PLACEMENT_3D('',#888,#740,#741);
#666=AXIS2_PLACEMENT_3D('',#889,#742,#743);
#667=AXIS2_PLACEMENT_3D('',#890,#744,#745);
#668=AXIS2_PLACEMENT_3D('',#898,#749,#750);
#669=AXIS2_PLACEMENT_3D('',#902,#752,#753);
#670=AXIS2_PLACEMENT_3D('',#906,#755,#756);
#671=AXIS2_PLACEMENT_3D('',#914,#760,#761);
#672=AXIS2_PLACEMENT_3D('',#915,#762,#763);
#673=AXIS2_PLACEMENT_3D('',#921,#767,#768);
#674=AXIS2_PLACEMENT_3D('',#927,#772,#773);
#675=AXIS2_PLACEMENT_3D('',#931,#776,#777);
#676=AXIS2_PLACEMENT_3D('',#935,#780,#781);
#677=AXIS2_PLACEMENT_3D('',#944,#786,#787);
#678=AXIS2_PLACEMENT_3D('',#945,#788,#789);
#679=AXIS2_PLACEMENT_3D('',#946,#790,#791);
#680=AXIS2_PLACEMENT_3D('',#947,#792,#793);
#681=AXIS2_PLACEMENT_3D('',#948,#794,#795);
#682=AXIS2_PLACEMENT_3D('',#949,#796,#797);
#683=AXIS2_PLACEMENT_3D('',#950,#798,#799);
#684=AXIS2_PLACEMENT_3D('',#951,#800,#801);
#685=AXIS2_PLACEMENT_3D('',#952,#802,#803);
#686=AXIS2_PLACEMENT_3D('',#953,#804,#805);
#687=AXIS2_PLACEMENT_3D('',#954,#806,#807);
#688=AXIS2_PLACEMENT_3D('',#955,#808,#809);
#689=AXIS2_PLACEMENT_3D('',#956,#810,#811);
#690=AXIS2_PLACEMENT_3D('',#957,#812,#813);
#691=AXIS2_PLACEMENT_3D('',#958,#814,#815);
#692=AXIS2_PLACEMENT_3D('',#959,#816,#817);
#693=AXIS2_PLACEMENT_3D('',#960,#818,#819);
#694=AXIS2_PLACEMENT_3D('',#961,#820,#821);
#695=AXIS2_PLACEMENT_3D('',#962,#822,#823);
#696=AXIS2_PLACEMENT_3D('',#963,#824,#825);
#697=AXIS2_PLACEMENT_3D('',#964,#826,#827);
#698=AXIS2_PLACEMENT_3D('',#980,#828,#829);
#699=AXIS2_PLACEMENT_3D('',#981,#830,#831);
#700=AXIS2_PLACEMENT_3D('',#982,#832,#833);
#701=AXIS2_PLACEMENT_3D('',#998,#834,#835);
#702=AXIS2_PLACEMENT_3D('',#999,#836,#837);
#703=AXIS2_PLACEMENT_3D('',#1000,#838,#839);
#704=AXIS2_PLACEMENT_3D('',#1001,#840,#841);
#705=AXIS2_PLACEMENT_3D('',#1002,#842,#843);
#706=AXIS2_PLACEMENT_3D('',#1003,#844,#845);
#707=AXIS2_PLACEMENT_3D('',#1004,#846,#847);
#708=DIRECTION('',(0.,0.,1.));
#709=DIRECTION('',(1.,0.,0.));
#710=DIRECTION('',(-1.,0.,0.));
#711=DIRECTION('',(0.,0.,1.));
#712=DIRECTION('',(0.,1.,0.));
#713=DIRECTION('',(0.,0.,-1.));
#714=DIRECTION('',(0.,1.,0.));
#715=DIRECTION('',(0.,0.,-1.));
#716=DIRECTION('',(0.,1.,0.));
#717=DIRECTION('',(0.,0.,1.));
#718=DIRECTION('',(1.,0.,0.));
#719=DIRECTION('',(0.,0.,-1.));
#720=DIRECTION('',(1.,0.,0.));
#721=DIRECTION('',(0.,0.,-1.));
#722=DIRECTION('',(-1.,0.,0.));
#723=DIRECTION('',(0.,0.,1.));
#724=DIRECTION('',(0.,1.,0.));
#725=DIRECTION('',(0.,0.,-1.));
#726=DIRECTION('',(0.,1.,0.));
#727=DIRECTION('',(0.,0.,-1.));
#728=DIRECTION('',(0.,1.,0.));
#729=DIRECTION('',(0.,0.,1.));
#730=DIRECTION('',(0.,0.,-1.));
#731=DIRECTION('',(1.,0.,0.));
#732=DIRECTION('',(0.,0.,-1.));
#733=DIRECTION('',(1.,0.,0.));
#734=DIRECTION('',(0.,0.,1.));
#735=DIRECTION('',(1.,0.,0.));
#736=DIRECTION('',(0.,0.,1.));
#737=DIRECTION('',(1.,0.,0.));
#738=DIRECTION('',(0.,0.,1.));
#739=DIRECTION('',(1.,0.,0.));
#740=DIRECTION('',(0.,0.,1.));
#741=DIRECTION('',(1.,0.,0.));
#742=DIRECTION('',(0.,0.,1.));
#743=DIRECTION('',(1.,0.,0.));
#744=DIRECTION('',(0.,0.,1.));
#745=DIRECTION('',(1.,0.,0.));
#746=DIRECTION('',(0.,1.,0.));
#747=DIRECTION('',(1.,0.,0.));
#748=DIRECTION('',(0.,1.,0.));
#749=DIRECTION('',(0.,0.,1.));
#750=DIRECTION('',(1.,0.,0.));
#751=DIRECTION('',(1.,0.,0.));
#752=DIRECTION('',(0.,0.,1.));
#753=DIRECTION('',(1.,0.,0.));
#754=DIRECTION('',(-1.,0.,0.));
#755=DIRECTION('',(0.,0.,1.));
#756=DIRECTION('',(1.,0.,0.));
#757=DIRECTION('',(0.,-1.,0.));
#758=DIRECTION('',(-1.,0.,0.));
#759=DIRECTION('',(0.,-1.,0.));
#760=DIRECTION('',(0.,0.,1.));
#761=DIRECTION('',(1.,0.,0.));
#762=DIRECTION('',(1.,0.,0.));
#763=DIRECTION('',(0.,0.,-1.));
#764=DIRECTION('',(0.,-1.,0.));
#765=DIRECTION('',(0.,0.,-1.));
#766=DIRECTION('',(0.,0.,-1.));
#767=DIRECTION('',(0.,-1.,0.));
#768=DIRECTION('',(0.,0.,-1.));
#769=DIRECTION('',(-1.,0.,0.));
#770=DIRECTION('',(0.,0.,-1.));
#771=DIRECTION('',(0.,0.,-1.));
#772=DIRECTION('',(0.,-1.,0.));
#773=DIRECTION('',(0.,0.,-1.));
#774=DIRECTION('',(-1.,0.,0.));
#775=DIRECTION('',(0.,0.,-1.));
#776=DIRECTION('',(1.,0.,0.));
#777=DIRECTION('',(0.,0.,-1.));
#778=DIRECTION('',(0.,0.,-1.));
#779=DIRECTION('',(0.,-1.,0.));
#780=DIRECTION('',(0.,0.,1.));
#781=DIRECTION('',(1.,0.,0.));
#782=DIRECTION('',(0.,1.,0.));
#783=DIRECTION('',(-1.,0.,0.));
#784=DIRECTION('',(0.,1.,0.));
#785=DIRECTION('',(-1.,0.,0.));
#786=DIRECTION('',(0.,0.,1.));
#787=DIRECTION('',(1.,0.,0.));
#788=DIRECTION('',(0.,0.,1.));
#789=DIRECTION('',(1.,0.,0.));
#790=DIRECTION('',(0.,0.,1.));
#791=DIRECTION('',(1.,0.,0.));
#792=DIRECTION('',(0.,0.,-1.));
#793=DIRECTION('',(-1.,0.,0.));
#794=DIRECTION('',(0.,0.,-1.));
#795=DIRECTION('',(-1.,0.,0.));
#796=DIRECTION('',(0.,0.,1.));
#797=DIRECTION('',(1.,0.,0.));
#798=DIRECTION('',(0.,0.,1.));
#799=DIRECTION('',(1.,0.,0.));
#800=DIRECTION('',(0.,0.,1.));
#801=DIRECTION('',(1.,0.,0.));
#802=DIRECTION('',(0.,1.,0.));
#803=DIRECTION('',(0.,0.,1.));
#804=DIRECTION('',(0.,1.,0.));
#805=DIRECTION('',(0.,0.,1.));
#806=DIRECTION('',(0.,1.,0.));
#807=DIRECTION('',(0.,0.,1.));
#808=DIRECTION('',(0.,0.,1.));
#809=DIRECTION('',(1.,0.,0.));
#810=DIRECTION('',(1.,0.,0.));
#811=DIRECTION('',(0.,0.,-1.));
#812=DIRECTION('',(1.,0.,0.));
#813=DIRECTION('',(0.,0.,-1.));
#814=DIRECTION('',(1.,0.,0.));
#815=DIRECTION('',(0.,0.,-1.));
#816=DIRECTION('',(0.,0.,1.));
#817=DIRECTION('',(1.,0.,0.));
#818=DIRECTION('',(0.,-1.,0.));
#819=DIRECTION('',(0.,0.,-1.));
#820=DIRECTION('',(0.,-1.,0.));
#821=DIRECTION('',(0.,0.,-1.));
#822=DIRECTION('',(0.,1.,0.));
#823=DIRECTION('',(0.,0.,1.));
#824=DIRECTION('',(0.,0.,-1.));
#825=DIRECTION('',(-1.,0.,0.));
#826=DIRECTION('',(0.680699717623589,0.,-0.732562553252053));
#827=DIRECTION('',(-0.732562553252053,0.,-0.680699717623589));
#828=DIRECTION('',(0.732562553252053,0.,-0.680699717623589));
#829=DIRECTION('',(-0.680699717623589,0.,-0.732562553252053));
#830=DIRECTION('',(-1.,0.,0.));
#831=DIRECTION('',(0.,0.,1.));
#832=DIRECTION('',(-0.732562553252053,0.,-0.680699717623589));
#833=DIRECTION('',(-0.680699717623589,0.,0.732562553252053));
#834=DIRECTION('',(-0.680699717623589,0.,-0.732562553252053));
#835=DIRECTION('',(-0.732562553252053,0.,0.680699717623589));
#836=DIRECTION('',(0.,0.,1.));
#837=DIRECTION('',(1.,0.,0.));
#838=DIRECTION('',(-1.,0.,0.));
#839=DIRECTION('',(0.,0.,1.));
#840=DIRECTION('',(1.,0.,0.));
#841=DIRECTION('',(0.,0.,-1.));
#842=DIRECTION('',(1.,0.,0.));
#843=DIRECTION('',(0.,0.,-1.));
#844=DIRECTION('',(1.,0.,0.));
#845=DIRECTION('',(0.,1.,0.));
#846=DIRECTION('',(1.,0.,0.));
#847=DIRECTION('',(0.,1.,0.));
#848=CARTESIAN_POINT('',(0.,0.,0.));
#849=CARTESIAN_POINT('',(0.,0.00445484090596437,0.00214));
#850=CARTESIAN_POINT('',(0.,0.00445484090596437,0.));
#851=CARTESIAN_POINT('',(0.,0.0027280613254816,0.));
#852=CARTESIAN_POINT('',(0.,0.00770257181192875,0.));
#853=CARTESIAN_POINT('',(0.,0.0027280613254816,0.00254686291501015));
#854=CARTESIAN_POINT('',(0.,0.0027280613254816,0.00254686291501015));
#855=CARTESIAN_POINT('',(0.,0.00445484090596437,0.00254686291501015));
#856=CARTESIAN_POINT('',(0.,0.00770257181192875,0.00254686291501015));
#857=CARTESIAN_POINT('',(0.,0.00770257181192875,0.00214));
#858=CARTESIAN_POINT('',(0.00280498480424285,0.,0.00214));
#859=CARTESIAN_POINT('',(0.000193137084989848,0.,1.19386745184016E-5));
#860=CARTESIAN_POINT('',(0.0028819082830041,0.,1.19386745184016E-5));
#861=CARTESIAN_POINT('',(0.0027280613254816,0.,1.19386745184016E-5));
#862=CARTESIAN_POINT('',(0.0027280613254816,0.,0.));
#863=CARTESIAN_POINT('',(0.0027280613254816,0.,0.));
#864=CARTESIAN_POINT('',(0.00280498480424285,0.,0.));
#865=CARTESIAN_POINT('',(0.0028819082830041,0.,0.));
#866=CARTESIAN_POINT('',(0.0028819082830041,0.,0.00214));
#867=CARTESIAN_POINT('',(0.0056099696084857,0.00445484090596437,0.00214));
#868=CARTESIAN_POINT('',(0.0056099696084857,0.,0.00254686291501015));
#869=CARTESIAN_POINT('',(0.0056099696084857,0.00770257181192875,0.00254686291501015));
#870=CARTESIAN_POINT('',(0.0056099696084857,0.0027280613254816,0.00254686291501015));
#871=CARTESIAN_POINT('',(0.0056099696084857,0.0027280613254816,0.00214));
#872=CARTESIAN_POINT('',(0.0056099696084857,0.0027280613254816,0.));
#873=CARTESIAN_POINT('',(0.0056099696084857,0.00445484090596437,0.));
#874=CARTESIAN_POINT('',(0.0056099696084857,0.00770257181192875,0.));
#875=CARTESIAN_POINT('',(0.0056099696084857,0.00770257181192875,0.00274));
#876=CARTESIAN_POINT('',(0.00280498480424285,0.00890968181192875,0.00214));
#877=CARTESIAN_POINT('',(0.00120711,0.00890968181192875,0.00214));
#878=CARTESIAN_POINT('',(0.00120711,0.00890968181192875,0.));
#879=CARTESIAN_POINT('',(0.00120711,0.00890968181192875,0.00254686291501015));
#880=CARTESIAN_POINT('',(0.00280498480424285,0.00890968181192875,0.00254686291501015));
#881=CARTESIAN_POINT('',(0.0044028596084857,0.00890968181192875,0.00254686291501015));
#882=CARTESIAN_POINT('',(0.0044028596084857,0.00890968181192875,0.));
#883=CARTESIAN_POINT('',(0.0044028596084857,0.00890968181192875,0.));
#884=CARTESIAN_POINT('',(0.00280498480424285,0.00890968181192875,0.));
#885=CARTESIAN_POINT('',(0.00280498480424285,0.00445484090596437,0.));
#886=CARTESIAN_POINT('',(0.0027280613254816,0.0027280613254816,0.));
#887=CARTESIAN_POINT('',(0.00120711,0.00770257181192875,0.));
#888=CARTESIAN_POINT('',(0.0044028596084857,0.00770257181192875,0.));
#889=CARTESIAN_POINT('',(0.0028819082830041,0.0027280613254816,0.));
#890=CARTESIAN_POINT('',(0.00280498480424285,0.00445484090596437,0.00274));
#891=CARTESIAN_POINT('',(0.000193137084989848,0.00445484090596437,0.00274));
#892=CARTESIAN_POINT('',(0.000193137084989848,0.00770257181192875,0.00274));
#893=CARTESIAN_POINT('',(0.000193137084989848,0.0027280613254816,0.00274));
#894=CARTESIAN_POINT('',(0.00541683252349585,0.0027280613254816,0.00274));
#895=CARTESIAN_POINT('',(0.00541683252349585,0.0027280613254816,0.00274));
#896=CARTESIAN_POINT('',(0.00541683252349585,0.00770257181192875,0.00274));
#897=CARTESIAN_POINT('',(0.00541683252349585,0.00770257181192875,0.00274));
#898=CARTESIAN_POINT('',(0.0044028596084857,0.00770257181192875,0.00274));
#899=CARTESIAN_POINT('',(0.0044028596084857,0.0087165447269389,0.00274));
#900=CARTESIAN_POINT('',(0.00280498480424285,0.0087165447269389,0.00274));
#901=CARTESIAN_POINT('',(0.00120711,0.0087165447269389,0.00274));
#902=CARTESIAN_POINT('',(0.00120711,0.00770257181192875,0.00274));
#903=CARTESIAN_POINT('',(0.00280674860914857,0.00861495085493999,0.00274));
#904=CARTESIAN_POINT('',(0.0040706380887077,0.00861495085493999,0.00274));
#905=CARTESIAN_POINT('',(0.00154285912958943,0.00861495085493999,0.00274));
#906=CARTESIAN_POINT('',(0.0040706380887077,0.00740784085493999,0.00274));
#907=CARTESIAN_POINT('',(0.00527774808870771,0.00740784085493999,0.00274));
#908=CARTESIAN_POINT('',(0.00527774808870771,0.00721498275897667,0.00274));
#909=CARTESIAN_POINT('',(0.00527774808870771,0.00581501466301335,0.00274));
#910=CARTESIAN_POINT('',(0.00280674860914857,0.00581501466301335,0.00274));
#911=CARTESIAN_POINT('',(0.000335749129589428,0.00581501466301335,0.00274));
#912=CARTESIAN_POINT('',(0.000335749129589428,0.00721498275897667,0.00274));
#913=CARTESIAN_POINT('',(0.000335749129589428,0.00740784085493999,0.00274));
#914=CARTESIAN_POINT('',(0.00154285912958943,0.00740784085493999,0.00274));
#915=CARTESIAN_POINT('',(0.000335749129589428,0.00721498275897667,0.00318));
#916=CARTESIAN_POINT('',(0.000335749129589428,0.00721498275897667,0.00318));
#917=CARTESIAN_POINT('',(0.000335749129589428,0.00740784085493999,0.00318));
#918=CARTESIAN_POINT('',(0.000335749129589428,0.00581501466301335,0.00318));
#919=CARTESIAN_POINT('',(0.000335749129589428,0.00740784085493999,0.00318));
#920=CARTESIAN_POINT('',(0.000335749129589428,0.00581501466301335,0.00318));
#921=CARTESIAN_POINT('',(0.00280674860914857,0.00861495085493999,0.00318));
#922=CARTESIAN_POINT('',(0.00280674860914857,0.00861495085493999,0.00318));
#923=CARTESIAN_POINT('',(0.0040706380887077,0.00861495085493999,0.00318));
#924=CARTESIAN_POINT('',(0.00154285912958943,0.00861495085493999,0.00318));
#925=CARTESIAN_POINT('',(0.0040706380887077,0.00861495085493999,0.00274));
#926=CARTESIAN_POINT('',(0.00154285912958943,0.00861495085493999,0.00318));
#927=CARTESIAN_POINT('',(0.00280674860914857,0.00581501466301335,0.00318));
#928=CARTESIAN_POINT('',(0.00280674860914857,0.00581501466301335,0.00318));
#929=CARTESIAN_POINT('',(0.00527774808870771,0.00581501466301335,0.00318));
#930=CARTESIAN_POINT('',(0.00527774808870771,0.00581501466301335,0.00318));
#931=CARTESIAN_POINT('',(0.00527774808870771,0.00721498275897667,0.00318));
#932=CARTESIAN_POINT('',(0.00527774808870771,0.00740784085493999,0.00318));
#933=CARTESIAN_POINT('',(0.00527774808870771,0.00740784085493999,0.00318));
#934=CARTESIAN_POINT('',(0.00527774808870771,0.00721498275897667,0.00318));
#935=CARTESIAN_POINT('',(0.00280498480424285,0.00445484090596437,0.00318));
#936=CARTESIAN_POINT('',(0.00330674860914857,0.00445484090596437,0.00318));
#937=CARTESIAN_POINT('',(0.00330674860914857,0.0064486096484037,0.00318));
#938=CARTESIAN_POINT('',(0.00330674860914857,0.00836707206147629,0.00318));
#939=CARTESIAN_POINT('',(0.00330674860914857,0.0064486096484037,0.00318));
#940=CARTESIAN_POINT('',(0.00230674860914857,0.0064486096484037,0.00318));
#941=CARTESIAN_POINT('',(0.00230674860914857,0.00445484090596437,0.00318));
#942=CARTESIAN_POINT('',(0.00230674860914857,0.00836707206147629,0.00318));
#943=CARTESIAN_POINT('',(0.00330674860914857,0.00836707206147629,0.00318));
#944=CARTESIAN_POINT('',(0.0040706380887077,0.00740784085493999,0.00318));
#945=CARTESIAN_POINT('',(0.00154285912958943,0.00740784085493999,0.00318));
#946=CARTESIAN_POINT('',(0.0040706380887077,0.00740784085493999,0.00318));
#947=CARTESIAN_POINT('',(0.00154285912958943,0.00740784085493999,0.00318));
#948=CARTESIAN_POINT('',(0.00120711,0.00770257181192875,0.00214));
#949=CARTESIAN_POINT('',(0.00120711,0.00770257181192875,0.00254686291501015));
#950=CARTESIAN_POINT('',(0.0044028596084857,0.00770257181192875,0.00214));
#951=CARTESIAN_POINT('',(0.0044028596084857,0.00770257181192875,0.00254686291501015));
#952=CARTESIAN_POINT('',(0.000193137084989848,0.00445484090596437,0.00254686291501015));
#953=CARTESIAN_POINT('',(0.000193137084989848,0.0027280613254816,0.00254686291501015));
#954=CARTESIAN_POINT('',(0.000193137084989848,0.00770257181192875,0.00254686291501015));
#955=CARTESIAN_POINT('',(0.00120711,0.00770257181192875,0.00254686291501015));
#956=CARTESIAN_POINT('',(0.00120711,0.0087165447269389,0.00254686291501015));
#957=CARTESIAN_POINT('',(0.00280498480424285,0.0087165447269389,0.00254686291501015));
#958=CARTESIAN_POINT('',(0.0044028596084857,0.0087165447269389,0.00254686291501015));
#959=CARTESIAN_POINT('',(0.0044028596084857,0.00770257181192875,0.00254686291501015));
#960=CARTESIAN_POINT('',(0.00541683252349585,0.00770257181192875,0.00254686291501015));
#961=CARTESIAN_POINT('',(0.00541683252349585,0.00445484090596437,0.00254686291501015));
#962=CARTESIAN_POINT('',(0.00541683252349585,0.0027280613254816,0.00254686291501015));
#963=CARTESIAN_POINT('',(0.0028819082830041,0.0027280613254816,0.00214));
#964=CARTESIAN_POINT('',(0.0028819082830041,0.0027280613254816,1.19386745184016E-5));
#965=CARTESIAN_POINT('',(0.0028819082830041,-8.40256683676266E-19,1.19386745184014E-5));
#966=CARTESIAN_POINT('',(0.0028819082830041,-8.40256683676266E-19,1.19386745184014E-5));
#967=CARTESIAN_POINT('',(0.0028819082830041,-8.40256683676266E-19,1.19386745184014E-5));
#968=CARTESIAN_POINT('',(0.00359611308641831,-8.40256683676266E-19,0.000675580306009201));
#969=CARTESIAN_POINT('',(0.0035708315272602,1.56067195961656E-14,0.000700861918774849));
#970=CARTESIAN_POINT('',(0.00354554991449493,-8.84167944669586E-19,0.000726143477932309));
#971=CARTESIAN_POINT('',(0.0050188365440378,0.000591133073709667,0.00199757997902399));
#972=CARTESIAN_POINT('',(0.00510542566756577,0.000695488414030489,0.00223545605907965));
#973=CARTESIAN_POINT('',(0.00486754958750989,0.000591133073709667,0.00214886693555225));
#974=CARTESIAN_POINT('',(0.0056099696084857,0.00201385650354387,0.00254686291499994));
#975=CARTESIAN_POINT('',(0.00560996960851559,0.0019632934178698,0.00274000000003046));
#976=CARTESIAN_POINT('',(0.0054168325234852,0.00201385650354387,0.00274));
#977=CARTESIAN_POINT('',(0.0056099696084857,0.0027280613254816,0.00254686291501015));
#978=CARTESIAN_POINT('',(0.0056099696084857,0.0027280613254816,0.00274));
#979=CARTESIAN_POINT('',(0.00541683252349585,0.0027280613254816,0.00274));
#980=CARTESIAN_POINT('',(0.0028819082830041,0.0027280613254816,1.19386745184016E-5));
#981=CARTESIAN_POINT('',(0.00280498480424285,0.0027280613254816,1.19386745184016E-5));
#982=CARTESIAN_POINT('',(0.0027280613254816,0.0027280613254816,1.19386745184016E-5));
#983=CARTESIAN_POINT('',(8.94466792300541E-19,0.0027280613254816,0.00254686291501015));
#984=CARTESIAN_POINT('',(8.94466792300541E-19,0.0027280613254816,0.00274));
#985=CARTESIAN_POINT('',(0.000193137084989848,0.0027280613254816,0.00274));
#986=CARTESIAN_POINT('',(8.94466792300541E-19,0.00201385650354292,0.00254686291499994));
#987=CARTESIAN_POINT('',(-2.99570989456256E-14,0.00196329341786832,0.00274000000003019));
#988=CARTESIAN_POINT('',(0.000193137085000066,0.00201385650354292,0.00274));
#989=CARTESIAN_POINT('',(0.000591133064447893,0.00059113307371015,0.001997579979024));
#990=CARTESIAN_POINT('',(0.000504543940920644,0.000695488414030719,0.00223545605907962));
#991=CARTESIAN_POINT('',(0.000742420020976017,0.00059113307371015,0.00214886693555226));
#992=CARTESIAN_POINT('',(0.00201385652206739,-2.06213525044757E-18,0.000675580306009194));
#993=CARTESIAN_POINT('',(0.00203913808122454,1.56067195961656E-14,0.00070086191877484));
#994=CARTESIAN_POINT('',(0.00206441969399078,-2.06499902833799E-18,0.000726143477932302));
#995=CARTESIAN_POINT('',(0.0027280613254816,-8.40256683676266E-19,1.19386745183973E-5));
#996=CARTESIAN_POINT('',(0.0027280613254816,-8.40256683676266E-19,1.19386745183971E-5));
#997=CARTESIAN_POINT('',(0.0027280613254816,-8.40256683676266E-19,1.19386745183969E-5));
#998=CARTESIAN_POINT('',(0.0027280613254816,0.0027280613254816,1.19386745184016E-5));
#999=CARTESIAN_POINT('',(0.0027280613254816,0.0027280613254816,0.00214));
#1000=CARTESIAN_POINT('',(0.00330674860914857,0.00740784085493999,0.00296));
#1001=CARTESIAN_POINT('',(0.00230674860914857,0.00740784085493999,0.00296));
#1002=CARTESIAN_POINT('',(0.00330674860914857,0.00740784085493999,0.00296));
#1003=CARTESIAN_POINT('',(0.00330674860914857,0.00710349597264046,0.00296));
#1004=CARTESIAN_POINT('',(0.00230674860914857,0.00710349597264046,0.00296));
#1005=MECHANICAL_DESIGN_GEOMETRIC_PRESENTATION_REPRESENTATION('',(#480,
#424,#425,#426,#427,#428,#429,#430,#431,#432,#433,#434,#435,#436,#437,#438,
#439,#440,#441,#442,#443,#444,#445,#446,#447,#448,#449,#450),#1006);
#1006=(
GEOMETRIC_REPRESENTATION_CONTEXT(3)
GLOBAL_UNCERTAINTY_ASSIGNED_CONTEXT((#1007))
GLOBAL_UNIT_ASSIGNED_CONTEXT((#1010,#1009,#1008))
REPRESENTATION_CONTEXT('Part 1','TOP_LEVEL_ASSEMBLY_PART')
);
#1007=UNCERTAINTY_MEASURE_WITH_UNIT(LENGTH_MEASURE(2.E-5),#1010,
'DISTANCE_ACCURACY_VALUE','Maximum Tolerance applied to model');
#1008=(
NAMED_UNIT(*)
SI_UNIT($,.STERADIAN.)
SOLID_ANGLE_UNIT()
);
#1009=(
NAMED_UNIT(*)
PLANE_ANGLE_UNIT()
SI_UNIT($,.RADIAN.)
);
#1010=(
LENGTH_UNIT()
NAMED_UNIT(*)
SI_UNIT($,.METRE.)
);
#1011=PRODUCT_DEFINITION_SHAPE('','',#1012);
#1012=PRODUCT_DEFINITION('','',#1014,#1013);
#1013=PRODUCT_DEFINITION_CONTEXT('',#1020,'design');
#1014=PRODUCT_DEFINITION_FORMATION_WITH_SPECIFIED_SOURCE('','',#1016,
 .NOT_KNOWN.);
#1015=PRODUCT_RELATED_PRODUCT_CATEGORY('','',(#1016));
#1016=PRODUCT('Part 1','Part 1','Part 1',(#1018));
#1017=PRODUCT_CATEGORY('','');
#1018=PRODUCT_CONTEXT('',#1020,'mechanical');
#1019=APPLICATION_PROTOCOL_DEFINITION('international standard',
'ap242_managed_model_based_3d_engineering',2020,#1020);
#1020=APPLICATION_CONTEXT('managed model based 3d engineering');
ENDSEC;
END-ISO-10303-21;
