ISO-10303-21;
HEADER;
/* Generated by software containing ST-Developer
 * from STEP Tools, Inc. (www.steptools.com) 
 */
/* OPTION: using custom renumber hook */

FILE_DESCRIPTION(
/* description */ ('STEP AP242 Edition 2',
'CAx-IF Rec.Pracs.---Representation and Presentation of Product Manufa
cturing Information (PMI)---4.0---2014-10-13',
'CAx-IF Rec.Pracs.---3D Tessellated Geometry---0.4---2014-09-14','2;1',
'CAx-IF Rec.Pracs.---User Defined Attributes---1.5---2016-08-15'),
/* implementation_level */ '2;1');

FILE_NAME(
/* name */ 'Assembly 1 - Part 1 (12)',
/* time_stamp */ '2026-09-04T12:17:08Z',
/* author */ (''),
/* organization */ (''),
/* preprocessor_version */ 'ST-DEVELOPER v20',
/* originating_system */ 'ONSHAPE BY PTC INC, 1.220',
/* authorisation */ '  ');

FILE_SCHEMA (('AP242_MANAGED_MODEL_BASED_3D_ENGINEERING_MIM_LF { 1 0 10303 442 3 1 4 }'));
ENDSEC;

DATA;
#10=SHAPE_REPRESENTATION_RELATIONSHIP('','',#445,#11);
#11=ADVANCED_BREP_SHAPE_REPRESENTATION('',(#443),#791);
#12=B_SPLINE_SURFACE_WITH_KNOTS('',3,1,((#669,#670),(#671,#672),(#673,#674),
(#675,#676)),.SURF_OF_LINEAR_EXTRUSION.,.F.,.F.,.F.,(4,4),(2,2),(0.147576408480945,
0.931321877706977),(0.,1.),.PIECEWISE_BEZIER_KNOTS.);
#13=B_SPLINE_SURFACE_WITH_KNOTS('',3,1,((#699,#700),(#701,#702),(#703,#704),
(#705,#706)),.SURF_OF_LINEAR_EXTRUSION.,.F.,.F.,.F.,(4,4),(2,2),(0.0935112249707597,
0.912453806364582),(0.,1.),.PIECEWISE_BEZIER_KNOTS.);
#14=B_SPLINE_SURFACE_WITH_KNOTS('',3,1,((#716,#717),(#718,#719),(#720,#721),
(#722,#723)),.SURF_OF_LINEAR_EXTRUSION.,.F.,.F.,.F.,(4,4),(2,2),(0.,0.0935112249707597),
(0.,1.),.PIECEWISE_BEZIER_KNOTS.);
#15=B_SPLINE_SURFACE_WITH_KNOTS('',3,1,((#731,#732),(#733,#734),(#735,#736),
(#737,#738)),.SURF_OF_LINEAR_EXTRUSION.,.F.,.F.,.F.,(4,4),(2,2),(0.0514715748877576,
0.913431193183172),(0.,1.),.PIECEWISE_BEZIER_KNOTS.);
#16=B_SPLINE_SURFACE_WITH_KNOTS('',3,1,((#749,#750),(#751,#752),(#753,#754),
(#755,#756)),.SURF_OF_LINEAR_EXTRUSION.,.F.,.F.,.F.,(4,4),(2,2),(0.,1.),
(0.,1.),.PIECEWISE_BEZIER_KNOTS.);
#17=B_SPLINE_SURFACE_WITH_KNOTS('',3,1,((#761,#762),(#763,#764),(#765,#766),
(#767,#768)),.SURF_OF_LINEAR_EXTRUSION.,.F.,.F.,.F.,(4,4),(2,2),(0.,1.),
(0.,1.),.PIECEWISE_BEZIER_KNOTS.);
#18=B_SPLINE_SURFACE_WITH_KNOTS('',3,1,((#773,#774),(#775,#776),(#777,#778),
(#779,#780)),.SURF_OF_LINEAR_EXTRUSION.,.F.,.F.,.F.,(4,4),(2,2),(0.,1.),
(0.,1.),.PIECEWISE_BEZIER_KNOTS.);
#19=B_SPLINE_CURVE_WITH_KNOTS('',3,(#597,#598,#599,#600),.UNSPECIFIED.,
 .F.,.F.,(4,4),(0.0514715748877576,0.913431193183172),
 .PIECEWISE_BEZIER_KNOTS.);
#20=B_SPLINE_CURVE_WITH_KNOTS('',3,(#606,#607,#608,#609),.UNSPECIFIED.,
 .F.,.F.,(4,4),(0.,0.0935112249707597),.PIECEWISE_BEZIER_KNOTS.);
#21=B_SPLINE_CURVE_WITH_KNOTS('',3,(#611,#612,#613,#614),.UNSPECIFIED.,
 .F.,.F.,(4,4),(0.0935112249707597,0.912453806364582),
 .PIECEWISE_BEZIER_KNOTS.);
#22=B_SPLINE_CURVE_WITH_KNOTS('',3,(#622,#623,#624,#625),.UNSPECIFIED.,
 .F.,.F.,(4,4),(0.147576408480945,0.931321877706977),
 .PIECEWISE_BEZIER_KNOTS.);
#23=B_SPLINE_CURVE_WITH_KNOTS('',3,(#631,#632,#633,#634),.UNSPECIFIED.,
 .F.,.F.,(4,4),(0.,1.),.PIECEWISE_BEZIER_KNOTS.);
#24=B_SPLINE_CURVE_WITH_KNOTS('',3,(#638,#639,#640,#641),.UNSPECIFIED.,
 .F.,.F.,(4,4),(0.,0.0935112249707597),.PIECEWISE_BEZIER_KNOTS.);
#25=B_SPLINE_CURVE_WITH_KNOTS('',3,(#648,#649,#650,#651),.UNSPECIFIED.,
 .F.,.F.,(4,4),(0.,1.),.PIECEWISE_BEZIER_KNOTS.);
#26=B_SPLINE_CURVE_WITH_KNOTS('',3,(#660,#661,#662,#663,#664,#665,#666),
 .UNSPECIFIED.,.F.,.F.,(4,3,4),(0.,1.,1.01),.PIECEWISE_BEZIER_KNOTS.);
#27=B_SPLINE_CURVE_WITH_KNOTS('',3,(#680,#681,#682,#683),.UNSPECIFIED.,
 .F.,.F.,(4,4),(0.147576408480945,0.931321877706977),
 .PIECEWISE_BEZIER_KNOTS.);
#28=B_SPLINE_CURVE_WITH_KNOTS('',3,(#710,#711,#712,#713),.UNSPECIFIED.,
 .F.,.F.,(4,4),(0.0935112249707597,0.912453806364582),
 .PIECEWISE_BEZIER_KNOTS.);
#29=B_SPLINE_CURVE_WITH_KNOTS('',3,(#742,#743,#744,#745),.UNSPECIFIED.,
 .F.,.F.,(4,4),(0.0514715748877576,0.913431193183172),
 .PIECEWISE_BEZIER_KNOTS.);
#30=B_SPLINE_CURVE_WITH_KNOTS('',3,(#757,#758,#759,#760),.UNSPECIFIED.,
 .F.,.F.,(4,4),(0.,1.),.PIECEWISE_BEZIER_KNOTS.);
#31=B_SPLINE_CURVE_WITH_KNOTS('',3,(#769,#770,#771,#772),.UNSPECIFIED.,
 .F.,.F.,(4,4),(0.,1.),.PIECEWISE_BEZIER_KNOTS.);
#32=B_SPLINE_CURVE_WITH_KNOTS('',3,(#781,#782,#783,#784),.UNSPECIFIED.,
 .F.,.F.,(4,4),(0.,1.),.PIECEWISE_BEZIER_KNOTS.);
#33=PLANE('',#451);
#34=PLANE('',#452);
#35=PLANE('',#460);
#36=PLANE('',#463);
#37=PLANE('',#466);
#38=PLANE('',#480);
#39=PLANE('',#481);
#40=PLANE('',#482);
#41=PLANE('',#483);
#42=OVER_RIDING_STYLED_ITEM('',(#399),#373,#397);
#43=OVER_RIDING_STYLED_ITEM('',(#400),#375,#397);
#44=OVER_RIDING_STYLED_ITEM('',(#401),#376,#397);
#45=OVER_RIDING_STYLED_ITEM('',(#402),#377,#397);
#46=OVER_RIDING_STYLED_ITEM('',(#403),#392,#397);
#47=OVER_RIDING_STYLED_ITEM('',(#404),#395,#397);
#48=COLOUR_RGB('',1.,0.756862745098039,0.0549019607843137);
#49=COLOUR_RGB('',0.196078431372549,0.43921568627451,0.0784313725490196);
#50=LINE('',#586,#71);
#51=LINE('',#590,#72);
#52=LINE('',#668,#73);
#53=LINE('',#677,#74);
#54=LINE('',#678,#75);
#55=LINE('',#685,#76);
#56=LINE('',#687,#77);
#57=LINE('',#691,#78);
#58=LINE('',#695,#79);
#59=LINE('',#696,#80);
#60=LINE('',#698,#81);
#61=LINE('',#707,#82);
#62=LINE('',#708,#83);
#63=LINE('',#715,#84);
#64=LINE('',#724,#85);
#65=LINE('',#726,#86);
#66=LINE('',#730,#87);
#67=LINE('',#739,#88);
#68=LINE('',#740,#89);
#69=LINE('',#747,#90);
#70=LINE('',#788,#91);
#71=VECTOR('',#490,1.);
#72=VECTOR('',#493,1.);
#73=VECTOR('',#536,1.);
#74=VECTOR('',#537,1.);
#75=VECTOR('',#538,1.);
#76=VECTOR('',#539,1.);
#77=VECTOR('',#542,1.);
#78=VECTOR('',#547,1.);
#79=VECTOR('',#550,1.);
#80=VECTOR('',#551,1.);
#81=VECTOR('',#554,1.);
#82=VECTOR('',#555,1.);
#83=VECTOR('',#556,1.);
#84=VECTOR('',#557,1.);
#85=VECTOR('',#558,1.);
#86=VECTOR('',#561,1.);
#87=VECTOR('',#566,1.);
#88=VECTOR('',#567,1.);
#89=VECTOR('',#568,1.);
#90=VECTOR('',#569,1.);
#91=VECTOR('',#578,1.);
#92=ORIENTED_EDGE('',*,*,#202,.T.);
#93=ORIENTED_EDGE('',*,*,#203,.T.);
#94=ORIENTED_EDGE('',*,*,#204,.T.);
#95=ORIENTED_EDGE('',*,*,#205,.F.);
#96=ORIENTED_EDGE('',*,*,#206,.F.);
#97=ORIENTED_EDGE('',*,*,#206,.T.);
#98=ORIENTED_EDGE('',*,*,#204,.F.);
#99=ORIENTED_EDGE('',*,*,#207,.F.);
#100=ORIENTED_EDGE('',*,*,#208,.F.);
#101=ORIENTED_EDGE('',*,*,#209,.F.);
#102=ORIENTED_EDGE('',*,*,#210,.F.);
#103=ORIENTED_EDGE('',*,*,#211,.T.);
#104=ORIENTED_EDGE('',*,*,#212,.T.);
#105=ORIENTED_EDGE('',*,*,#213,.T.);
#106=ORIENTED_EDGE('',*,*,#214,.F.);
#107=ORIENTED_EDGE('',*,*,#215,.T.);
#108=ORIENTED_EDGE('',*,*,#216,.T.);
#109=ORIENTED_EDGE('',*,*,#217,.T.);
#110=ORIENTED_EDGE('',*,*,#202,.F.);
#111=ORIENTED_EDGE('',*,*,#218,.F.);
#112=ORIENTED_EDGE('',*,*,#219,.T.);
#113=ORIENTED_EDGE('',*,*,#220,.T.);
#114=ORIENTED_EDGE('',*,*,#221,.F.);
#115=ORIENTED_EDGE('',*,*,#222,.T.);
#116=ORIENTED_EDGE('',*,*,#223,.T.);
#117=ORIENTED_EDGE('',*,*,#224,.F.);
#118=ORIENTED_EDGE('',*,*,#225,.F.);
#119=ORIENTED_EDGE('',*,*,#226,.T.);
#120=ORIENTED_EDGE('',*,*,#227,.F.);
#121=ORIENTED_EDGE('',*,*,#228,.T.);
#122=ORIENTED_EDGE('',*,*,#217,.F.);
#123=ORIENTED_EDGE('',*,*,#229,.F.);
#124=ORIENTED_EDGE('',*,*,#218,.T.);
#125=ORIENTED_EDGE('',*,*,#205,.T.);
#126=ORIENTED_EDGE('',*,*,#216,.F.);
#127=ORIENTED_EDGE('',*,*,#230,.F.);
#128=ORIENTED_EDGE('',*,*,#231,.F.);
#129=ORIENTED_EDGE('',*,*,#232,.T.);
#130=ORIENTED_EDGE('',*,*,#233,.T.);
#131=ORIENTED_EDGE('',*,*,#229,.T.);
#132=ORIENTED_EDGE('',*,*,#215,.F.);
#133=ORIENTED_EDGE('',*,*,#234,.F.);
#134=ORIENTED_EDGE('',*,*,#225,.T.);
#135=ORIENTED_EDGE('',*,*,#230,.T.);
#136=ORIENTED_EDGE('',*,*,#235,.F.);
#137=ORIENTED_EDGE('',*,*,#236,.F.);
#138=ORIENTED_EDGE('',*,*,#237,.F.);
#139=ORIENTED_EDGE('',*,*,#238,.T.);
#140=ORIENTED_EDGE('',*,*,#226,.F.);
#141=ORIENTED_EDGE('',*,*,#234,.T.);
#142=ORIENTED_EDGE('',*,*,#214,.T.);
#143=ORIENTED_EDGE('',*,*,#239,.F.);
#144=ORIENTED_EDGE('',*,*,#213,.F.);
#145=ORIENTED_EDGE('',*,*,#240,.F.);
#146=ORIENTED_EDGE('',*,*,#227,.T.);
#147=ORIENTED_EDGE('',*,*,#239,.T.);
#148=ORIENTED_EDGE('',*,*,#212,.F.);
#149=ORIENTED_EDGE('',*,*,#241,.F.);
#150=ORIENTED_EDGE('',*,*,#242,.F.);
#151=ORIENTED_EDGE('',*,*,#243,.T.);
#152=ORIENTED_EDGE('',*,*,#244,.T.);
#153=ORIENTED_EDGE('',*,*,#240,.T.);
#154=ORIENTED_EDGE('',*,*,#211,.F.);
#155=ORIENTED_EDGE('',*,*,#245,.F.);
#156=ORIENTED_EDGE('',*,*,#221,.T.);
#157=ORIENTED_EDGE('',*,*,#241,.T.);
#158=ORIENTED_EDGE('',*,*,#210,.T.);
#159=ORIENTED_EDGE('',*,*,#246,.F.);
#160=ORIENTED_EDGE('',*,*,#222,.F.);
#161=ORIENTED_EDGE('',*,*,#245,.T.);
#162=ORIENTED_EDGE('',*,*,#247,.F.);
#163=ORIENTED_EDGE('',*,*,#209,.T.);
#164=ORIENTED_EDGE('',*,*,#248,.F.);
#165=ORIENTED_EDGE('',*,*,#223,.F.);
#166=ORIENTED_EDGE('',*,*,#246,.T.);
#167=ORIENTED_EDGE('',*,*,#208,.T.);
#168=ORIENTED_EDGE('',*,*,#249,.F.);
#169=ORIENTED_EDGE('',*,*,#250,.F.);
#170=ORIENTED_EDGE('',*,*,#251,.F.);
#171=ORIENTED_EDGE('',*,*,#252,.T.);
#172=ORIENTED_EDGE('',*,*,#248,.T.);
#173=ORIENTED_EDGE('',*,*,#207,.T.);
#174=ORIENTED_EDGE('',*,*,#203,.F.);
#175=ORIENTED_EDGE('',*,*,#220,.F.);
#176=ORIENTED_EDGE('',*,*,#249,.T.);
#177=ORIENTED_EDGE('',*,*,#242,.T.);
#178=ORIENTED_EDGE('',*,*,#224,.T.);
#179=ORIENTED_EDGE('',*,*,#252,.F.);
#180=ORIENTED_EDGE('',*,*,#253,.T.);
#181=ORIENTED_EDGE('',*,*,#219,.F.);
#182=ORIENTED_EDGE('',*,*,#233,.F.);
#183=ORIENTED_EDGE('',*,*,#254,.F.);
#184=ORIENTED_EDGE('',*,*,#250,.T.);
#185=ORIENTED_EDGE('',*,*,#228,.F.);
#186=ORIENTED_EDGE('',*,*,#244,.F.);
#187=ORIENTED_EDGE('',*,*,#255,.F.);
#188=ORIENTED_EDGE('',*,*,#231,.T.);
#189=ORIENTED_EDGE('',*,*,#253,.F.);
#190=ORIENTED_EDGE('',*,*,#251,.T.);
#191=ORIENTED_EDGE('',*,*,#254,.T.);
#192=ORIENTED_EDGE('',*,*,#232,.F.);
#193=ORIENTED_EDGE('',*,*,#255,.T.);
#194=ORIENTED_EDGE('',*,*,#243,.F.);
#195=ORIENTED_EDGE('',*,*,#247,.T.);
#196=ORIENTED_EDGE('',*,*,#236,.T.);
#197=ORIENTED_EDGE('',*,*,#235,.T.);
#198=ORIENTED_EDGE('',*,*,#238,.F.);
#199=ORIENTED_EDGE('',*,*,#256,.T.);
#200=ORIENTED_EDGE('',*,*,#256,.F.);
#201=ORIENTED_EDGE('',*,*,#237,.T.);
#202=EDGE_CURVE('',#257,#258,#292,.T.);
#203=EDGE_CURVE('',#258,#259,#50,.T.);
#204=EDGE_CURVE('',#259,#260,#293,.T.);
#205=EDGE_CURVE('',#257,#260,#51,.T.);
#206=EDGE_CURVE('',#261,#261,#294,.T.);
#207=EDGE_CURVE('',#262,#259,#295,.F.);
#208=EDGE_CURVE('',#263,#262,#19,.T.);
#209=EDGE_CURVE('',#264,#263,#296,.T.);
#210=EDGE_CURVE('',#265,#264,#297,.T.);
#211=EDGE_CURVE('',#265,#266,#20,.T.);
#212=EDGE_CURVE('',#266,#267,#21,.T.);
#213=EDGE_CURVE('',#267,#268,#298,.F.);
#214=EDGE_CURVE('',#269,#268,#299,.T.);
#215=EDGE_CURVE('',#269,#270,#300,.F.);
#216=EDGE_CURVE('',#270,#271,#22,.T.);
#217=EDGE_CURVE('',#271,#260,#301,.F.);
#218=EDGE_CURVE('',#272,#257,#302,.F.);
#219=EDGE_CURVE('',#272,#273,#23,.F.);
#220=EDGE_CURVE('',#273,#258,#303,.F.);
#221=EDGE_CURVE('',#274,#275,#24,.T.);
#222=EDGE_CURVE('',#274,#276,#304,.F.);
#223=EDGE_CURVE('',#276,#277,#305,.T.);
#224=EDGE_CURVE('',#275,#277,#25,.F.);
#225=EDGE_CURVE('',#278,#279,#306,.F.);
#226=EDGE_CURVE('',#278,#280,#307,.F.);
#227=EDGE_CURVE('',#281,#280,#308,.F.);
#228=EDGE_CURVE('',#281,#279,#26,.F.);
#229=EDGE_CURVE('',#272,#271,#52,.T.);
#230=EDGE_CURVE('',#279,#270,#53,.T.);
#231=EDGE_CURVE('',#282,#279,#54,.T.);
#232=EDGE_CURVE('',#282,#283,#27,.T.);
#233=EDGE_CURVE('',#283,#272,#55,.T.);
#234=EDGE_CURVE('',#278,#269,#56,.T.);
#235=EDGE_CURVE('',#284,#280,#309,.T.);
#236=EDGE_CURVE('',#285,#284,#57,.T.);
#237=EDGE_CURVE('',#286,#285,#310,.T.);
#238=EDGE_CURVE('',#286,#280,#58,.T.);
#239=EDGE_CURVE('',#280,#268,#59,.T.);
#240=EDGE_CURVE('',#281,#267,#60,.T.);
#241=EDGE_CURVE('',#275,#266,#61,.T.);
#242=EDGE_CURVE('',#287,#275,#62,.T.);
#243=EDGE_CURVE('',#287,#288,#28,.T.);
#244=EDGE_CURVE('',#288,#281,#63,.T.);
#245=EDGE_CURVE('',#274,#265,#64,.T.);
#246=EDGE_CURVE('',#276,#264,#65,.T.);
#247=EDGE_CURVE('',#289,#289,#311,.T.);
#248=EDGE_CURVE('',#277,#263,#66,.T.);
#249=EDGE_CURVE('',#273,#262,#67,.T.);
#250=EDGE_CURVE('',#290,#273,#68,.T.);
#251=EDGE_CURVE('',#291,#290,#29,.T.);
#252=EDGE_CURVE('',#291,#277,#69,.T.);
#253=EDGE_CURVE('',#291,#287,#30,.T.);
#254=EDGE_CURVE('',#290,#283,#31,.T.);
#255=EDGE_CURVE('',#282,#288,#32,.T.);
#256=EDGE_CURVE('',#286,#285,#70,.F.);
#257=VERTEX_POINT('',#584);
#258=VERTEX_POINT('',#585);
#259=VERTEX_POINT('',#587);
#260=VERTEX_POINT('',#589);
#261=VERTEX_POINT('',#592);
#262=VERTEX_POINT('',#596);
#263=VERTEX_POINT('',#601);
#264=VERTEX_POINT('',#603);
#265=VERTEX_POINT('',#605);
#266=VERTEX_POINT('',#610);
#267=VERTEX_POINT('',#615);
#268=VERTEX_POINT('',#617);
#269=VERTEX_POINT('',#619);
#270=VERTEX_POINT('',#621);
#271=VERTEX_POINT('',#626);
#272=VERTEX_POINT('',#630);
#273=VERTEX_POINT('',#635);
#274=VERTEX_POINT('',#642);
#275=VERTEX_POINT('',#643);
#276=VERTEX_POINT('',#645);
#277=VERTEX_POINT('',#647);
#278=VERTEX_POINT('',#654);
#279=VERTEX_POINT('',#655);
#280=VERTEX_POINT('',#657);
#281=VERTEX_POINT('',#659);
#282=VERTEX_POINT('',#679);
#283=VERTEX_POINT('',#684);
#284=VERTEX_POINT('',#690);
#285=VERTEX_POINT('',#692);
#286=VERTEX_POINT('',#694);
#287=VERTEX_POINT('',#709);
#288=VERTEX_POINT('',#714);
#289=VERTEX_POINT('',#728);
#290=VERTEX_POINT('',#741);
#291=VERTEX_POINT('',#746);
#292=CIRCLE('',#448,0.01);
#293=CIRCLE('',#449,0.01);
#294=CIRCLE('',#450,0.01);
#295=CIRCLE('',#453,0.0116822511951278);
#296=CIRCLE('',#454,0.0077935704922533);
#297=CIRCLE('',#455,0.01);
#298=CIRCLE('',#456,0.0248903543473974);
#299=CIRCLE('',#457,0.0100000000001267);
#300=CIRCLE('',#458,0.0141345694369542);
#301=CIRCLE('',#459,0.0303014921424874);
#302=CIRCLE('',#461,0.0303014921424874);
#303=CIRCLE('',#462,0.0116822511951278);
#304=CIRCLE('',#464,0.01);
#305=CIRCLE('',#465,0.0077935704922533);
#306=CIRCLE('',#467,0.0141345694369542);
#307=CIRCLE('',#468,0.01);
#308=CIRCLE('',#469,0.0248903543473974);
#309=CIRCLE('',#473,0.0100000000001267);
#310=CIRCLE('',#474,0.01);
#311=CIRCLE('',#477,0.01);
#312=EDGE_LOOP('',(#92,#93,#94,#95));
#313=EDGE_LOOP('',(#96));
#314=EDGE_LOOP('',(#97));
#315=EDGE_LOOP('',(#98,#99,#100,#101,#102,#103,#104,#105,#106,#107,#108,
#109));
#316=EDGE_LOOP('',(#110,#111,#112,#113));
#317=EDGE_LOOP('',(#114,#115,#116,#117));
#318=EDGE_LOOP('',(#118,#119,#120,#121));
#319=EDGE_LOOP('',(#122,#123,#124,#125));
#320=EDGE_LOOP('',(#126,#127,#128,#129,#130,#131));
#321=EDGE_LOOP('',(#132,#133,#134,#135));
#322=EDGE_LOOP('',(#136,#137,#138,#139,#140,#141,#142,#143));
#323=EDGE_LOOP('',(#144,#145,#146,#147));
#324=EDGE_LOOP('',(#148,#149,#150,#151,#152,#153));
#325=EDGE_LOOP('',(#154,#155,#156,#157));
#326=EDGE_LOOP('',(#158,#159,#160,#161));
#327=EDGE_LOOP('',(#162));
#328=EDGE_LOOP('',(#163,#164,#165,#166));
#329=EDGE_LOOP('',(#167,#168,#169,#170,#171,#172));
#330=EDGE_LOOP('',(#173,#174,#175,#176));
#331=EDGE_LOOP('',(#177,#178,#179,#180));
#332=EDGE_LOOP('',(#181,#182,#183,#184));
#333=EDGE_LOOP('',(#185,#186,#187,#188));
#334=EDGE_LOOP('',(#189,#190,#191,#192,#193,#194));
#335=EDGE_LOOP('',(#195));
#336=EDGE_LOOP('',(#196,#197,#198,#199));
#337=EDGE_LOOP('',(#200,#201));
#338=FACE_BOUND('',#312,.T.);
#339=FACE_BOUND('',#313,.T.);
#340=FACE_BOUND('',#314,.T.);
#341=FACE_BOUND('',#315,.T.);
#342=FACE_BOUND('',#316,.T.);
#343=FACE_BOUND('',#317,.T.);
#344=FACE_BOUND('',#318,.T.);
#345=FACE_BOUND('',#319,.T.);
#346=FACE_BOUND('',#320,.T.);
#347=FACE_BOUND('',#321,.T.);
#348=FACE_BOUND('',#322,.T.);
#349=FACE_BOUND('',#323,.T.);
#350=FACE_BOUND('',#324,.T.);
#351=FACE_BOUND('',#325,.T.);
#352=FACE_BOUND('',#326,.T.);
#353=FACE_BOUND('',#327,.T.);
#354=FACE_BOUND('',#328,.T.);
#355=FACE_BOUND('',#329,.T.);
#356=FACE_BOUND('',#330,.T.);
#357=FACE_BOUND('',#331,.T.);
#358=FACE_BOUND('',#332,.T.);
#359=FACE_BOUND('',#333,.T.);
#360=FACE_BOUND('',#334,.T.);
#361=FACE_BOUND('',#335,.T.);
#362=FACE_BOUND('',#336,.T.);
#363=FACE_BOUND('',#337,.T.);
#364=CYLINDRICAL_SURFACE('',#447,0.01);
#365=CYLINDRICAL_SURFACE('',#470,0.0303014921424874);
#366=CYLINDRICAL_SURFACE('',#471,0.0141345694369542);
#367=CYLINDRICAL_SURFACE('',#472,0.0100000000001267);
#368=CYLINDRICAL_SURFACE('',#475,0.0248903543473974);
#369=CYLINDRICAL_SURFACE('',#476,0.01);
#370=CYLINDRICAL_SURFACE('',#478,0.0077935704922533);
#371=CYLINDRICAL_SURFACE('',#479,0.0116822511951278);
#372=ADVANCED_FACE('',(#338,#339),#364,.T.);
#373=ADVANCED_FACE('',(#340),#33,.T.);
#374=ADVANCED_FACE('',(#341),#34,.F.);
#375=ADVANCED_FACE('',(#342),#35,.T.);
#376=ADVANCED_FACE('',(#343),#36,.T.);
#377=ADVANCED_FACE('',(#344),#37,.T.);
#378=ADVANCED_FACE('',(#345),#365,.F.);
#379=ADVANCED_FACE('',(#346),#12,.T.);
#380=ADVANCED_FACE('',(#347),#366,.F.);
#381=ADVANCED_FACE('',(#348),#367,.T.);
#382=ADVANCED_FACE('',(#349),#368,.F.);
#383=ADVANCED_FACE('',(#350),#13,.T.);
#384=ADVANCED_FACE('',(#351),#14,.T.);
#385=ADVANCED_FACE('',(#352,#353),#369,.T.);
#386=ADVANCED_FACE('',(#354),#370,.F.);
#387=ADVANCED_FACE('',(#355),#15,.F.);
#388=ADVANCED_FACE('',(#356),#371,.T.);
#389=ADVANCED_FACE('',(#357),#16,.T.);
#390=ADVANCED_FACE('',(#358),#17,.F.);
#391=ADVANCED_FACE('',(#359),#18,.F.);
#392=ADVANCED_FACE('',(#360),#38,.T.);
#393=ADVANCED_FACE('',(#361),#39,.T.);
#394=ADVANCED_FACE('',(#362),#40,.T.);
#395=ADVANCED_FACE('',(#363),#41,.T.);
#396=CLOSED_SHELL('',(#372,#373,#374,#375,#376,#377,#378,#379,#380,#381,
#382,#383,#384,#385,#386,#387,#388,#389,#390,#391,#392,#393,#394,#395));
#397=STYLED_ITEM('',(#398),#443);
#398=PRESENTATION_STYLE_ASSIGNMENT((#405));
#399=PRESENTATION_STYLE_ASSIGNMENT((#406));
#400=PRESENTATION_STYLE_ASSIGNMENT((#407));
#401=PRESENTATION_STYLE_ASSIGNMENT((#408));
#402=PRESENTATION_STYLE_ASSIGNMENT((#409));
#403=PRESENTATION_STYLE_ASSIGNMENT((#410));
#404=PRESENTATION_STYLE_ASSIGNMENT((#411));
#405=SURFACE_STYLE_USAGE(.BOTH.,#412);
#406=SURFACE_STYLE_USAGE(.BOTH.,#413);
#407=SURFACE_STYLE_USAGE(.BOTH.,#414);
#408=SURFACE_STYLE_USAGE(.BOTH.,#415);
#409=SURFACE_STYLE_USAGE(.BOTH.,#416);
#410=SURFACE_STYLE_USAGE(.BOTH.,#417);
#411=SURFACE_STYLE_USAGE(.BOTH.,#418);
#412=SURFACE_SIDE_STYLE('',(#419));
#413=SURFACE_SIDE_STYLE('',(#420));
#414=SURFACE_SIDE_STYLE('',(#421));
#415=SURFACE_SIDE_STYLE('',(#422));
#416=SURFACE_SIDE_STYLE('',(#423));
#417=SURFACE_SIDE_STYLE('',(#424));
#418=SURFACE_SIDE_STYLE('',(#425));
#419=SURFACE_STYLE_FILL_AREA(#426);
#420=SURFACE_STYLE_FILL_AREA(#427);
#421=SURFACE_STYLE_FILL_AREA(#428);
#422=SURFACE_STYLE_FILL_AREA(#429);
#423=SURFACE_STYLE_FILL_AREA(#430);
#424=SURFACE_STYLE_FILL_AREA(#431);
#425=SURFACE_STYLE_FILL_AREA(#432);
#426=FILL_AREA_STYLE('',(#433));
#427=FILL_AREA_STYLE('',(#434));
#428=FILL_AREA_STYLE('',(#435));
#429=FILL_AREA_STYLE('',(#436));
#430=FILL_AREA_STYLE('',(#437));
#431=FILL_AREA_STYLE('',(#438));
#432=FILL_AREA_STYLE('',(#439));
#433=FILL_AREA_STYLE_COLOUR('',#440);
#434=FILL_AREA_STYLE_COLOUR('',#48);
#435=FILL_AREA_STYLE_COLOUR('',#441);
#436=FILL_AREA_STYLE_COLOUR('',#441);
#437=FILL_AREA_STYLE_COLOUR('',#441);
#438=FILL_AREA_STYLE_COLOUR('',#49);
#439=FILL_AREA_STYLE_COLOUR('',#442);
#440=DRAUGHTING_PRE_DEFINED_COLOUR('red');
#441=DRAUGHTING_PRE_DEFINED_COLOUR('white');
#442=DRAUGHTING_PRE_DEFINED_COLOUR('blue');
#443=MANIFOLD_SOLID_BREP('Part 1',#396);
#444=SHAPE_DEFINITION_REPRESENTATION(#796,#445);
#445=SHAPE_REPRESENTATION('Part 1',(#446),#791);
#446=AXIS2_PLACEMENT_3D('',#581,#484,#485);
#447=AXIS2_PLACEMENT_3D('',#582,#486,#487);
#448=AXIS2_PLACEMENT_3D('',#583,#488,#489);
#449=AXIS2_PLACEMENT_3D('',#588,#491,#492);
#450=AXIS2_PLACEMENT_3D('',#591,#494,#495);
#451=AXIS2_PLACEMENT_3D('',#593,#496,#497);
#452=AXIS2_PLACEMENT_3D('',#594,#498,#499);
#453=AXIS2_PLACEMENT_3D('',#595,#500,#501);
#454=AXIS2_PLACEMENT_3D('',#602,#502,#503);
#455=AXIS2_PLACEMENT_3D('',#604,#504,#505);
#456=AXIS2_PLACEMENT_3D('',#616,#506,#507);
#457=AXIS2_PLACEMENT_3D('',#618,#508,#509);
#458=AXIS2_PLACEMENT_3D('',#620,#510,#511);
#459=AXIS2_PLACEMENT_3D('',#627,#512,#513);
#460=AXIS2_PLACEMENT_3D('',#628,#514,#515);
#461=AXIS2_PLACEMENT_3D('',#629,#516,#517);
#462=AXIS2_PLACEMENT_3D('',#636,#518,#519);
#463=AXIS2_PLACEMENT_3D('',#637,#520,#521);
#464=AXIS2_PLACEMENT_3D('',#644,#522,#523);
#465=AXIS2_PLACEMENT_3D('',#646,#524,#525);
#466=AXIS2_PLACEMENT_3D('',#652,#526,#527);
#467=AXIS2_PLACEMENT_3D('',#653,#528,#529);
#468=AXIS2_PLACEMENT_3D('',#656,#530,#531);
#469=AXIS2_PLACEMENT_3D('',#658,#532,#533);
#470=AXIS2_PLACEMENT_3D('',#667,#534,#535);
#471=AXIS2_PLACEMENT_3D('',#686,#540,#541);
#472=AXIS2_PLACEMENT_3D('',#688,#543,#544);
#473=AXIS2_PLACEMENT_3D('',#689,#545,#546);
#474=AXIS2_PLACEMENT_3D('',#693,#548,#549);
#475=AXIS2_PLACEMENT_3D('',#697,#552,#553);
#476=AXIS2_PLACEMENT_3D('',#725,#559,#560);
#477=AXIS2_PLACEMENT_3D('',#727,#562,#563);
#478=AXIS2_PLACEMENT_3D('',#729,#564,#565);
#479=AXIS2_PLACEMENT_3D('',#748,#570,#571);
#480=AXIS2_PLACEMENT_3D('',#785,#572,#573);
#481=AXIS2_PLACEMENT_3D('',#786,#574,#575);
#482=AXIS2_PLACEMENT_3D('',#787,#576,#577);
#483=AXIS2_PLACEMENT_3D('',#789,#579,#580);
#484=DIRECTION('',(0.,0.,1.));
#485=DIRECTION('',(1.,0.,0.));
#486=DIRECTION('',(-1.,0.,0.));
#487=DIRECTION('',(0.,0.,1.));
#488=DIRECTION('',(1.,0.,0.));
#489=DIRECTION('',(0.,0.,-1.));
#490=DIRECTION('',(-1.,0.,0.));
#491=DIRECTION('',(1.,0.,0.));
#492=DIRECTION('',(0.,0.,-1.));
#493=DIRECTION('',(-1.,0.,0.));
#494=DIRECTION('',(1.,0.,0.));
#495=DIRECTION('',(0.,0.,-1.));
#496=DIRECTION('',(1.,0.,0.));
#497=DIRECTION('',(0.,1.,0.));
#498=DIRECTION('',(1.,0.,0.));
#499=DIRECTION('',(0.,1.,0.));
#500=DIRECTION('',(-1.,0.,0.));
#501=DIRECTION('',(0.,0.,1.));
#502=DIRECTION('',(-1.,0.,0.));
#503=DIRECTION('',(0.,0.,1.));
#504=DIRECTION('',(1.,0.,0.));
#505=DIRECTION('',(0.,0.,-1.));
#506=DIRECTION('',(-1.,0.,0.));
#507=DIRECTION('',(0.,0.,1.));
#508=DIRECTION('',(1.,0.,0.));
#509=DIRECTION('',(0.,0.,-1.));
#510=DIRECTION('',(-1.,0.,0.));
#511=DIRECTION('',(0.,0.,1.));
#512=DIRECTION('',(-1.,0.,0.));
#513=DIRECTION('',(0.,0.,1.));
#514=DIRECTION('',(1.,0.,0.));
#515=DIRECTION('',(0.,1.,0.));
#516=DIRECTION('',(-1.,0.,0.));
#517=DIRECTION('',(0.,0.,1.));
#518=DIRECTION('',(-1.,0.,0.));
#519=DIRECTION('',(0.,0.,1.));
#520=DIRECTION('',(1.,0.,0.));
#521=DIRECTION('',(0.,1.,0.));
#522=DIRECTION('',(1.,0.,0.));
#523=DIRECTION('',(0.,0.,-1.));
#524=DIRECTION('',(-1.,0.,0.));
#525=DIRECTION('',(0.,0.,1.));
#526=DIRECTION('',(1.,0.,0.));
#527=DIRECTION('',(0.,1.,0.));
#528=DIRECTION('',(-1.,0.,0.));
#529=DIRECTION('',(0.,0.,1.));
#530=DIRECTION('',(1.,0.,0.));
#531=DIRECTION('',(0.,0.,-1.));
#532=DIRECTION('',(-1.,0.,0.));
#533=DIRECTION('',(0.,0.,1.));
#534=DIRECTION('',(-1.,0.,0.));
#535=DIRECTION('',(0.,-0.43443935858533,-0.900701084551344));
#536=DIRECTION('',(-1.,0.,0.));
#537=DIRECTION('',(-1.,0.,0.));
#538=DIRECTION('',(-1.,0.,0.));
#539=DIRECTION('',(-1.,0.,0.));
#540=DIRECTION('',(-1.,0.,0.));
#541=DIRECTION('',(0.,-0.115338914338551,0.993326197600368));
#542=DIRECTION('',(-1.,0.,0.));
#543=DIRECTION('',(-1.,0.,0.));
#544=DIRECTION('',(0.,0.,1.));
#545=DIRECTION('',(1.,0.,0.));
#546=DIRECTION('',(0.,0.,-1.));
#547=DIRECTION('',(-1.,0.,0.));
#548=DIRECTION('',(1.,0.,0.));
#549=DIRECTION('',(0.,0.,-1.));
#550=DIRECTION('',(-1.,0.,0.));
#551=DIRECTION('',(-1.,0.,0.));
#552=DIRECTION('',(-1.,0.,0.));
#553=DIRECTION('',(0.,0.020785152114035,-0.999783965390322));
#554=DIRECTION('',(-1.,0.,0.));
#555=DIRECTION('',(-1.,0.,0.));
#556=DIRECTION('',(-1.,0.,0.));
#557=DIRECTION('',(-1.,0.,0.));
#558=DIRECTION('',(-1.,0.,0.));
#559=DIRECTION('',(-1.,0.,0.));
#560=DIRECTION('',(0.,0.,1.));
#561=DIRECTION('',(-1.,0.,0.));
#562=DIRECTION('',(1.,0.,0.));
#563=DIRECTION('',(0.,0.,-1.));
#564=DIRECTION('',(-1.,0.,0.));
#565=DIRECTION('',(0.,0.353933160904544,0.935270718889519));
#566=DIRECTION('',(-1.,0.,0.));
#567=DIRECTION('',(-1.,0.,0.));
#568=DIRECTION('',(-1.,0.,0.));
#569=DIRECTION('',(-1.,0.,0.));
#570=DIRECTION('',(-1.,0.,0.));
#571=DIRECTION('',(0.,-0.595317561490929,-0.803490510821686));
#572=DIRECTION('',(1.,0.,0.));
#573=DIRECTION('',(0.,1.,0.));
#574=DIRECTION('',(1.,0.,0.));
#575=DIRECTION('',(0.,1.,0.));
#576=DIRECTION('',(8.71299954809289E-27,-0.105398991171747,0.994430013957733));
#577=DIRECTION('',(-1.21904532385323E-15,-0.994430013957733,-0.105398991171747));
#578=DIRECTION('',(-1.21904532385323E-15,-0.994430013957733,-0.105398991171747));
#579=DIRECTION('',(1.,0.,0.));
#580=DIRECTION('',(0.,1.,0.));
#581=CARTESIAN_POINT('',(0.,0.,0.));
#582=CARTESIAN_POINT('',(0.0012,-0.00187855152857659,-0.0166696562677909));
#583=CARTESIAN_POINT('',(0.0005,-0.00187855152857659,-0.0166696562677909));
#584=CARTESIAN_POINT('',(0.0005,1.19980726411408E-7,-0.00684741102831635));
#585=CARTESIAN_POINT('',(0.00049999975,-0.00799223539145678,-0.0245832587188328));
#586=CARTESIAN_POINT('',(0.0005,-0.00799217959222769,-0.0245831606684555));
#587=CARTESIAN_POINT('',(0.,-0.00799223539145674,-0.0245832587188328));
#588=CARTESIAN_POINT('',(0.,-0.00187855152857659,-0.0166696562677909));
#589=CARTESIAN_POINT('',(0.,1.19980726413142E-7,-0.00684741102831636));
#590=CARTESIAN_POINT('',(0.0005,-2.16840434497101E-19,-0.00684768883990345));
#591=CARTESIAN_POINT('',(0.0012,-0.00187855152857659,-0.0166696562677909));
#592=CARTESIAN_POINT('',(0.0012,-0.00187855152857659,-0.0266696562677909));
#593=CARTESIAN_POINT('',(0.0012,-0.0118650103075812,0.00447908748075184));
#594=CARTESIAN_POINT('',(0.,-0.0118650103075812,0.00447908748075184));
#595=CARTESIAN_POINT('',(0.,-0.00221420025216014,-0.0144300982729344));
#596=CARTESIAN_POINT('',(0.,-0.0102213035715254,-0.0229371149843445));
#597=CARTESIAN_POINT('',(0.,-0.0229378477966529,-0.000503129054939024));
#598=CARTESIAN_POINT('',(0.,-0.0159735171961705,-0.00389581546357781));
#599=CARTESIAN_POINT('',(0.,-0.0168205632466447,-0.0167500896021862));
#600=CARTESIAN_POINT('',(0.,-0.0102213035715254,-0.0229371149843445));
#601=CARTESIAN_POINT('',(0.,-0.0229378477966529,-0.000503129054939024));
#602=CARTESIAN_POINT('',(0.,-0.026341359942064,-0.00751408194964842));
#603=CARTESIAN_POINT('',(0.,-0.0242725395182487,-1.13419489098342E-7));
#604=CARTESIAN_POINT('',(0.,-0.0282199144024016,0.00918782604065751));
#605=CARTESIAN_POINT('',(0.,-0.035790021281711,0.0157218509744814));
#606=CARTESIAN_POINT('',(0.,-0.035790021281711,0.0157218509744814));
#607=CARTESIAN_POINT('',(0.,-0.0345254897908568,0.0175832835723528));
#608=CARTESIAN_POINT('',(0.,-0.0332946974196414,0.0191368447223811));
#609=CARTESIAN_POINT('',(0.,-0.0320892415800384,0.0204252539625604));
#610=CARTESIAN_POINT('',(0.,-0.0320892415800384,0.0204252539625604));
#611=CARTESIAN_POINT('',(0.,-0.0320892415800384,0.0204252539625604));
#612=CARTESIAN_POINT('',(0.,-0.0215322296560757,0.031708746285263));
#613=CARTESIAN_POINT('',(0.,-0.0129184583371257,0.0226558340204721));
#614=CARTESIAN_POINT('',(0.,-0.000603990177190511,0.0219608193764967));
#615=CARTESIAN_POINT('',(0.,-0.000603990177190511,0.0219608193764967));
#616=CARTESIAN_POINT('',(0.,0.000844160581061042,0.0468095003714222));
#617=CARTESIAN_POINT('',(2.49999976944936E-10,0.00339276050869912,0.0220501700523054));
#618=CARTESIAN_POINT('',(0.,0.0044898937872537,0.0121107382199143));
#619=CARTESIAN_POINT('',(0.,0.000906677989171866,0.00277475597153086));
#620=CARTESIAN_POINT('',(0.,0.00114572077805103,-0.0113579496520118));
#621=CARTESIAN_POINT('',(0.,-0.00183376766875184,0.00245866864584569));
#622=CARTESIAN_POINT('',(0.,-0.00183376766875143,0.00245866864584578));
#623=CARTESIAN_POINT('',(0.,-0.00648460781684312,0.00144516473267293));
#624=CARTESIAN_POINT('',(0.,-0.00952065117523186,-0.00187285818410817));
#625=CARTESIAN_POINT('',(0.,-0.00217586153516628,-0.00580187632106515));
#626=CARTESIAN_POINT('',(0.,-0.00217586153491078,-0.00580187632120183));
#627=CARTESIAN_POINT('',(0.,0.0120142464486434,0.0209709198098031));
#628=CARTESIAN_POINT('',(0.0005,-0.0118650103075812,0.00447908748075184));
#629=CARTESIAN_POINT('',(0.0005,0.0120142464486434,0.0209709198098031));
#630=CARTESIAN_POINT('',(0.0005,-0.00217586153491078,-0.00580187632120183));
#631=CARTESIAN_POINT('',(0.0005,-0.0102213036108776,-0.0229371149474504));
#632=CARTESIAN_POINT('',(0.0005,-0.0133813687220143,-0.0186080009855988));
#633=CARTESIAN_POINT('',(0.0005,-0.0170765064055954,-0.00883797382297686));
#634=CARTESIAN_POINT('',(0.0005,-0.00217586153491078,-0.00580187632120183));
#635=CARTESIAN_POINT('',(0.0005,-0.0102213035715254,-0.0229371149843445));
#636=CARTESIAN_POINT('',(0.0005,-0.00221420025216014,-0.0144300982729344));
#637=CARTESIAN_POINT('',(0.0005,-0.0118650103075812,0.00447908748075184));
#638=CARTESIAN_POINT('',(0.0005,-0.035790021281711,0.0157218509744814));
#639=CARTESIAN_POINT('',(0.0005,-0.0345254897908568,0.0175832835723528));
#640=CARTESIAN_POINT('',(0.0005,-0.0332946974196414,0.0191368447223811));
#641=CARTESIAN_POINT('',(0.0005,-0.0320892415800384,0.0204252539625604));
#642=CARTESIAN_POINT('',(0.0005,-0.035790021281711,0.0157218509744814));
#643=CARTESIAN_POINT('',(0.0005,-0.0320892415800384,0.0204252539625604));
#644=CARTESIAN_POINT('',(0.0005,-0.0282199144024016,0.00918782604065749));
#645=CARTESIAN_POINT('',(0.0005,-0.0242722755325687,1.7347234759768E-18));
#646=CARTESIAN_POINT('',(0.0005,-0.026341359942064,-0.00751408194964842));
#647=CARTESIAN_POINT('',(0.0005,-0.0229378477966529,-0.000503129054939024));
#648=CARTESIAN_POINT('',(0.0005,-0.0229378477922576,-0.000503129057080198));
#649=CARTESIAN_POINT('',(0.0005,-0.0110360054820009,-0.000645761025741618));
#650=CARTESIAN_POINT('',(0.0005,-0.0106115022728304,0.025995684103189));
#651=CARTESIAN_POINT('',(0.0005,-0.0320892415800389,0.0204252539625599));
#652=CARTESIAN_POINT('',(0.0005,-0.0118650103075812,0.00447908748075184));
#653=CARTESIAN_POINT('',(0.0005,0.00114572077805103,-0.0113579496520118));
#654=CARTESIAN_POINT('',(0.0005,0.000906677989171868,0.00277475597153089));
#655=CARTESIAN_POINT('',(0.0005,-0.00183376766875184,0.00245866864584569));
#656=CARTESIAN_POINT('',(0.0005,0.00448989378723921,0.0121107382200402));
#657=CARTESIAN_POINT('',(0.000499999750000001,0.00339276051118592,0.0220501700525613));
#658=CARTESIAN_POINT('',(0.0005,0.000844160581061042,0.0468095003714222));
#659=CARTESIAN_POINT('',(0.000499999958333333,-0.000603680346379117,0.0219610462912368));
#660=CARTESIAN_POINT('',(0.0005,-0.00183376766875184,0.00245866864584569));
#661=CARTESIAN_POINT('',(0.0005,-0.0104480518682684,0.0121087595035835));
#662=CARTESIAN_POINT('',(0.0005,-0.00460456284318771,0.0190308689900349));
#663=CARTESIAN_POINT('',(0.0005,-0.000603990177191205,0.0219608193764967));
#664=CARTESIAN_POINT('',(0.0005,-0.00056398445053124,0.0219901188803614));
#665=CARTESIAN_POINT('',(0.0005,-0.000523978723871275,0.022019418384226));
#666=CARTESIAN_POINT('',(0.0005,-0.00048397299721131,0.0220487178880906));
#667=CARTESIAN_POINT('',(0.0005,0.0120142464486434,0.0209709198098031));
#668=CARTESIAN_POINT('',(0.0005,-0.00217586153491078,-0.00580187632120183));
#669=CARTESIAN_POINT('',(0.0012,-0.00183376766875143,0.00245866864584578));
#670=CARTESIAN_POINT('',(0.,-0.00183376766875143,0.00245866864584578));
#671=CARTESIAN_POINT('',(0.0012,-0.00648460781684312,0.00144516473267293));
#672=CARTESIAN_POINT('',(0.,-0.00648460781684312,0.00144516473267293));
#673=CARTESIAN_POINT('',(0.0012,-0.00952065117523186,-0.00187285818410817));
#674=CARTESIAN_POINT('',(0.,-0.00952065117523186,-0.00187285818410817));
#675=CARTESIAN_POINT('',(0.0012,-0.00217586153516628,-0.00580187632106515));
#676=CARTESIAN_POINT('',(0.,-0.00217586153516628,-0.00580187632106515));
#677=CARTESIAN_POINT('',(0.0005,-0.00183376766875184,0.00245866864584569));
#678=CARTESIAN_POINT('',(0.0012,-0.00183376766875184,0.00245866864584569));
#679=CARTESIAN_POINT('',(0.0012,-0.00183376766875184,0.00245866864584569));
#680=CARTESIAN_POINT('',(0.0012,-0.00183376766875143,0.00245866864584578));
#681=CARTESIAN_POINT('',(0.0012,-0.00648460781684312,0.00144516473267293));
#682=CARTESIAN_POINT('',(0.0012,-0.00952065117523186,-0.00187285818410817));
#683=CARTESIAN_POINT('',(0.0012,-0.00217586153516628,-0.00580187632106515));
#684=CARTESIAN_POINT('',(0.0012,-0.00217586153491078,-0.00580187632120183));
#685=CARTESIAN_POINT('',(0.0012,-0.00217586153491078,-0.00580187632120183));
#686=CARTESIAN_POINT('',(0.0005,0.00114572077805103,-0.0113579496520118));
#687=CARTESIAN_POINT('',(0.0005,0.000907071486566782,0.00277460495366437));
#688=CARTESIAN_POINT('',(0.0005,0.0044898937872537,0.0121107382199143));
#689=CARTESIAN_POINT('',(0.0005,0.0044898937872537,0.0121107382199143));
#690=CARTESIAN_POINT('',(0.00050000025,0.00347908541838799,0.0220595079901631));
#691=CARTESIAN_POINT('',(0.0012,0.0034790842449235,0.0220595202595243));
#692=CARTESIAN_POINT('',(0.00119999975009096,0.00347908551578606,0.0220595079960963));
#693=CARTESIAN_POINT('',(0.0012,0.00448989378723921,0.0121107382200402));
#694=CARTESIAN_POINT('',(0.00119999975009106,0.0033927413901748,0.0220503564310491));
#695=CARTESIAN_POINT('',(0.0012,0.00339274006284454,0.0220503686812317));
#696=CARTESIAN_POINT('',(0.0005,0.00339274006284454,0.0220503686812317));
#697=CARTESIAN_POINT('',(0.0005,0.000844160581061042,0.0468095003714222));
#698=CARTESIAN_POINT('',(0.0005,-0.000603990177190511,0.0219608193764967));
#699=CARTESIAN_POINT('',(0.0012,-0.0320892415800384,0.0204252539625604));
#700=CARTESIAN_POINT('',(0.,-0.0320892415800384,0.0204252539625604));
#701=CARTESIAN_POINT('',(0.0012,-0.0215322296560757,0.031708746285263));
#702=CARTESIAN_POINT('',(0.,-0.0215322296560757,0.031708746285263));
#703=CARTESIAN_POINT('',(0.0012,-0.0129184583371257,0.0226558340204721));
#704=CARTESIAN_POINT('',(0.,-0.0129184583371257,0.0226558340204721));
#705=CARTESIAN_POINT('',(0.0012,-0.000603990177190511,0.0219608193764967));
#706=CARTESIAN_POINT('',(0.,-0.000603990177190511,0.0219608193764967));
#707=CARTESIAN_POINT('',(0.0005,-0.0320892415800384,0.0204252539625604));
#708=CARTESIAN_POINT('',(0.0012,-0.0320892415800384,0.0204252539625604));
#709=CARTESIAN_POINT('',(0.0012,-0.0320892415800384,0.0204252539625604));
#710=CARTESIAN_POINT('',(0.0012,-0.0320892415800384,0.0204252539625604));
#711=CARTESIAN_POINT('',(0.0012,-0.0215322296560757,0.031708746285263));
#712=CARTESIAN_POINT('',(0.0012,-0.0129184583371257,0.0226558340204721));
#713=CARTESIAN_POINT('',(0.0012,-0.000603990177190511,0.0219608193764967));
#714=CARTESIAN_POINT('',(0.0012,-0.000603990177190511,0.0219608193764967));
#715=CARTESIAN_POINT('',(0.0012,-0.000603990177190511,0.0219608193764967));
#716=CARTESIAN_POINT('',(0.0005,-0.035790021281711,0.0157218509744814));
#717=CARTESIAN_POINT('',(0.,-0.035790021281711,0.0157218509744814));
#718=CARTESIAN_POINT('',(0.0005,-0.0345254897908568,0.0175832835723528));
#719=CARTESIAN_POINT('',(0.,-0.0345254897908568,0.0175832835723528));
#720=CARTESIAN_POINT('',(0.0005,-0.0332946974196413,0.0191368447223811));
#721=CARTESIAN_POINT('',(0.,-0.0332946974196413,0.0191368447223811));
#722=CARTESIAN_POINT('',(0.0005,-0.0320892415800384,0.0204252539625604));
#723=CARTESIAN_POINT('',(0.,-0.0320892415800384,0.0204252539625604));
#724=CARTESIAN_POINT('',(0.0005,-0.035790021281711,0.0157218509744814));
#725=CARTESIAN_POINT('',(0.0005,-0.0282199144024016,0.00918782604065751));
#726=CARTESIAN_POINT('',(0.0005,-0.0242725395182511,-1.13419455282741E-7));
#727=CARTESIAN_POINT('',(0.0012,-0.0282199144024016,0.00918782604065749));
#728=CARTESIAN_POINT('',(0.0012,-0.0282199144024016,-0.000812173959342511));
#729=CARTESIAN_POINT('',(0.0005,-0.026341359942064,-0.00751408194964842));
#730=CARTESIAN_POINT('',(0.0005,-0.0229378477966529,-0.000503129054939024));
#731=CARTESIAN_POINT('',(0.0012,-0.0229378477966529,-0.000503129054939024));
#732=CARTESIAN_POINT('',(0.,-0.0229378477966529,-0.000503129054939024));
#733=CARTESIAN_POINT('',(0.0012,-0.0159735171961705,-0.00389581546357781));
#734=CARTESIAN_POINT('',(0.,-0.0159735171961705,-0.00389581546357781));
#735=CARTESIAN_POINT('',(0.0012,-0.0168205632466447,-0.0167500896021862));
#736=CARTESIAN_POINT('',(0.,-0.0168205632466447,-0.0167500896021862));
#737=CARTESIAN_POINT('',(0.0012,-0.0102213035715254,-0.0229371149843445));
#738=CARTESIAN_POINT('',(0.,-0.0102213035715254,-0.0229371149843445));
#739=CARTESIAN_POINT('',(0.0005,-0.0102213035715254,-0.0229371149843445));
#740=CARTESIAN_POINT('',(0.0012,-0.0102213035715254,-0.0229371149843445));
#741=CARTESIAN_POINT('',(0.0012,-0.0102213035715254,-0.0229371149843445));
#742=CARTESIAN_POINT('',(0.0012,-0.0229378477966529,-0.000503129054939024));
#743=CARTESIAN_POINT('',(0.0012,-0.0159735171961705,-0.00389581546357781));
#744=CARTESIAN_POINT('',(0.0012,-0.0168205632466447,-0.0167500896021862));
#745=CARTESIAN_POINT('',(0.0012,-0.0102213035715254,-0.0229371149843445));
#746=CARTESIAN_POINT('',(0.0012,-0.0229378477966529,-0.000503129054939024));
#747=CARTESIAN_POINT('',(0.0012,-0.0229378477966529,-0.000503129054939024));
#748=CARTESIAN_POINT('',(0.0005,-0.00221420025216014,-0.0144300982729344));
#749=CARTESIAN_POINT('',(0.0012,-0.0229378477922576,-0.000503129057080198));
#750=CARTESIAN_POINT('',(0.0005,-0.0229378477922576,-0.000503129057080198));
#751=CARTESIAN_POINT('',(0.0012,-0.0110360054820009,-0.000645761025741618));
#752=CARTESIAN_POINT('',(0.0005,-0.0110360054820009,-0.000645761025741618));
#753=CARTESIAN_POINT('',(0.0012,-0.0106115022728304,0.025995684103189));
#754=CARTESIAN_POINT('',(0.0005,-0.0106115022728304,0.025995684103189));
#755=CARTESIAN_POINT('',(0.0012,-0.0320892415800389,0.0204252539625599));
#756=CARTESIAN_POINT('',(0.0005,-0.0320892415800389,0.0204252539625599));
#757=CARTESIAN_POINT('',(0.0012,-0.0229378477922576,-0.000503129057080198));
#758=CARTESIAN_POINT('',(0.0012,-0.0110360054820009,-0.000645761025741618));
#759=CARTESIAN_POINT('',(0.0012,-0.0106115022728304,0.025995684103189));
#760=CARTESIAN_POINT('',(0.0012,-0.0320892415800389,0.0204252539625599));
#761=CARTESIAN_POINT('',(0.0012,-0.0102213036108776,-0.0229371149474504));
#762=CARTESIAN_POINT('',(0.0005,-0.0102213036108776,-0.0229371149474504));
#763=CARTESIAN_POINT('',(0.0012,-0.0133813687220143,-0.0186080009855988));
#764=CARTESIAN_POINT('',(0.0005,-0.0133813687220143,-0.0186080009855988));
#765=CARTESIAN_POINT('',(0.0012,-0.0170765064055954,-0.00883797382297686));
#766=CARTESIAN_POINT('',(0.0005,-0.0170765064055954,-0.00883797382297686));
#767=CARTESIAN_POINT('',(0.0012,-0.00217586153491078,-0.00580187632120183));
#768=CARTESIAN_POINT('',(0.0005,-0.00217586153491078,-0.00580187632120183));
#769=CARTESIAN_POINT('',(0.0012,-0.0102213036108776,-0.0229371149474504));
#770=CARTESIAN_POINT('',(0.0012,-0.0133813687220143,-0.0186080009855988));
#771=CARTESIAN_POINT('',(0.0012,-0.0170765064055954,-0.00883797382297686));
#772=CARTESIAN_POINT('',(0.0012,-0.00217586153491078,-0.00580187632120183));
#773=CARTESIAN_POINT('',(0.0012,-0.00183376766875184,0.00245866864584569));
#774=CARTESIAN_POINT('',(0.0005,-0.00183376766875184,0.00245866864584569));
#775=CARTESIAN_POINT('',(0.0012,-0.0104480518682684,0.0121087595035835));
#776=CARTESIAN_POINT('',(0.0005,-0.0104480518682684,0.0121087595035835));
#777=CARTESIAN_POINT('',(0.0012,-0.00460456284318771,0.0190308689900349));
#778=CARTESIAN_POINT('',(0.0005,-0.00460456284318771,0.0190308689900349));
#779=CARTESIAN_POINT('',(0.0012,-0.000603990177191205,0.0219608193764967));
#780=CARTESIAN_POINT('',(0.0005,-0.000603990177191205,0.0219608193764967));
#781=CARTESIAN_POINT('',(0.0012,-0.00183376766875184,0.00245866864584569));
#782=CARTESIAN_POINT('',(0.0012,-0.0104480518682684,0.0121087595035835));
#783=CARTESIAN_POINT('',(0.0012,-0.00460456284318771,0.0190308689900349));
#784=CARTESIAN_POINT('',(0.0012,-0.000603990177191205,0.0219608193764967));
#785=CARTESIAN_POINT('',(0.0012,-0.0118650103075812,0.00447908748075184));
#786=CARTESIAN_POINT('',(0.0012,-0.0118650103075812,0.00447908748075184));
#787=CARTESIAN_POINT('',(0.00120000000071741,0.00343590241739348,0.0220549186581936));
#788=CARTESIAN_POINT('',(0.0012,0.00343590241739348,0.0220549186581936));
#789=CARTESIAN_POINT('',(0.0012,-0.0118650103075812,0.00447908748075184));
#790=MECHANICAL_DESIGN_GEOMETRIC_PRESENTATION_REPRESENTATION('',(#397,#42,
#43,#44,#45,#46,#47),#791);
#791=(
GEOMETRIC_REPRESENTATION_CONTEXT(3)
GLOBAL_UNCERTAINTY_ASSIGNED_CONTEXT((#792))
GLOBAL_UNIT_ASSIGNED_CONTEXT((#795,#794,#793))
REPRESENTATION_CONTEXT('Part 1','TOP_LEVEL_ASSEMBLY_PART')
);
#792=UNCERTAINTY_MEASURE_WITH_UNIT(LENGTH_MEASURE(2.02E-5),#795,
'DISTANCE_ACCURACY_VALUE','Maximum Tolerance applied to model');
#793=(
NAMED_UNIT(*)
SI_UNIT($,.STERADIAN.)
SOLID_ANGLE_UNIT()
);
#794=(
NAMED_UNIT(*)
PLANE_ANGLE_UNIT()
SI_UNIT($,.RADIAN.)
);
#795=(
LENGTH_UNIT()
NAMED_UNIT(*)
SI_UNIT($,.METRE.)
);
#796=PRODUCT_DEFINITION_SHAPE('','',#797);
#797=PRODUCT_DEFINITION('','',#799,#798);
#798=PRODUCT_DEFINITION_CONTEXT('',#805,'design');
#799=PRODUCT_DEFINITION_FORMATION_WITH_SPECIFIED_SOURCE('','',#801,
 .NOT_KNOWN.);
#800=PRODUCT_RELATED_PRODUCT_CATEGORY('','',(#801));
#801=PRODUCT('Part 1','Part 1','Part 1',(#803));
#802=PRODUCT_CATEGORY('','');
#803=PRODUCT_CONTEXT('',#805,'mechanical');
#804=APPLICATION_PROTOCOL_DEFINITION('international standard',
'ap242_managed_model_based_3d_engineering',2020,#805);
#805=APPLICATION_CONTEXT('managed model based 3d engineering');
ENDSEC;
END-ISO-10303-21;
