ISO-10303-21;
HEADER;
/* Generated by software containing ST-Developer
 * from STEP Tools, Inc. (www.steptools.com) 
 */
/* OPTION: using custom renumber hook */

FILE_DESCRIPTION(
/* description */ ('STEP AP242 Edition 2',
'CAx-IF Rec.Pracs.---Representation and Presentation of Product Manufa
cturing Information (PMI)---4.0---2014-10-13',
'CAx-IF Rec.Pracs.---3D Tessellated Geometry---0.4---2014-09-14','2;1',
'CAx-IF Rec.Pracs.---User Defined Attributes---1.5---2016-08-15'),
/* implementation_level */ '2;1');

FILE_NAME(
/* name */ 'Assembly 1 - Part 1 (3)',
/* time_stamp */ '2026-09-03T17:07:38Z',
/* author */ (''),
/* organization */ (''),
/* preprocessor_version */ 'ST-DEVELOPER v20',
/* originating_system */ 'ONSHAPE BY PTC INC, 1.220',
/* authorisation */ '  ');

FILE_SCHEMA (('AP242_MANAGED_MODEL_BASED_3D_ENGINEERING_MIM_LF { 1 0 10303 442 3 1 4 }'));
ENDSEC;

DATA;
#10=SHAPE_REPRESENTATION_RELATIONSHIP('','',#559,#11);
#11=ADVANCED_BREP_SHAPE_REPRESENTATION('',(#557),#828);
#12=DRAUGHTING_PRE_DEFINED_COLOUR('black');
#13=B_SPLINE_CURVE_WITH_KNOTS('',3,(#738,#739,#740,#741,#742,#743,#744,
#745,#746,#747,#748),.UNSPECIFIED.,.F.,.F.,(4,1,1,1,1,1,1,1,4),(2.13563060504163E-18,
0.00152463694066455,0.00304927388132909,0.00457391082199364,0.00609854776265818,
0.00762318470332273,0.00914782164398727,0.0106724585846518,0.0121970955253164),
 .UNSPECIFIED.);
#14=CYLINDRICAL_SURFACE('',#566,0.0244623229811162);
#15=CYLINDRICAL_SURFACE('',#571,0.0234623229811162);
#16=CYLINDRICAL_SURFACE('',#577,0.00215845515014384);
#17=CYLINDRICAL_SURFACE('',#589,0.000170010692731569);
#18=CYLINDRICAL_SURFACE('',#590,0.00017001);
#19=CYLINDRICAL_SURFACE('',#594,0.00017001);
#20=CIRCLE('',#562,0.00017001);
#21=CIRCLE('',#564,0.000170010692731569);
#22=CIRCLE('',#567,0.0244623229811162);
#23=CIRCLE('',#568,0.0244623229811162);
#24=CIRCLE('',#569,0.0244623229811162);
#25=CIRCLE('',#572,0.0234623229811162);
#26=CIRCLE('',#573,0.0234623229811162);
#27=CIRCLE('',#578,0.00215845515014384);
#28=CIRCLE('',#582,0.00017001);
#29=CIRCLE('',#587,0.00017001);
#30=CIRCLE('',#588,0.000170010692731569);
#31=CIRCLE('',#592,0.00017001);
#32=ORIENTED_EDGE('',*,*,#140,.F.);
#33=ORIENTED_EDGE('',*,*,#141,.T.);
#34=ORIENTED_EDGE('',*,*,#142,.F.);
#35=ORIENTED_EDGE('',*,*,#143,.T.);
#36=ORIENTED_EDGE('',*,*,#144,.T.);
#37=ORIENTED_EDGE('',*,*,#145,.T.);
#38=ORIENTED_EDGE('',*,*,#146,.T.);
#39=ORIENTED_EDGE('',*,*,#147,.T.);
#40=ORIENTED_EDGE('',*,*,#148,.F.);
#41=ORIENTED_EDGE('',*,*,#149,.F.);
#42=ORIENTED_EDGE('',*,*,#150,.F.);
#43=ORIENTED_EDGE('',*,*,#151,.F.);
#44=ORIENTED_EDGE('',*,*,#152,.T.);
#45=ORIENTED_EDGE('',*,*,#153,.T.);
#46=ORIENTED_EDGE('',*,*,#154,.F.);
#47=ORIENTED_EDGE('',*,*,#155,.T.);
#48=ORIENTED_EDGE('',*,*,#156,.T.);
#49=ORIENTED_EDGE('',*,*,#157,.F.);
#50=ORIENTED_EDGE('',*,*,#158,.F.);
#51=ORIENTED_EDGE('',*,*,#159,.T.);
#52=ORIENTED_EDGE('',*,*,#160,.T.);
#53=ORIENTED_EDGE('',*,*,#161,.F.);
#54=ORIENTED_EDGE('',*,*,#162,.F.);
#55=ORIENTED_EDGE('',*,*,#157,.T.);
#56=ORIENTED_EDGE('',*,*,#163,.F.);
#57=ORIENTED_EDGE('',*,*,#164,.F.);
#58=ORIENTED_EDGE('',*,*,#165,.T.);
#59=ORIENTED_EDGE('',*,*,#161,.T.);
#60=ORIENTED_EDGE('',*,*,#166,.F.);
#61=ORIENTED_EDGE('',*,*,#159,.F.);
#62=ORIENTED_EDGE('',*,*,#167,.T.);
#63=ORIENTED_EDGE('',*,*,#164,.T.);
#64=ORIENTED_EDGE('',*,*,#158,.T.);
#65=ORIENTED_EDGE('',*,*,#162,.T.);
#66=ORIENTED_EDGE('',*,*,#165,.F.);
#67=ORIENTED_EDGE('',*,*,#167,.F.);
#68=ORIENTED_EDGE('',*,*,#150,.T.);
#69=ORIENTED_EDGE('',*,*,#168,.T.);
#70=ORIENTED_EDGE('',*,*,#152,.F.);
#71=ORIENTED_EDGE('',*,*,#166,.T.);
#72=ORIENTED_EDGE('',*,*,#163,.T.);
#73=ORIENTED_EDGE('',*,*,#160,.F.);
#74=ORIENTED_EDGE('',*,*,#156,.F.);
#75=ORIENTED_EDGE('',*,*,#169,.T.);
#76=ORIENTED_EDGE('',*,*,#170,.T.);
#77=ORIENTED_EDGE('',*,*,#171,.T.);
#78=ORIENTED_EDGE('',*,*,#172,.F.);
#79=ORIENTED_EDGE('',*,*,#154,.T.);
#80=ORIENTED_EDGE('',*,*,#173,.F.);
#81=ORIENTED_EDGE('',*,*,#170,.F.);
#82=ORIENTED_EDGE('',*,*,#153,.F.);
#83=ORIENTED_EDGE('',*,*,#168,.F.);
#84=ORIENTED_EDGE('',*,*,#149,.T.);
#85=ORIENTED_EDGE('',*,*,#174,.T.);
#86=ORIENTED_EDGE('',*,*,#175,.F.);
#87=ORIENTED_EDGE('',*,*,#176,.F.);
#88=ORIENTED_EDGE('',*,*,#151,.T.);
#89=ORIENTED_EDGE('',*,*,#169,.F.);
#90=ORIENTED_EDGE('',*,*,#155,.F.);
#91=ORIENTED_EDGE('',*,*,#172,.T.);
#92=ORIENTED_EDGE('',*,*,#143,.F.);
#93=ORIENTED_EDGE('',*,*,#177,.T.);
#94=ORIENTED_EDGE('',*,*,#178,.T.);
#95=ORIENTED_EDGE('',*,*,#179,.T.);
#96=ORIENTED_EDGE('',*,*,#180,.F.);
#97=ORIENTED_EDGE('',*,*,#181,.T.);
#98=ORIENTED_EDGE('',*,*,#140,.T.);
#99=ORIENTED_EDGE('',*,*,#179,.F.);
#100=ORIENTED_EDGE('',*,*,#182,.T.);
#101=ORIENTED_EDGE('',*,*,#183,.T.);
#102=ORIENTED_EDGE('',*,*,#184,.T.);
#103=ORIENTED_EDGE('',*,*,#146,.F.);
#104=ORIENTED_EDGE('',*,*,#144,.F.);
#105=ORIENTED_EDGE('',*,*,#185,.T.);
#106=ORIENTED_EDGE('',*,*,#186,.T.);
#107=ORIENTED_EDGE('',*,*,#174,.F.);
#108=ORIENTED_EDGE('',*,*,#187,.T.);
#109=ORIENTED_EDGE('',*,*,#188,.T.);
#110=ORIENTED_EDGE('',*,*,#177,.F.);
#111=ORIENTED_EDGE('',*,*,#176,.T.);
#112=ORIENTED_EDGE('',*,*,#183,.F.);
#113=ORIENTED_EDGE('',*,*,#189,.T.);
#114=ORIENTED_EDGE('',*,*,#187,.F.);
#115=ORIENTED_EDGE('',*,*,#175,.T.);
#116=ORIENTED_EDGE('',*,*,#171,.F.);
#117=ORIENTED_EDGE('',*,*,#173,.T.);
#118=ORIENTED_EDGE('',*,*,#186,.F.);
#119=ORIENTED_EDGE('',*,*,#190,.T.);
#120=ORIENTED_EDGE('',*,*,#147,.F.);
#121=ORIENTED_EDGE('',*,*,#184,.F.);
#122=ORIENTED_EDGE('',*,*,#190,.F.);
#123=ORIENTED_EDGE('',*,*,#185,.F.);
#124=ORIENTED_EDGE('',*,*,#178,.F.);
#125=ORIENTED_EDGE('',*,*,#188,.F.);
#126=ORIENTED_EDGE('',*,*,#189,.F.);
#127=ORIENTED_EDGE('',*,*,#182,.F.);
#128=ORIENTED_EDGE('',*,*,#191,.F.);
#129=ORIENTED_EDGE('',*,*,#192,.T.);
#130=ORIENTED_EDGE('',*,*,#180,.T.);
#131=ORIENTED_EDGE('',*,*,#145,.F.);
#132=ORIENTED_EDGE('',*,*,#142,.T.);
#133=ORIENTED_EDGE('',*,*,#193,.T.);
#134=ORIENTED_EDGE('',*,*,#191,.T.);
#135=ORIENTED_EDGE('',*,*,#148,.T.);
#136=ORIENTED_EDGE('',*,*,#141,.F.);
#137=ORIENTED_EDGE('',*,*,#181,.F.);
#138=ORIENTED_EDGE('',*,*,#192,.F.);
#139=ORIENTED_EDGE('',*,*,#193,.F.);
#140=EDGE_CURVE('',#194,#195,#228,.T.);
#141=EDGE_CURVE('',#194,#196,#20,.F.);
#142=EDGE_CURVE('',#197,#196,#229,.T.);
#143=EDGE_CURVE('',#197,#195,#230,.T.);
#144=EDGE_CURVE('',#198,#199,#231,.T.);
#145=EDGE_CURVE('',#199,#200,#232,.T.);
#146=EDGE_CURVE('',#200,#201,#233,.T.);
#147=EDGE_CURVE('',#201,#198,#21,.T.);
#148=EDGE_CURVE('',#199,#197,#234,.T.);
#149=EDGE_CURVE('',#202,#199,#235,.T.);
#150=EDGE_CURVE('',#203,#202,#236,.T.);
#151=EDGE_CURVE('',#197,#203,#237,.T.);
#152=EDGE_CURVE('',#204,#205,#22,.T.);
#153=EDGE_CURVE('',#205,#206,#238,.F.);
#154=EDGE_CURVE('',#207,#206,#13,.T.);
#155=EDGE_CURVE('',#207,#208,#239,.T.);
#156=EDGE_CURVE('',#208,#209,#23,.T.);
#157=EDGE_CURVE('',#210,#209,#240,.T.);
#158=EDGE_CURVE('',#211,#210,#24,.T.);
#159=EDGE_CURVE('',#211,#204,#241,.T.);
#160=EDGE_CURVE('',#209,#212,#242,.T.);
#161=EDGE_CURVE('',#213,#212,#243,.T.);
#162=EDGE_CURVE('',#210,#213,#244,.T.);
#163=EDGE_CURVE('',#214,#212,#25,.T.);
#164=EDGE_CURVE('',#215,#214,#245,.T.);
#165=EDGE_CURVE('',#215,#213,#26,.T.);
#166=EDGE_CURVE('',#204,#214,#246,.T.);
#167=EDGE_CURVE('',#211,#215,#247,.T.);
#168=EDGE_CURVE('',#202,#205,#248,.T.);
#169=EDGE_CURVE('',#208,#203,#249,.T.);
#170=EDGE_CURVE('',#206,#216,#250,.T.);
#171=EDGE_CURVE('',#216,#217,#27,.T.);
#172=EDGE_CURVE('',#207,#217,#251,.T.);
#173=EDGE_CURVE('',#216,#218,#252,.F.);
#174=EDGE_CURVE('',#199,#218,#253,.T.);
#175=EDGE_CURVE('',#219,#217,#254,.T.);
#176=EDGE_CURVE('',#197,#219,#255,.T.);
#177=EDGE_CURVE('',#197,#220,#256,.T.);
#178=EDGE_CURVE('',#220,#221,#28,.T.);
#179=EDGE_CURVE('',#221,#195,#257,.T.);
#180=EDGE_CURVE('',#222,#200,#258,.T.);
#181=EDGE_CURVE('',#222,#194,#259,.F.);
#182=EDGE_CURVE('',#221,#223,#260,.T.);
#183=EDGE_CURVE('',#223,#224,#261,.T.);
#184=EDGE_CURVE('',#224,#201,#262,.F.);
#185=EDGE_CURVE('',#198,#225,#263,.T.);
#186=EDGE_CURVE('',#225,#218,#264,.T.);
#187=EDGE_CURVE('',#219,#226,#265,.T.);
#188=EDGE_CURVE('',#226,#220,#266,.F.);
#189=EDGE_CURVE('',#223,#226,#29,.F.);
#190=EDGE_CURVE('',#225,#224,#30,.F.);
#191=EDGE_CURVE('',#227,#199,#267,.T.);
#192=EDGE_CURVE('',#227,#222,#31,.T.);
#193=EDGE_CURVE('',#196,#227,#268,.T.);
#194=VERTEX_POINT('',#709);
#195=VERTEX_POINT('',#710);
#196=VERTEX_POINT('',#712);
#197=VERTEX_POINT('',#714);
#198=VERTEX_POINT('',#718);
#199=VERTEX_POINT('',#719);
#200=VERTEX_POINT('',#721);
#201=VERTEX_POINT('',#723);
#202=VERTEX_POINT('',#728);
#203=VERTEX_POINT('',#730);
#204=VERTEX_POINT('',#734);
#205=VERTEX_POINT('',#735);
#206=VERTEX_POINT('',#737);
#207=VERTEX_POINT('',#749);
#208=VERTEX_POINT('',#751);
#209=VERTEX_POINT('',#753);
#210=VERTEX_POINT('',#755);
#211=VERTEX_POINT('',#757);
#212=VERTEX_POINT('',#761);
#213=VERTEX_POINT('',#763);
#214=VERTEX_POINT('',#767);
#215=VERTEX_POINT('',#769);
#216=VERTEX_POINT('',#780);
#217=VERTEX_POINT('',#782);
#218=VERTEX_POINT('',#786);
#219=VERTEX_POINT('',#790);
#220=VERTEX_POINT('',#794);
#221=VERTEX_POINT('',#796);
#222=VERTEX_POINT('',#800);
#223=VERTEX_POINT('',#803);
#224=VERTEX_POINT('',#805);
#225=VERTEX_POINT('',#809);
#226=VERTEX_POINT('',#813);
#227=VERTEX_POINT('',#822);
#228=LINE('',#708,#269);
#229=LINE('',#713,#270);
#230=LINE('',#715,#271);
#231=LINE('',#717,#272);
#232=LINE('',#720,#273);
#233=LINE('',#722,#274);
#234=LINE('',#726,#275);
#235=LINE('',#727,#276);
#236=LINE('',#729,#277);
#237=LINE('',#731,#278);
#238=LINE('',#736,#279);
#239=LINE('',#750,#280);
#240=LINE('',#754,#281);
#241=LINE('',#758,#282);
#242=LINE('',#760,#283);
#243=LINE('',#762,#284);
#244=LINE('',#764,#285);
#245=LINE('',#768,#286);
#246=LINE('',#772,#287);
#247=LINE('',#773,#288);
#248=LINE('',#776,#289);
#249=LINE('',#777,#290);
#250=LINE('',#779,#291);
#251=LINE('',#783,#292);
#252=LINE('',#785,#293);
#253=LINE('',#787,#294);
#254=LINE('',#789,#295);
#255=LINE('',#791,#296);
#256=LINE('',#793,#297);
#257=LINE('',#797,#298);
#258=LINE('',#799,#299);
#259=LINE('',#801,#300);
#260=LINE('',#802,#301);
#261=LINE('',#804,#302);
#262=LINE('',#806,#303);
#263=LINE('',#808,#304);
#264=LINE('',#810,#305);
#265=LINE('',#812,#306);
#266=LINE('',#814,#307);
#267=LINE('',#821,#308);
#268=LINE('',#825,#309);
#269=VECTOR('',#599,1.);
#270=VECTOR('',#602,1.);
#271=VECTOR('',#603,1.);
#272=VECTOR('',#606,1.);
#273=VECTOR('',#607,1.);
#274=VECTOR('',#608,1.);
#275=VECTOR('',#613,1.);
#276=VECTOR('',#614,1.);
#277=VECTOR('',#615,1.);
#278=VECTOR('',#616,1.);
#279=VECTOR('',#621,1.);
#280=VECTOR('',#622,1.);
#281=VECTOR('',#625,1.);
#282=VECTOR('',#628,1.);
#283=VECTOR('',#631,1.);
#284=VECTOR('',#632,1.);
#285=VECTOR('',#633,1.);
#286=VECTOR('',#638,1.);
#287=VECTOR('',#643,1.);
#288=VECTOR('',#644,1.);
#289=VECTOR('',#649,1.);
#290=VECTOR('',#650,1.);
#291=VECTOR('',#653,1.);
#292=VECTOR('',#656,1.);
#293=VECTOR('',#659,1.);
#294=VECTOR('',#660,1.);
#295=VECTOR('',#663,1.);
#296=VECTOR('',#664,1.);
#297=VECTOR('',#667,1.);
#298=VECTOR('',#670,1.);
#299=VECTOR('',#673,1.);
#300=VECTOR('',#674,1.);
#301=VECTOR('',#675,1.);
#302=VECTOR('',#676,1.);
#303=VECTOR('',#677,1.);
#304=VECTOR('',#680,1.);
#305=VECTOR('',#681,1.);
#306=VECTOR('',#684,1.);
#307=VECTOR('',#685,1.);
#308=VECTOR('',#698,1.);
#309=VECTOR('',#703,1.);
#310=EDGE_LOOP('',(#32,#33,#34,#35));
#311=EDGE_LOOP('',(#36,#37,#38,#39));
#312=EDGE_LOOP('',(#40,#41,#42,#43));
#313=EDGE_LOOP('',(#44,#45,#46,#47,#48,#49,#50,#51));
#314=EDGE_LOOP('',(#52,#53,#54,#55));
#315=EDGE_LOOP('',(#56,#57,#58,#59));
#316=EDGE_LOOP('',(#60,#61,#62,#63));
#317=EDGE_LOOP('',(#64,#65,#66,#67));
#318=EDGE_LOOP('',(#68,#69,#70,#71,#72,#73,#74,#75));
#319=EDGE_LOOP('',(#76,#77,#78,#79));
#320=EDGE_LOOP('',(#80,#81,#82,#83,#84,#85));
#321=EDGE_LOOP('',(#86,#87,#88,#89,#90,#91));
#322=EDGE_LOOP('',(#92,#93,#94,#95));
#323=EDGE_LOOP('',(#96,#97,#98,#99,#100,#101,#102,#103));
#324=EDGE_LOOP('',(#104,#105,#106,#107));
#325=EDGE_LOOP('',(#108,#109,#110,#111));
#326=EDGE_LOOP('',(#112,#113,#114,#115,#116,#117,#118,#119));
#327=EDGE_LOOP('',(#120,#121,#122,#123));
#328=EDGE_LOOP('',(#124,#125,#126,#127));
#329=EDGE_LOOP('',(#128,#129,#130,#131));
#330=EDGE_LOOP('',(#132,#133,#134,#135));
#331=EDGE_LOOP('',(#136,#137,#138,#139));
#332=FACE_BOUND('',#310,.T.);
#333=FACE_BOUND('',#311,.T.);
#334=FACE_BOUND('',#312,.T.);
#335=FACE_BOUND('',#313,.T.);
#336=FACE_BOUND('',#314,.T.);
#337=FACE_BOUND('',#315,.T.);
#338=FACE_BOUND('',#316,.T.);
#339=FACE_BOUND('',#317,.T.);
#340=FACE_BOUND('',#318,.T.);
#341=FACE_BOUND('',#319,.T.);
#342=FACE_BOUND('',#320,.T.);
#343=FACE_BOUND('',#321,.T.);
#344=FACE_BOUND('',#322,.T.);
#345=FACE_BOUND('',#323,.T.);
#346=FACE_BOUND('',#324,.T.);
#347=FACE_BOUND('',#325,.T.);
#348=FACE_BOUND('',#326,.T.);
#349=FACE_BOUND('',#327,.T.);
#350=FACE_BOUND('',#328,.T.);
#351=FACE_BOUND('',#329,.T.);
#352=FACE_BOUND('',#330,.T.);
#353=FACE_BOUND('',#331,.T.);
#354=PLANE('',#561);
#355=PLANE('',#563);
#356=PLANE('',#565);
#357=PLANE('',#570);
#358=PLANE('',#574);
#359=PLANE('',#575);
#360=PLANE('',#576);
#361=PLANE('',#579);
#362=PLANE('',#580);
#363=PLANE('',#581);
#364=PLANE('',#583);
#365=PLANE('',#584);
#366=PLANE('',#585);
#367=PLANE('',#586);
#368=PLANE('',#591);
#369=PLANE('',#593);
#370=OVER_RIDING_STYLED_ITEM('',(#417),#392,#415);
#371=OVER_RIDING_STYLED_ITEM('',(#418),#393,#415);
#372=OVER_RIDING_STYLED_ITEM('',(#419),#394,#415);
#373=OVER_RIDING_STYLED_ITEM('',(#420),#395,#415);
#374=OVER_RIDING_STYLED_ITEM('',(#421),#396,#415);
#375=OVER_RIDING_STYLED_ITEM('',(#422),#397,#415);
#376=OVER_RIDING_STYLED_ITEM('',(#423),#398,#415);
#377=OVER_RIDING_STYLED_ITEM('',(#424),#399,#415);
#378=OVER_RIDING_STYLED_ITEM('',(#425),#400,#415);
#379=OVER_RIDING_STYLED_ITEM('',(#426),#401,#415);
#380=OVER_RIDING_STYLED_ITEM('',(#427),#402,#415);
#381=OVER_RIDING_STYLED_ITEM('',(#428),#403,#415);
#382=OVER_RIDING_STYLED_ITEM('',(#429),#404,#415);
#383=OVER_RIDING_STYLED_ITEM('',(#430),#405,#415);
#384=OVER_RIDING_STYLED_ITEM('',(#431),#406,#415);
#385=OVER_RIDING_STYLED_ITEM('',(#432),#407,#415);
#386=OVER_RIDING_STYLED_ITEM('',(#433),#408,#415);
#387=OVER_RIDING_STYLED_ITEM('',(#434),#409,#415);
#388=OVER_RIDING_STYLED_ITEM('',(#435),#410,#415);
#389=OVER_RIDING_STYLED_ITEM('',(#436),#411,#415);
#390=OVER_RIDING_STYLED_ITEM('',(#437),#412,#415);
#391=OVER_RIDING_STYLED_ITEM('',(#438),#413,#415);
#392=ADVANCED_FACE('',(#332),#354,.F.);
#393=ADVANCED_FACE('',(#333),#355,.T.);
#394=ADVANCED_FACE('',(#334),#356,.T.);
#395=ADVANCED_FACE('',(#335),#14,.T.);
#396=ADVANCED_FACE('',(#336),#357,.F.);
#397=ADVANCED_FACE('',(#337),#15,.F.);
#398=ADVANCED_FACE('',(#338),#358,.T.);
#399=ADVANCED_FACE('',(#339),#359,.T.);
#400=ADVANCED_FACE('',(#340),#360,.F.);
#401=ADVANCED_FACE('',(#341),#16,.T.);
#402=ADVANCED_FACE('',(#342),#361,.T.);
#403=ADVANCED_FACE('',(#343),#362,.T.);
#404=ADVANCED_FACE('',(#344),#363,.T.);
#405=ADVANCED_FACE('',(#345),#364,.F.);
#406=ADVANCED_FACE('',(#346),#365,.F.);
#407=ADVANCED_FACE('',(#347),#366,.F.);
#408=ADVANCED_FACE('',(#348),#367,.F.);
#409=ADVANCED_FACE('',(#349),#17,.T.);
#410=ADVANCED_FACE('',(#350),#18,.T.);
#411=ADVANCED_FACE('',(#351),#368,.T.);
#412=ADVANCED_FACE('',(#352),#369,.F.);
#413=ADVANCED_FACE('',(#353),#19,.T.);
#414=CLOSED_SHELL('',(#392,#393,#394,#395,#396,#397,#398,#399,#400,#401,
#402,#403,#404,#405,#406,#407,#408,#409,#410,#411,#412,#413));
#415=STYLED_ITEM('',(#416),#557);
#416=PRESENTATION_STYLE_ASSIGNMENT((#439));
#417=PRESENTATION_STYLE_ASSIGNMENT((#440));
#418=PRESENTATION_STYLE_ASSIGNMENT((#441));
#419=PRESENTATION_STYLE_ASSIGNMENT((#442));
#420=PRESENTATION_STYLE_ASSIGNMENT((#443));
#421=PRESENTATION_STYLE_ASSIGNMENT((#444));
#422=PRESENTATION_STYLE_ASSIGNMENT((#445));
#423=PRESENTATION_STYLE_ASSIGNMENT((#446));
#424=PRESENTATION_STYLE_ASSIGNMENT((#447));
#425=PRESENTATION_STYLE_ASSIGNMENT((#448));
#426=PRESENTATION_STYLE_ASSIGNMENT((#449));
#427=PRESENTATION_STYLE_ASSIGNMENT((#450));
#428=PRESENTATION_STYLE_ASSIGNMENT((#451));
#429=PRESENTATION_STYLE_ASSIGNMENT((#452));
#430=PRESENTATION_STYLE_ASSIGNMENT((#453));
#431=PRESENTATION_STYLE_ASSIGNMENT((#454));
#432=PRESENTATION_STYLE_ASSIGNMENT((#455));
#433=PRESENTATION_STYLE_ASSIGNMENT((#456));
#434=PRESENTATION_STYLE_ASSIGNMENT((#457));
#435=PRESENTATION_STYLE_ASSIGNMENT((#458));
#436=PRESENTATION_STYLE_ASSIGNMENT((#459));
#437=PRESENTATION_STYLE_ASSIGNMENT((#460));
#438=PRESENTATION_STYLE_ASSIGNMENT((#461));
#439=SURFACE_STYLE_USAGE(.BOTH.,#462);
#440=SURFACE_STYLE_USAGE(.BOTH.,#463);
#441=SURFACE_STYLE_USAGE(.BOTH.,#464);
#442=SURFACE_STYLE_USAGE(.BOTH.,#465);
#443=SURFACE_STYLE_USAGE(.BOTH.,#466);
#444=SURFACE_STYLE_USAGE(.BOTH.,#467);
#445=SURFACE_STYLE_USAGE(.BOTH.,#468);
#446=SURFACE_STYLE_USAGE(.BOTH.,#469);
#447=SURFACE_STYLE_USAGE(.BOTH.,#470);
#448=SURFACE_STYLE_USAGE(.BOTH.,#471);
#449=SURFACE_STYLE_USAGE(.BOTH.,#472);
#450=SURFACE_STYLE_USAGE(.BOTH.,#473);
#451=SURFACE_STYLE_USAGE(.BOTH.,#474);
#452=SURFACE_STYLE_USAGE(.BOTH.,#475);
#453=SURFACE_STYLE_USAGE(.BOTH.,#476);
#454=SURFACE_STYLE_USAGE(.BOTH.,#477);
#455=SURFACE_STYLE_USAGE(.BOTH.,#478);
#456=SURFACE_STYLE_USAGE(.BOTH.,#479);
#457=SURFACE_STYLE_USAGE(.BOTH.,#480);
#458=SURFACE_STYLE_USAGE(.BOTH.,#481);
#459=SURFACE_STYLE_USAGE(.BOTH.,#482);
#460=SURFACE_STYLE_USAGE(.BOTH.,#483);
#461=SURFACE_STYLE_USAGE(.BOTH.,#484);
#462=SURFACE_SIDE_STYLE('',(#485));
#463=SURFACE_SIDE_STYLE('',(#486));
#464=SURFACE_SIDE_STYLE('',(#487));
#465=SURFACE_SIDE_STYLE('',(#488));
#466=SURFACE_SIDE_STYLE('',(#489));
#467=SURFACE_SIDE_STYLE('',(#490));
#468=SURFACE_SIDE_STYLE('',(#491));
#469=SURFACE_SIDE_STYLE('',(#492));
#470=SURFACE_SIDE_STYLE('',(#493));
#471=SURFACE_SIDE_STYLE('',(#494));
#472=SURFACE_SIDE_STYLE('',(#495));
#473=SURFACE_SIDE_STYLE('',(#496));
#474=SURFACE_SIDE_STYLE('',(#497));
#475=SURFACE_SIDE_STYLE('',(#498));
#476=SURFACE_SIDE_STYLE('',(#499));
#477=SURFACE_SIDE_STYLE('',(#500));
#478=SURFACE_SIDE_STYLE('',(#501));
#479=SURFACE_SIDE_STYLE('',(#502));
#480=SURFACE_SIDE_STYLE('',(#503));
#481=SURFACE_SIDE_STYLE('',(#504));
#482=SURFACE_SIDE_STYLE('',(#505));
#483=SURFACE_SIDE_STYLE('',(#506));
#484=SURFACE_SIDE_STYLE('',(#507));
#485=SURFACE_STYLE_FILL_AREA(#508);
#486=SURFACE_STYLE_FILL_AREA(#509);
#487=SURFACE_STYLE_FILL_AREA(#510);
#488=SURFACE_STYLE_FILL_AREA(#511);
#489=SURFACE_STYLE_FILL_AREA(#512);
#490=SURFACE_STYLE_FILL_AREA(#513);
#491=SURFACE_STYLE_FILL_AREA(#514);
#492=SURFACE_STYLE_FILL_AREA(#515);
#493=SURFACE_STYLE_FILL_AREA(#516);
#494=SURFACE_STYLE_FILL_AREA(#517);
#495=SURFACE_STYLE_FILL_AREA(#518);
#496=SURFACE_STYLE_FILL_AREA(#519);
#497=SURFACE_STYLE_FILL_AREA(#520);
#498=SURFACE_STYLE_FILL_AREA(#521);
#499=SURFACE_STYLE_FILL_AREA(#522);
#500=SURFACE_STYLE_FILL_AREA(#523);
#501=SURFACE_STYLE_FILL_AREA(#524);
#502=SURFACE_STYLE_FILL_AREA(#525);
#503=SURFACE_STYLE_FILL_AREA(#526);
#504=SURFACE_STYLE_FILL_AREA(#527);
#505=SURFACE_STYLE_FILL_AREA(#528);
#506=SURFACE_STYLE_FILL_AREA(#529);
#507=SURFACE_STYLE_FILL_AREA(#530);
#508=FILL_AREA_STYLE('',(#531));
#509=FILL_AREA_STYLE('',(#532));
#510=FILL_AREA_STYLE('',(#533));
#511=FILL_AREA_STYLE('',(#534));
#512=FILL_AREA_STYLE('',(#535));
#513=FILL_AREA_STYLE('',(#536));
#514=FILL_AREA_STYLE('',(#537));
#515=FILL_AREA_STYLE('',(#538));
#516=FILL_AREA_STYLE('',(#539));
#517=FILL_AREA_STYLE('',(#540));
#518=FILL_AREA_STYLE('',(#541));
#519=FILL_AREA_STYLE('',(#542));
#520=FILL_AREA_STYLE('',(#543));
#521=FILL_AREA_STYLE('',(#544));
#522=FILL_AREA_STYLE('',(#545));
#523=FILL_AREA_STYLE('',(#546));
#524=FILL_AREA_STYLE('',(#547));
#525=FILL_AREA_STYLE('',(#548));
#526=FILL_AREA_STYLE('',(#549));
#527=FILL_AREA_STYLE('',(#550));
#528=FILL_AREA_STYLE('',(#551));
#529=FILL_AREA_STYLE('',(#552));
#530=FILL_AREA_STYLE('',(#553));
#531=FILL_AREA_STYLE_COLOUR('',#554);
#532=FILL_AREA_STYLE_COLOUR('',#555);
#533=FILL_AREA_STYLE_COLOUR('',#555);
#534=FILL_AREA_STYLE_COLOUR('',#555);
#535=FILL_AREA_STYLE_COLOUR('',#556);
#536=FILL_AREA_STYLE_COLOUR('',#556);
#537=FILL_AREA_STYLE_COLOUR('',#12);
#538=FILL_AREA_STYLE_COLOUR('',#556);
#539=FILL_AREA_STYLE_COLOUR('',#556);
#540=FILL_AREA_STYLE_COLOUR('',#556);
#541=FILL_AREA_STYLE_COLOUR('',#555);
#542=FILL_AREA_STYLE_COLOUR('',#555);
#543=FILL_AREA_STYLE_COLOUR('',#555);
#544=FILL_AREA_STYLE_COLOUR('',#555);
#545=FILL_AREA_STYLE_COLOUR('',#555);
#546=FILL_AREA_STYLE_COLOUR('',#555);
#547=FILL_AREA_STYLE_COLOUR('',#555);
#548=FILL_AREA_STYLE_COLOUR('',#555);
#549=FILL_AREA_STYLE_COLOUR('',#555);
#550=FILL_AREA_STYLE_COLOUR('',#555);
#551=FILL_AREA_STYLE_COLOUR('',#555);
#552=FILL_AREA_STYLE_COLOUR('',#555);
#553=FILL_AREA_STYLE_COLOUR('',#555);
#554=COLOUR_RGB('',0.615686274509804,0.811764705882353,0.929411764705882);
#555=COLOUR_RGB('',0.4,0.4,0.4);
#556=COLOUR_RGB('',0.701960784313725,0.701960784313725,0.701960784313725);
#557=MANIFOLD_SOLID_BREP('Part 1',#414);
#558=SHAPE_DEFINITION_REPRESENTATION(#833,#559);
#559=SHAPE_REPRESENTATION('Part 1',(#560),#828);
#560=AXIS2_PLACEMENT_3D('',#706,#595,#596);
#561=AXIS2_PLACEMENT_3D('',#707,#597,#598);
#562=AXIS2_PLACEMENT_3D('',#711,#600,#601);
#563=AXIS2_PLACEMENT_3D('',#716,#604,#605);
#564=AXIS2_PLACEMENT_3D('',#724,#609,#610);
#565=AXIS2_PLACEMENT_3D('',#725,#611,#612);
#566=AXIS2_PLACEMENT_3D('',#732,#617,#618);
#567=AXIS2_PLACEMENT_3D('',#733,#619,#620);
#568=AXIS2_PLACEMENT_3D('',#752,#623,#624);
#569=AXIS2_PLACEMENT_3D('',#756,#626,#627);
#570=AXIS2_PLACEMENT_3D('',#759,#629,#630);
#571=AXIS2_PLACEMENT_3D('',#765,#634,#635);
#572=AXIS2_PLACEMENT_3D('',#766,#636,#637);
#573=AXIS2_PLACEMENT_3D('',#770,#639,#640);
#574=AXIS2_PLACEMENT_3D('',#771,#641,#642);
#575=AXIS2_PLACEMENT_3D('',#774,#645,#646);
#576=AXIS2_PLACEMENT_3D('',#775,#647,#648);
#577=AXIS2_PLACEMENT_3D('',#778,#651,#652);
#578=AXIS2_PLACEMENT_3D('',#781,#654,#655);
#579=AXIS2_PLACEMENT_3D('',#784,#657,#658);
#580=AXIS2_PLACEMENT_3D('',#788,#661,#662);
#581=AXIS2_PLACEMENT_3D('',#792,#665,#666);
#582=AXIS2_PLACEMENT_3D('',#795,#668,#669);
#583=AXIS2_PLACEMENT_3D('',#798,#671,#672);
#584=AXIS2_PLACEMENT_3D('',#807,#678,#679);
#585=AXIS2_PLACEMENT_3D('',#811,#682,#683);
#586=AXIS2_PLACEMENT_3D('',#815,#686,#687);
#587=AXIS2_PLACEMENT_3D('',#816,#688,#689);
#588=AXIS2_PLACEMENT_3D('',#817,#690,#691);
#589=AXIS2_PLACEMENT_3D('',#818,#692,#693);
#590=AXIS2_PLACEMENT_3D('',#819,#694,#695);
#591=AXIS2_PLACEMENT_3D('',#820,#696,#697);
#592=AXIS2_PLACEMENT_3D('',#823,#699,#700);
#593=AXIS2_PLACEMENT_3D('',#824,#701,#702);
#594=AXIS2_PLACEMENT_3D('',#826,#704,#705);
#595=DIRECTION('',(0.,0.,1.));
#596=DIRECTION('',(1.,0.,0.));
#597=DIRECTION('',(1.,0.,0.));
#598=DIRECTION('',(0.,0.,-1.));
#599=DIRECTION('',(0.,1.,0.));
#600=DIRECTION('',(1.,0.,0.));
#601=DIRECTION('',(0.,0.,-1.));
#602=DIRECTION('',(0.,-0.94443931213332,-0.328685846511742));
#603=DIRECTION('',(0.,0.,-1.));
#604=DIRECTION('',(0.,-1.,0.));
#605=DIRECTION('',(1.,0.,0.));
#606=DIRECTION('',(-0.98540272971203,0.,0.170239420452725));
#607=DIRECTION('',(0.,0.,-1.));
#608=DIRECTION('',(1.,0.,0.));
#609=DIRECTION('',(0.,-1.,0.));
#610=DIRECTION('',(0.,0.,-1.));
#611=DIRECTION('',(0.,-1.,0.));
#612=DIRECTION('',(1.,0.,0.));
#613=DIRECTION('',(-1.,0.,0.));
#614=DIRECTION('',(0.,0.,-1.));
#615=DIRECTION('',(1.,0.,0.));
#616=DIRECTION('',(0.,0.,1.));
#617=DIRECTION('',(0.,0.,-1.));
#618=DIRECTION('',(-1.,0.,0.));
#619=DIRECTION('',(0.,0.,1.));
#620=DIRECTION('',(1.,0.,0.));
#621=DIRECTION('',(0.,0.,-1.));
#622=DIRECTION('',(0.,0.,-1.));
#623=DIRECTION('',(0.,0.,1.));
#624=DIRECTION('',(1.,0.,0.));
#625=DIRECTION('',(0.,0.,-1.));
#626=DIRECTION('',(0.,0.,1.));
#627=DIRECTION('',(1.,0.,0.));
#628=DIRECTION('',(0.,0.,-1.));
#629=DIRECTION('',(0.738562028540579,0.674185530842976,0.));
#630=DIRECTION('',(-0.674185530842976,0.738562028540579,0.));
#631=DIRECTION('',(0.674185530842976,-0.738562028540579,0.));
#632=DIRECTION('',(0.,0.,-1.));
#633=DIRECTION('',(0.674185530842976,-0.738562028540579,0.));
#634=DIRECTION('',(0.,0.,-1.));
#635=DIRECTION('',(-1.,0.,0.));
#636=DIRECTION('',(0.,0.,1.));
#637=DIRECTION('',(1.,0.,0.));
#638=DIRECTION('',(0.,0.,-1.));
#639=DIRECTION('',(0.,0.,1.));
#640=DIRECTION('',(1.,0.,0.));
#641=DIRECTION('',(0.738562028540581,-0.674185530842974,0.));
#642=DIRECTION('',(0.674185530842974,0.738562028540581,0.));
#643=DIRECTION('',(-0.674185530842974,-0.738562028540581,0.));
#644=DIRECTION('',(-0.674185530842974,-0.738562028540581,0.));
#645=DIRECTION('',(0.,0.,1.));
#646=DIRECTION('',(1.,0.,0.));
#647=DIRECTION('',(0.,0.,1.));
#648=DIRECTION('',(1.,0.,0.));
#649=DIRECTION('',(0.,1.,0.));
#650=DIRECTION('',(0.,-1.,0.));
#651=DIRECTION('',(0.,1.,0.));
#652=DIRECTION('',(0.,0.,1.));
#653=DIRECTION('',(0.,1.,0.));
#654=DIRECTION('',(0.,-1.,0.));
#655=DIRECTION('',(0.,0.,-1.));
#656=DIRECTION('',(0.,1.,0.));
#657=DIRECTION('',(1.,0.,0.));
#658=DIRECTION('',(0.,0.,-1.));
#659=DIRECTION('',(0.,0.,1.));
#660=DIRECTION('',(0.,1.,0.));
#661=DIRECTION('',(-1.,0.,0.));
#662=DIRECTION('',(0.,0.,1.));
#663=DIRECTION('',(0.,0.,1.));
#664=DIRECTION('',(0.,1.,0.));
#665=DIRECTION('',(0.,-1.,0.));
#666=DIRECTION('',(1.,0.,0.));
#667=DIRECTION('',(-0.98540272971203,0.,-0.170239420452725));
#668=DIRECTION('',(0.,-1.,0.));
#669=DIRECTION('',(0.,0.,-1.));
#670=DIRECTION('',(1.,0.,0.));
#671=DIRECTION('',(0.,0.,1.));
#672=DIRECTION('',(1.,0.,0.));
#673=DIRECTION('',(0.,1.,0.));
#674=DIRECTION('',(1.,0.,0.));
#675=DIRECTION('',(0.,1.,0.));
#676=DIRECTION('',(1.,0.,0.));
#677=DIRECTION('',(0.,1.,0.));
#678=DIRECTION('',(-0.170239420452725,0.,-0.98540272971203));
#679=DIRECTION('',(-0.98540272971203,0.,0.170239420452725));
#680=DIRECTION('',(0.,1.,0.));
#681=DIRECTION('',(-0.98540272971203,0.,0.170239420452725));
#682=DIRECTION('',(0.170239420452725,0.,-0.98540272971203));
#683=DIRECTION('',(-0.98540272971203,0.,-0.170239420452725));
#684=DIRECTION('',(-0.98540272971203,0.,-0.170239420452725));
#685=DIRECTION('',(0.,1.,0.));
#686=DIRECTION('',(0.,-1.,0.));
#687=DIRECTION('',(1.,0.,0.));
#688=DIRECTION('',(0.,-1.,0.));
#689=DIRECTION('',(0.,0.,-1.));
#690=DIRECTION('',(0.,-1.,0.));
#691=DIRECTION('',(0.,0.,-1.));
#692=DIRECTION('',(0.,1.,0.));
#693=DIRECTION('',(0.,0.,1.));
#694=DIRECTION('',(0.,1.,0.));
#695=DIRECTION('',(0.,0.,1.));
#696=DIRECTION('',(1.,0.,0.));
#697=DIRECTION('',(0.,0.,-1.));
#698=DIRECTION('',(0.,0.94443931213332,0.328685846511742));
#699=DIRECTION('',(1.,0.,0.));
#700=DIRECTION('',(0.,0.,-1.));
#701=DIRECTION('',(0.,0.328685846511742,-0.94443931213332));
#702=DIRECTION('',(0.,0.944439312133321,0.328685846511742));
#703=DIRECTION('',(1.,0.,0.));
#704=DIRECTION('',(1.,0.,0.));
#705=DIRECTION('',(0.,0.,-1.));
#706=CARTESIAN_POINT('',(0.,0.,0.));
#707=CARTESIAN_POINT('',(-0.000645607826299965,0.00117,-0.0060137597665121));
#708=CARTESIAN_POINT('',(-0.000645607826299965,0.00117,-0.00676200749500192));
#709=CARTESIAN_POINT('',(-0.000645607826299965,0.00217574494145118,-0.00676200749500192));
#710=CARTESIAN_POINT('',(-0.000645607826299965,0.00547,-0.00676200749500192));
#711=CARTESIAN_POINT('',(-0.000645607826299965,0.00217574494145118,-0.00659199749500192));
#712=CARTESIAN_POINT('',(-0.000645607826299965,0.00211986506068572,-0.00643143336754614));
#713=CARTESIAN_POINT('',(-0.000645607826299965,0.00332,-0.0060137597665121));
#714=CARTESIAN_POINT('',(-0.000645607826299965,0.00547,-0.00526551203802228));
#715=CARTESIAN_POINT('',(-0.000645607826299965,0.00547,-0.0060137597665121));
#716=CARTESIAN_POINT('',(0.,0.00547,0.00034677391329436));
#717=CARTESIAN_POINT('',(0.00497671605137435,0.00547,-0.0060137597665121));
#718=CARTESIAN_POINT('',(0.00735403158608919,0.00547,-0.00642446780157243));
#719=CARTESIAN_POINT('',(0.000645607826299965,0.00547,-0.00526551203802228));
#720=CARTESIAN_POINT('',(0.000645607826299965,0.00547,-0.0060137597665121));
#721=CARTESIAN_POINT('',(0.000645607826299965,0.00547,-0.00676200749500192));
#722=CARTESIAN_POINT('',(-0.00497671605137435,0.00547,-0.00676200749500192));
#723=CARTESIAN_POINT('',(0.0073250890642878,0.00547,-0.00676200749500192));
#724=CARTESIAN_POINT('',(0.0073250890642878,0.00547,-0.00659199680227035));
#725=CARTESIAN_POINT('',(0.,0.00547,0.00034677391329436));
#726=CARTESIAN_POINT('',(0.,0.00547,-0.00526551203802228));
#727=CARTESIAN_POINT('',(0.000645607826299965,0.00547,-0.00101402620520448));
#728=CARTESIAN_POINT('',(0.000645607826299965,0.00547,0.));
#729=CARTESIAN_POINT('',(4.99468296766281E-6,0.00547,0.));
#730=CARTESIAN_POINT('',(-0.000645607826299965,0.00547,0.));
#731=CARTESIAN_POINT('',(-0.000645607826299965,0.00547,-0.00101402620520448));
#732=CARTESIAN_POINT('',(4.99468296766628E-6,-0.018066942883748,0.011));
#733=CARTESIAN_POINT('',(4.99468296766628E-6,-0.018066942883748,0.));
#734=CARTESIAN_POINT('',(0.0164971388876438,0.,0.));
#735=CARTESIAN_POINT('',(0.000645607826299965,0.00638699055103985,0.));
#736=CARTESIAN_POINT('',(0.000645607826299965,0.00638699055103984,0.011));
#737=CARTESIAN_POINT('',(0.000645607826299965,0.00638699055103985,0.00323745962761331));
#738=CARTESIAN_POINT('',(-0.000645607826299966,0.00638672682055977,0.00323745962761331));
#739=CARTESIAN_POINT('',(-0.00113739701836081,0.00637364251516698,0.00339161417280073));
#740=CARTESIAN_POINT('',(-0.00198910138130579,0.00631828450423351,0.00405400018540392));
#741=CARTESIAN_POINT('',(-0.00232084660682991,0.0062836305605594,0.0056528753886456));
#742=CARTESIAN_POINT('',(-0.00152899467520137,0.00635751466256497,0.00707757807787958));
#743=CARTESIAN_POINT('',(-7.38910460037569E-7,0.00641413768440362,0.00764432762494129));
#744=CARTESIAN_POINT('',(0.0015280469979255,0.00635821127573065,0.00707844276367361));
#745=CARTESIAN_POINT('',(0.00232025931698437,0.00628463122660845,0.00565444254997447));
#746=CARTESIAN_POINT('',(0.00199095609665073,0.00631895875892425,0.00405626054438018));
#747=CARTESIAN_POINT('',(0.00113739821754878,0.00637410724990391,0.00339161454869406));
#748=CARTESIAN_POINT('',(0.000645607826299966,0.00638699055103985,0.00323745962761331));
#749=CARTESIAN_POINT('',(-0.000645607826299966,0.00638672682055977,0.00323745962761331));
#750=CARTESIAN_POINT('',(-0.000645607826299965,0.00638672682055977,0.011));
#751=CARTESIAN_POINT('',(-0.000645607826299965,0.00638672682055977,0.));
#752=CARTESIAN_POINT('',(4.99468296766628E-6,-0.018066942883748,0.));
#753=CARTESIAN_POINT('',(-0.0164871495217085,3.46944695195361E-18,0.));
#754=CARTESIAN_POINT('',(-0.0164871495217085,3.46944695195361E-18,0.011));
#755=CARTESIAN_POINT('',(-0.0164871495217085,3.46944695195361E-18,0.011));
#756=CARTESIAN_POINT('',(4.99468296766628E-6,-0.018066942883748,0.011));
#757=CARTESIAN_POINT('',(0.0164971388876438,0.,0.011));
#758=CARTESIAN_POINT('',(0.0164971388876438,0.,0.011));
#759=CARTESIAN_POINT('',(-0.016150056756287,-0.000369281014270285,0.011));
#760=CARTESIAN_POINT('',(-0.016150056756287,-0.000369281014270285,0.));
#761=CARTESIAN_POINT('',(-0.0158129639908655,-0.000738562028540571,0.));
#762=CARTESIAN_POINT('',(-0.0158129639908655,-0.000738562028540571,0.011));
#763=CARTESIAN_POINT('',(-0.0158129639908655,-0.000738562028540571,0.011));
#764=CARTESIAN_POINT('',(-0.016150056756287,-0.000369281014270285,0.011));
#765=CARTESIAN_POINT('',(4.99468296766628E-6,-0.018066942883748,0.011));
#766=CARTESIAN_POINT('',(4.99468296766628E-6,-0.018066942883748,0.));
#767=CARTESIAN_POINT('',(0.0158229533568008,-0.000738562028540581,0.));
#768=CARTESIAN_POINT('',(0.0158229533568008,-0.000738562028540581,0.011));
#769=CARTESIAN_POINT('',(0.0158229533568008,-0.000738562028540581,0.011));
#770=CARTESIAN_POINT('',(4.99468296766628E-6,-0.018066942883748,0.011));
#771=CARTESIAN_POINT('',(0.0161600461222224,-0.000369281014270291,0.011));
#772=CARTESIAN_POINT('',(0.0161600461222224,-0.000369281014270291,0.));
#773=CARTESIAN_POINT('',(0.0161600461222224,-0.000369281014270291,0.011));
#774=CARTESIAN_POINT('',(4.99468296766281E-6,0.0028284090344138,0.011));
#775=CARTESIAN_POINT('',(4.99468296766281E-6,0.0028284090344138,0.));
#776=CARTESIAN_POINT('',(0.000645607826299965,0.0028284090344138,0.));
#777=CARTESIAN_POINT('',(-0.000645607826299965,0.0028284090344138,0.));
#778=CARTESIAN_POINT('',(-4.23365874803811E-20,0.00547,0.0052971001714468));
#779=CARTESIAN_POINT('',(0.000645607826299965,0.00547,0.00323745962761331));
#780=CARTESIAN_POINT('',(0.000645607826299965,0.0072,0.00323745962761331));
#781=CARTESIAN_POINT('',(-4.23365874803811E-20,0.0072,0.0052971001714468));
#782=CARTESIAN_POINT('',(-0.000645607826299965,0.0072,0.00323745962761331));
#783=CARTESIAN_POINT('',(-0.000645607826299966,0.00547,0.00323745962761331));
#784=CARTESIAN_POINT('',(0.000645607826299965,0.00547,-0.00101402620520448));
#785=CARTESIAN_POINT('',(0.000645607826299965,0.0072,0.00034677391329436));
#786=CARTESIAN_POINT('',(0.000645607826299965,0.0072,-0.00526551203802228));
#787=CARTESIAN_POINT('',(0.000645607826299965,0.00547,-0.00526551203802228));
#788=CARTESIAN_POINT('',(-0.000645607826299965,0.00547,-0.00101402620520448));
#789=CARTESIAN_POINT('',(-0.000645607826299965,0.0072,0.00034677391329436));
#790=CARTESIAN_POINT('',(-0.000645607826299965,0.0072,-0.00526551203802228));
#791=CARTESIAN_POINT('',(-0.000645607826299965,0.00547,-0.00526551203802228));
#792=CARTESIAN_POINT('',(0.,0.00547,0.00034677391329436));
#793=CARTESIAN_POINT('',(-0.00497671605137435,0.00547,-0.0060137597665121));
#794=CARTESIAN_POINT('',(-0.00735403954708184,0.00547,-0.00642446917692358));
#795=CARTESIAN_POINT('',(-0.00732509714321067,0.00547,-0.00659199749500192));
#796=CARTESIAN_POINT('',(-0.00732509714321067,0.00547,-0.00676200749500192));
#797=CARTESIAN_POINT('',(-0.00497671605137435,0.00547,-0.00676200749500192));
#798=CARTESIAN_POINT('',(-0.00497671605137435,0.00547,-0.00676200749500192));
#799=CARTESIAN_POINT('',(0.000645607826299965,0.00117,-0.00676200749500192));
#800=CARTESIAN_POINT('',(0.000645607826299965,0.00217574494145118,-0.00676200749500192));
#801=CARTESIAN_POINT('',(-0.00497671605137435,0.00217574494145118,-0.00676200749500192));
#802=CARTESIAN_POINT('',(-0.00732509714321067,0.00547,-0.00676200749500192));
#803=CARTESIAN_POINT('',(-0.00732509714321067,0.0072,-0.00676200749500192));
#804=CARTESIAN_POINT('',(0.,0.0072,-0.00676200749500192));
#805=CARTESIAN_POINT('',(0.0073250890642878,0.0072,-0.00676200749500192));
#806=CARTESIAN_POINT('',(0.0073250890642878,0.00547,-0.00676200749500192));
#807=CARTESIAN_POINT('',(0.00497671605137435,0.00547,-0.0060137597665121));
#808=CARTESIAN_POINT('',(0.00735403158608919,0.00547,-0.00642446780157243));
#809=CARTESIAN_POINT('',(0.00735403158608919,0.0072,-0.00642446780157243));
#810=CARTESIAN_POINT('',(0.00497671605137435,0.0072,-0.0060137597665121));
#811=CARTESIAN_POINT('',(-0.00497671605137435,0.00547,-0.0060137597665121));
#812=CARTESIAN_POINT('',(-0.00497671605137435,0.0072,-0.0060137597665121));
#813=CARTESIAN_POINT('',(-0.00735403954708184,0.0072,-0.00642446917692358));
#814=CARTESIAN_POINT('',(-0.00735403954708184,0.00547,-0.00642446917692358));
#815=CARTESIAN_POINT('',(0.,0.0072,0.00034677391329436));
#816=CARTESIAN_POINT('',(-0.00732509714321067,0.0072,-0.00659199749500192));
#817=CARTESIAN_POINT('',(0.0073250890642878,0.0072,-0.00659199680227035));
#818=CARTESIAN_POINT('',(0.0073250890642878,0.00547,-0.00659199680227035));
#819=CARTESIAN_POINT('',(-0.00732509714321067,0.00547,-0.00659199749500192));
#820=CARTESIAN_POINT('',(0.000645607826299965,0.00117,-0.0060137597665121));
#821=CARTESIAN_POINT('',(0.000645607826299965,0.00140227392924885,-0.00668117101130524));
#822=CARTESIAN_POINT('',(0.000645607826299965,0.00211986506068572,-0.00643143336754614));
#823=CARTESIAN_POINT('',(0.000645607826299965,0.00217574494145118,-0.00659199749500192));
#824=CARTESIAN_POINT('',(0.0243543921737,0.00332,-0.0060137597665121));
#825=CARTESIAN_POINT('',(0.0243543921737,0.00211986506068572,-0.00643143336754614));
#826=CARTESIAN_POINT('',(0.0243543921737,0.00217574494145118,-0.00659199749500192));
#827=MECHANICAL_DESIGN_GEOMETRIC_PRESENTATION_REPRESENTATION('',(#415,#370,
#371,#372,#373,#374,#375,#376,#377,#378,#379,#380,#381,#382,#383,#384,#385,
#386,#387,#388,#389,#390,#391),#828);
#828=(
GEOMETRIC_REPRESENTATION_CONTEXT(3)
GLOBAL_UNCERTAINTY_ASSIGNED_CONTEXT((#829))
GLOBAL_UNIT_ASSIGNED_CONTEXT((#832,#831,#830))
REPRESENTATION_CONTEXT('Part 1','TOP_LEVEL_ASSEMBLY_PART')
);
#829=UNCERTAINTY_MEASURE_WITH_UNIT(LENGTH_MEASURE(2.E-5),#832,
'DISTANCE_ACCURACY_VALUE','Maximum Tolerance applied to model');
#830=(
NAMED_UNIT(*)
SI_UNIT($,.STERADIAN.)
SOLID_ANGLE_UNIT()
);
#831=(
NAMED_UNIT(*)
PLANE_ANGLE_UNIT()
SI_UNIT($,.RADIAN.)
);
#832=(
LENGTH_UNIT()
NAMED_UNIT(*)
SI_UNIT($,.METRE.)
);
#833=PRODUCT_DEFINITION_SHAPE('','',#834);
#834=PRODUCT_DEFINITION('','',#836,#835);
#835=PRODUCT_DEFINITION_CONTEXT('',#842,'design');
#836=PRODUCT_DEFINITION_FORMATION_WITH_SPECIFIED_SOURCE('','',#838,
 .NOT_KNOWN.);
#837=PRODUCT_RELATED_PRODUCT_CATEGORY('','',(#838));
#838=PRODUCT('Part 1','Part 1','Part 1',(#840));
#839=PRODUCT_CATEGORY('','');
#840=PRODUCT_CONTEXT('',#842,'mechanical');
#841=APPLICATION_PROTOCOL_DEFINITION('international standard',
'ap242_managed_model_based_3d_engineering',2020,#842);
#842=APPLICATION_CONTEXT('managed model based 3d engineering');
ENDSEC;
END-ISO-10303-21;
